<svg xmlns="http://www.w3.org/2000/svg" viewBox="0 0 1080 540" font-family="-apple-system, 'Segoe UI', sans-serif">
  <title>영업이익 vs 영업현금흐름 — 흑자해에도 현금은 마이너스</title>
  <desc>영업이익과 영업현금흐름의 부호가 같은 해에 살지 않는다. 흑자 해 2019·2022엔 현금 음수, 2021엔 영업이익의 3.6배.</desc>
  <rect width="1080" height="540" fill="#0a0e1a"/>
  <text x="540.0" y="50" fill="#f1f5f9" font-size="26" font-weight="700" text-anchor="middle">영업이익 vs 영업현금흐름 — 흑자해에도 현금은 마이너스</text>
  <text x="540.0" y="82" fill="#64748b" font-size="15" text-anchor="middle">2019·2022 영업흑자인데 영업CF 음수, 2021 영업CF는 영업이익의 3.6배 (조원)</text>
  <line x1="110" y1="300" x2="1010" y2="300" stroke="#64748b" stroke-width="1.5"/>
  <text x="1018" y="305" fill="#64748b" font-size="12">0</text>
  <rect x="118.0" y="278.3" width="30" height="21.7" rx="2.5" fill="#3b82f6" opacity="0.9"/>
  <text x="133.0" y="270.3" fill="#3b82f6" font-size="11" font-weight="700" text-anchor="middle">0.090</text>
  <rect x="152.0" y="266.0" width="30" height="34.0" rx="2.5" fill="#fbbf24" opacity="0.9"/>
  <text x="167.0" y="258.0" fill="#fbbf24" font-size="11" font-weight="700" text-anchor="middle">0.141</text>
  <text x="150.0" y="525" fill="#64748b" font-size="13" text-anchor="middle">2018</text>
  <rect x="240.9" y="278.8" width="30" height="21.2" rx="2.5" fill="#3b82f6" opacity="0.9"/>
  <text x="255.9" y="270.8" fill="#3b82f6" font-size="11" font-weight="700" text-anchor="middle">0.088</text>
  <rect x="274.9" y="300.0" width="30" height="140.0" rx="2.5" fill="#fbbf24" opacity="0.9"/>
  <text x="289.9" y="457.0" fill="#fbbf24" font-size="11" font-weight="700" text-anchor="middle">-0.180</text>
  <text x="272.9" y="525" fill="#64748b" font-size="13" text-anchor="middle">2019</text>
  <rect x="363.7" y="252.3" width="30" height="47.7" rx="2.5" fill="#3b82f6" opacity="0.9"/>
  <text x="378.7" y="244.3" fill="#3b82f6" font-size="11" font-weight="700" text-anchor="middle">0.198</text>
  <rect x="397.7" y="207.6" width="30" height="92.4" rx="2.5" fill="#fbbf24" opacity="0.9"/>
  <text x="412.7" y="199.6" fill="#fbbf24" font-size="11" font-weight="700" text-anchor="middle">0.383</text>
  <text x="395.7" y="525" fill="#64748b" font-size="13" text-anchor="middle">2020</text>
  <rect x="486.6" y="258.0" width="30" height="42.0" rx="2.5" fill="#3b82f6" opacity="0.9"/>
  <text x="501.6" y="250.0" fill="#3b82f6" font-size="11" font-weight="700" text-anchor="middle">0.174</text>
  <rect x="520.6" y="150.0" width="30" height="150.0" rx="2.5" fill="#fbbf24" opacity="0.9"/>
  <text x="535.6" y="142.0" fill="#fbbf24" font-size="11" font-weight="700" text-anchor="middle">0.622</text>
  <text x="518.6" y="525" fill="#64748b" font-size="13" text-anchor="middle">2021</text>
  <rect x="609.4" y="253.9" width="30" height="46.1" rx="2.5" fill="#3b82f6" opacity="0.9"/>
  <text x="624.4" y="245.9" fill="#3b82f6" font-size="11" font-weight="700" text-anchor="middle">0.191</text>
  <rect x="643.4" y="300.0" width="30" height="57.6" rx="2.5" fill="#fbbf24" opacity="0.9"/>
  <text x="658.4" y="374.6" fill="#fbbf24" font-size="11" font-weight="700" text-anchor="middle">-0.074</text>
  <text x="641.4" y="525" fill="#64748b" font-size="13" text-anchor="middle">2022</text>
  <rect x="732.3" y="270.1" width="30" height="29.9" rx="2.5" fill="#3b82f6" opacity="0.9"/>
  <text x="747.3" y="262.1" fill="#3b82f6" font-size="11" font-weight="700" text-anchor="middle">0.124</text>
  <rect x="766.3" y="260.5" width="30" height="39.5" rx="2.5" fill="#fbbf24" opacity="0.9"/>
  <text x="781.3" y="252.5" fill="#fbbf24" font-size="11" font-weight="700" text-anchor="middle">0.164</text>
  <text x="764.3" y="525" fill="#64748b" font-size="13" text-anchor="middle">2023</text>
  <rect x="855.1" y="249.8" width="30" height="50.2" rx="2.5" fill="#3b82f6" opacity="0.9"/>
  <text x="870.1" y="241.8" fill="#3b82f6" font-size="11" font-weight="700" text-anchor="middle">0.208</text>
  <rect x="889.1" y="228.9" width="30" height="71.1" rx="2.5" fill="#fbbf24" opacity="0.9"/>
  <text x="904.1" y="220.9" fill="#fbbf24" font-size="11" font-weight="700" text-anchor="middle">0.295</text>
  <text x="887.1" y="525" fill="#64748b" font-size="13" text-anchor="middle">2024</text>
  <rect x="978.0" y="258.5" width="30" height="41.5" rx="2.5" fill="#3b82f6" opacity="0.9"/>
  <text x="993.0" y="250.5" fill="#3b82f6" font-size="11" font-weight="700" text-anchor="middle">0.172</text>
  <rect x="1012.0" y="243.8" width="30" height="56.2" rx="2.5" fill="#fbbf24" opacity="0.9"/>
  <text x="1027.0" y="235.8" fill="#fbbf24" font-size="11" font-weight="700" text-anchor="middle">0.233</text>
  <text x="1010.0" y="525" fill="#64748b" font-size="13" text-anchor="middle">2025</text>
  <text x="518.6" y="120" fill="#fbbf24" font-size="14" font-weight="700" text-anchor="middle">2021 영업CF 0.622조 = 영업이익의 3.6배</text>
  <line x1="518.6" y1="128" x2="518.6" y2="298.0" stroke="#fbbf24" stroke-width="1" stroke-dasharray="3 3" opacity="0.5"/>
  <rect x="150" y="100" width="14" height="11" rx="2" fill="#3b82f6"/><text x="170" y="110" fill="#94a3b8" font-size="13">영업이익</text>
  <rect x="290" y="100" width="14" height="11" rx="2" fill="#fbbf24"/><text x="310" y="110" fill="#94a3b8" font-size="13">영업CF</text>
</svg>
