<svg xmlns="http://www.w3.org/2000/svg" viewBox="0 0 1080 540" font-family="-apple-system, 'Segoe UI', sans-serif">
  <title>변동성은 아랫줄에 산다</title>
  <desc>매출은 2.2~2.6조 좁은 띠로 평평한 반면, 영업이익·순이익·영업현금흐름은 아래로 갈수록 진폭이 커진다.</desc>
  <rect width="1080" height="540" fill="#0a0e1a"/>
  <text x="540.0" y="50" fill="#f1f5f9" font-size="26" font-weight="700" text-anchor="middle">변동성은 아랫줄에 산다</text>
  <text x="540.0" y="82" fill="#64748b" font-size="15" text-anchor="middle">하이트진로 8개년 — 위는 평평, 아래로 갈수록 진폭이 커진다 (dartlab 연결)</text>
  <line x1="180" y1="160" x2="1010" y2="160" stroke="#334155" stroke-width="0.8" stroke-dasharray="2 4"/>
  <text x="40" y="156" fill="#22c55e" font-size="15" font-weight="700">매출</text>
  <text x="40" y="176" fill="#64748b" font-size="11">2.2~2.6조 좁은 띠(평평)</text>
  <polyline points="210.0,176.0 322.9,169.3 435.7,159.4 548.6,161.8 661.4,148.5 774.3,147.5 887.1,144.0 1000.0,148.5" fill="none" stroke="#22c55e" stroke-width="2.5" stroke-linejoin="round" opacity="0.95"/>
  <circle cx="210.0" cy="176.0" r="3" fill="#22c55e"/>
  <circle cx="322.9" cy="169.3" r="3" fill="#22c55e"/>
  <circle cx="435.7" cy="159.4" r="3" fill="#22c55e"/>
  <circle cx="548.6" cy="161.8" r="3" fill="#22c55e"/>
  <circle cx="661.4" cy="148.5" r="3" fill="#22c55e"/>
  <circle cx="774.3" cy="147.5" r="3" fill="#22c55e"/>
  <circle cx="887.1" cy="144.0" r="3" fill="#22c55e"/>
  <circle cx="1000.0" cy="148.5" r="3" fill="#22c55e"/>
  <line x1="180" y1="258" x2="1010" y2="258" stroke="#334155" stroke-width="0.8" stroke-dasharray="2 4"/>
  <text x="40" y="254" fill="#3b82f6" font-size="15" font-weight="700">영업이익</text>
  <text x="40" y="274" fill="#64748b" font-size="11">4%↔8% 진동</text>
  <polyline points="210.0,283.1 322.9,284.0 435.7,236.3 548.6,246.7 661.4,239.4 774.3,268.4 887.1,232.0 1000.0,247.6" fill="none" stroke="#3b82f6" stroke-width="2.5" stroke-linejoin="round" opacity="0.95"/>
  <circle cx="210.0" cy="283.1" r="3" fill="#3b82f6"/>
  <circle cx="322.9" cy="284.0" r="3" fill="#3b82f6"/>
  <circle cx="435.7" cy="236.3" r="3" fill="#3b82f6"/>
  <circle cx="548.6" cy="246.7" r="3" fill="#3b82f6"/>
  <circle cx="661.4" cy="239.4" r="3" fill="#3b82f6"/>
  <circle cx="774.3" cy="268.4" r="3" fill="#3b82f6"/>
  <circle cx="887.1" cy="232.0" r="3" fill="#3b82f6"/>
  <circle cx="1000.0" cy="247.6" r="3" fill="#3b82f6"/>
  <line x1="180" y1="356" x2="1010" y2="356" stroke="#334155" stroke-width="0.8" stroke-dasharray="2 4"/>
  <text x="40" y="352" fill="#f59e0b" font-size="15" font-weight="700">순이익</text>
  <text x="40" y="372" fill="#64748b" font-size="11">부호 전환(2019 적자)</text>
  <polyline points="210.0,358.5 322.9,390.0 435.7,326.4 548.6,333.8 661.4,326.4 774.3,351.6 887.1,322.0 1000.0,349.1" fill="none" stroke="#f59e0b" stroke-width="2.5" stroke-linejoin="round" opacity="0.95"/>
  <circle cx="210.0" cy="358.5" r="3" fill="#f59e0b"/>
  <circle cx="322.9" cy="390.0" r="3" fill="#f59e0b"/>
  <circle cx="435.7" cy="326.4" r="3" fill="#f59e0b"/>
  <circle cx="548.6" cy="333.8" r="3" fill="#f59e0b"/>
  <circle cx="661.4" cy="326.4" r="3" fill="#f59e0b"/>
  <circle cx="774.3" cy="351.6" r="3" fill="#f59e0b"/>
  <circle cx="887.1" cy="322.0" r="3" fill="#f59e0b"/>
  <circle cx="1000.0" cy="349.1" r="3" fill="#f59e0b"/>
  <line x1="180" y1="458" x2="1010" y2="458" stroke="#334155" stroke-width="0.8" stroke-dasharray="2 4"/>
  <text x="40" y="454" fill="#fbbf24" font-size="15" font-weight="700">영업CF</text>
  <text x="40" y="474" fill="#64748b" font-size="11">−0.18↔+0.62조 출렁</text>
  <polyline points="210.0,466.0 322.9,498.0 435.7,441.8 548.6,418.0 661.4,487.4 774.3,463.7 887.1,450.6 1000.0,456.8" fill="none" stroke="#fbbf24" stroke-width="2.5" stroke-linejoin="round" opacity="0.95"/>
  <circle cx="210.0" cy="466.0" r="3" fill="#fbbf24"/>
  <circle cx="322.9" cy="498.0" r="3" fill="#fbbf24"/>
  <circle cx="435.7" cy="441.8" r="3" fill="#fbbf24"/>
  <circle cx="548.6" cy="418.0" r="3" fill="#fbbf24"/>
  <circle cx="661.4" cy="487.4" r="3" fill="#fbbf24"/>
  <circle cx="774.3" cy="463.7" r="3" fill="#fbbf24"/>
  <circle cx="887.1" cy="450.6" r="3" fill="#fbbf24"/>
  <circle cx="1000.0" cy="456.8" r="3" fill="#fbbf24"/>
  <text x="210.0" y="515" fill="#64748b" font-size="12" text-anchor="middle">2018</text>
  <text x="322.9" y="515" fill="#64748b" font-size="12" text-anchor="middle">2019</text>
  <text x="435.7" y="515" fill="#64748b" font-size="12" text-anchor="middle">2020</text>
  <text x="548.6" y="515" fill="#64748b" font-size="12" text-anchor="middle">2021</text>
  <text x="661.4" y="515" fill="#64748b" font-size="12" text-anchor="middle">2022</text>
  <text x="774.3" y="515" fill="#64748b" font-size="12" text-anchor="middle">2023</text>
  <text x="887.1" y="515" fill="#64748b" font-size="12" text-anchor="middle">2024</text>
  <text x="1000.0" y="515" fill="#64748b" font-size="12" text-anchor="middle">2025</text>
</svg>
