<svg xmlns="http://www.w3.org/2000/svg" viewBox="0 0 780 450" font-family="Malgun Gothic, 'Apple SD Gothic Neo', sans-serif">
<rect width="780" height="450" fill="#0a0e1a"/>
<text x="70" y="34" fill="#e2e8f0" font-size="20" font-weight="700">영업이익률 — 특수의 스파이크와 정상화</text>
<text x="70" y="54" fill="#94a3b8" font-size="12.5">2018~2025, 거의 코로나 전으로 회귀</text>
<line x1="70" y1="394.0" x2="710" y2="394.0" stroke="#1e293b" stroke-width="1"/>
<text x="62" y="398.0" fill="#94a3b8" font-size="11" text-anchor="end">0.0</text>
<line x1="70" y1="311.5" x2="710" y2="311.5" stroke="#1e293b" stroke-width="1"/>
<text x="62" y="315.5" fill="#94a3b8" font-size="11" text-anchor="end">6.7</text>
<line x1="70" y1="229.0" x2="710" y2="229.0" stroke="#1e293b" stroke-width="1"/>
<text x="62" y="233.0" fill="#94a3b8" font-size="11" text-anchor="end">13.4</text>
<line x1="70" y1="146.5" x2="710" y2="146.5" stroke="#1e293b" stroke-width="1"/>
<text x="62" y="150.5" fill="#94a3b8" font-size="11" text-anchor="end">20.1</text>
<line x1="70" y1="64.0" x2="710" y2="64.0" stroke="#1e293b" stroke-width="1"/>
<text x="62" y="68.0" fill="#94a3b8" font-size="11" text-anchor="end">26.8</text>
<text x="110.0" y="414" fill="#94a3b8" font-size="11" text-anchor="middle">2018</text>
<text x="190.0" y="414" fill="#94a3b8" font-size="11" text-anchor="middle">2019</text>
<text x="270.0" y="414" fill="#94a3b8" font-size="11" text-anchor="middle">2020</text>
<text x="350.0" y="414" fill="#94a3b8" font-size="11" text-anchor="middle">2021</text>
<text x="430.0" y="414" fill="#94a3b8" font-size="11" text-anchor="middle">2022</text>
<text x="510.0" y="414" fill="#94a3b8" font-size="11" text-anchor="middle">2023</text>
<text x="590.0" y="414" fill="#94a3b8" font-size="11" text-anchor="middle">2024</text>
<text x="670.0" y="414" fill="#94a3b8" font-size="11" text-anchor="middle">2025</text>
<polyline points="110.0,203.2 190.0,172.5 270.0,96.1 350.0,78.9 430.0,163.8 510.0,197.1 590.0,183.5 670.0,179.8" fill="none" stroke="#fbbf24" stroke-width="3" stroke-linejoin="round"/>
<circle cx="110.0" cy="203.2" r="3.5" fill="#fbbf24"/>
<circle cx="190.0" cy="172.5" r="3.5" fill="#fbbf24"/>
<circle cx="270.0" cy="96.1" r="3.5" fill="#fbbf24"/>
<circle cx="350.0" cy="78.9" r="3.5" fill="#fbbf24"/>
<circle cx="430.0" cy="163.8" r="3.5" fill="#fbbf24"/>
<circle cx="510.0" cy="197.1" r="3.5" fill="#fbbf24"/>
<circle cx="590.0" cy="183.5" r="3.5" fill="#fbbf24"/>
<circle cx="670.0" cy="179.8" r="3.5" fill="#fbbf24"/>
<text x="670.0" y="169.8" fill="#fbbf24" font-size="11" font-weight="700" text-anchor="end">17.4</text>
<text x="70" y="436" fill="#94a3b8" font-size="11">단위: %</text>
</svg>
