<svg xmlns="http://www.w3.org/2000/svg" viewBox="0 0 780 450" font-family="Malgun Gothic, 'Apple SD Gothic Neo', sans-serif">
<rect width="780" height="450" fill="#0a0e1a"/>
<text x="70" y="34" fill="#e2e8f0" font-size="20" font-weight="700">매출 — 2022→2023 실제 감소</text>
<text x="70" y="54" fill="#94a3b8" font-size="12.5">2018~2025 ($B)</text>
<line x1="70" y1="394.0" x2="710" y2="394.0" stroke="#1e293b" stroke-width="1"/>
<text x="62" y="398.0" fill="#94a3b8" font-size="11" text-anchor="end">0.0</text>
<line x1="70" y1="311.5" x2="710" y2="311.5" stroke="#1e293b" stroke-width="1"/>
<text x="62" y="315.5" fill="#94a3b8" font-size="11" text-anchor="end">12.6</text>
<line x1="70" y1="229.0" x2="710" y2="229.0" stroke="#1e293b" stroke-width="1"/>
<text x="62" y="233.0" fill="#94a3b8" font-size="11" text-anchor="end">25.1</text>
<line x1="70" y1="146.5" x2="710" y2="146.5" stroke="#1e293b" stroke-width="1"/>
<text x="62" y="150.5" fill="#94a3b8" font-size="11" text-anchor="end">37.7</text>
<line x1="70" y1="64.0" x2="710" y2="64.0" stroke="#1e293b" stroke-width="1"/>
<text x="62" y="68.0" fill="#94a3b8" font-size="11" text-anchor="end">50.3</text>
<text x="110.0" y="414" fill="#94a3b8" font-size="11" text-anchor="middle">2018</text>
<text x="190.0" y="414" fill="#94a3b8" font-size="11" text-anchor="middle">2019</text>
<text x="270.0" y="414" fill="#94a3b8" font-size="11" text-anchor="middle">2020</text>
<text x="350.0" y="414" fill="#94a3b8" font-size="11" text-anchor="middle">2021</text>
<text x="430.0" y="414" fill="#94a3b8" font-size="11" text-anchor="middle">2022</text>
<text x="510.0" y="414" fill="#94a3b8" font-size="11" text-anchor="middle">2023</text>
<text x="590.0" y="414" fill="#94a3b8" font-size="11" text-anchor="middle">2024</text>
<text x="670.0" y="414" fill="#94a3b8" font-size="11" text-anchor="middle">2025</text>
<rect x="85.2" y="234.2" width="49.6" height="159.8" rx="2" fill="#3b82f6"/>
<text x="110.0" y="228.2" fill="#e2e8f0" font-size="10.5" text-anchor="middle">24.4</text>
<rect x="165.2" y="226.4" width="49.6" height="167.6" rx="2" fill="#3b82f6"/>
<text x="190.0" y="220.4" fill="#e2e8f0" font-size="10.5" text-anchor="middle">25.5</text>
<rect x="245.2" y="182.6" width="49.6" height="211.4" rx="2" fill="#3b82f6"/>
<text x="270.0" y="176.6" fill="#e2e8f0" font-size="10.5" text-anchor="middle">32.2</text>
<rect x="325.2" y="136.8" width="49.6" height="257.2" rx="2" fill="#3b82f6"/>
<text x="350.0" y="130.8" fill="#e2e8f0" font-size="10.5" text-anchor="middle">39.2</text>
<rect x="405.2" y="99.4" width="49.6" height="294.6" rx="2" fill="#3b82f6"/>
<text x="430.0" y="93.4" fill="#e2e8f0" font-size="10.5" text-anchor="middle">44.9</text>
<rect x="485.2" y="112.8" width="49.6" height="281.2" rx="2" fill="#ef4444"/>
<text x="510.0" y="106.8" fill="#e2e8f0" font-size="10.5" text-anchor="middle">42.9</text>
<rect x="565.2" y="112.7" width="49.6" height="281.3" rx="2" fill="#3b82f6"/>
<text x="590.0" y="106.7" fill="#e2e8f0" font-size="10.5" text-anchor="middle">42.9</text>
<rect x="645.2" y="101.7" width="49.6" height="292.3" rx="2" fill="#3b82f6"/>
<text x="670.0" y="95.7" fill="#e2e8f0" font-size="10.5" text-anchor="middle">44.6</text>
<text x="70" y="436" fill="#94a3b8" font-size="11">단위: $B</text>
</svg>
