<svg xmlns="http://www.w3.org/2000/svg" width="1200" height="720" viewBox="0 0 1200 720">
  <rect width="1200" height="720" fill="#0a0e1a"/>
  <text x="74" y="84" fill="#f1f5f9" font-size="34" font-weight="800" font-family="-apple-system, Segoe UI, sans-serif">AI 서버는 매출보다 먼저 운전자본을 먹는다</text>
  <text x="74" y="122" fill="#94a3b8" font-size="18" font-family="-apple-system, Segoe UI, sans-serif">대형 주문은 GPU·메모리·네트워킹 부품 선확보, 재고, 매출채권, 매입채무를 동시에 키운다</text>
  <g fill="#111f33" stroke="#334155" stroke-width="2" font-family="-apple-system, Segoe UI, sans-serif">
    <rect x="100" y="245" width="210" height="120" rx="18"/>
    <rect x="370" y="245" width="210" height="120" rx="18"/>
    <rect x="640" y="245" width="210" height="120" rx="18"/>
    <rect x="910" y="245" width="210" height="120" rx="18"/>
  </g>
  <g font-family="-apple-system, Segoe UI, sans-serif" font-size="20" font-weight="800">
    <text x="137" y="302" fill="#f1f5f9">주문</text><text x="124" y="334" fill="#22c55e">$64B+</text>
    <text x="410" y="302" fill="#f1f5f9">부품 확보</text><text x="398" y="334" fill="#fbbf24">GPU·HBM</text>
    <text x="682" y="302" fill="#f1f5f9">제조·출하</text><text x="674" y="334" fill="#3b82f6">$25B+</text>
    <text x="950" y="302" fill="#f1f5f9">수금</text><text x="940" y="334" fill="#94a3b8">매출채권</text>
  </g>
  <path d="M315 305 L363 305" stroke="#fbbf24" stroke-width="5" marker-end="url(#arrow)"/>
  <path d="M585 305 L633 305" stroke="#fbbf24" stroke-width="5" marker-end="url(#arrow)"/>
  <path d="M855 305 L903 305" stroke="#fbbf24" stroke-width="5" marker-end="url(#arrow)"/>
  <path d="M1015 382 C870 525 360 525 205 382" stroke="#475569" stroke-width="4" fill="none" marker-end="url(#arrow2)"/>
  <text x="280" y="560" fill="#f1f5f9" font-size="26" font-weight="800" font-family="-apple-system, Segoe UI, sans-serif">FY2026 영업CF $11.2B</text>
  <text x="280" y="596" fill="#94a3b8" font-size="18" font-family="-apple-system, Segoe UI, sans-serif">강하지만, AI 수요는 재고·매출채권·매입채무 타이밍 리스크를 동반한다</text>
  <defs>
    <marker id="arrow" markerWidth="10" markerHeight="10" refX="8" refY="3" orient="auto"><path d="M0,0 L0,6 L9,3 z" fill="#fbbf24"/></marker>
    <marker id="arrow2" markerWidth="10" markerHeight="10" refX="8" refY="3" orient="auto"><path d="M0,0 L0,6 L9,3 z" fill="#475569"/></marker>
  </defs>
</svg>
