<svg xmlns="http://www.w3.org/2000/svg" viewBox="0 0 1080 540" font-family="-apple-system, 'Segoe UI', sans-serif">
  <title>매출 8개년 — 8년 만에 거의 두 배</title>
  <desc>매출이 8년간 1.260조에서 2.399조로 +90% 성장했으나 2022년은 사실상 정체였다.</desc>
  <rect width="1080" height="540" fill="#0a0e1a"/>
  <text x="540.0" y="50" fill="#f1f5f9" font-size="25" font-weight="700" text-anchor="middle">매출 8개년 — 8년 만에 거의 두 배</text>
  <text x="540.0" y="82" fill="#64748b" font-size="15" text-anchor="middle">1.260조→2.399조 +90%, 단 2022년은 정체(+0.5%) (조원, dartlab 연결)</text>
  <line x1="110" y1="430" x2="1010" y2="430" stroke="#64748b" stroke-width="1.5"/>
  <text x="1018" y="435" fill="#64748b" font-size="12">0</text>
  <rect x="119.0" y="256.7" width="62" height="173.3" rx="3" fill="#22c55e" opacity="0.85"/>
  <text x="150.0" y="246.7" fill="#e2e8f0" font-size="13" font-weight="700" text-anchor="middle">1.260</text>
  <text x="150.0" y="525" fill="#64748b" font-size="13" text-anchor="middle">2018</text>
  <rect x="241.9" y="246.9" width="62" height="183.1" rx="3" fill="#22c55e" opacity="0.85"/>
  <text x="272.9" y="236.9" fill="#e2e8f0" font-size="13" font-weight="700" text-anchor="middle">1.331</text>
  <text x="272.9" y="525" fill="#64748b" font-size="13" text-anchor="middle">2019</text>
  <rect x="364.7" y="239.8" width="62" height="190.2" rx="3" fill="#22c55e" opacity="0.85"/>
  <text x="395.7" y="229.8" fill="#e2e8f0" font-size="13" font-weight="700" text-anchor="middle">1.383</text>
  <text x="395.7" y="525" fill="#64748b" font-size="13" text-anchor="middle">2020</text>
  <rect x="487.6" y="211.0" width="62" height="219.0" rx="3" fill="#22c55e" opacity="0.85"/>
  <text x="518.6" y="201.0" fill="#e2e8f0" font-size="13" font-weight="700" text-anchor="middle">1.592</text>
  <text x="518.6" y="525" fill="#64748b" font-size="13" text-anchor="middle">2021</text>
  <rect x="610.4" y="209.9" width="62" height="220.1" rx="3" fill="#f59e0b" opacity="1"/>
  <text x="641.4" y="199.9" fill="#e2e8f0" font-size="13" font-weight="700" text-anchor="middle">1.600</text>
  <text x="641.4" y="525" fill="#64748b" font-size="13" text-anchor="middle">2022</text>
  <rect x="733.3" y="185.4" width="62" height="244.6" rx="3" fill="#22c55e" opacity="0.85"/>
  <text x="764.3" y="175.4" fill="#e2e8f0" font-size="13" font-weight="700" text-anchor="middle">1.778</text>
  <text x="764.3" y="525" fill="#64748b" font-size="13" text-anchor="middle">2023</text>
  <rect x="856.1" y="132.1" width="62" height="297.9" rx="3" fill="#22c55e" opacity="0.85"/>
  <text x="887.1" y="122.1" fill="#e2e8f0" font-size="13" font-weight="700" text-anchor="middle">2.166</text>
  <text x="887.1" y="525" fill="#64748b" font-size="13" text-anchor="middle">2024</text>
  <rect x="979.0" y="100.0" width="62" height="330.0" rx="3" fill="#22c55e" opacity="0.85"/>
  <text x="1010.0" y="90.0" fill="#e2e8f0" font-size="13" font-weight="700" text-anchor="middle">2.399</text>
  <text x="1010.0" y="525" fill="#64748b" font-size="13" text-anchor="middle">2025</text>
</svg>
