<svg xmlns="http://www.w3.org/2000/svg" viewBox="0 0 1080 540" font-family="-apple-system, 'Segoe UI', sans-serif">
  <title>영업현금흐름 vs 순이익 — 또 다른 박자</title>
  <desc>2023년 영업현금흐름은 순이익의 6.08배였다가 이후 하락. 이익이 오를 때 현금이 내려가 이익≠현금을 보인다.</desc>
  <rect width="1080" height="540" fill="#0a0e1a"/>
  <text x="540.0" y="50" fill="#f1f5f9" font-size="25" font-weight="700" text-anchor="middle">영업현금흐름 vs 순이익 — 또 다른 박자</text>
  <text x="540.0" y="82" fill="#64748b" font-size="15" text-anchor="middle">2023 영업CF 0.231조 = 그 해 순이익(0.038조)의 6.08배, 이후 하락 — 이익선과 현금선의 역행 (조원)</text>
  <line x1="110" y1="300" x2="1010" y2="300" stroke="#64748b" stroke-width="1.5"/>
  <text x="1018" y="305" fill="#64748b" font-size="12">0</text>
  <rect x="120.0" y="300.0" width="28" height="80.0" rx="2.5" fill="#22c55e" opacity="0.9"/>
  <text x="134.0" y="397.0" fill="#22c55e" font-size="11" font-weight="700" text-anchor="middle">-0.055</text>
  <rect x="152.0" y="281.8" width="28" height="18.2" rx="2.5" fill="#f59e0b" opacity="0.9"/>
  <text x="166.0" y="273.8" fill="#f59e0b" font-size="11" font-weight="700" text-anchor="middle">0.021</text>
  <text x="150.0" y="525" fill="#64748b" font-size="13" text-anchor="middle">2018</text>
  <rect x="242.9" y="217.7" width="28" height="82.3" rx="2.5" fill="#22c55e" opacity="0.9"/>
  <text x="256.9" y="209.7" fill="#22c55e" font-size="11" font-weight="700" text-anchor="middle">0.095</text>
  <rect x="274.9" y="284.4" width="28" height="15.6" rx="2.5" fill="#f59e0b" opacity="0.9"/>
  <text x="288.9" y="276.4" fill="#f59e0b" font-size="11" font-weight="700" text-anchor="middle">0.018</text>
  <text x="272.9" y="525" fill="#64748b" font-size="13" text-anchor="middle">2019</text>
  <rect x="365.7" y="263.6" width="28" height="36.4" rx="2.5" fill="#22c55e" opacity="0.9"/>
  <text x="379.7" y="255.6" fill="#22c55e" font-size="11" font-weight="700" text-anchor="middle">0.042</text>
  <rect x="397.7" y="300.0" width="28" height="42.2" rx="2.5" fill="#f59e0b" opacity="0.9"/>
  <text x="411.7" y="359.2" fill="#f59e0b" font-size="11" font-weight="700" text-anchor="middle">-0.029</text>
  <text x="395.7" y="525" fill="#64748b" font-size="13" text-anchor="middle">2020</text>
  <rect x="488.6" y="213.4" width="28" height="86.6" rx="2.5" fill="#22c55e" opacity="0.9"/>
  <text x="502.6" y="205.4" fill="#22c55e" font-size="11" font-weight="700" text-anchor="middle">0.100</text>
  <rect x="520.6" y="270.6" width="28" height="29.4" rx="2.5" fill="#f59e0b" opacity="0.9"/>
  <text x="534.6" y="262.6" fill="#f59e0b" font-size="11" font-weight="700" text-anchor="middle">0.034</text>
  <text x="518.6" y="525" fill="#64748b" font-size="13" text-anchor="middle">2021</text>
  <rect x="611.4" y="210.8" width="28" height="89.2" rx="2.5" fill="#22c55e" opacity="0.9"/>
  <text x="625.4" y="202.8" fill="#22c55e" font-size="11" font-weight="700" text-anchor="middle">0.103</text>
  <rect x="643.4" y="300.0" width="28" height="23.3" rx="2.5" fill="#f59e0b" opacity="0.9"/>
  <text x="657.4" y="340.3" fill="#f59e0b" font-size="11" font-weight="700" text-anchor="middle">-0.016</text>
  <text x="641.4" y="525" fill="#64748b" font-size="13" text-anchor="middle">2022</text>
  <rect x="734.3" y="100.0" width="28" height="200.0" rx="2.5" fill="#22c55e" opacity="0.9"/>
  <text x="748.3" y="92.0" fill="#22c55e" font-size="11" font-weight="700" text-anchor="middle">0.231</text>
  <rect x="766.3" y="267.1" width="28" height="32.9" rx="2.5" fill="#f59e0b" opacity="0.9"/>
  <text x="780.3" y="259.1" fill="#f59e0b" font-size="11" font-weight="700" text-anchor="middle">0.038</text>
  <text x="764.3" y="525" fill="#64748b" font-size="13" text-anchor="middle">2023</text>
  <rect x="857.1" y="236.8" width="28" height="63.2" rx="2.5" fill="#22c55e" opacity="0.9"/>
  <text x="871.1" y="228.8" fill="#22c55e" font-size="11" font-weight="700" text-anchor="middle">0.073</text>
  <rect x="889.1" y="223.8" width="28" height="76.2" rx="2.5" fill="#f59e0b" opacity="0.9"/>
  <text x="903.1" y="215.8" fill="#f59e0b" font-size="11" font-weight="700" text-anchor="middle">0.088</text>
  <text x="887.1" y="525" fill="#64748b" font-size="13" text-anchor="middle">2024</text>
  <rect x="980.0" y="224.7" width="28" height="75.3" rx="2.5" fill="#22c55e" opacity="0.9"/>
  <text x="994.0" y="216.7" fill="#22c55e" font-size="11" font-weight="700" text-anchor="middle">0.087</text>
  <rect x="1012.0" y="186.6" width="28" height="113.4" rx="2.5" fill="#f59e0b" opacity="0.9"/>
  <text x="1026.0" y="178.6" fill="#f59e0b" font-size="11" font-weight="700" text-anchor="middle">0.131</text>
  <text x="1010.0" y="525" fill="#64748b" font-size="13" text-anchor="middle">2025</text>
  <text x="764.3" y="118" fill="#fbbf24" font-size="14" font-weight="700" text-anchor="middle">2023 영업CF = 순이익의 6.08배</text>
  <rect x="150" y="100" width="14" height="11" rx="2" fill="#22c55e"/><text x="170" y="110" fill="#94a3b8" font-size="13">영업CF</text>
  <rect x="320" y="100" width="14" height="11" rx="2" fill="#f59e0b"/><text x="340" y="110" fill="#94a3b8" font-size="13">순이익</text>
</svg>
