<svg xmlns="http://www.w3.org/2000/svg" viewBox="0 0 1080 540" font-family="-apple-system, 'Segoe UI', sans-serif">
  <title>영업이익 vs 순이익 — 영업선 아래에서 새는 구멍</title>
  <desc>2020·2022년은 영업이익이 흑자인데 순이익이 적자. 영업선 아래에서 이익이 새어 나간다.</desc>
  <rect width="1080" height="540" fill="#0a0e1a"/>
  <text x="540.0" y="50" fill="#f1f5f9" font-size="25" font-weight="700" text-anchor="middle">영업이익 vs 순이익 — 영업선 아래에서 새는 구멍</text>
  <text x="540.0" y="82" fill="#64748b" font-size="15" text-anchor="middle">2020·2022는 영업흑자(OPM +4.8%·+3.3%)인데 순이익 적자 — 영업선 아래에서 사라진다 (조원)</text>
  <line x1="110" y1="300" x2="1010" y2="300" stroke="#64748b" stroke-width="1.5"/>
  <text x="1018" y="305" fill="#64748b" font-size="12">0</text>
  <rect x="120.0" y="246.9" width="28" height="53.1" rx="2.5" fill="#3b82f6" opacity="0.9"/>
  <text x="134.0" y="238.9" fill="#3b82f6" font-size="11" font-weight="700" text-anchor="middle">0.052</text>
  <rect x="152.0" y="278.6" width="28" height="21.4" rx="2.5" fill="#f59e0b" opacity="0.9"/>
  <text x="166.0" y="270.6" fill="#f59e0b" font-size="11" font-weight="700" text-anchor="middle">0.021</text>
  <text x="150.0" y="525" fill="#64748b" font-size="13" text-anchor="middle">2018</text>
  <rect x="242.9" y="244.9" width="28" height="55.1" rx="2.5" fill="#3b82f6" opacity="0.9"/>
  <text x="256.9" y="236.9" fill="#3b82f6" font-size="11" font-weight="700" text-anchor="middle">0.054</text>
  <rect x="274.9" y="281.6" width="28" height="18.4" rx="2.5" fill="#f59e0b" opacity="0.9"/>
  <text x="288.9" y="273.6" fill="#f59e0b" font-size="11" font-weight="700" text-anchor="middle">0.018</text>
  <text x="272.9" y="525" fill="#64748b" font-size="13" text-anchor="middle">2019</text>
  <rect x="365.7" y="231.6" width="28" height="68.4" rx="2.5" fill="#3b82f6" opacity="0.9"/>
  <text x="379.7" y="223.6" fill="#3b82f6" font-size="11" font-weight="700" text-anchor="middle">0.067</text>
  <rect x="397.7" y="300.0" width="28" height="120.0" rx="2.5" fill="#f59e0b" opacity="0.9"/>
  <text x="411.7" y="437.0" fill="#f59e0b" font-size="11" font-weight="700" text-anchor="middle">-0.029</text>
  <text x="395.7" y="525" fill="#64748b" font-size="13" text-anchor="middle">2020</text>
  <rect x="488.6" y="174.5" width="28" height="125.5" rx="2.5" fill="#3b82f6" opacity="0.9"/>
  <text x="502.6" y="166.5" fill="#3b82f6" font-size="11" font-weight="700" text-anchor="middle">0.123</text>
  <rect x="520.6" y="265.3" width="28" height="34.7" rx="2.5" fill="#f59e0b" opacity="0.9"/>
  <text x="534.6" y="257.3" fill="#f59e0b" font-size="11" font-weight="700" text-anchor="middle">0.034</text>
  <text x="518.6" y="525" fill="#64748b" font-size="13" text-anchor="middle">2021</text>
  <rect x="611.4" y="245.9" width="28" height="54.1" rx="2.5" fill="#3b82f6" opacity="0.9"/>
  <text x="625.4" y="237.9" fill="#3b82f6" font-size="11" font-weight="700" text-anchor="middle">0.053</text>
  <rect x="643.4" y="300.0" width="28" height="66.2" rx="2.5" fill="#f59e0b" opacity="0.9"/>
  <text x="657.4" y="383.2" fill="#f59e0b" font-size="11" font-weight="700" text-anchor="middle">-0.016</text>
  <text x="641.4" y="525" fill="#64748b" font-size="13" text-anchor="middle">2022</text>
  <rect x="734.3" y="181.6" width="28" height="118.4" rx="2.5" fill="#3b82f6" opacity="0.9"/>
  <text x="748.3" y="173.6" fill="#3b82f6" font-size="11" font-weight="700" text-anchor="middle">0.116</text>
  <rect x="766.3" y="261.2" width="28" height="38.8" rx="2.5" fill="#f59e0b" opacity="0.9"/>
  <text x="780.3" y="253.2" fill="#f59e0b" font-size="11" font-weight="700" text-anchor="middle">0.038</text>
  <text x="764.3" y="525" fill="#64748b" font-size="13" text-anchor="middle">2023</text>
  <rect x="857.1" y="121.4" width="28" height="178.6" rx="2.5" fill="#3b82f6" opacity="0.9"/>
  <text x="871.1" y="113.4" fill="#3b82f6" font-size="11" font-weight="700" text-anchor="middle">0.175</text>
  <rect x="889.1" y="210.2" width="28" height="89.8" rx="2.5" fill="#f59e0b" opacity="0.9"/>
  <text x="903.1" y="202.2" fill="#f59e0b" font-size="11" font-weight="700" text-anchor="middle">0.088</text>
  <text x="887.1" y="525" fill="#64748b" font-size="13" text-anchor="middle">2024</text>
  <rect x="980.0" y="100.0" width="28" height="200.0" rx="2.5" fill="#3b82f6" opacity="0.9"/>
  <text x="994.0" y="92.0" fill="#3b82f6" font-size="11" font-weight="700" text-anchor="middle">0.196</text>
  <rect x="1012.0" y="166.3" width="28" height="133.7" rx="2.5" fill="#f59e0b" opacity="0.9"/>
  <text x="1026.0" y="158.3" fill="#f59e0b" font-size="11" font-weight="700" text-anchor="middle">0.131</text>
  <text x="1010.0" y="525" fill="#64748b" font-size="13" text-anchor="middle">2025</text>
  <text x="641.4" y="118" fill="#fbbf24" font-size="14" font-weight="700" text-anchor="middle">2022: 영업 +0.053조 → 순익 −0.016조</text>
  <rect x="150" y="100" width="14" height="11" rx="2" fill="#3b82f6"/><text x="170" y="110" fill="#94a3b8" font-size="13">영업이익</text>
  <rect x="320" y="100" width="14" height="11" rx="2" fill="#f59e0b"/><text x="340" y="110" fill="#94a3b8" font-size="13">순이익</text>
</svg>
