<svg xmlns="http://www.w3.org/2000/svg" viewBox="0 0 900 506" font-family="Pretendard, -apple-system, Segoe UI, sans-serif">
<rect width="900" height="506" fill="#0a0e1a"/>
<text x="40" y="46" fill="#e2e8f0" font-size="25" font-weight="700">매출: 107B(2011)에서 57B(2021)로, 다시 67.5B</text>
<text x="40" y="74" fill="#64748b" font-size="15">제공 시계열 정점 대비 약 -46% (의도적 축소 포함)</text>
<line x1="70" y1="410.0" x2="830" y2="410.0" stroke="#1e293b" stroke-width="1"/>
<text x="60" y="414.0" fill="#94a3b8" font-size="12" text-anchor="end">-5.35</text>
<line x1="70" y1="350.0" x2="830" y2="350.0" stroke="#1e293b" stroke-width="1"/>
<text x="60" y="354.0" fill="#94a3b8" font-size="12" text-anchor="end">20.3</text>
<line x1="70" y1="290.0" x2="830" y2="290.0" stroke="#1e293b" stroke-width="1"/>
<text x="60" y="294.0" fill="#94a3b8" font-size="12" text-anchor="end">46.0</text>
<line x1="70" y1="230.0" x2="830" y2="230.0" stroke="#1e293b" stroke-width="1"/>
<text x="60" y="234.0" fill="#94a3b8" font-size="12" text-anchor="end">71.6</text>
<line x1="70" y1="170.0" x2="830" y2="170.0" stroke="#1e293b" stroke-width="1"/>
<text x="60" y="174.0" fill="#94a3b8" font-size="12" text-anchor="end">97.3</text>
<line x1="70" y1="110.0" x2="830" y2="110.0" stroke="#1e293b" stroke-width="1"/>
<text x="60" y="114.0" fill="#94a3b8" font-size="12" text-anchor="end">123</text>
<line x1="70" y1="397.5" x2="830" y2="397.5" stroke="#334155" stroke-width="1.5"/>
<path d="M70.0,147.5 L165.0,206.4 L260.0,211.4 L355.0,225.4 L450.0,263.4 L545.0,256.0 L640.0,252.9 L735.0,250.8 L830.0,239.6" fill="none" stroke="#22c55e" stroke-width="3"/>
<circle cx="70.0" cy="147.5" r="5" fill="#22c55e"/>
<text x="70.0" y="135.5" fill="#22c55e" font-size="13" font-weight="700" text-anchor="middle">107</text>
<text x="70.0" y="432" fill="#94a3b8" font-size="13" text-anchor="middle">2011</text>
<circle cx="165.0" cy="206.4" r="5" fill="#22c55e"/>
<text x="165.0" y="194.4" fill="#22c55e" font-size="13" font-weight="700" text-anchor="middle">81.7</text>
<text x="165.0" y="432" fill="#94a3b8" font-size="13" text-anchor="middle">2015</text>
<circle cx="260.0" cy="211.4" r="5" fill="#22c55e"/>
<text x="260.0" y="199.4" fill="#22c55e" font-size="13" font-weight="700" text-anchor="middle">79.6</text>
<text x="260.0" y="432" fill="#94a3b8" font-size="13" text-anchor="middle">2018</text>
<circle cx="355.0" cy="225.4" r="5" fill="#22c55e"/>
<text x="355.0" y="213.4" fill="#22c55e" font-size="13" font-weight="700" text-anchor="middle">73.6</text>
<text x="355.0" y="432" fill="#94a3b8" font-size="13" text-anchor="middle">2020</text>
<circle cx="450.0" cy="263.4" r="5" fill="#22c55e"/>
<text x="450.0" y="251.4" fill="#22c55e" font-size="13" font-weight="700" text-anchor="middle">57.4</text>
<text x="450.0" y="432" fill="#94a3b8" font-size="13" text-anchor="middle">2021</text>
<circle cx="545.0" cy="256.0" r="5" fill="#22c55e"/>
<text x="545.0" y="244.0" fill="#22c55e" font-size="13" font-weight="700" text-anchor="middle">60.5</text>
<text x="545.0" y="432" fill="#94a3b8" font-size="13" text-anchor="middle">2022</text>
<circle cx="640.0" cy="252.9" r="5" fill="#22c55e"/>
<text x="640.0" y="240.9" fill="#22c55e" font-size="13" font-weight="700" text-anchor="middle">61.9</text>
<text x="640.0" y="432" fill="#94a3b8" font-size="13" text-anchor="middle">2023</text>
<circle cx="735.0" cy="250.8" r="5" fill="#22c55e"/>
<text x="735.0" y="238.8" fill="#22c55e" font-size="13" font-weight="700" text-anchor="middle">62.8</text>
<text x="735.0" y="432" fill="#94a3b8" font-size="13" text-anchor="middle">2024</text>
<circle cx="830.0" cy="239.6" r="5" fill="#22c55e"/>
<text x="830.0" y="227.6" fill="#22c55e" font-size="13" font-weight="700" text-anchor="middle">67.5</text>
<text x="830.0" y="432" fill="#94a3b8" font-size="13" text-anchor="middle">2025</text>
<text x="860" y="100" fill="#64748b" font-size="13" text-anchor="end">단위: $B</text>
</svg>