<svg xmlns="http://www.w3.org/2000/svg" viewBox="0 0 900 506" font-family="Pretendard, -apple-system, Segoe UI, sans-serif">
<rect width="900" height="506" fill="#0a0e1a"/>
<text x="40" y="46" fill="#e2e8f0" font-size="25" font-weight="700">순이익이 무너진 2022년에도 영업현금흐름은 유지됐다</text>
<text x="40" y="74" fill="#64748b" font-size="15">2022 순이익 1.64B(비현금 연금정산손실) vs OCF 10.44B 유지</text>
<line x1="70" y1="410.0" x2="830" y2="410.0" stroke="#1e293b" stroke-width="1"/>
<text x="60" y="414.0" fill="#94a3b8" font-size="12" text-anchor="end">0.00</text>
<line x1="70" y1="350.0" x2="830" y2="350.0" stroke="#1e293b" stroke-width="1"/>
<text x="60" y="354.0" fill="#94a3b8" font-size="12" text-anchor="end">4.15</text>
<line x1="70" y1="290.0" x2="830" y2="290.0" stroke="#1e293b" stroke-width="1"/>
<text x="60" y="294.0" fill="#94a3b8" font-size="12" text-anchor="end">8.30</text>
<line x1="70" y1="230.0" x2="830" y2="230.0" stroke="#1e293b" stroke-width="1"/>
<text x="60" y="234.0" fill="#94a3b8" font-size="12" text-anchor="end">12.4</text>
<line x1="70" y1="170.0" x2="830" y2="170.0" stroke="#1e293b" stroke-width="1"/>
<text x="60" y="174.0" fill="#94a3b8" font-size="12" text-anchor="end">16.6</text>
<line x1="70" y1="110.0" x2="830" y2="110.0" stroke="#1e293b" stroke-width="1"/>
<text x="60" y="114.0" fill="#94a3b8" font-size="12" text-anchor="end">20.7</text>
<line x1="70" y1="410.0" x2="830" y2="410.0" stroke="#334155" stroke-width="1.5"/>
<rect x="86.2" y="283.8" width="27.4" height="126.2" rx="2" fill="#3b82f6" opacity="0.92"/>
<text x="99.8" y="277.8" fill="#94a3b8" font-size="10.5" text-anchor="middle">8.73</text>
<rect x="117.5" y="189.5" width="27.4" height="220.5" rx="2" fill="#a855f7" opacity="0.92"/>
<text x="131.2" y="183.5" fill="#94a3b8" font-size="10.5" text-anchor="middle">15.2</text>
<text x="117.5" y="432" fill="#94a3b8" font-size="13" text-anchor="middle">2018</text>
<rect x="181.2" y="273.6" width="27.4" height="136.4" rx="2" fill="#3b82f6" opacity="0.92"/>
<text x="194.8" y="267.6" fill="#94a3b8" font-size="10.5" text-anchor="middle">9.43</text>
<rect x="212.5" y="196.4" width="27.4" height="213.6" rx="2" fill="#a855f7" opacity="0.92"/>
<text x="226.2" y="190.4" fill="#94a3b8" font-size="10.5" text-anchor="middle">14.8</text>
<text x="212.5" y="432" fill="#94a3b8" font-size="13" text-anchor="middle">2019</text>
<rect x="276.1" y="329.2" width="27.4" height="80.8" rx="2" fill="#3b82f6" opacity="0.92"/>
<text x="289.8" y="323.2" fill="#94a3b8" font-size="10.5" text-anchor="middle">5.59</text>
<rect x="307.5" y="146.8" width="27.4" height="263.2" rx="2" fill="#a855f7" opacity="0.92"/>
<text x="321.2" y="140.8" fill="#94a3b8" font-size="10.5" text-anchor="middle">18.2</text>
<text x="307.5" y="432" fill="#94a3b8" font-size="13" text-anchor="middle">2020</text>
<rect x="371.1" y="327.0" width="27.4" height="83.0" rx="2" fill="#3b82f6" opacity="0.92"/>
<text x="384.8" y="321.0" fill="#94a3b8" font-size="10.5" text-anchor="middle">5.74</text>
<rect x="402.5" y="224.9" width="27.4" height="185.1" rx="2" fill="#a855f7" opacity="0.92"/>
<text x="416.2" y="218.9" fill="#94a3b8" font-size="10.5" text-anchor="middle">12.8</text>
<text x="402.5" y="432" fill="#94a3b8" font-size="13" text-anchor="middle">2021</text>
<rect x="466.1" y="386.3" width="27.4" height="23.7" rx="2" fill="#3b82f6" opacity="0.92"/>
<text x="479.8" y="380.3" fill="#94a3b8" font-size="10.5" text-anchor="middle">1.64</text>
<rect x="497.5" y="259.0" width="27.4" height="151.0" rx="2" fill="#a855f7" opacity="0.92"/>
<text x="511.2" y="253.0" fill="#94a3b8" font-size="10.5" text-anchor="middle">10.4</text>
<text x="497.5" y="432" fill="#94a3b8" font-size="13" text-anchor="middle">2022</text>
<rect x="561.1" y="301.6" width="27.4" height="108.4" rx="2" fill="#3b82f6" opacity="0.92"/>
<text x="574.8" y="295.6" fill="#94a3b8" font-size="10.5" text-anchor="middle">7.50</text>
<rect x="592.5" y="208.6" width="27.4" height="201.4" rx="2" fill="#a855f7" opacity="0.92"/>
<text x="606.2" y="202.6" fill="#94a3b8" font-size="10.5" text-anchor="middle">13.9</text>
<text x="592.5" y="432" fill="#94a3b8" font-size="13" text-anchor="middle">2023</text>
<rect x="656.1" y="323.0" width="27.4" height="87.0" rx="2" fill="#3b82f6" opacity="0.92"/>
<text x="669.8" y="317.0" fill="#94a3b8" font-size="10.5" text-anchor="middle">6.02</text>
<rect x="687.5" y="215.5" width="27.4" height="194.5" rx="2" fill="#a855f7" opacity="0.92"/>
<text x="701.2" y="209.5" fill="#94a3b8" font-size="10.5" text-anchor="middle">13.4</text>
<text x="687.5" y="432" fill="#94a3b8" font-size="13" text-anchor="middle">2024</text>
<rect x="751.1" y="256.9" width="27.4" height="153.1" rx="2" fill="#3b82f6" opacity="0.92"/>
<text x="764.8" y="250.9" fill="#94a3b8" font-size="10.5" text-anchor="middle">10.6</text>
<rect x="782.5" y="219.3" width="27.4" height="190.7" rx="2" fill="#a855f7" opacity="0.92"/>
<text x="796.2" y="213.3" fill="#94a3b8" font-size="10.5" text-anchor="middle">13.2</text>
<text x="782.5" y="432" fill="#94a3b8" font-size="13" text-anchor="middle">2025</text>
<rect x="70" y="473" width="13" height="13" rx="2" fill="#3b82f6"/>
<text x="89" y="484" fill="#94a3b8" font-size="13">당기순이익</text>
<rect x="163" y="473" width="13" height="13" rx="2" fill="#a855f7"/>
<text x="182" y="484" fill="#94a3b8" font-size="13">영업현금흐름</text>
<text x="860" y="100" fill="#64748b" font-size="13" text-anchor="end">단위: $B</text>
</svg>