<svg xmlns="http://www.w3.org/2000/svg" viewBox="0 0 900 506" font-family="Pretendard, -apple-system, Segoe UI, sans-serif">
<rect width="900" height="506" fill="#0a0e1a"/>
<text x="40" y="46" fill="#e2e8f0" font-size="25" font-weight="700">순마진: 14.8%(2011) → 2.7%(2022 저점) → 15.7%(2025)</text>
<text x="40" y="74" fill="#64748b" font-size="15">외형은 깎였는데 순마진은 출발점 수준 회복 (영업이익 라인 부재→순마진)</text>
<line x1="70" y1="410.0" x2="830" y2="410.0" stroke="#1e293b" stroke-width="1"/>
<text x="60" y="414.0" fill="#94a3b8" font-size="12" text-anchor="end">-0.81%</text>
<line x1="70" y1="350.0" x2="830" y2="350.0" stroke="#1e293b" stroke-width="1"/>
<text x="60" y="354.0" fill="#94a3b8" font-size="12" text-anchor="end">3.06%</text>
<line x1="70" y1="290.0" x2="830" y2="290.0" stroke="#1e293b" stroke-width="1"/>
<text x="60" y="294.0" fill="#94a3b8" font-size="12" text-anchor="end">6.92%</text>
<line x1="70" y1="230.0" x2="830" y2="230.0" stroke="#1e293b" stroke-width="1"/>
<text x="60" y="234.0" fill="#94a3b8" font-size="12" text-anchor="end">10.8%</text>
<line x1="70" y1="170.0" x2="830" y2="170.0" stroke="#1e293b" stroke-width="1"/>
<text x="60" y="174.0" fill="#94a3b8" font-size="12" text-anchor="end">14.7%</text>
<line x1="70" y1="110.0" x2="830" y2="110.0" stroke="#1e293b" stroke-width="1"/>
<text x="60" y="114.0" fill="#94a3b8" font-size="12" text-anchor="end">18.5%</text>
<line x1="70" y1="397.5" x2="830" y2="397.5" stroke="#334155" stroke-width="1.5"/>
<path d="M70.0,167.7 L165.0,147.5 L260.0,226.7 L355.0,279.5 L450.0,242.2 L545.0,355.6 L640.0,209.6 L735.0,248.4 L830.0,153.7" fill="none" stroke="#f59e0b" stroke-width="3"/>
<circle cx="70.0" cy="167.7" r="5" fill="#f59e0b"/>
<text x="70.0" y="155.7" fill="#f59e0b" font-size="13" font-weight="700" text-anchor="middle">14.8%</text>
<text x="70.0" y="432" fill="#94a3b8" font-size="13" text-anchor="middle">2011</text>
<circle cx="165.0" cy="147.5" r="5" fill="#f59e0b"/>
<text x="165.0" y="135.5" fill="#f59e0b" font-size="13" font-weight="700" text-anchor="middle">16.1%</text>
<text x="165.0" y="432" fill="#94a3b8" font-size="13" text-anchor="middle">2015</text>
<circle cx="260.0" cy="226.7" r="5" fill="#f59e0b"/>
<text x="260.0" y="214.7" fill="#f59e0b" font-size="13" font-weight="700" text-anchor="middle">11.0%</text>
<text x="260.0" y="432" fill="#94a3b8" font-size="13" text-anchor="middle">2018</text>
<circle cx="355.0" cy="279.5" r="5" fill="#f59e0b"/>
<text x="355.0" y="267.5" fill="#f59e0b" font-size="13" font-weight="700" text-anchor="middle">7.60%</text>
<text x="355.0" y="432" fill="#94a3b8" font-size="13" text-anchor="middle">2020</text>
<circle cx="450.0" cy="242.2" r="5" fill="#f59e0b"/>
<text x="450.0" y="230.2" fill="#f59e0b" font-size="13" font-weight="700" text-anchor="middle">10.0%</text>
<text x="450.0" y="432" fill="#94a3b8" font-size="13" text-anchor="middle">2021</text>
<circle cx="545.0" cy="355.6" r="5" fill="#f59e0b"/>
<text x="545.0" y="343.6" fill="#f59e0b" font-size="13" font-weight="700" text-anchor="middle">2.70%</text>
<text x="545.0" y="432" fill="#94a3b8" font-size="13" text-anchor="middle">2022</text>
<circle cx="640.0" cy="209.6" r="5" fill="#f59e0b"/>
<text x="640.0" y="197.6" fill="#f59e0b" font-size="13" font-weight="700" text-anchor="middle">12.1%</text>
<text x="640.0" y="432" fill="#94a3b8" font-size="13" text-anchor="middle">2023</text>
<circle cx="735.0" cy="248.4" r="5" fill="#f59e0b"/>
<text x="735.0" y="236.4" fill="#f59e0b" font-size="13" font-weight="700" text-anchor="middle">9.60%</text>
<text x="735.0" y="432" fill="#94a3b8" font-size="13" text-anchor="middle">2024</text>
<circle cx="830.0" cy="153.7" r="5" fill="#f59e0b"/>
<text x="830.0" y="141.7" fill="#f59e0b" font-size="13" font-weight="700" text-anchor="middle">15.7%</text>
<text x="830.0" y="432" fill="#94a3b8" font-size="13" text-anchor="middle">2025</text>
<text x="860" y="100" fill="#64748b" font-size="13" text-anchor="end">단위: %</text>
</svg>