<svg xmlns="http://www.w3.org/2000/svg" viewBox="0 0 1200 720">
  <rect width="1200" height="720" fill="#0a0e1a"/>
  <text x="600" y="50" text-anchor="middle" font-family="-apple-system, 'Segoe UI', sans-serif" font-size="22" font-weight="700" fill="#f1f5f9">현금흐름 진화 — 위기형 → 확장형 → 성숙형</text>
  <text x="600" y="78" text-anchor="middle" font-family="-apple-system, 'Segoe UI', sans-serif" font-size="14" fill="#64748b">OCF vs CAPEX vs FCF (억원) — 2023년이 전환점</text>

  <!-- Phase labels -->
  <rect x="110" y="100" width="200" height="30" rx="6" fill="#ef4444" opacity="0.2"/>
  <text x="210" y="120" text-anchor="middle" font-family="-apple-system, 'Segoe UI', sans-serif" font-size="12" font-weight="600" fill="#ef4444">위기형 (OCF &lt; 0)</text>

  <rect x="340" y="100" width="300" height="30" rx="6" fill="#f59e0b" opacity="0.2"/>
  <text x="490" y="120" text-anchor="middle" font-family="-apple-system, 'Segoe UI', sans-serif" font-size="12" font-weight="600" fill="#f59e0b">확장형 (OCF ≈ CAPEX)</text>

  <rect x="670" y="100" width="420" height="30" rx="6" fill="#22c55e" opacity="0.2"/>
  <text x="880" y="120" text-anchor="middle" font-family="-apple-system, 'Segoe UI', sans-serif" font-size="12" font-weight="600" fill="#22c55e">성숙형 (OCF &gt; CAPEX)</text>

  <!-- Data rows -->
  <!-- 2018 -->
  <text x="80" y="185" text-anchor="end" font-family="-apple-system, 'Segoe UI', sans-serif" font-size="13" fill="#94a3b8">2018</text>
  <rect x="110" y="170" width="10" height="20" rx="3" fill="#ef4444"/>
  <text x="130" y="185" font-family="-apple-system, 'Segoe UI', sans-serif" font-size="12" fill="#ef4444">OCF -324</text>
  <rect x="270" y="170" width="80" height="20" rx="3" fill="#64748b"/>
  <text x="360" y="185" font-family="-apple-system, 'Segoe UI', sans-serif" font-size="12" fill="#94a3b8">CAPEX 2,845</text>
  <rect x="520" y="170" width="90" height="20" rx="3" fill="#ef4444"/>
  <text x="620" y="185" font-family="-apple-system, 'Segoe UI', sans-serif" font-size="12" font-weight="700" fill="#ef4444">FCF -3,169</text>

  <!-- 2020 -->
  <text x="80" y="245" text-anchor="end" font-family="-apple-system, 'Segoe UI', sans-serif" font-size="13" fill="#94a3b8">2020</text>
  <rect x="110" y="230" width="60" height="20" rx="3" fill="#f59e0b"/>
  <text x="180" y="245" font-family="-apple-system, 'Segoe UI', sans-serif" font-size="12" fill="#f59e0b">OCF 2,021</text>
  <rect x="310" y="230" width="45" height="20" rx="3" fill="#64748b"/>
  <text x="365" y="245" font-family="-apple-system, 'Segoe UI', sans-serif" font-size="12" fill="#94a3b8">CAPEX 1,486</text>
  <rect x="520" y="230" width="15" height="20" rx="3" fill="#22c55e"/>
  <text x="545" y="245" font-family="-apple-system, 'Segoe UI', sans-serif" font-size="12" fill="#22c55e">FCF +535</text>

  <!-- 2021 -->
  <text x="80" y="305" text-anchor="end" font-family="-apple-system, 'Segoe UI', sans-serif" font-size="13" fill="#94a3b8">2021</text>
  <rect x="110" y="290" width="130" height="20" rx="3" fill="#f59e0b"/>
  <text x="250" y="305" font-family="-apple-system, 'Segoe UI', sans-serif" font-size="12" fill="#f59e0b">OCF 4,546</text>
  <rect x="370" y="290" width="120" height="20" rx="3" fill="#64748b"/>
  <text x="500" y="305" font-family="-apple-system, 'Segoe UI', sans-serif" font-size="12" fill="#94a3b8">CAPEX 4,212</text>
  <rect x="620" y="290" width="10" height="20" rx="3" fill="#22c55e"/>
  <text x="640" y="305" font-family="-apple-system, 'Segoe UI', sans-serif" font-size="12" fill="#22c55e">FCF +334</text>

  <!-- 2022 -->
  <text x="80" y="365" text-anchor="end" font-family="-apple-system, 'Segoe UI', sans-serif" font-size="13" fill="#94a3b8">2022</text>
  <rect x="110" y="350" width="270" height="20" rx="3" fill="#f59e0b"/>
  <text x="390" y="365" font-family="-apple-system, 'Segoe UI', sans-serif" font-size="12" fill="#f59e0b">OCF 9,530</text>
  <rect x="480" y="350" width="290" height="20" rx="3" fill="#64748b"/>
  <text x="780" y="365" font-family="-apple-system, 'Segoe UI', sans-serif" font-size="12" fill="#94a3b8">CAPEX 10,092</text>
  <rect x="870" y="350" width="15" height="20" rx="3" fill="#ef4444"/>
  <text x="895" y="365" font-family="-apple-system, 'Segoe UI', sans-serif" font-size="12" fill="#ef4444">FCF -562</text>

  <!-- 2023 ★ -->
  <text x="80" y="425" text-anchor="end" font-family="-apple-system, 'Segoe UI', sans-serif" font-size="13" font-weight="700" fill="#fbbf24">2023★</text>
  <rect x="110" y="410" width="470" height="20" rx="3" fill="#22c55e"/>
  <text x="590" y="425" font-family="-apple-system, 'Segoe UI', sans-serif" font-size="12" fill="#22c55e">OCF 16,662</text>
  <rect x="690" y="410" width="310" height="20" rx="3" fill="#64748b"/>
  <text x="1010" y="425" font-family="-apple-system, 'Segoe UI', sans-serif" font-size="12" fill="#94a3b8">CAPEX 11,053</text>
  <text x="1090" y="425" font-family="-apple-system, 'Segoe UI', sans-serif" font-size="13" font-weight="700" fill="#22c55e">FCF +5,609</text>

  <!-- 2024 -->
  <text x="80" y="485" text-anchor="end" font-family="-apple-system, 'Segoe UI', sans-serif" font-size="13" fill="#94a3b8">2024</text>
  <rect x="110" y="470" width="470" height="20" rx="3" fill="#22c55e"/>
  <text x="590" y="485" font-family="-apple-system, 'Segoe UI', sans-serif" font-size="12" fill="#22c55e">OCF 16,593</text>
  <rect x="690" y="470" width="390" height="20" rx="3" fill="#64748b"/>
  <text x="1090" y="485" font-family="-apple-system, 'Segoe UI', sans-serif" font-size="12" fill="#94a3b8">CAPEX 13,775</text>
  <text x="1090" y="505" font-family="-apple-system, 'Segoe UI', sans-serif" font-size="12" fill="#22c55e">FCF +2,817</text>

  <!-- 2025 -->
  <text x="80" y="555" text-anchor="end" font-family="-apple-system, 'Segoe UI', sans-serif" font-size="13" font-weight="700" fill="#f1f5f9">2025</text>
  <rect x="110" y="540" width="630" height="20" rx="3" fill="#22c55e"/>
  <text x="750" y="555" font-family="-apple-system, 'Segoe UI', sans-serif" font-size="13" font-weight="700" fill="#22c55e">OCF 22,478</text>
  <rect x="850" y="540" width="200" height="20" rx="3" fill="#64748b"/>
  <text x="1060" y="555" font-family="-apple-system, 'Segoe UI', sans-serif" font-size="12" fill="#94a3b8">CAPEX 14,751</text>
  <text x="1090" y="575" font-family="-apple-system, 'Segoe UI', sans-serif" font-size="14" font-weight="700" fill="#22c55e">FCF +7,727</text>

  <!-- Key insight box -->
  <rect x="110" y="610" width="980" height="60" rx="8" fill="#1e293b" stroke="#22c55e" stroke-width="1"/>
  <text x="600" y="637" text-anchor="middle" font-family="-apple-system, 'Segoe UI', sans-serif" font-size="14" fill="#f1f5f9">2023년 전환점: OCF가 CAPEX를 안정적으로 초과하기 시작. OCF 마진 49% — 매출의 절반이 현금으로 들어온다.</text>
  <text x="600" y="657" text-anchor="middle" font-family="-apple-system, 'Segoe UI', sans-serif" font-size="12" fill="#94a3b8">영업활동현금흐름/순이익 = 126% — 이익이 진짜 현금이다</text>

  <text x="1100" y="700" text-anchor="end" font-family="-apple-system, 'Segoe UI', sans-serif" font-size="11" fill="#475569">dartlab 실측</text>
</svg>