<svg xmlns="http://www.w3.org/2000/svg" viewBox="0 0 1080 720" font-family="-apple-system, 'Segoe UI', sans-serif">
  <title>코웨이 — 2026년에 봐야 할 다섯 가지</title>
  <desc>렌탈 계정 순증, 해외 비중, 넷마블 체제 연속성, 부채비율과 렌탈 자산 회전, 코디 조직 디지털 전환 — 다음 1년 체크포인트.</desc>
  <rect width="1080" height="720" fill="#0a0e1a"/>
  <text x="540" y="58" fill="#f1f5f9" font-size="32" font-weight="700" text-anchor="middle">2026년에 봐야 할 다섯 가지</text>
  <text x="540" y="92" fill="#64748b" font-size="17" text-anchor="middle">현금 엔진(약정)이 계속 도는지가 핵심</text>

  <g>
    <rect x="90" y="125" width="900" height="92" rx="10" fill="#11161f" stroke="#334155" stroke-width="1.5"/>
    <circle cx="135" cy="171" r="20" fill="#fbbf24"/><text x="135" y="178" fill="#0a0e1a" font-size="22" font-weight="700" text-anchor="middle">1</text>
    <text x="180" y="162" fill="#f1f5f9" font-size="21" font-weight="700">렌탈 계정 순증</text>
    <text x="180" y="194" fill="#94a3b8" font-size="16">신규 약정 − 해약. 이 숫자가 꺾이면 "매달 들어오는 현금"의 토대가 흔들린다 (선행 지표)</text>

    <rect x="90" y="229" width="900" height="92" rx="10" fill="#11161f" stroke="#334155" stroke-width="1.5"/>
    <circle cx="135" cy="275" r="20" fill="#fbbf24"/><text x="135" y="282" fill="#0a0e1a" font-size="22" font-weight="700" text-anchor="middle">2</text>
    <text x="180" y="266" fill="#f1f5f9" font-size="21" font-weight="700">해외(말레이시아 등) 비중</text>
    <text x="180" y="298" fill="#94a3b8" font-size="16">국내 렌탈은 포화에 가깝다 — 같은 모델을 해외에 이식한 매출이 새 성장축이 되는지</text>

    <rect x="90" y="333" width="900" height="92" rx="10" fill="#11161f" stroke="#334155" stroke-width="1.5"/>
    <circle cx="135" cy="379" r="20" fill="#fbbf24"/><text x="135" y="386" fill="#0a0e1a" font-size="22" font-weight="700" text-anchor="middle">3</text>
    <text x="180" y="370" fill="#f1f5f9" font-size="21" font-weight="700">넷마블 체제의 전략 연속성</text>
    <text x="180" y="402" fill="#94a3b8" font-size="16">게임회사가 정수기 회사를 어떻게 운영하는가 — 배당·투자·신사업에서 이전 주인과 다른지</text>

    <rect x="90" y="437" width="900" height="92" rx="10" fill="#11161f" stroke="#334155" stroke-width="1.5"/>
    <circle cx="135" cy="483" r="20" fill="#fbbf24"/><text x="135" y="490" fill="#0a0e1a" font-size="22" font-weight="700" text-anchor="middle">4</text>
    <text x="180" y="474" fill="#f1f5f9" font-size="21" font-weight="700">부채비율(94%)과 렌탈 자산 회전</text>
    <text x="180" y="506" fill="#94a3b8" font-size="16">렌탈은 자산을 먼저 깔아야 하는 자본집약 사업 — 성장 속도와 재무 부담의 균형</text>

    <rect x="90" y="541" width="900" height="92" rx="10" fill="#11161f" stroke="#334155" stroke-width="1.5"/>
    <circle cx="135" cy="587" r="20" fill="#fbbf24"/><text x="135" y="594" fill="#0a0e1a" font-size="22" font-weight="700" text-anchor="middle">5</text>
    <text x="180" y="578" fill="#f1f5f9" font-size="21" font-weight="700">코디 조직의 디지털 전환</text>
    <text x="180" y="610" fill="#94a3b8" font-size="16">방문관리가 해자인데, 비대면·자가관리 흐름 속에서 그 방문의 가치가 유지되는지</text>
  </g>
  <text x="540" y="678" fill="#fbbf24" font-size="17" font-weight="700" text-anchor="middle">주인은 바뀌어도, 매달 문을 두드리는 손이 멈추지 않는 한 엔진은 돈다</text>
</svg>
