<svg xmlns="http://www.w3.org/2000/svg" viewBox="0 0 1080 620" font-family="-apple-system, 'Segoe UI', sans-serif">
  <title>영업현금흐름–순이익 격차가 약 세 배 벌어졌다</title>
  <desc>OCF vs 순이익 ($B) — 격차 2019~22 약 2.86B → 2023~25 약 8.41B</desc>
  <rect width="1080" height="620" fill="#0a0e1a"/>
  <text x="540.0" y="50" fill="#f1f5f9" font-size="30" font-weight="700" text-anchor="middle">영업현금흐름–순이익 격차가 약 세 배 벌어졌다</text>
  <text x="540.0" y="82" fill="#64748b" font-size="16" text-anchor="middle">OCF vs 순이익 ($B) — 격차 2019~22 약 2.86B → 2023~25 약 8.41B</text>
  <line x1="80" y1="525.0" x2="1030" y2="525.0" stroke="#334155" stroke-width="1" opacity="0.4"/>
  <text x="68" y="530.0" fill="#64748b" font-size="13" text-anchor="end">0</text>
  <line x1="80" y1="444.0" x2="1030" y2="444.0" stroke="#334155" stroke-width="1" opacity="0.4"/>
  <text x="68" y="449.0" fill="#64748b" font-size="13" text-anchor="end">5</text>
  <line x1="80" y1="363.0" x2="1030" y2="363.0" stroke="#334155" stroke-width="1" opacity="0.4"/>
  <text x="68" y="368.0" fill="#64748b" font-size="13" text-anchor="end">10</text>
  <line x1="80" y1="282.0" x2="1030" y2="282.0" stroke="#334155" stroke-width="1" opacity="0.4"/>
  <text x="68" y="287.0" fill="#64748b" font-size="13" text-anchor="end">14</text>
  <line x1="80" y1="201.0" x2="1030" y2="201.0" stroke="#334155" stroke-width="1" opacity="0.4"/>
  <text x="68" y="206.0" fill="#64748b" font-size="13" text-anchor="end">19</text>
  <line x1="80" y1="120.0" x2="1030" y2="120.0" stroke="#334155" stroke-width="1" opacity="0.4"/>
  <text x="68" y="125.0" fill="#64748b" font-size="13" text-anchor="end">24</text>
  <rect x="105.8" y="279.5" width="42.1" height="245.5" rx="3" fill="#22c55e"/>
  <text x="126.8" y="271.5" fill="#94a3b8" font-size="11.5" text-anchor="middle">15</text>
  <rect x="147.9" y="338.0" width="42.1" height="187.0" rx="3" fill="#3b82f6"/>
  <text x="168.9" y="330.0" fill="#94a3b8" font-size="11.5" text-anchor="middle">11</text>
  <text x="147.9" y="551.0" fill="#94a3b8" font-size="14" text-anchor="middle">2019</text>
  <rect x="241.5" y="303.3" width="42.1" height="221.7" rx="3" fill="#22c55e"/>
  <text x="262.5" y="295.3" fill="#94a3b8" font-size="11.5" text-anchor="middle">13</text>
  <rect x="283.6" y="354.1" width="42.1" height="170.9" rx="3" fill="#3b82f6"/>
  <text x="304.6" y="346.1" fill="#94a3b8" font-size="11.5" text-anchor="middle">10</text>
  <text x="283.6" y="551.0" fill="#94a3b8" font-size="14" text-anchor="middle">2020</text>
  <rect x="377.2" y="256.9" width="42.1" height="268.1" rx="3" fill="#22c55e"/>
  <text x="398.2" y="248.9" fill="#94a3b8" font-size="11.5" text-anchor="middle">16</text>
  <rect x="419.3" y="293.0" width="42.1" height="232.0" rx="3" fill="#3b82f6"/>
  <text x="440.3" y="285.0" fill="#94a3b8" font-size="11.5" text-anchor="middle">14</text>
  <text x="419.3" y="551.0" fill="#94a3b8" font-size="14" text-anchor="middle">2021</text>
  <rect x="512.9" y="364.0" width="42.1" height="161.0" rx="3" fill="#22c55e"/>
  <text x="534.0" y="356.0" fill="#94a3b8" font-size="11.5" text-anchor="middle">10</text>
  <rect x="555.0" y="411.6" width="42.1" height="113.4" rx="3" fill="#3b82f6"/>
  <text x="576.0" y="403.6" fill="#94a3b8" font-size="11.5" text-anchor="middle">7</text>
  <text x="555.0" y="551.0" fill="#94a3b8" font-size="14" text-anchor="middle">2022</text>
  <rect x="648.6" y="235.4" width="42.1" height="289.6" rx="3" fill="#22c55e"/>
  <text x="669.7" y="227.4" fill="#94a3b8" font-size="11.5" text-anchor="middle">17</text>
  <rect x="690.7" y="381.6" width="42.1" height="143.4" rx="3" fill="#3b82f6"/>
  <text x="711.8" y="373.6" fill="#94a3b8" font-size="11.5" text-anchor="middle">8</text>
  <text x="690.7" y="551.0" fill="#94a3b8" font-size="14" text-anchor="middle">2023</text>
  <rect x="784.4" y="209.9" width="42.1" height="315.1" rx="3" fill="#22c55e"/>
  <text x="805.4" y="201.9" fill="#94a3b8" font-size="11.5" text-anchor="middle">19</text>
  <rect x="826.4" y="348.3" width="42.1" height="176.7" rx="3" fill="#3b82f6"/>
  <text x="847.5" y="340.3" fill="#94a3b8" font-size="11.5" text-anchor="middle">10</text>
  <text x="826.4" y="551.0" fill="#94a3b8" font-size="14" text-anchor="middle">2024</text>
  <rect x="920.1" y="173.7" width="42.1" height="351.3" rx="3" fill="#22c55e"/>
  <text x="941.1" y="165.7" fill="#94a3b8" font-size="11.5" text-anchor="middle">21</text>
  <rect x="962.1" y="315.1" width="42.1" height="209.9" rx="3" fill="#3b82f6"/>
  <text x="983.2" y="307.1" fill="#94a3b8" font-size="11.5" text-anchor="middle">12</text>
  <text x="962.1" y="551.0" fill="#94a3b8" font-size="14" text-anchor="middle">2025</text>
  <rect x="86" y="86" width="16" height="16" rx="3" fill="#22c55e"/>
  <text x="108" y="99" fill="#94a3b8" font-size="14">영업현금흐름</text>
  <rect x="204" y="86" width="16" height="16" rx="3" fill="#3b82f6"/>
  <text x="226" y="99" fill="#94a3b8" font-size="14">당기순이익</text>
  <text x="120" y="150" fill="#fbbf24" font-size="14" font-weight="700">격차 ×2.9</text>
  <text x="80" y="566" fill="#94a3b8" font-size="14">capex가 데이터에 없어 FCF(OCF−capex)는 계산하지 않는다</text>
  <text x="540.0" y="592" fill="#fbbf24" font-size="17" font-weight="700" text-anchor="middle">격차 확대는 비현금 비용 증가 신호와 양립(단정 아님) — 항목 분해는 데이터 밖</text>
</svg>
