<svg xmlns="http://www.w3.org/2000/svg" viewBox="0 0 1080 620" font-family="-apple-system, 'Segoe UI', sans-serif">
  <title>회복은 했지만 귀환은 아니다</title>
  <desc>영업이익률 7년 — 2022 바닥(25.8) 후 3년 회복, 그러나 출발점 미달</desc>
  <rect width="1080" height="620" fill="#0a0e1a"/>
  <text x="540.0" y="50" fill="#f1f5f9" font-size="30" font-weight="700" text-anchor="middle">회복은 했지만 귀환은 아니다</text>
  <text x="540.0" y="82" fill="#64748b" font-size="16" text-anchor="middle">영업이익률 7년 — 2022 바닥(25.8) 후 3년 회복, 그러나 출발점 미달</text>
  <line x1="95" y1="530.0" x2="1020" y2="530.0" stroke="#334155" stroke-width="1" opacity="0.4"/>
  <text x="83" y="535.0" fill="#64748b" font-size="14" text-anchor="end">22%</text>
  <line x1="95" y1="448.0" x2="1020" y2="448.0" stroke="#334155" stroke-width="1" opacity="0.4"/>
  <text x="83" y="453.0" fill="#64748b" font-size="14" text-anchor="end">26%</text>
  <line x1="95" y1="366.0" x2="1020" y2="366.0" stroke="#334155" stroke-width="1" opacity="0.4"/>
  <text x="83" y="371.0" fill="#64748b" font-size="14" text-anchor="end">29%</text>
  <line x1="95" y1="284.0" x2="1020" y2="284.0" stroke="#334155" stroke-width="1" opacity="0.4"/>
  <text x="83" y="289.0" fill="#64748b" font-size="14" text-anchor="end">33%</text>
  <line x1="95" y1="202.0" x2="1020" y2="202.0" stroke="#334155" stroke-width="1" opacity="0.4"/>
  <text x="83" y="207.0" fill="#64748b" font-size="14" text-anchor="end">36%</text>
  <line x1="95" y1="120.0" x2="1020" y2="120.0" stroke="#334155" stroke-width="1" opacity="0.4"/>
  <text x="83" y="125.0" fill="#64748b" font-size="14" text-anchor="end">40%</text>
  <text x="95.0" y="558.0" fill="#94a3b8" font-size="14" text-anchor="middle">2019</text>
  <text x="249.2" y="558.0" fill="#94a3b8" font-size="14" text-anchor="middle">2020</text>
  <text x="403.3" y="558.0" fill="#94a3b8" font-size="14" text-anchor="middle">2021</text>
  <text x="557.5" y="558.0" fill="#94a3b8" font-size="14" text-anchor="middle">2022</text>
  <text x="711.7" y="558.0" fill="#94a3b8" font-size="14" text-anchor="middle">2023</text>
  <text x="865.8" y="558.0" fill="#94a3b8" font-size="14" text-anchor="middle">2024</text>
  <text x="1020.0" y="558.0" fill="#94a3b8" font-size="14" text-anchor="middle">2025</text>
  <polyline points="95.0,249.8 249.2,220.2 403.3,174.7 557.5,443.4 711.7,434.3 865.8,370.6 1020.0,329.6" fill="none" stroke="#fbbf24" stroke-width="3.5"/>
  <circle cx="95.0" cy="249.8" r="4.5" fill="#fbbf24"/>
  <circle cx="249.2" cy="220.2" r="4.5" fill="#fbbf24"/>
  <circle cx="403.3" cy="174.7" r="4.5" fill="#fbbf24"/>
  <circle cx="557.5" cy="443.4" r="4.5" fill="#fbbf24"/>
  <circle cx="711.7" cy="434.3" r="4.5" fill="#fbbf24"/>
  <circle cx="865.8" cy="370.6" r="4.5" fill="#fbbf24"/>
  <circle cx="1020.0" cy="329.6" r="4.5" fill="#fbbf24"/>
  <text x="1030.0" y="334.6" fill="#fbbf24" font-size="15" font-weight="700">OPM</text>
  <text x="403.3" y="108.0" fill="#22c55e" font-size="13" font-weight="700" text-anchor="middle">고점 37.6</text>
  <text x="557.5" y="108.0" fill="#ef4444" font-size="13" font-weight="700" text-anchor="middle">바닥 25.8</text>
  <text x="95" y="566" fill="#94a3b8" font-size="14">회복 구간(2022→2025) 한계영업이익률 약 45% > 7년 평균 31.3% — 전환은 단순 잠식 아님</text>
  <text x="540.0" y="592" fill="#fbbf24" font-size="17" font-weight="700" text-anchor="middle">2025 30.8%는 2019 34.3%·2021 고점 37.6%에 여전히 미달</text>
</svg>
