<svg xmlns="http://www.w3.org/2000/svg" viewBox="0 0 1080 620" font-family="-apple-system, 'Segoe UI', sans-serif">
  <title>매출은 +45% 늘었는데 영업이익률은 거꾸로</title>
  <desc>매출(좌축) vs 영업이익률(우축) — 성장과 마진이 갈라섰다</desc>
  <rect width="1080" height="620" fill="#0a0e1a"/>
  <text x="540.0" y="50" fill="#f1f5f9" font-size="30" font-weight="700" text-anchor="middle">매출은 +45% 늘었는데 영업이익률은 거꾸로</text>
  <text x="540.0" y="82" fill="#64748b" font-size="16" text-anchor="middle">매출(좌축) vs 영업이익률(우축) — 성장과 마진이 갈라섰다</text>
  <line x1="95" y1="530.0" x2="985" y2="530.0" stroke="#334155" stroke-width="1" opacity="0.35"/>
  <text x="83" y="535.0" fill="#22c55e" font-size="13" text-anchor="end">35%</text>
  <text x="997" y="535.0" fill="#fbbf24" font-size="13" text-anchor="start">20$B</text>
  <line x1="95" y1="448.0" x2="985" y2="448.0" stroke="#334155" stroke-width="1" opacity="0.35"/>
  <text x="83" y="453.0" fill="#22c55e" font-size="13" text-anchor="end">40%</text>
  <text x="997" y="453.0" fill="#fbbf24" font-size="13" text-anchor="start">24$B</text>
  <line x1="95" y1="366.0" x2="985" y2="366.0" stroke="#334155" stroke-width="1" opacity="0.35"/>
  <text x="83" y="371.0" fill="#22c55e" font-size="13" text-anchor="end">45%</text>
  <text x="997" y="371.0" fill="#fbbf24" font-size="13" text-anchor="start">28$B</text>
  <line x1="95" y1="284.0" x2="985" y2="284.0" stroke="#334155" stroke-width="1" opacity="0.35"/>
  <text x="83" y="289.0" fill="#22c55e" font-size="13" text-anchor="end">50%</text>
  <text x="997" y="289.0" fill="#fbbf24" font-size="13" text-anchor="start">32$B</text>
  <line x1="95" y1="202.0" x2="985" y2="202.0" stroke="#334155" stroke-width="1" opacity="0.35"/>
  <text x="83" y="207.0" fill="#22c55e" font-size="13" text-anchor="end">55%</text>
  <text x="997" y="207.0" fill="#fbbf24" font-size="13" text-anchor="start">36$B</text>
  <line x1="95" y1="120.0" x2="985" y2="120.0" stroke="#334155" stroke-width="1" opacity="0.35"/>
  <text x="83" y="125.0" fill="#22c55e" font-size="13" text-anchor="end">60%</text>
  <text x="997" y="125.0" fill="#fbbf24" font-size="13" text-anchor="start">40$B</text>
  <text x="95.0" y="558.0" fill="#94a3b8" font-size="14" text-anchor="middle">2019</text>
  <text x="243.3" y="558.0" fill="#94a3b8" font-size="14" text-anchor="middle">2020</text>
  <text x="391.7" y="558.0" fill="#94a3b8" font-size="14" text-anchor="middle">2021</text>
  <text x="540.0" y="558.0" fill="#94a3b8" font-size="14" text-anchor="middle">2022</text>
  <text x="688.3" y="558.0" fill="#94a3b8" font-size="14" text-anchor="middle">2023</text>
  <text x="836.7" y="558.0" fill="#94a3b8" font-size="14" text-anchor="middle">2024</text>
  <text x="985.0" y="558.0" fill="#94a3b8" font-size="14" text-anchor="middle">2025</text>
  <polyline points="95.0,456.0 243.3,463.3 391.7,440.1 540.0,408.0 688.3,284.8 836.7,235.5 985.0,162.6" fill="none" stroke="#22c55e" stroke-width="3.5"/>
  <circle cx="95.0" cy="456.0" r="4.5" fill="#22c55e"/>
  <circle cx="243.3" cy="463.3" r="4.5" fill="#22c55e"/>
  <circle cx="391.7" cy="440.1" r="4.5" fill="#22c55e"/>
  <circle cx="540.0" cy="408.0" r="4.5" fill="#22c55e"/>
  <circle cx="688.3" cy="284.8" r="4.5" fill="#22c55e"/>
  <circle cx="836.7" cy="235.5" r="4.5" fill="#22c55e"/>
  <circle cx="985.0" cy="162.6" r="4.5" fill="#22c55e"/>
  <text x="95.0" y="444.0" fill="#22c55e" font-size="15" font-weight="700">매출(좌, $B)</text>
  <polyline points="95.0,236.9 243.3,210.2 391.7,169.2 540.0,411.1 688.3,402.9 836.7,345.5 985.0,308.6" fill="none" stroke="#fbbf24" stroke-width="3.5"/>
  <circle cx="95.0" cy="236.9" r="4.5" fill="#fbbf24"/>
  <circle cx="243.3" cy="210.2" r="4.5" fill="#fbbf24"/>
  <circle cx="391.7" cy="169.2" r="4.5" fill="#fbbf24"/>
  <circle cx="540.0" cy="411.1" r="4.5" fill="#fbbf24"/>
  <circle cx="688.3" cy="402.9" r="4.5" fill="#fbbf24"/>
  <circle cx="836.7" cy="345.5" r="4.5" fill="#fbbf24"/>
  <circle cx="985.0" cy="308.6" r="4.5" fill="#fbbf24"/>
  <text x="95.0" y="224.9" fill="#fbbf24" font-size="15" font-weight="700">영업이익률(우, %)</text>
  <text x="391.7" y="108.0" fill="#fbbf24" font-size="13" font-weight="700" text-anchor="middle">OPM 고점 37.6</text>
  <text x="540.0" y="108.0" fill="#ef4444" font-size="13" font-weight="700" text-anchor="middle">2022 급락</text>
  <text x="95" y="566" fill="#94a3b8" font-size="14">매출 39.51→57.40(+45.3%) · OPM 34.3→30.8(-3.5%p), 2021 고점 37.6 대비 -6.8%p</text>
  <text x="540.0" y="592" fill="#fbbf24" font-size="17" font-weight="700" text-anchor="middle">외형은 커졌는데 매출 1달러가 남기는 영업이익은 줄었다(귀환 미완)</text>
</svg>
