<svg xmlns="http://www.w3.org/2000/svg" viewBox="0 0 1080 715" font-family="-apple-system, 'Segoe UI', sans-serif">
  <title>2026년에 봐야 할 다섯 가지</title>
  <desc>성장과 마진이 갈라선 전환로</desc>
  <rect width="1080" height="715" fill="#0a0e1a"/>
  <text x="540.0" y="50" fill="#f1f5f9" font-size="31" font-weight="700" text-anchor="middle">2026년에 봐야 할 다섯 가지</text>
  <text x="540.0" y="84" fill="#64748b" font-size="16" text-anchor="middle">성장과 마진이 갈라선 전환로</text>
  <g>
    <rect x="90" y="115" width="900" height="92" rx="10" fill="#11161f" stroke="#334155" stroke-width="1.5"/>
    <circle cx="135" cy="161.0" r="20" fill="#fbbf24"/><text x="135" y="168.0" fill="#0a0e1a" font-size="22" font-weight="700" text-anchor="middle">1</text>
    <text x="180" y="152" fill="#f1f5f9" font-size="20" font-weight="700">OPM이 34% 위로 귀환하는가, 30% 부근 고원에 머무는가</text>
    <text x="180" y="184" fill="#94a3b8" font-size="15.5">3막 신규 증분 마진(약 45%)이 유지되는지가 가른다(기준선 2019 34.3·2021 37.6)</text>
    <rect x="90" y="219" width="900" height="92" rx="10" fill="#11161f" stroke="#334155" stroke-width="1.5"/>
    <circle cx="135" cy="265.0" r="20" fill="#fbbf24"/><text x="135" y="272.0" fill="#0a0e1a" font-size="22" font-weight="700" text-anchor="middle">2</text>
    <text x="180" y="256" fill="#f1f5f9" font-size="20" font-weight="700">순이익 절대액이 2021 고점($13.75B)을 넘는가</text>
    <text x="180" y="288" fill="#94a3b8" font-size="15.5">영업이익은 이미 6년 최고, 순이익만 아직 고점 미달(영업단 아래 회복)</text>
    <rect x="90" y="323" width="900" height="92" rx="10" fill="#11161f" stroke="#334155" stroke-width="1.5"/>
    <circle cx="135" cy="369.0" r="20" fill="#fbbf24"/><text x="135" y="376.0" fill="#0a0e1a" font-size="22" font-weight="700" text-anchor="middle">3</text>
    <text x="180" y="360" fill="#f1f5f9" font-size="20" font-weight="700">OCF–순이익 격차($8B대)의 성격</text>
    <text x="180" y="392" fill="#94a3b8" font-size="15.5">감가상각 등 비현금 비용인지 운전자본인지 — capex 없어 FCF는 외부</text>
    <rect x="90" y="427" width="900" height="92" rx="10" fill="#11161f" stroke="#334155" stroke-width="1.5"/>
    <circle cx="135" cy="473.0" r="20" fill="#fbbf24"/><text x="135" y="480.0" fill="#0a0e1a" font-size="22" font-weight="700" text-anchor="middle">4</text>
    <text x="180" y="464" fill="#f1f5f9" font-size="20" font-weight="700">부채·이자보상배율</text>
    <text x="180" y="496" fill="#94a3b8" font-size="15.5">외부 보도 총부채 100B$·이자비용 급증이 손익에 어떻게 반영되는가(BS=연결 밖)</text>
    <rect x="90" y="531" width="900" height="92" rx="10" fill="#11161f" stroke="#334155" stroke-width="1.5"/>
    <circle cx="135" cy="577.0" r="20" fill="#fbbf24"/><text x="135" y="584.0" fill="#0a0e1a" font-size="22" font-weight="700" text-anchor="middle">5</text>
    <text x="180" y="568" fill="#f1f5f9" font-size="20" font-weight="700">RPO의 고객 집중도</text>
    <text x="180" y="600" fill="#94a3b8" font-size="15.5">외부 추정 OpenAI 단일 고객 연계 비중의 매출 인식 분산/집중(외부·이행 리스크)</text>
  </g>
  <text x="540.0" y="687" fill="#fbbf24" font-size="17" font-weight="700" text-anchor="middle">연결이 증명한 건 '성장과 마진이 갈라섰고 귀환은 미완'까지 — 부채·믹스는 외부</text>
  <text x="540.0" y="661" fill="#64748b" font-size="14" text-anchor="middle">'믹스 때문에 OPM이 깎였다'는 외부 정합이지 연결 증명 아님 — 제목 '갈라선'은 관찰</text>
</svg>
