<svg xmlns="http://www.w3.org/2000/svg" viewBox="0 0 1080 620" font-family="-apple-system, 'Segoe UI', sans-serif">
  <title>2022년 — 세 바닥이 함께 꺼졌다</title>
  <desc>2021 → 2022 ($B) — 영업이익 -28%·순이익 -51%·영업현금흐름 -40%</desc>
  <rect width="1080" height="620" fill="#0a0e1a"/>
  <text x="540.0" y="50" fill="#f1f5f9" font-size="30" font-weight="700" text-anchor="middle">2022년 — 세 바닥이 함께 꺼졌다</text>
  <text x="540.0" y="82" fill="#64748b" font-size="16" text-anchor="middle">2021 → 2022 ($B) — 영업이익 -28%·순이익 -51%·영업현금흐름 -40%</text>
  <line x1="80" y1="525.0" x2="1030" y2="525.0" stroke="#334155" stroke-width="1" opacity="0.4"/>
  <text x="68" y="530.0" fill="#64748b" font-size="13" text-anchor="end">0</text>
  <line x1="80" y1="444.0" x2="1030" y2="444.0" stroke="#334155" stroke-width="1" opacity="0.4"/>
  <text x="68" y="449.0" fill="#64748b" font-size="13" text-anchor="end">4</text>
  <line x1="80" y1="363.0" x2="1030" y2="363.0" stroke="#334155" stroke-width="1" opacity="0.4"/>
  <text x="68" y="368.0" fill="#64748b" font-size="13" text-anchor="end">7</text>
  <line x1="80" y1="282.0" x2="1030" y2="282.0" stroke="#334155" stroke-width="1" opacity="0.4"/>
  <text x="68" y="287.0" fill="#64748b" font-size="13" text-anchor="end">11</text>
  <line x1="80" y1="201.0" x2="1030" y2="201.0" stroke="#334155" stroke-width="1" opacity="0.4"/>
  <text x="68" y="206.0" fill="#64748b" font-size="13" text-anchor="end">14</text>
  <line x1="80" y1="120.0" x2="1030" y2="120.0" stroke="#334155" stroke-width="1" opacity="0.4"/>
  <text x="68" y="125.0" fill="#64748b" font-size="13" text-anchor="end">18</text>
  <rect x="140.2" y="182.8" width="98.2" height="342.2" rx="3" fill="#22c55e"/>
  <text x="189.3" y="174.8" fill="#94a3b8" font-size="11.5" text-anchor="middle">15.2</text>
  <rect x="238.3" y="279.1" width="98.2" height="245.9" rx="3" fill="#ef4444"/>
  <text x="287.4" y="271.1" fill="#94a3b8" font-size="11.5" text-anchor="middle">10.9</text>
  <text x="238.3" y="551.0" fill="#94a3b8" font-size="14" text-anchor="middle">영업이익</text>
  <rect x="456.8" y="215.6" width="98.2" height="309.4" rx="3" fill="#22c55e"/>
  <text x="505.9" y="207.6" fill="#94a3b8" font-size="11.5" text-anchor="middle">13.8</text>
  <rect x="555.0" y="373.8" width="98.2" height="151.2" rx="3" fill="#ef4444"/>
  <text x="604.1" y="365.8" fill="#94a3b8" font-size="11.5" text-anchor="middle">6.7</text>
  <text x="555.0" y="551.0" fill="#94a3b8" font-size="14" text-anchor="middle">순이익</text>
  <rect x="773.5" y="167.5" width="98.2" height="357.5" rx="3" fill="#22c55e"/>
  <text x="822.6" y="159.5" fill="#94a3b8" font-size="11.5" text-anchor="middle">15.9</text>
  <rect x="871.7" y="310.4" width="98.2" height="214.6" rx="3" fill="#ef4444"/>
  <text x="920.8" y="302.4" fill="#94a3b8" font-size="11.5" text-anchor="middle">9.5</text>
  <text x="871.7" y="551.0" fill="#94a3b8" font-size="14" text-anchor="middle">영업현금흐름</text>
  <rect x="86" y="86" width="16" height="16" rx="3" fill="#22c55e"/>
  <text x="108" y="99" fill="#94a3b8" font-size="14">2021</text>
  <rect x="178" y="86" width="16" height="16" rx="3" fill="#ef4444"/>
  <text x="200" y="99" fill="#94a3b8" font-size="14">2022</text>
  <text x="80" y="566" fill="#94a3b8" font-size="14">순이익 감소율이 영업이익의 약 2배 — 영업 바깥 타격 또는 레버리지 효과와 양립</text>
  <text x="540.0" y="592" fill="#fbbf24" font-size="17" font-weight="700" text-anchor="middle">한 해 잡음이 아니라 영업단과 그 아래가 함께 꺼진 분기점(Cerner 맥락=외부)</text>
</svg>
