<svg xmlns="http://www.w3.org/2000/svg" viewBox="0 0 1080 620" font-family="-apple-system, 'Segoe UI', sans-serif">
  <title>비율은 평탄, 절대액은 출렁 — 둘은 다른 곡선이다</title>
  <desc>영업이익률(좌축, 좁은 띠) vs 영업이익 절대액(우축, 둔화→재점프)</desc>
  <rect width="1080" height="620" fill="#0a0e1a"/>
  <text x="540.0" y="50" fill="#f1f5f9" font-size="30" font-weight="700" text-anchor="middle">비율은 평탄, 절대액은 출렁 — 둘은 다른 곡선이다</text>
  <text x="540.0" y="82" fill="#64748b" font-size="16" text-anchor="middle">영업이익률(좌축, 좁은 띠) vs 영업이익 절대액(우축, 둔화→재점프)</text>
  <line x1="95" y1="530.0" x2="985" y2="530.0" stroke="#334155" stroke-width="1" opacity="0.35"/>
  <text x="83" y="535.0" fill="#fbbf24" font-size="13" text-anchor="end">26%</text>
  <text x="997" y="535.0" fill="#3b82f6" font-size="13" text-anchor="start">2$B</text>
  <line x1="95" y1="448.0" x2="985" y2="448.0" stroke="#334155" stroke-width="1" opacity="0.35"/>
  <text x="83" y="453.0" fill="#fbbf24" font-size="13" text-anchor="end">29%</text>
  <text x="997" y="453.0" fill="#3b82f6" font-size="13" text-anchor="start">4$B</text>
  <line x1="95" y1="366.0" x2="985" y2="366.0" stroke="#334155" stroke-width="1" opacity="0.35"/>
  <text x="83" y="371.0" fill="#fbbf24" font-size="13" text-anchor="end">32%</text>
  <text x="997" y="371.0" fill="#3b82f6" font-size="13" text-anchor="start">5$B</text>
  <line x1="95" y1="284.0" x2="985" y2="284.0" stroke="#334155" stroke-width="1" opacity="0.35"/>
  <text x="83" y="289.0" fill="#fbbf24" font-size="13" text-anchor="end">34%</text>
  <text x="997" y="289.0" fill="#3b82f6" font-size="13" text-anchor="start">7$B</text>
  <line x1="95" y1="202.0" x2="985" y2="202.0" stroke="#334155" stroke-width="1" opacity="0.35"/>
  <text x="83" y="207.0" fill="#fbbf24" font-size="13" text-anchor="end">37%</text>
  <text x="997" y="207.0" fill="#3b82f6" font-size="13" text-anchor="start">8$B</text>
  <line x1="95" y1="120.0" x2="985" y2="120.0" stroke="#334155" stroke-width="1" opacity="0.35"/>
  <text x="83" y="125.0" fill="#fbbf24" font-size="13" text-anchor="end">40%</text>
  <text x="997" y="125.0" fill="#3b82f6" font-size="13" text-anchor="start">10$B</text>
  <text x="95.0" y="558.0" fill="#94a3b8" font-size="14" text-anchor="middle">2019</text>
  <text x="243.3" y="558.0" fill="#94a3b8" font-size="14" text-anchor="middle">2020</text>
  <text x="391.7" y="558.0" fill="#94a3b8" font-size="14" text-anchor="middle">2021</text>
  <text x="540.0" y="558.0" fill="#94a3b8" font-size="14" text-anchor="middle">2022</text>
  <text x="688.3" y="558.0" fill="#94a3b8" font-size="14" text-anchor="middle">2023</text>
  <text x="836.7" y="558.0" fill="#94a3b8" font-size="14" text-anchor="middle">2024</text>
  <text x="985.0" y="558.0" fill="#94a3b8" font-size="14" text-anchor="middle">2025</text>
  <polyline points="95.0,433.4 243.3,327.9 391.7,216.6 540.0,278.1 688.3,286.9 836.7,374.8 985.0,219.6" fill="none" stroke="#fbbf24" stroke-width="3.5"/>
  <circle cx="95.0" cy="433.4" r="4.5" fill="#fbbf24"/>
  <circle cx="243.3" cy="327.9" r="4.5" fill="#fbbf24"/>
  <circle cx="391.7" cy="216.6" r="4.5" fill="#fbbf24"/>
  <circle cx="540.0" cy="278.1" r="4.5" fill="#fbbf24"/>
  <circle cx="688.3" cy="286.9" r="4.5" fill="#fbbf24"/>
  <circle cx="836.7" cy="374.8" r="4.5" fill="#fbbf24"/>
  <circle cx="985.0" cy="219.6" r="4.5" fill="#fbbf24"/>
  <text x="95.0" y="421.4" fill="#fbbf24" font-size="15" font-weight="700">영업이익률(좌, %)</text>
  <polyline points="95.0,464.9 243.3,415.2 391.7,335.2 540.0,319.9 688.3,291.7 836.7,287.1 985.0,186.1" fill="none" stroke="#3b82f6" stroke-width="3.5"/>
  <circle cx="95.0" cy="464.9" r="4.5" fill="#3b82f6"/>
  <circle cx="243.3" cy="415.2" r="4.5" fill="#3b82f6"/>
  <circle cx="391.7" cy="335.2" r="4.5" fill="#3b82f6"/>
  <circle cx="540.0" cy="319.9" r="4.5" fill="#3b82f6"/>
  <circle cx="688.3" cy="291.7" r="4.5" fill="#3b82f6"/>
  <circle cx="836.7" cy="287.1" r="4.5" fill="#3b82f6"/>
  <circle cx="985.0" cy="186.1" r="4.5" fill="#3b82f6"/>
  <text x="95.0" y="452.9" fill="#3b82f6" font-size="15" font-weight="700">영업이익 절대액(우, $B)</text>
  <text x="836.7" y="108.0" fill="#ef4444" font-size="13" font-weight="700" text-anchor="middle">2024 dip(Figma)</text>
  <text x="985.0" y="108.0" fill="#3b82f6" font-size="13" font-weight="700" text-anchor="middle">2025 +1.97B</text>
  <text x="95" y="566" fill="#94a3b8" font-size="14">OPM 29.3~36.7% 좁은 띠(평균 약 33.7%) · 영업이익 2022~24 둔화 후 2025 8.71B 최고</text>
  <text x="540.0" y="592" fill="#fbbf24" font-size="17" font-weight="700" text-anchor="middle">'OPM 평탄'을 '이익 정체'로 읽으면 오독 — 절대액은 둔화했다 2025 재점프</text>
</svg>
