<svg xmlns="http://www.w3.org/2000/svg" viewBox="0 0 1080 715" font-family="-apple-system, 'Segoe UI', sans-serif">
  <title>2026년에 봐야 할 다섯 가지</title>
  <desc>평평한 비율, 출렁인 절대액 — 위협은 손익 밖</desc>
  <rect width="1080" height="715" fill="#0a0e1a"/>
  <text x="540.0" y="50" fill="#f1f5f9" font-size="31" font-weight="700" text-anchor="middle">2026년에 봐야 할 다섯 가지</text>
  <text x="540.0" y="84" fill="#64748b" font-size="16" text-anchor="middle">평평한 비율, 출렁인 절대액 — 위협은 손익 밖</text>
  <g>
    <rect x="90" y="115" width="900" height="92" rx="10" fill="#11161f" stroke="#334155" stroke-width="1.5"/>
    <circle cx="135" cy="161.0" r="20" fill="#fbbf24"/><text x="135" y="168.0" fill="#0a0e1a" font-size="22" font-weight="700" text-anchor="middle">1</text>
    <text x="180" y="152" fill="#f1f5f9" font-size="20" font-weight="700">OPM이 30%대 중반 띠(33~37%)를 유지하는가</text>
    <text x="180" y="184" fill="#94a3b8" font-size="15.5">띠를 추세적으로 이탈하면 '고원' 라벨 자체를 재검토</text>
    <rect x="90" y="219" width="900" height="92" rx="10" fill="#11161f" stroke="#334155" stroke-width="1.5"/>
    <circle cx="135" cy="265.0" r="20" fill="#fbbf24"/><text x="135" y="272.0" fill="#0a0e1a" font-size="22" font-weight="700" text-anchor="middle">2</text>
    <text x="180" y="256" fill="#f1f5f9" font-size="20" font-weight="700">영업이익 절대액 증가율이 둔화로 회귀하는가</text>
    <text x="180" y="288" fill="#94a3b8" font-size="15.5">2025 재점프가 기저효과(2024 위약금)를 넘은 지속 성장인지, 절대액 추세로</text>
    <rect x="90" y="323" width="900" height="92" rx="10" fill="#11161f" stroke="#334155" stroke-width="1.5"/>
    <circle cx="135" cy="369.0" r="20" fill="#fbbf24"/><text x="135" y="376.0" fill="#0a0e1a" font-size="22" font-weight="700" text-anchor="middle">3</text>
    <text x="180" y="360" fill="#f1f5f9" font-size="20" font-weight="700">영업현금흐름/순이익 배수가 1.0 이상 유지</text>
    <text x="180" y="392" fill="#94a3b8" font-size="15.5">1.0 밑이면 현금 구조 변화 — 단 배수 자체는 우월성 아닌 관찰 지표</text>
    <rect x="90" y="427" width="900" height="92" rx="10" fill="#11161f" stroke="#334155" stroke-width="1.5"/>
    <circle cx="135" cy="473.0" r="20" fill="#fbbf24"/><text x="135" y="480.0" fill="#0a0e1a" font-size="22" font-weight="700" text-anchor="middle">4</text>
    <text x="180" y="464" fill="#f1f5f9" font-size="20" font-weight="700">위협 서사의 손익 진입</text>
    <text x="180" y="496" fill="#94a3b8" font-size="15.5">가격결정력 의문·stock content 축소가 매출 성장률·OPM 하락으로 나타나는가</text>
    <rect x="90" y="531" width="900" height="92" rx="10" fill="#11161f" stroke="#334155" stroke-width="1.5"/>
    <circle cx="135" cy="577.0" r="20" fill="#fbbf24"/><text x="135" y="584.0" fill="#0a0e1a" font-size="22" font-weight="700" text-anchor="middle">5</text>
    <text x="180" y="568" fill="#f1f5f9" font-size="20" font-weight="700">기회 서사의 손익 진입</text>
    <text x="180" y="600" fill="#94a3b8" font-size="15.5">Firefly 등 AI 과금이 매출·마진 분리 기여로 — 전까진 양방향 미검증 외부</text>
  </g>
  <text x="540.0" y="687" fill="#fbbf24" font-size="17" font-weight="700" text-anchor="middle">연결이 증명한 건 'OPM 좁은 띠 평탄 + 절대액 둔화·재점프 + 두 일회성'까지</text>
  <text x="540.0" y="661" fill="#64748b" font-size="14" text-anchor="middle">평탄은 관찰이지 '천장' 증명 아님 — 생성형 AI는 위협·기회 양방향 모두 미검증</text>
</svg>
