<svg xmlns="http://www.w3.org/2000/svg" viewBox="0 0 1080 620" font-family="-apple-system, 'Segoe UI', sans-serif">
  <title>띠를 벗어난 두 점은 모두 손익 밖 일회성이다</title>
  <desc>영업이익률 vs 순이익률 — 2020 NPM 급등(세금)·2024 OPM dip(위약금)</desc>
  <rect width="1080" height="620" fill="#0a0e1a"/>
  <text x="540.0" y="50" fill="#f1f5f9" font-size="30" font-weight="700" text-anchor="middle">띠를 벗어난 두 점은 모두 손익 밖 일회성이다</text>
  <text x="540.0" y="82" fill="#64748b" font-size="16" text-anchor="middle">영업이익률 vs 순이익률 — 2020 NPM 급등(세금)·2024 OPM dip(위약금)</text>
  <line x1="95" y1="530.0" x2="1020" y2="530.0" stroke="#334155" stroke-width="1" opacity="0.4"/>
  <text x="83" y="535.0" fill="#64748b" font-size="14" text-anchor="end">24%</text>
  <line x1="95" y1="448.0" x2="1020" y2="448.0" stroke="#334155" stroke-width="1" opacity="0.4"/>
  <text x="83" y="453.0" fill="#64748b" font-size="14" text-anchor="end">28%</text>
  <line x1="95" y1="366.0" x2="1020" y2="366.0" stroke="#334155" stroke-width="1" opacity="0.4"/>
  <text x="83" y="371.0" fill="#64748b" font-size="14" text-anchor="end">32%</text>
  <line x1="95" y1="284.0" x2="1020" y2="284.0" stroke="#334155" stroke-width="1" opacity="0.4"/>
  <text x="83" y="289.0" fill="#64748b" font-size="14" text-anchor="end">36%</text>
  <line x1="95" y1="202.0" x2="1020" y2="202.0" stroke="#334155" stroke-width="1" opacity="0.4"/>
  <text x="83" y="207.0" fill="#64748b" font-size="14" text-anchor="end">40%</text>
  <line x1="95" y1="120.0" x2="1020" y2="120.0" stroke="#334155" stroke-width="1" opacity="0.4"/>
  <text x="83" y="125.0" fill="#64748b" font-size="14" text-anchor="end">44%</text>
  <text x="95.0" y="558.0" fill="#94a3b8" font-size="14" text-anchor="middle">2019</text>
  <text x="249.2" y="558.0" fill="#94a3b8" font-size="14" text-anchor="middle">2020</text>
  <text x="403.3" y="558.0" fill="#94a3b8" font-size="14" text-anchor="middle">2021</text>
  <text x="557.5" y="558.0" fill="#94a3b8" font-size="14" text-anchor="middle">2022</text>
  <text x="711.7" y="558.0" fill="#94a3b8" font-size="14" text-anchor="middle">2023</text>
  <text x="865.8" y="558.0" fill="#94a3b8" font-size="14" text-anchor="middle">2024</text>
  <text x="1020.0" y="558.0" fill="#94a3b8" font-size="14" text-anchor="middle">2025</text>
  <polyline points="95.0,421.3 249.2,347.6 403.3,269.6 557.5,312.7 711.7,318.9 865.8,380.3 1020.0,271.7" fill="none" stroke="#fbbf24" stroke-width="3.5"/>
  <circle cx="95.0" cy="421.3" r="4.5" fill="#fbbf24"/>
  <circle cx="249.2" cy="347.6" r="4.5" fill="#fbbf24"/>
  <circle cx="403.3" cy="269.6" r="4.5" fill="#fbbf24"/>
  <circle cx="557.5" cy="312.7" r="4.5" fill="#fbbf24"/>
  <circle cx="711.7" cy="318.9" r="4.5" fill="#fbbf24"/>
  <circle cx="865.8" cy="380.3" r="4.5" fill="#fbbf24"/>
  <circle cx="1020.0" cy="271.7" r="4.5" fill="#fbbf24"/>
  <text x="1030.0" y="276.7" fill="#fbbf24" font-size="15" font-weight="700">OPM</text>
  <polyline points="95.0,480.8 249.2,183.6 403.3,396.8 557.5,468.5 711.7,448.0 865.8,491.1 1020.0,407.0" fill="none" stroke="#3b82f6" stroke-width="3.5"/>
  <circle cx="95.0" cy="480.8" r="4.5" fill="#3b82f6"/>
  <circle cx="249.2" cy="183.6" r="4.5" fill="#3b82f6"/>
  <circle cx="403.3" cy="396.8" r="4.5" fill="#3b82f6"/>
  <circle cx="557.5" cy="468.5" r="4.5" fill="#3b82f6"/>
  <circle cx="711.7" cy="448.0" r="4.5" fill="#3b82f6"/>
  <circle cx="865.8" cy="491.1" r="4.5" fill="#3b82f6"/>
  <circle cx="1020.0" cy="407.0" r="4.5" fill="#3b82f6"/>
  <text x="1030.0" y="412.0" fill="#3b82f6" font-size="15" font-weight="700">NPM</text>
  <text x="249.2" y="108.0" fill="#22c55e" font-size="13" font-weight="700" text-anchor="middle">2020 세금</text>
  <text x="865.8" y="108.0" fill="#ef4444" font-size="13" font-weight="700" text-anchor="middle">2024 위약금</text>
  <text x="95" y="566" fill="#94a3b8" font-size="14">2020 순익 5.26>영익 4.24(유일) · 2024 위약금 $1B addback 시 OPM 약 36%(가설 산식)</text>
  <text x="540.0" y="592" fill="#fbbf24" font-size="17" font-weight="700" text-anchor="middle">2020 순익>영익(세금 일회성)·2024 dip(Figma 위약금) — 본업 추세 아님</text>
</svg>
