<svg xmlns="http://www.w3.org/2000/svg" viewBox="0 0 1080 620" font-family="-apple-system, 'Segoe UI', sans-serif">
  <title>영업이익 절대액 증가율 — 급증 → 둔화 → 재점프</title>
  <desc>전년 대비 영업이익 증가율(%) — OPM 평탄이 가린 절대액의 출렁임</desc>
  <rect width="1080" height="620" fill="#0a0e1a"/>
  <text x="540.0" y="50" fill="#f1f5f9" font-size="30" font-weight="700" text-anchor="middle">영업이익 절대액 증가율 — 급증 → 둔화 → 재점프</text>
  <text x="540.0" y="82" fill="#64748b" font-size="16" text-anchor="middle">전년 대비 영업이익 증가율(%) — OPM 평탄이 가린 절대액의 출렁임</text>
  <line x1="80" y1="525.0" x2="1030" y2="525.0" stroke="#334155" stroke-width="1" opacity="0.4"/>
  <text x="68" y="530.0" fill="#64748b" font-size="13" text-anchor="end">0</text>
  <line x1="80" y1="444.0" x2="1030" y2="444.0" stroke="#334155" stroke-width="1" opacity="0.4"/>
  <text x="68" y="449.0" fill="#64748b" font-size="13" text-anchor="end">8</text>
  <line x1="80" y1="363.0" x2="1030" y2="363.0" stroke="#334155" stroke-width="1" opacity="0.4"/>
  <text x="68" y="368.0" fill="#64748b" font-size="13" text-anchor="end">16</text>
  <line x1="80" y1="282.0" x2="1030" y2="282.0" stroke="#334155" stroke-width="1" opacity="0.4"/>
  <text x="68" y="287.0" fill="#64748b" font-size="13" text-anchor="end">24</text>
  <line x1="80" y1="201.0" x2="1030" y2="201.0" stroke="#334155" stroke-width="1" opacity="0.4"/>
  <text x="68" y="206.0" fill="#64748b" font-size="13" text-anchor="end">32</text>
  <line x1="80" y1="120.0" x2="1030" y2="120.0" stroke="#334155" stroke-width="1" opacity="0.4"/>
  <text x="68" y="125.0" fill="#64748b" font-size="13" text-anchor="end">40</text>
  <rect x="110.1" y="224.3" width="98.2" height="300.7" rx="3" fill="#3b82f6"/>
  <text x="159.2" y="216.3" fill="#94a3b8" font-size="11.5" text-anchor="middle">29.7</text>
  <text x="159.2" y="551.0" fill="#94a3b8" font-size="14" text-anchor="middle">2020</text>
  <rect x="268.4" y="152.4" width="98.2" height="372.6" rx="3" fill="#3b82f6"/>
  <text x="317.5" y="144.4" fill="#94a3b8" font-size="11.5" text-anchor="middle">36.8</text>
  <text x="317.5" y="551.0" fill="#94a3b8" font-size="14" text-anchor="middle">2021</text>
  <rect x="426.8" y="472.4" width="98.2" height="52.6" rx="3" fill="#3b82f6"/>
  <text x="475.8" y="464.4" fill="#94a3b8" font-size="11.5" text-anchor="middle">5.2</text>
  <text x="475.8" y="551.0" fill="#94a3b8" font-size="14" text-anchor="middle">2022</text>
  <rect x="585.1" y="433.9" width="98.2" height="91.1" rx="3" fill="#3b82f6"/>
  <text x="634.2" y="425.9" fill="#94a3b8" font-size="11.5" text-anchor="middle">9.0</text>
  <text x="634.2" y="551.0" fill="#94a3b8" font-size="14" text-anchor="middle">2023</text>
  <rect x="743.4" y="510.8" width="98.2" height="14.2" rx="3" fill="#3b82f6"/>
  <text x="792.5" y="502.8" fill="#94a3b8" font-size="11.5" text-anchor="middle">1.4</text>
  <text x="792.5" y="551.0" fill="#94a3b8" font-size="14" text-anchor="middle">2024</text>
  <rect x="901.8" y="229.4" width="98.2" height="295.6" rx="3" fill="#3b82f6"/>
  <text x="950.8" y="221.4" fill="#94a3b8" font-size="11.5" text-anchor="middle">29.2</text>
  <text x="950.8" y="551.0" fill="#94a3b8" font-size="14" text-anchor="middle">2025</text>
  <rect x="86" y="86" width="16" height="16" rx="3" fill="#3b82f6"/>
  <text x="108" y="99" fill="#94a3b8" font-size="14">영업이익 증가율(YoY)</text>
  <text x="80" y="566" fill="#94a3b8" font-size="14">2025 절대 증가폭 +1.97B는 7년 최대, 단 일부는 2024 위약금 기저효과</text>
  <text x="540.0" y="592" fill="#fbbf24" font-size="17" font-weight="700" text-anchor="middle">2022~24 둔화(+1.4%까지) 후 2025 +29.2% 재점프(증가율 최대는 2021)</text>
</svg>
