<svg xmlns="http://www.w3.org/2000/svg" viewBox="0 0 1080 620" font-family="-apple-system, 'Segoe UI', sans-serif">
  <title>OPM은 +11.5%p, NPM은 +4.9%p — 절반은 영업선 아래에서 샜다</title>
  <desc>영업이익률 vs 순이익률 (별개 비율) — 2023년 NPM만 34.1%로 꺾임</desc>
  <rect width="1080" height="620" fill="#0a0e1a"/>
  <text x="540.0" y="50" fill="#f1f5f9" font-size="30" font-weight="700" text-anchor="middle">OPM은 +11.5%p, NPM은 +4.9%p — 절반은 영업선 아래에서 샜다</text>
  <text x="540.0" y="82" fill="#64748b" font-size="16" text-anchor="middle">영업이익률 vs 순이익률 (별개 비율) — 2023년 NPM만 34.1%로 꺾임</text>
  <line x1="95" y1="530.0" x2="1020" y2="530.0" stroke="#334155" stroke-width="1" opacity="0.4"/>
  <text x="83" y="535.0" fill="#64748b" font-size="14" text-anchor="end">28%</text>
  <line x1="95" y1="448.0" x2="1020" y2="448.0" stroke="#334155" stroke-width="1" opacity="0.4"/>
  <text x="83" y="453.0" fill="#64748b" font-size="14" text-anchor="end">32%</text>
  <line x1="95" y1="366.0" x2="1020" y2="366.0" stroke="#334155" stroke-width="1" opacity="0.4"/>
  <text x="83" y="371.0" fill="#64748b" font-size="14" text-anchor="end">36%</text>
  <line x1="95" y1="284.0" x2="1020" y2="284.0" stroke="#334155" stroke-width="1" opacity="0.4"/>
  <text x="83" y="289.0" fill="#64748b" font-size="14" text-anchor="end">40%</text>
  <line x1="95" y1="202.0" x2="1020" y2="202.0" stroke="#334155" stroke-width="1" opacity="0.4"/>
  <text x="83" y="207.0" fill="#64748b" font-size="14" text-anchor="end">44%</text>
  <line x1="95" y1="120.0" x2="1020" y2="120.0" stroke="#334155" stroke-width="1" opacity="0.4"/>
  <text x="83" y="125.0" fill="#64748b" font-size="14" text-anchor="end">48%</text>
  <text x="95.0" y="558.0" fill="#94a3b8" font-size="14" text-anchor="middle">2019</text>
  <text x="249.2" y="558.0" fill="#94a3b8" font-size="14" text-anchor="middle">2020</text>
  <text x="403.3" y="558.0" fill="#94a3b8" font-size="14" text-anchor="middle">2021</text>
  <text x="557.5" y="558.0" fill="#94a3b8" font-size="14" text-anchor="middle">2022</text>
  <text x="711.7" y="558.0" fill="#94a3b8" font-size="14" text-anchor="middle">2023</text>
  <text x="865.8" y="558.0" fill="#94a3b8" font-size="14" text-anchor="middle">2024</text>
  <text x="1020.0" y="558.0" fill="#94a3b8" font-size="14" text-anchor="middle">2025</text>
  <polyline points="95.0,404.9 249.2,345.5 403.3,251.2 557.5,240.9 711.7,247.1 865.8,189.7 1020.0,169.2" fill="none" stroke="#fbbf24" stroke-width="3.5"/>
  <circle cx="95.0" cy="404.9" r="4.5" fill="#fbbf24"/>
  <circle cx="249.2" cy="345.5" r="4.5" fill="#fbbf24"/>
  <circle cx="403.3" cy="251.2" r="4.5" fill="#fbbf24"/>
  <circle cx="557.5" cy="240.9" r="4.5" fill="#fbbf24"/>
  <circle cx="711.7" cy="247.1" r="4.5" fill="#fbbf24"/>
  <circle cx="865.8" cy="189.7" r="4.5" fill="#fbbf24"/>
  <circle cx="1020.0" cy="169.2" r="4.5" fill="#fbbf24"/>
  <text x="1030.0" y="174.2" fill="#fbbf24" font-size="15" font-weight="700">OPM</text>
  <polyline points="95.0,464.4 249.2,468.5 403.3,355.8 557.5,351.6 711.7,404.9 865.8,366.0 1020.0,363.9" fill="none" stroke="#3b82f6" stroke-width="3.5"/>
  <circle cx="95.0" cy="464.4" r="4.5" fill="#3b82f6"/>
  <circle cx="249.2" cy="468.5" r="4.5" fill="#3b82f6"/>
  <circle cx="403.3" cy="355.8" r="4.5" fill="#3b82f6"/>
  <circle cx="557.5" cy="351.6" r="4.5" fill="#3b82f6"/>
  <circle cx="711.7" cy="404.9" r="4.5" fill="#3b82f6"/>
  <circle cx="865.8" cy="366.0" r="4.5" fill="#3b82f6"/>
  <circle cx="1020.0" cy="363.9" r="4.5" fill="#3b82f6"/>
  <text x="1030.0" y="368.9" fill="#3b82f6" font-size="15" font-weight="700">NPM</text>
  <text x="711.7" y="108.0" fill="#ef4444" font-size="13" font-weight="700" text-anchor="middle">2023 NPM 후퇴</text>
  <text x="95" y="566" fill="#94a3b8" font-size="14">OPM 34.1→45.6 (+11.5%p) · NPM 31.2→36.1 (+4.9%p) · 2023 영업 +6.2%인데 순이익 -0.5%</text>
  <text x="540.0" y="592" fill="#fbbf24" font-size="17" font-weight="700" text-anchor="middle">마진 개선의 절반이 순이익단까지 못 옴 — 손실은 2023년에 집중(원인=외부)</text>
</svg>
