<svg xmlns="http://www.w3.org/2000/svg" viewBox="0 0 1080 715" font-family="-apple-system, 'Segoe UI', sans-serif">
  <title>2026년에 봐야 할 다섯 가지</title>
  <desc>마진 복리가 capex의 감가상각을 견디는가</desc>
  <rect width="1080" height="715" fill="#0a0e1a"/>
  <text x="540.0" y="50" fill="#f1f5f9" font-size="31" font-weight="700" text-anchor="middle">2026년에 봐야 할 다섯 가지</text>
  <text x="540.0" y="84" fill="#64748b" font-size="16" text-anchor="middle">마진 복리가 capex의 감가상각을 견디는가</text>
  <g>
    <rect x="90" y="115" width="900" height="92" rx="10" fill="#11161f" stroke="#334155" stroke-width="1.5"/>
    <circle cx="135" cy="161.0" r="20" fill="#fbbf24"/><text x="135" y="168.0" fill="#0a0e1a" font-size="22" font-weight="700" text-anchor="middle">1</text>
    <text x="180" y="152" fill="#f1f5f9" font-size="20" font-weight="700">OPM이 45%대를 지키는가, 더 오르는가</text>
    <text x="180" y="184" fill="#94a3b8" font-size="15.5">capex 감가상각이 영업비용에 들어오면 분자가 눌린다 — 매출 성장이 앞서는지</text>
    <rect x="90" y="219" width="900" height="92" rx="10" fill="#11161f" stroke="#334155" stroke-width="1.5"/>
    <circle cx="135" cy="265.0" r="20" fill="#fbbf24"/><text x="135" y="272.0" fill="#0a0e1a" font-size="22" font-weight="700" text-anchor="middle">2</text>
    <text x="180" y="256" fill="#f1f5f9" font-size="20" font-weight="700">증분 영업마진이 60%대를 회복하는가</text>
    <text x="180" y="288" fill="#94a3b8" font-size="15.5">2023년 37.7%까지 꺾였던 연도별 증분이 다시 높은 자리로 가는지</text>
    <rect x="90" y="323" width="900" height="92" rx="10" fill="#11161f" stroke="#334155" stroke-width="1.5"/>
    <circle cx="135" cy="369.0" r="20" fill="#fbbf24"/><text x="135" y="376.0" fill="#0a0e1a" font-size="22" font-weight="700" text-anchor="middle">3</text>
    <text x="180" y="360" fill="#f1f5f9" font-size="20" font-weight="700">OPM–NPM 괴리가 다시 벌어지는가</text>
    <text x="180" y="392" fill="#94a3b8" font-size="15.5">2023년처럼 영업선 아래(세금·지분법)에서 새는 해가 반복되는지(원인=외부)</text>
    <rect x="90" y="427" width="900" height="92" rx="10" fill="#11161f" stroke="#334155" stroke-width="1.5"/>
    <circle cx="135" cy="473.0" r="20" fill="#fbbf24"/><text x="135" y="480.0" fill="#0a0e1a" font-size="22" font-weight="700" text-anchor="middle">4</text>
    <text x="180" y="464" fill="#f1f5f9" font-size="20" font-weight="700">OCF–순이익 격차의 성격</text>
    <text x="180" y="496" fill="#94a3b8" font-size="15.5">$30B대 격차가 감가상각 가산인지 — 비현금 가산일수록 OCF>NI를 이익품질로 단정 금지</text>
    <rect x="90" y="531" width="900" height="92" rx="10" fill="#11161f" stroke="#334155" stroke-width="1.5"/>
    <circle cx="135" cy="577.0" r="20" fill="#fbbf24"/><text x="135" y="584.0" fill="#0a0e1a" font-size="22" font-weight="700" text-anchor="middle">5</text>
    <text x="180" y="568" fill="#f1f5f9" font-size="20" font-weight="700">세그먼트 재편 후 라벨 드리프트</text>
    <text x="180" y="600" fill="#94a3b8" font-size="15.5">FY2025부터 바뀐 세그먼트 구분 — 외부 인용 합산은 정의 확정 후에만</text>
  </g>
  <text x="540.0" y="687" fill="#fbbf24" font-size="17" font-weight="700" text-anchor="middle">연결이 증명한 건 마진 복리까지 — 동력의 출처도 미래의 capex 영향도 손익 밖</text>
  <text x="540.0" y="661" fill="#64748b" font-size="14" text-anchor="middle">'클라우드가 마진을 올렸다'는 외부 가설 — 세그먼트 마진은 10-K 영역이지 연결 증명 0</text>
</svg>
