<svg xmlns="http://www.w3.org/2000/svg" viewBox="0 0 1080 620" font-family="-apple-system, 'Segoe UI', sans-serif">
  <title>영업현금흐름은 7년 내내 순이익을 웃돌았다</title>
  <desc>OCF vs 순이익 ($B) — 단 2024~25년 격차가 $30B대로 급확대</desc>
  <rect width="1080" height="620" fill="#0a0e1a"/>
  <text x="540.0" y="50" fill="#f1f5f9" font-size="30" font-weight="700" text-anchor="middle">영업현금흐름은 7년 내내 순이익을 웃돌았다</text>
  <text x="540.0" y="82" fill="#64748b" font-size="16" text-anchor="middle">OCF vs 순이익 ($B) — 단 2024~25년 격차가 $30B대로 급확대</text>
  <line x1="80" y1="525.0" x2="1030" y2="525.0" stroke="#334155" stroke-width="1" opacity="0.4"/>
  <text x="68" y="530.0" fill="#64748b" font-size="13" text-anchor="end">0</text>
  <line x1="80" y1="444.0" x2="1030" y2="444.0" stroke="#334155" stroke-width="1" opacity="0.4"/>
  <text x="68" y="449.0" fill="#64748b" font-size="13" text-anchor="end">30</text>
  <line x1="80" y1="363.0" x2="1030" y2="363.0" stroke="#334155" stroke-width="1" opacity="0.4"/>
  <text x="68" y="368.0" fill="#64748b" font-size="13" text-anchor="end">60</text>
  <line x1="80" y1="282.0" x2="1030" y2="282.0" stroke="#334155" stroke-width="1" opacity="0.4"/>
  <text x="68" y="287.0" fill="#64748b" font-size="13" text-anchor="end">90</text>
  <line x1="80" y1="201.0" x2="1030" y2="201.0" stroke="#334155" stroke-width="1" opacity="0.4"/>
  <text x="68" y="206.0" fill="#64748b" font-size="13" text-anchor="end">120</text>
  <line x1="80" y1="120.0" x2="1030" y2="120.0" stroke="#334155" stroke-width="1" opacity="0.4"/>
  <text x="68" y="125.0" fill="#64748b" font-size="13" text-anchor="end">150</text>
  <rect x="105.8" y="384.1" width="42.1" height="140.9" rx="3" fill="#22c55e"/>
  <text x="126.8" y="376.1" fill="#94a3b8" font-size="11.5" text-anchor="middle">52</text>
  <rect x="147.9" y="419.1" width="42.1" height="105.9" rx="3" fill="#3b82f6"/>
  <text x="168.9" y="411.1" fill="#94a3b8" font-size="11.5" text-anchor="middle">39</text>
  <text x="147.9" y="551.0" fill="#94a3b8" font-size="14" text-anchor="middle">2019</text>
  <rect x="241.5" y="361.2" width="42.1" height="163.8" rx="3" fill="#22c55e"/>
  <text x="262.5" y="353.2" fill="#94a3b8" font-size="11.5" text-anchor="middle">61</text>
  <rect x="283.6" y="405.4" width="42.1" height="119.6" rx="3" fill="#3b82f6"/>
  <text x="304.6" y="397.4" fill="#94a3b8" font-size="11.5" text-anchor="middle">44</text>
  <text x="283.6" y="551.0" fill="#94a3b8" font-size="14" text-anchor="middle">2020</text>
  <rect x="377.2" y="317.8" width="42.1" height="207.2" rx="3" fill="#22c55e"/>
  <text x="398.2" y="309.8" fill="#94a3b8" font-size="11.5" text-anchor="middle">77</text>
  <rect x="419.3" y="359.6" width="42.1" height="165.4" rx="3" fill="#3b82f6"/>
  <text x="440.3" y="351.6" fill="#94a3b8" font-size="11.5" text-anchor="middle">61</text>
  <text x="419.3" y="551.0" fill="#94a3b8" font-size="14" text-anchor="middle">2021</text>
  <rect x="512.9" y="284.6" width="42.1" height="240.4" rx="3" fill="#22c55e"/>
  <text x="534.0" y="276.6" fill="#94a3b8" font-size="11.5" text-anchor="middle">89</text>
  <rect x="555.0" y="328.6" width="42.1" height="196.4" rx="3" fill="#3b82f6"/>
  <text x="576.0" y="320.6" fill="#94a3b8" font-size="11.5" text-anchor="middle">73</text>
  <text x="555.0" y="551.0" fill="#94a3b8" font-size="14" text-anchor="middle">2022</text>
  <rect x="648.6" y="288.5" width="42.1" height="236.5" rx="3" fill="#22c55e"/>
  <text x="669.7" y="280.5" fill="#94a3b8" font-size="11.5" text-anchor="middle">88</text>
  <rect x="690.7" y="329.6" width="42.1" height="195.4" rx="3" fill="#3b82f6"/>
  <text x="711.8" y="321.6" fill="#94a3b8" font-size="11.5" text-anchor="middle">72</text>
  <text x="690.7" y="551.0" fill="#94a3b8" font-size="14" text-anchor="middle">2023</text>
  <rect x="784.4" y="204.9" width="42.1" height="320.1" rx="3" fill="#22c55e"/>
  <text x="805.4" y="196.9" fill="#94a3b8" font-size="11.5" text-anchor="middle">119</text>
  <rect x="826.4" y="287.0" width="42.1" height="238.0" rx="3" fill="#3b82f6"/>
  <text x="847.5" y="279.0" fill="#94a3b8" font-size="11.5" text-anchor="middle">88</text>
  <text x="826.4" y="551.0" fill="#94a3b8" font-size="14" text-anchor="middle">2024</text>
  <rect x="920.1" y="157.4" width="42.1" height="367.6" rx="3" fill="#22c55e"/>
  <text x="941.1" y="149.4" fill="#94a3b8" font-size="11.5" text-anchor="middle">136</text>
  <rect x="962.1" y="250.1" width="42.1" height="274.9" rx="3" fill="#3b82f6"/>
  <text x="983.2" y="242.1" fill="#94a3b8" font-size="11.5" text-anchor="middle">102</text>
  <text x="962.1" y="551.0" fill="#94a3b8" font-size="14" text-anchor="middle">2025</text>
  <rect x="86" y="86" width="16" height="16" rx="3" fill="#22c55e"/>
  <text x="108" y="99" fill="#94a3b8" font-size="14">영업현금흐름</text>
  <rect x="204" y="86" width="16" height="16" rx="3" fill="#3b82f6"/>
  <text x="226" y="99" fill="#94a3b8" font-size="14">당기순이익</text>
  <text x="780" y="150" fill="#fbbf24" font-size="14" font-weight="700">격차 2024 30.4 · 2025 34.3</text>
  <text x="80" y="566" fill="#94a3b8" font-size="14">OCF/순이익 1.21~1.37배 · 격차 급확대는 capex 자산화의 감가상각 그림자와 정합</text>
  <text x="540.0" y="592" fill="#fbbf24" font-size="17" font-weight="700" text-anchor="middle">OCF>순이익은 검산이지만 충분조건은 아니다 — 격차엔 비현금 가산이 섞임</text>
</svg>
