<svg xmlns="http://www.w3.org/2000/svg" viewBox="0 0 1080 740" font-family="-apple-system, 'Segoe UI', sans-serif">
  <title>코스트코 — 2026년에 봐야 할 다섯 가지</title>
  <desc>멤버십 회비 비중, 회원 갱신율, 연회비 인상의 빈도와 폭, 연결 OPM의 3%대 띠 유지, 비상품 수익 — 다음 1년 관전 포인트.</desc>
  <rect width="1080" height="740" fill="#0a0e1a"/>
  <text x="540" y="54" fill="#f1f5f9" font-size="31" font-weight="700" text-anchor="middle">2026년에 봐야 할 다섯 가지</text>
  <text x="540" y="86" fill="#64748b" font-size="16" text-anchor="middle">매출 크기가 아니라, 65% 성장에도 안 꺾인 평평한 OPM 곡선을 본다</text>

  <g>
    <rect x="90" y="115" width="900" height="92" rx="10" fill="#11161f" stroke="#334155" stroke-width="1.5"/>
    <circle cx="135" cy="161" r="20" fill="#fbbf24"/><text x="135" y="168" fill="#0a0e1a" font-size="22" font-weight="700" text-anchor="middle">1</text>
    <text x="180" y="152" fill="#f1f5f9" font-size="21" font-weight="700">멤버십 회비 비중</text>
    <text x="180" y="184" fill="#94a3b8" font-size="16">진짜 엔진의 크기 — 최신 10-K에서 연회비가 영업이익의 몇 %인지가 가치의 토대 (외부)</text>

    <rect x="90" y="219" width="900" height="92" rx="10" fill="#11161f" stroke="#334155" stroke-width="1.5"/>
    <circle cx="135" cy="265" r="20" fill="#fbbf24"/><text x="135" y="272" fill="#0a0e1a" font-size="22" font-weight="700" text-anchor="middle">2</text>
    <text x="180" y="256" fill="#f1f5f9" font-size="21" font-weight="700">회원 갱신율</text>
    <text x="180" y="288" fill="#94a3b8" font-size="16">90%대(외부)가 유지되는지 — 갱신율이 깨지면 회비 줄기 자체가 흔들린다</text>

    <rect x="90" y="323" width="900" height="92" rx="10" fill="#11161f" stroke="#334155" stroke-width="1.5"/>
    <circle cx="135" cy="369" r="20" fill="#fbbf24"/><text x="135" y="376" fill="#0a0e1a" font-size="22" font-weight="700" text-anchor="middle">3</text>
    <text x="180" y="360" fill="#f1f5f9" font-size="21" font-weight="700">연회비 인상의 빈도와 폭</text>
    <text x="180" y="392" fill="#94a3b8" font-size="16">회비를 올리면 이익이 바로 늘지만 갱신율·트래픽을 건드린다 — 인상과 이탈의 균형</text>

    <rect x="90" y="427" width="900" height="92" rx="10" fill="#11161f" stroke="#334155" stroke-width="1.5"/>
    <circle cx="135" cy="473" r="20" fill="#fbbf24"/><text x="135" y="480" fill="#0a0e1a" font-size="22" font-weight="700" text-anchor="middle">4</text>
    <text x="180" y="464" fill="#f1f5f9" font-size="21" font-weight="700">연결 OPM이 3%대 띠를 지키는지</text>
    <text x="180" y="496" fill="#94a3b8" font-size="16">마진을 끌어올리려는 유혹에 굴복하는 순간 정체성이 바뀐다 — 평평함의 유지가 신호</text>

    <rect x="90" y="531" width="900" height="92" rx="10" fill="#11161f" stroke="#334155" stroke-width="1.5"/>
    <circle cx="135" cy="577" r="20" fill="#fbbf24"/><text x="135" y="584" fill="#0a0e1a" font-size="22" font-weight="700" text-anchor="middle">5</text>
    <text x="180" y="568" fill="#f1f5f9" font-size="21" font-weight="700">비상품 수익 (전자상거래·주유·약국·여행)</text>
    <text x="180" y="600" fill="#94a3b8" font-size="16">회비 모델을 보강하는 곁가지가 어떻게 크는지 (외부)</text>
  </g>
  <text x="540" y="678" fill="#fbbf24" font-size="17" font-weight="700" text-anchor="middle">마진을 일부러 3%대에 묶어 회원을 가두는 회사 — 평평한 곡선이 곧 해자</text>
  <text x="540" y="710" fill="#64748b" font-size="14" text-anchor="middle">— 진짜 이익원(회비)은 연결 손익 한 줄에 안 적혀 있다 (회비=외부)</text>
</svg>
