<svg xmlns="http://www.w3.org/2000/svg" viewBox="0 0 1080 720" font-family="-apple-system, 'Segoe UI', sans-serif">
  <title>파마리서치 — 2026년에 봐야 할 다섯 가지</title>
  <desc>영업이익률 40% 지속, 다음 진료실, 재고 속도, 지주사 전환 재추진, 해외 매출 비중 — 다음 1년 체크포인트.</desc>
  <rect width="1080" height="720" fill="#0a0e1a"/>
  <text x="540" y="58" fill="#f1f5f9" font-size="32" font-weight="700" text-anchor="middle">2026년에 봐야 할 다섯 가지</text>
  <text x="540" y="92" fill="#64748b" font-size="17" text-anchor="middle">"갈아끼우기"의 약발이 이어지는지가 핵심</text>

  <g>
    <rect x="90" y="125" width="900" height="92" rx="10" fill="#11161f" stroke="#334155" stroke-width="1.5"/>
    <circle cx="135" cy="171" r="20" fill="#fbbf24"/><text x="135" y="178" fill="#0a0e1a" font-size="22" font-weight="700" text-anchor="middle">1</text>
    <text x="180" y="162" fill="#f1f5f9" font-size="21" font-weight="700">영업이익률 40%의 지속</text>
    <text x="180" y="194" fill="#94a3b8" font-size="16">리쥬란이 후발 경쟁으로 가격경쟁에 들어가도 40%대가 유지되는가 — 깎이면 갈아끼우기 약발 소진 신호</text>

    <rect x="90" y="229" width="900" height="92" rx="10" fill="#11161f" stroke="#334155" stroke-width="1.5"/>
    <circle cx="135" cy="275" r="20" fill="#fbbf24"/><text x="135" y="282" fill="#0a0e1a" font-size="22" font-weight="700" text-anchor="middle">2</text>
    <text x="180" y="266" fill="#f1f5f9" font-size="21" font-weight="700">다음 진료실</text>
    <text x="180" y="298" fill="#94a3b8" font-size="16">미용·정형 다음으로 PDRN/PN을 옮길 새 카테고리가 나오는가 — 인접 시장이 계속 있어야 작동</text>

    <rect x="90" y="333" width="900" height="92" rx="10" fill="#11161f" stroke="#334155" stroke-width="1.5"/>
    <circle cx="135" cy="379" r="20" fill="#fbbf24"/><text x="135" y="386" fill="#0a0e1a" font-size="22" font-weight="700" text-anchor="middle">3</text>
    <text x="180" y="370" fill="#f1f5f9" font-size="21" font-weight="700">재고의 속도</text>
    <text x="180" y="402" fill="#94a3b8" font-size="16">재고가 매출보다 계속 빠르게 늘면(16배) 언젠가 운전자본 부담·진부화로 돌아온다. 재고회전이 꺾이는지</text>

    <rect x="90" y="437" width="900" height="92" rx="10" fill="#11161f" stroke="#334155" stroke-width="1.5"/>
    <circle cx="135" cy="483" r="20" fill="#fbbf24"/><text x="135" y="490" fill="#0a0e1a" font-size="22" font-weight="700" text-anchor="middle">4</text>
    <text x="180" y="474" fill="#f1f5f9" font-size="21" font-weight="700">지주사 전환 재추진 여부</text>
    <text x="180" y="506" fill="#94a3b8" font-size="16">철회한 인적분할을 다시 꺼내는가 — 지배구조 변경은 일반 주주 유불리가 갈리는 사안</text>

    <rect x="90" y="541" width="900" height="92" rx="10" fill="#11161f" stroke="#334155" stroke-width="1.5"/>
    <circle cx="135" cy="587" r="20" fill="#fbbf24"/><text x="135" y="594" fill="#0a0e1a" font-size="22" font-weight="700" text-anchor="middle">5</text>
    <text x="180" y="578" fill="#f1f5f9" font-size="21" font-weight="700">해외 매출 비중</text>
    <text x="180" y="610" fill="#94a3b8" font-size="16">국내 미용 시장은 결국 좁다 — 리쥬란·PDRN의 해외 진출이 새 성장축이 되는지</text>
  </g>
  <text x="540" y="678" fill="#fbbf24" font-size="17" font-weight="700" text-anchor="middle">미용 회사의 운명(크면 마진 잃기)을 13년 거슬렀다 — 새 그릇에서도 이어갈 수 있는가</text>
</svg>
