<svg xmlns="http://www.w3.org/2000/svg" viewBox="0 0 780 450" font-family="Malgun Gothic, 'Apple SD Gothic Neo', sans-serif">
<rect width="780" height="450" fill="#0a0e1a"/>
<text x="70" y="34" fill="#e2e8f0" font-size="20" font-weight="700">영업이익률 vs 순이익률 — 2025년의 괴리</text>
<text x="70" y="54" fill="#94a3b8" font-size="12.5">2019~2025 (%), 영업은 멀쩡, 최종선만 반토막</text>
<line x1="70" y1="394.0" x2="710" y2="394.0" stroke="#1e293b" stroke-width="1"/>
<text x="62" y="398.0" fill="#94a3b8" font-size="11" text-anchor="end">0.0</text>
<line x1="70" y1="311.5" x2="710" y2="311.5" stroke="#1e293b" stroke-width="1"/>
<text x="62" y="315.5" fill="#94a3b8" font-size="11" text-anchor="end">9.7</text>
<line x1="70" y1="229.0" x2="710" y2="229.0" stroke="#1e293b" stroke-width="1"/>
<text x="62" y="233.0" fill="#94a3b8" font-size="11" text-anchor="end">19.4</text>
<line x1="70" y1="146.5" x2="710" y2="146.5" stroke="#1e293b" stroke-width="1"/>
<text x="62" y="150.5" fill="#94a3b8" font-size="11" text-anchor="end">29.0</text>
<line x1="70" y1="64.0" x2="710" y2="64.0" stroke="#1e293b" stroke-width="1"/>
<text x="62" y="68.0" fill="#94a3b8" font-size="11" text-anchor="end">38.7</text>
<text x="115.7" y="414" fill="#94a3b8" font-size="11" text-anchor="middle">2019</text>
<text x="207.1" y="414" fill="#94a3b8" font-size="11" text-anchor="middle">2020</text>
<text x="298.6" y="414" fill="#94a3b8" font-size="11" text-anchor="middle">2021</text>
<text x="390.0" y="414" fill="#94a3b8" font-size="11" text-anchor="middle">2022</text>
<text x="481.4" y="414" fill="#94a3b8" font-size="11" text-anchor="middle">2023</text>
<text x="572.9" y="414" fill="#94a3b8" font-size="11" text-anchor="middle">2024</text>
<text x="664.3" y="414" fill="#94a3b8" font-size="11" text-anchor="middle">2025</text>
<rect x="608" y="34" width="12" height="12" rx="2" fill="#fbbf24"/>
<text x="625" y="44" fill="#94a3b8" font-size="11.5">OPM</text>
<rect x="659" y="34" width="12" height="12" rx="2" fill="#3b82f6"/>
<text x="676" y="44" fill="#94a3b8" font-size="11.5">NPM</text>
<polyline points="115.7,124.6 207.1,167.2 298.6,145.1 390.0,87.9 481.4,209.0 572.9,174.0 664.3,156.1" fill="none" stroke="#fbbf24" stroke-width="3" stroke-linejoin="round"/>
<circle cx="115.7" cy="124.6" r="3.5" fill="#fbbf24"/>
<circle cx="207.1" cy="167.2" r="3.5" fill="#fbbf24"/>
<circle cx="298.6" cy="145.1" r="3.5" fill="#fbbf24"/>
<circle cx="390.0" cy="87.9" r="3.5" fill="#fbbf24"/>
<circle cx="481.4" cy="209.0" r="3.5" fill="#fbbf24"/>
<circle cx="572.9" cy="174.0" r="3.5" fill="#fbbf24"/>
<circle cx="664.3" cy="156.1" r="3.5" fill="#fbbf24"/>
<text x="664.3" y="146.1" fill="#fbbf24" font-size="11" font-weight="700" text-anchor="end">27.9</text>
<polyline points="115.7,239.7 207.1,205.6 298.6,164.7 390.0,144.2 481.4,221.8 572.9,172.3 664.3,287.4" fill="none" stroke="#3b82f6" stroke-width="3" stroke-linejoin="round"/>
<circle cx="115.7" cy="239.7" r="3.5" fill="#3b82f6"/>
<circle cx="207.1" cy="205.6" r="3.5" fill="#3b82f6"/>
<circle cx="298.6" cy="164.7" r="3.5" fill="#3b82f6"/>
<circle cx="390.0" cy="144.2" r="3.5" fill="#3b82f6"/>
<circle cx="481.4" cy="221.8" r="3.5" fill="#3b82f6"/>
<circle cx="572.9" cy="172.3" r="3.5" fill="#3b82f6"/>
<circle cx="664.3" cy="287.4" r="3.5" fill="#3b82f6"/>
<text x="664.3" y="277.4" fill="#3b82f6" font-size="11" font-weight="700" text-anchor="end">12.5</text>
<text x="70" y="436" fill="#94a3b8" font-size="11">단위: %</text>
</svg>
