<svg xmlns="http://www.w3.org/2000/svg" viewBox="0 0 780 450" font-family="Malgun Gothic, 'Apple SD Gothic Neo', sans-serif">
<rect width="780" height="450" fill="#0a0e1a"/>
<text x="70" y="34" fill="#e2e8f0" font-size="20" font-weight="700">매출과 영업이익 — 본업은 견고</text>
<text x="70" y="54" fill="#94a3b8" font-size="12.5">막대=매출($B), 선=영업이익($B), 2019~2025</text>
<line x1="70" y1="394.0" x2="710" y2="394.0" stroke="#1e293b" stroke-width="1"/>
<text x="62" y="398.0" fill="#94a3b8" font-size="10.5" text-anchor="end">0</text>
<line x1="70" y1="311.5" x2="710" y2="311.5" stroke="#1e293b" stroke-width="1"/>
<text x="62" y="315.5" fill="#94a3b8" font-size="10.5" text-anchor="end">12</text>
<line x1="70" y1="229.0" x2="710" y2="229.0" stroke="#1e293b" stroke-width="1"/>
<text x="62" y="233.0" fill="#94a3b8" font-size="10.5" text-anchor="end">25</text>
<line x1="70" y1="146.5" x2="710" y2="146.5" stroke="#1e293b" stroke-width="1"/>
<text x="62" y="150.5" fill="#94a3b8" font-size="10.5" text-anchor="end">37</text>
<line x1="70" y1="64.0" x2="710" y2="64.0" stroke="#1e293b" stroke-width="1"/>
<text x="62" y="68.0" fill="#94a3b8" font-size="10.5" text-anchor="end">50</text>
<text x="718" y="398.0" fill="#22c55e" font-size="10.5" text-anchor="start">0</text>
<text x="718" y="315.5" fill="#22c55e" font-size="10.5" text-anchor="start">4</text>
<text x="718" y="233.0" fill="#22c55e" font-size="10.5" text-anchor="start">9</text>
<text x="718" y="150.5" fill="#22c55e" font-size="10.5" text-anchor="start">13</text>
<text x="718" y="68.0" fill="#22c55e" font-size="10.5" text-anchor="start">17</text>
<text x="115.7" y="414" fill="#94a3b8" font-size="11" text-anchor="middle">2019</text>
<text x="207.1" y="414" fill="#94a3b8" font-size="11" text-anchor="middle">2020</text>
<text x="298.6" y="414" fill="#94a3b8" font-size="11" text-anchor="middle">2021</text>
<text x="390.0" y="414" fill="#94a3b8" font-size="11" text-anchor="middle">2022</text>
<text x="481.4" y="414" fill="#94a3b8" font-size="11" text-anchor="middle">2023</text>
<text x="572.9" y="414" fill="#94a3b8" font-size="11" text-anchor="middle">2024</text>
<text x="664.3" y="414" fill="#94a3b8" font-size="11" text-anchor="middle">2025</text>
<rect x="608" y="34" width="12" height="12" rx="2" fill="#3b82f6"/>
<text x="625" y="44" fill="#94a3b8" font-size="11.5">매출</text>
<rect x="652" y="34" width="12" height="12" rx="2" fill="#22c55e"/>
<text x="669" y="44" fill="#94a3b8" font-size="11.5">영업이익</text>
<rect x="92.9" y="232.5" width="45.7" height="161.5" rx="2" fill="#3b82f6" opacity="0.85"/>
<rect x="184.3" y="237.4" width="45.7" height="156.6" rx="2" fill="#3b82f6" opacity="0.85"/>
<rect x="275.7" y="170.6" width="45.7" height="223.4" rx="2" fill="#3b82f6" opacity="0.85"/>
<rect x="367.1" y="99.9" width="45.7" height="294.1" rx="2" fill="#3b82f6" opacity="0.85"/>
<rect x="458.6" y="155.7" width="45.7" height="238.3" rx="2" fill="#3b82f6" opacity="0.85"/>
<rect x="550.0" y="134.8" width="45.7" height="259.2" rx="2" fill="#3b82f6" opacity="0.85"/>
<rect x="641.4" y="99.4" width="45.7" height="294.6" rx="2" fill="#3b82f6" opacity="0.85"/>
<polyline points="115.7,245.2 207.1,272.8 298.6,204.1 390.0,86.4 481.4,242.9 572.9,198.7 664.3,154.3" fill="none" stroke="#22c55e" stroke-width="3" stroke-linejoin="round"/>
<circle cx="115.7" cy="245.2" r="3.2" fill="#22c55e"/>
<circle cx="207.1" cy="272.8" r="3.2" fill="#22c55e"/>
<circle cx="298.6" cy="204.1" r="3.2" fill="#22c55e"/>
<circle cx="390.0" cy="86.4" r="3.2" fill="#22c55e"/>
<circle cx="481.4" cy="242.9" r="3.2" fill="#22c55e"/>
<circle cx="572.9" cy="198.7" r="3.2" fill="#22c55e"/>
<circle cx="664.3" cy="154.3" r="3.2" fill="#22c55e"/>
<text x="70" y="436" fill="#3b82f6" font-size="11">매출 (좌, $B)</text>
<text x="710" y="436" fill="#22c55e" font-size="11" text-anchor="end">영업이익 (우)</text>
</svg>
