<svg xmlns="http://www.w3.org/2000/svg" viewBox="0 0 780 450" font-family="Malgun Gothic, 'Apple SD Gothic Neo', sans-serif">
<rect width="780" height="450" fill="#0a0e1a"/>
<text x="70" y="34" fill="#e2e8f0" font-size="20" font-weight="700">매출 — 꾸준한 성장</text>
<text x="70" y="54" fill="#94a3b8" font-size="12.5">2019·2021~2025 ($B)</text>
<line x1="70" y1="394.0" x2="710" y2="394.0" stroke="#1e293b" stroke-width="1"/>
<text x="62" y="398.0" fill="#94a3b8" font-size="11" text-anchor="end">0.0</text>
<line x1="70" y1="311.5" x2="710" y2="311.5" stroke="#1e293b" stroke-width="1"/>
<text x="62" y="315.5" fill="#94a3b8" font-size="11" text-anchor="end">7.9</text>
<line x1="70" y1="229.0" x2="710" y2="229.0" stroke="#1e293b" stroke-width="1"/>
<text x="62" y="233.0" fill="#94a3b8" font-size="11" text-anchor="end">15.9</text>
<line x1="70" y1="146.5" x2="710" y2="146.5" stroke="#1e293b" stroke-width="1"/>
<text x="62" y="150.5" fill="#94a3b8" font-size="11" text-anchor="end">23.8</text>
<line x1="70" y1="64.0" x2="710" y2="64.0" stroke="#1e293b" stroke-width="1"/>
<text x="62" y="68.0" fill="#94a3b8" font-size="11" text-anchor="end">31.8</text>
<text x="123.3" y="414" fill="#94a3b8" font-size="11" text-anchor="middle">2019</text>
<text x="230.0" y="414" fill="#94a3b8" font-size="11" text-anchor="middle">2021</text>
<text x="336.7" y="414" fill="#94a3b8" font-size="11" text-anchor="middle">2022</text>
<text x="443.3" y="414" fill="#94a3b8" font-size="11" text-anchor="middle">2023</text>
<text x="550.0" y="414" fill="#94a3b8" font-size="11" text-anchor="middle">2024</text>
<text x="656.7" y="414" fill="#94a3b8" font-size="11" text-anchor="middle">2025</text>
<rect x="90.3" y="242.3" width="66.1" height="151.7" rx="2" fill="#3b82f6"/>
<text x="123.3" y="236.3" fill="#e2e8f0" font-size="10.5" text-anchor="middle">14.6</text>
<rect x="196.9" y="154.5" width="66.1" height="239.5" rx="2" fill="#3b82f6"/>
<text x="230.0" y="148.5" fill="#e2e8f0" font-size="10.5" text-anchor="middle">23.1</text>
<rect x="303.6" y="126.2" width="66.1" height="267.8" rx="2" fill="#3b82f6"/>
<text x="336.7" y="120.2" fill="#e2e8f0" font-size="10.5" text-anchor="middle">25.8</text>
<rect x="410.3" y="118.6" width="66.1" height="275.4" rx="2" fill="#3b82f6"/>
<text x="443.3" y="112.6" fill="#e2e8f0" font-size="10.5" text-anchor="middle">26.5</text>
<rect x="516.9" y="111.7" width="66.1" height="282.3" rx="2" fill="#3b82f6"/>
<text x="550.0" y="105.7" fill="#e2e8f0" font-size="10.5" text-anchor="middle">27.2</text>
<rect x="623.6" y="99.4" width="66.1" height="294.6" rx="2" fill="#3b82f6"/>
<text x="656.7" y="93.4" fill="#e2e8f0" font-size="10.5" text-anchor="middle">28.4</text>
<text x="70" y="436" fill="#94a3b8" font-size="11">단위: $B</text>
</svg>
