<svg xmlns="http://www.w3.org/2000/svg" viewBox="0 0 780 450" font-family="Malgun Gothic, 'Apple SD Gothic Neo', sans-serif">
<rect width="780" height="450" fill="#0a0e1a"/>
<text x="70" y="34" fill="#e2e8f0" font-size="20" font-weight="700">영업이익 — 사이클 위에서도 우상향</text>
<text x="70" y="54" fill="#94a3b8" font-size="12.5">2019·2021~2025 ($B)</text>
<line x1="70" y1="394.0" x2="710" y2="394.0" stroke="#1e293b" stroke-width="1"/>
<text x="62" y="398.0" fill="#94a3b8" font-size="11" text-anchor="end">0.00</text>
<line x1="70" y1="311.5" x2="710" y2="311.5" stroke="#1e293b" stroke-width="1"/>
<text x="62" y="315.5" fill="#94a3b8" font-size="11" text-anchor="end">2.22</text>
<line x1="70" y1="229.0" x2="710" y2="229.0" stroke="#1e293b" stroke-width="1"/>
<text x="62" y="233.0" fill="#94a3b8" font-size="11" text-anchor="end">4.44</text>
<line x1="70" y1="146.5" x2="710" y2="146.5" stroke="#1e293b" stroke-width="1"/>
<text x="62" y="150.5" fill="#94a3b8" font-size="11" text-anchor="end">6.66</text>
<line x1="70" y1="64.0" x2="710" y2="64.0" stroke="#1e293b" stroke-width="1"/>
<text x="62" y="68.0" fill="#94a3b8" font-size="11" text-anchor="end">8.88</text>
<text x="123.3" y="414" fill="#94a3b8" font-size="11" text-anchor="middle">2019</text>
<text x="230.0" y="414" fill="#94a3b8" font-size="11" text-anchor="middle">2021</text>
<text x="336.7" y="414" fill="#94a3b8" font-size="11" text-anchor="middle">2022</text>
<text x="443.3" y="414" fill="#94a3b8" font-size="11" text-anchor="middle">2023</text>
<text x="550.0" y="414" fill="#94a3b8" font-size="11" text-anchor="middle">2024</text>
<text x="656.7" y="414" fill="#94a3b8" font-size="11" text-anchor="middle">2025</text>
<polyline points="123.3,269.5 230.0,138.0 336.7,104.6 443.3,109.8 550.0,101.6 656.7,86.0" fill="none" stroke="#22c55e" stroke-width="3" stroke-linejoin="round"/>
<circle cx="123.3" cy="269.5" r="3.5" fill="#22c55e"/>
<circle cx="230.0" cy="138.0" r="3.5" fill="#22c55e"/>
<circle cx="336.7" cy="104.6" r="3.5" fill="#22c55e"/>
<circle cx="443.3" cy="109.8" r="3.5" fill="#22c55e"/>
<circle cx="550.0" cy="101.6" r="3.5" fill="#22c55e"/>
<circle cx="656.7" cy="86.0" r="3.5" fill="#22c55e"/>
<text x="656.7" y="76.0" fill="#22c55e" font-size="11" font-weight="700" text-anchor="end">8.29</text>
<text x="70" y="436" fill="#94a3b8" font-size="11">단위: $B</text>
</svg>
