<svg xmlns="http://www.w3.org/2000/svg" viewBox="0 0 1080 320" font-family="-apple-system, 'Segoe UI', sans-serif">
  <rect width="1080" height="320" fill="#0a0e1a"/>
  <text x="540" y="36" font-size="18" font-weight="700" fill="#f1f5f9" text-anchor="middle">OPM 5년 — 8년 안정 + 1번의 붕괴</text>
  <text x="540" y="58" font-size="12" fill="#64748b" text-anchor="middle">해킹 한 번에 4%p 증발</text>
  <line x1="100" y1="260" x2="960" y2="260" stroke="#334155" stroke-width="1"/>
  <!-- scale: 0%=260, 12%=70. 1%=15.83px -->
  <!-- 8.3: y=260-8.3*15.83=128.6 -->
  <polyline points="200,129 360,113 520,102 680,99 840,160" fill="none" stroke="#3b82f6" stroke-width="3" stroke-linejoin="round"/>
  <circle cx="200" cy="129" r="6" fill="#22c55e"/>
  <text x="200" y="117" font-size="12" font-weight="700" fill="#22c55e" text-anchor="middle">8.3%</text>
  <text x="200" y="280" font-size="11" fill="#94a3b8" text-anchor="middle">2021</text>
  <circle cx="360" cy="113" r="6" fill="#22c55e"/>
  <text x="360" y="101" font-size="12" font-weight="700" fill="#22c55e" text-anchor="middle">9.3%</text>
  <text x="360" y="280" font-size="11" fill="#94a3b8" text-anchor="middle">2022</text>
  <circle cx="520" cy="102" r="6" fill="#22c55e"/>
  <text x="520" y="90" font-size="12" font-weight="700" fill="#22c55e" text-anchor="middle">10.0%</text>
  <text x="520" y="280" font-size="11" fill="#94a3b8" text-anchor="middle">2023</text>
  <circle cx="680" cy="99" r="6" fill="#22c55e"/>
  <text x="680" y="87" font-size="12" font-weight="700" fill="#22c55e" text-anchor="middle">10.2%</text>
  <text x="680" y="280" font-size="11" fill="#94a3b8" text-anchor="middle">2024</text>
  <circle cx="840" cy="160" r="12" fill="#ef4444" opacity="0.3" stroke="#ef4444" stroke-width="2"/>
  <circle cx="840" cy="160" r="6" fill="#ef4444"/>
  <text x="840" y="148" font-size="13" font-weight="800" fill="#ef4444" text-anchor="middle">6.3%</text>
  <text x="840" y="280" font-size="11" fill="#ef4444" text-anchor="middle">2025 (해킹)</text>
  <rect x="760" y="195" width="180" height="24" rx="12" fill="#ef4444" opacity="0.2"/>
  <text x="850" y="212" font-size="11" font-weight="700" fill="#ef4444" text-anchor="middle">-3.9%p (일회성+구조)</text>
</svg>
