<svg xmlns="http://www.w3.org/2000/svg" viewBox="0 0 1080 740" font-family="-apple-system, 'Segoe UI', sans-serif">
  <title>포스코인터내셔널 — 2026년에 봐야 할 다섯 가지</title>
  <desc>영업CF/순이익 배율, 계단 후의 다음 칸, 미얀마 가스전 매장량·생산, LNG 발전 가동률·규제, 미얀마 지정학 리스크 — 다음 1년 관전 포인트.</desc>
  <rect width="1080" height="740" fill="#0a0e1a"/>
  <text x="540" y="54" fill="#f1f5f9" font-size="31" font-weight="700" text-anchor="middle">2026년에 봐야 할 다섯 가지</text>
  <text x="540" y="86" fill="#64748b" font-size="16" text-anchor="middle">매출이 아니라 현금 지문 — 상사라고 다 같은 게 아니다</text>

  <g>
    <rect x="90" y="115" width="900" height="92" rx="10" fill="#11161f" stroke="#334155" stroke-width="1.5"/>
    <circle cx="135" cy="161" r="20" fill="#fbbf24"/><text x="135" y="168" fill="#0a0e1a" font-size="22" font-weight="700" text-anchor="middle">1</text>
    <text x="180" y="152" fill="#f1f5f9" font-size="21" font-weight="700">영업CF / 순이익 배율</text>
    <text x="180" y="184" fill="#94a3b8" font-size="16">3.05배라는 현금 지문이 유지되나 — 이 배율이 '상사가 아니라 자원·발전'임을 증명한다</text>

    <rect x="90" y="219" width="900" height="92" rx="10" fill="#11161f" stroke="#334155" stroke-width="1.5"/>
    <circle cx="135" cy="265" r="20" fill="#fbbf24"/><text x="135" y="272" fill="#0a0e1a" font-size="22" font-weight="700" text-anchor="middle">2</text>
    <text x="180" y="256" fill="#f1f5f9" font-size="21" font-weight="700">계단 후의 다음 칸</text>
    <text x="180" y="288" fill="#94a3b8" font-size="16">영업이익이 23→25년 평탄(1.16조) — 합병 효과 소진 뒤 다음 성장 동력이 있나</text>

    <rect x="90" y="323" width="900" height="92" rx="10" fill="#11161f" stroke="#334155" stroke-width="1.5"/>
    <circle cx="135" cy="369" r="20" fill="#fbbf24"/><text x="135" y="376" fill="#0a0e1a" font-size="22" font-weight="700" text-anchor="middle">3</text>
    <text x="180" y="360" fill="#f1f5f9" font-size="21" font-weight="700">미얀마 가스전 매장량·생산</text>
    <text x="180" y="392" fill="#94a3b8" font-size="16">유한 자원 — 생산 감소·매장량 고갈은 감가상각과 현금 지문을 동시에 줄인다</text>

    <rect x="90" y="427" width="900" height="92" rx="10" fill="#11161f" stroke="#334155" stroke-width="1.5"/>
    <circle cx="135" cy="473" r="20" fill="#fbbf24"/><text x="135" y="480" fill="#0a0e1a" font-size="22" font-weight="700" text-anchor="middle">4</text>
    <text x="180" y="464" fill="#f1f5f9" font-size="21" font-weight="700">LNG 발전 가동률·규제</text>
    <text x="180" y="496" fill="#94a3b8" font-size="16">합병으로 들어온 발전이 연료비·전력 규제 사이클에 어떻게 묶이나</text>

    <rect x="90" y="531" width="900" height="92" rx="10" fill="#11161f" stroke="#334155" stroke-width="1.5"/>
    <circle cx="135" cy="577" r="20" fill="#fbbf24"/><text x="135" y="584" fill="#0a0e1a" font-size="22" font-weight="700" text-anchor="middle">5</text>
    <text x="180" y="568" fill="#f1f5f9" font-size="21" font-weight="700">미얀마 지정학 리스크</text>
    <text x="180" y="600" fill="#94a3b8" font-size="16">군부 쿠데타(2021) 이후 가스전 운영·송출 환경 — 외부 변수지만 현금 원천에 직결</text>
  </g>
  <text x="540" y="678" fill="#fbbf24" font-size="17" font-weight="700" text-anchor="middle">매출 32조는 간판, 진짜 얼굴은 영업이익의 3배로 고이는 현금</text>
  <text x="540" y="710" fill="#64748b" font-size="14" text-anchor="middle">— 종합상사가 아니라 가스전과 발전소의 지문이다</text>
</svg>
