<svg xmlns="http://www.w3.org/2000/svg" viewBox="0 0 1200 720" fill="none">
  <defs>
    <linearGradient id="bg3" x1="0" y1="0" x2="0" y2="1">
      <stop offset="0%" stop-color="#050811"/>
      <stop offset="100%" stop-color="#0f1219"/>
    </linearGradient>
    <linearGradient id="dpsfade" x1="0" y1="0" x2="0" y2="1">
      <stop offset="0%" stop-color="#22c55e" stop-opacity="0.5"/>
      <stop offset="100%" stop-color="#22c55e" stop-opacity="0"/>
    </linearGradient>
  </defs>
  <rect width="1200" height="720" rx="16" fill="url(#bg3)"/>
  <rect x="0.5" y="0.5" width="1199" height="719" rx="16" stroke="#1e2433"/>

  <text x="600" y="48" text-anchor="middle" font-family="Inter, sans-serif" font-size="22" font-weight="800" fill="#f1f5f9">주당 배당금 9년 — 150원에서 4,800원 (32배)</text>
  <text x="600" y="74" text-anchor="middle" font-family="Inter, sans-serif" font-size="13" fill="#64748b">DART 사업보고서 — 주당 현금배당금 9년 시계열</text>

  <line x1="100" y1="120" x2="100" y2="540" stroke="#1e2433"/>
  <line x1="100" y1="540" x2="1140" y2="540" stroke="#1e2433"/>
  <g font-family="Inter, sans-serif" font-size="11" fill="#64748b">
    <text x="92" y="124" text-anchor="end">5,000원</text>
    <text x="92" y="208" text-anchor="end">4,000</text>
    <text x="92" y="292" text-anchor="end">3,000</text>
    <text x="92" y="376" text-anchor="end">2,000</text>
    <text x="92" y="460" text-anchor="end">1,000</text>
    <text x="92" y="544" text-anchor="end">0</text>
  </g>
  <line x1="100" y1="208" x2="1140" y2="208" stroke="#1e2433" stroke-dasharray="2 4"/>
  <line x1="100" y1="292" x2="1140" y2="292" stroke="#1e2433" stroke-dasharray="2 4"/>
  <line x1="100" y1="376" x2="1140" y2="376" stroke="#1e2433" stroke-dasharray="2 4"/>
  <line x1="100" y1="460" x2="1140" y2="460" stroke="#1e2433" stroke-dasharray="2 4"/>

  <!-- 150 / 250 / 400 / null / 800 / 1000 / 1400 / 2100 / 3300 / 4800
       y = 540 - (val/5000)*420
       150 → 527 / 250 → 519 / 400 → 506 / null skip / 800 → 473 / 1000 → 456 / 1400 → 423 / 2100 → 364 / 3300 → 263 / 4800 → 137 -->

  <path d="M 130,527 L 230,519 L 330,506 L 430,540 L 530,473 L 630,456 L 730,423 L 830,364 L 930,263 L 1080,137 L 1080,540 L 130,540 Z" fill="url(#dpsfade)"/>

  <polyline points="130,527 230,519 330,506" stroke="#22c55e" stroke-width="3" fill="none"/>
  <line x1="330" y1="506" x2="430" y2="540" stroke="#ec4899" stroke-width="3" stroke-dasharray="4 4"/>
  <polyline points="430,540 530,473 630,456 730,423 830,364 930,263 1080,137" stroke="#22c55e" stroke-width="4" fill="none" stroke-linecap="round" stroke-linejoin="round" style="filter: drop-shadow(0 0 16px #22c55e);"/>

  <g font-family="Inter, sans-serif" fill="#94a3b8" font-size="11">
    <circle cx="130" cy="527" r="5" fill="#22c55e"/><text x="130" y="513" text-anchor="middle">150</text><text x="130" y="565" text-anchor="middle">2016</text>
    <circle cx="230" cy="519" r="5" fill="#22c55e"/><text x="230" y="565" text-anchor="middle">2017</text>
    <circle cx="330" cy="506" r="5" fill="#22c55e"/><text x="330" y="565" text-anchor="middle">2018</text>
    <circle cx="430" cy="540" r="6" fill="#ec4899"/><text x="430" y="558" text-anchor="middle" fill="#ec4899" font-weight="700">결손기</text><text x="430" y="585" text-anchor="middle" fill="#ec4899">2019</text>
    <circle cx="530" cy="473" r="5" fill="#22c55e"/><text x="530" y="565" text-anchor="middle">2020</text>
    <circle cx="630" cy="456" r="5" fill="#22c55e"/><text x="630" y="565" text-anchor="middle">2021</text>
    <circle cx="730" cy="423" r="5" fill="#22c55e"/><text x="730" y="565" text-anchor="middle">2022</text>
    <circle cx="830" cy="364" r="5" fill="#22c55e"/><text x="830" y="565" text-anchor="middle">2023</text>
    <circle cx="930" cy="263" r="6" fill="#22c55e"/><text x="930" y="249" text-anchor="middle" font-weight="700" fill="#22c55e">3,300</text><text x="930" y="565" text-anchor="middle">2024</text>
    <circle cx="1080" cy="137" r="9" fill="#fbbf24" stroke="#fff" stroke-width="2"/><text x="1080" y="123" text-anchor="middle" font-size="13" font-weight="800" fill="#fbbf24">4,800원 🔥</text><text x="1080" y="565" text-anchor="middle" fill="#fbbf24" font-weight="700">2025</text>
  </g>

  <rect x="180" y="610" width="840" height="80" rx="10" fill="rgba(251,191,36,0.08)" stroke="rgba(251,191,36,0.4)"/>
  <text x="600" y="640" text-anchor="middle" font-family="Inter, sans-serif" font-size="14" font-weight="800" fill="#fbbf24">9년 동안 32배 — 마진 폭발과 동시에 배당 폭발</text>
  <text x="600" y="664" text-anchor="middle" font-family="Inter, sans-serif" font-size="11" fill="#94a3b8">DPS 9년 32배 — 영업이익률 폭발과 정확히 동시 진행</text>
  <text x="600" y="684" text-anchor="middle" font-family="Inter, sans-serif" font-size="10" fill="#64748b">2025년 시가 기준 배당수익률 약 0.4% — 절대액은 32배지만 시가 대비 비율은 낮음</text>
</svg>
