<svg xmlns="http://www.w3.org/2000/svg" viewBox="0 0 1200 720" font-family="-apple-system, 'Segoe UI', sans-serif">
  <title>원자력 3사 비교 — NuScale vs Oklo vs Constellation</title>
  <desc>매출, 시총, NRC 인허가, 가동 원자로 비교</desc>
  <defs>
    <linearGradient id="bg5" x1="0" y1="0" x2="0" y2="1">
      <stop offset="0%" stop-color="#050811"/>
      <stop offset="100%" stop-color="#0f1219"/>
    </linearGradient>
  </defs>

  <rect width="1200" height="720" rx="16" fill="url(#bg5)"/>
  <rect x="0.5" y="0.5" width="1199" height="719" rx="16" stroke="#1e2433" fill="none"/>

  <!-- Title -->
  <text x="600" y="44" text-anchor="middle" font-size="21" font-weight="800" fill="#f1f5f9">원자력 3사 비교 — NuScale vs Oklo vs Constellation</text>
  <text x="600" y="70" text-anchor="middle" font-size="13" fill="#64748b">2026-04 기준 | SEC 공시 실측 | 시총은 시장 가격</text>

  <!-- 3 cards: x 80~400, 420~740, 760~1120 -->

  <!-- Card 1: NuScale -->
  <rect x="80" y="100" width="320" height="540" rx="14" fill="#1e2433" opacity="0.5" stroke="#64748b" stroke-width="1"/>
  <text x="240" y="140" text-anchor="middle" font-size="20" font-weight="800" fill="#06b6d4">NuScale Power</text>
  <text x="240" y="162" text-anchor="middle" font-size="12" fill="#64748b">NYSE: SMR | Portland, OR</text>

  <!-- NuScale metrics -->
  <line x1="110" y1="182" x2="370" y2="182" stroke="#1e2433"/>
  <text x="120" y="215" font-size="12" fill="#64748b">연간 매출</text>
  <text x="360" y="215" text-anchor="end" font-size="18" font-weight="800" fill="#ef4444">$0</text>
  <line x1="110" y1="235" x2="370" y2="235" stroke="#1e2433" stroke-dasharray="2 4"/>

  <text x="120" y="268" font-size="12" fill="#64748b">시가총액</text>
  <text x="360" y="268" text-anchor="end" font-size="18" font-weight="800" fill="#fbbf24">~$4B</text>
  <line x1="110" y1="288" x2="370" y2="288" stroke="#1e2433" stroke-dasharray="2 4"/>

  <text x="120" y="321" font-size="12" fill="#64748b">NRC 인허가</text>
  <rect x="262" y="305" width="100" height="24" rx="6" fill="#22c55e" opacity="0.15" stroke="#22c55e" stroke-width="1"/>
  <text x="312" y="322" text-anchor="middle" font-size="12" font-weight="700" fill="#22c55e">SDA 인증 완료</text>
  <line x1="110" y1="341" x2="370" y2="341" stroke="#1e2433" stroke-dasharray="2 4"/>

  <text x="120" y="374" font-size="12" fill="#64748b">가동 원자로</text>
  <text x="360" y="374" text-anchor="end" font-size="18" font-weight="800" fill="#ef4444">0기</text>
  <line x1="110" y1="394" x2="370" y2="394" stroke="#1e2433" stroke-dasharray="2 4"/>

  <text x="120" y="427" font-size="12" fill="#64748b">기술</text>
  <text x="360" y="427" text-anchor="end" font-size="13" font-weight="600" fill="#f1f5f9">경수로 SMR (77MW)</text>
  <line x1="110" y1="447" x2="370" y2="447" stroke="#1e2433" stroke-dasharray="2 4"/>

  <text x="120" y="480" font-size="12" fill="#64748b">순손실</text>
  <text x="360" y="480" text-anchor="end" font-size="16" font-weight="700" fill="#ef4444">-$130M</text>
  <line x1="110" y1="500" x2="370" y2="500" stroke="#1e2433" stroke-dasharray="2 4"/>

  <text x="120" y="533" font-size="12" fill="#64748b">핵심 리스크</text>
  <text x="360" y="533" text-anchor="end" font-size="12" font-weight="600" fill="#fbbf24">UAMPS 계약 취소</text>
  <text x="360" y="553" text-anchor="end" font-size="11" fill="#64748b">고객 1호 이탈</text>

  <!-- Status badge -->
  <rect x="160" y="580" width="160" height="30" rx="8" fill="#06b6d4" opacity="0.15" stroke="#06b6d4" stroke-width="1"/>
  <text x="240" y="600" text-anchor="middle" font-size="12" font-weight="700" fill="#06b6d4">인허가 완료, 고객 없음</text>

  <!-- Card 2: Oklo -->
  <rect x="440" y="100" width="320" height="540" rx="14" fill="#fbbf24" opacity="0.06" stroke="#fbbf24" stroke-width="1.5"/>
  <text x="600" y="140" text-anchor="middle" font-size="20" font-weight="800" fill="#fbbf24">Oklo Inc.</text>
  <text x="600" y="162" text-anchor="middle" font-size="12" fill="#64748b">NYSE: OKLO | Santa Clara, CA</text>

  <!-- Oklo metrics -->
  <line x1="470" y1="182" x2="730" y2="182" stroke="#1e2433"/>
  <text x="480" y="215" font-size="12" fill="#64748b">연간 매출</text>
  <text x="720" y="215" text-anchor="end" font-size="18" font-weight="800" fill="#ef4444">$0</text>
  <line x1="470" y1="235" x2="730" y2="235" stroke="#1e2433" stroke-dasharray="2 4"/>

  <text x="480" y="268" font-size="12" fill="#64748b">시가총액</text>
  <text x="720" y="268" text-anchor="end" font-size="18" font-weight="800" fill="#fbbf24">~$13B</text>
  <line x1="470" y1="288" x2="730" y2="288" stroke="#1e2433" stroke-dasharray="2 4"/>

  <text x="480" y="321" font-size="12" fill="#64748b">NRC 인허가</text>
  <rect x="615" y="305" width="110" height="24" rx="6" fill="#ef4444" opacity="0.15" stroke="#ef4444" stroke-width="1"/>
  <text x="670" y="322" text-anchor="middle" font-size="12" font-weight="700" fill="#ef4444">미취득 (거절 1회)</text>
  <line x1="470" y1="341" x2="730" y2="341" stroke="#1e2433" stroke-dasharray="2 4"/>

  <text x="480" y="374" font-size="12" fill="#64748b">가동 원자로</text>
  <text x="720" y="374" text-anchor="end" font-size="18" font-weight="800" fill="#ef4444">0기</text>
  <line x1="470" y1="394" x2="730" y2="394" stroke="#1e2433" stroke-dasharray="2 4"/>

  <text x="480" y="427" font-size="12" fill="#64748b">기술</text>
  <text x="720" y="427" text-anchor="end" font-size="13" font-weight="600" fill="#f1f5f9">고속로 Aurora (15MW)</text>
  <line x1="470" y1="447" x2="730" y2="447" stroke="#1e2433" stroke-dasharray="2 4"/>

  <text x="480" y="480" font-size="12" fill="#64748b">순손실</text>
  <text x="720" y="480" text-anchor="end" font-size="16" font-weight="700" fill="#ef4444">-$106M</text>
  <line x1="470" y1="500" x2="730" y2="500" stroke="#1e2433" stroke-dasharray="2 4"/>

  <text x="480" y="533" font-size="12" fill="#64748b">핵심 강점</text>
  <text x="720" y="533" text-anchor="end" font-size="12" font-weight="600" fill="#22c55e">현금 $2.5B + 파이프라인</text>
  <text x="720" y="553" text-anchor="end" font-size="11" fill="#64748b">Sam Altman 의장</text>

  <!-- Status badge -->
  <rect x="520" y="580" width="160" height="30" rx="8" fill="#fbbf24" opacity="0.15" stroke="#fbbf24" stroke-width="1"/>
  <text x="600" y="600" text-anchor="middle" font-size="12" font-weight="700" fill="#fbbf24">인허가 전, 계약 14GW</text>

  <!-- Card 3: Constellation -->
  <rect x="800" y="100" width="320" height="540" rx="14" fill="#1e2433" opacity="0.5" stroke="#64748b" stroke-width="1"/>
  <text x="960" y="140" text-anchor="middle" font-size="20" font-weight="800" fill="#22c55e">Constellation Energy</text>
  <text x="960" y="162" text-anchor="middle" font-size="12" fill="#64748b">NASDAQ: CEG | Baltimore, MD</text>

  <!-- Constellation metrics -->
  <line x1="830" y1="182" x2="1090" y2="182" stroke="#1e2433"/>
  <text x="840" y="215" font-size="12" fill="#64748b">연간 매출</text>
  <text x="1080" y="215" text-anchor="end" font-size="18" font-weight="800" fill="#22c55e">$24.9B</text>
  <line x1="830" y1="235" x2="1090" y2="235" stroke="#1e2433" stroke-dasharray="2 4"/>

  <text x="840" y="268" font-size="12" fill="#64748b">시가총액</text>
  <text x="1080" y="268" text-anchor="end" font-size="18" font-weight="800" fill="#22c55e">~$80B</text>
  <line x1="830" y1="288" x2="1090" y2="288" stroke="#1e2433" stroke-dasharray="2 4"/>

  <text x="840" y="321" font-size="12" fill="#64748b">NRC 인허가</text>
  <rect x="975" y="305" width="100" height="24" rx="6" fill="#22c55e" opacity="0.15" stroke="#22c55e" stroke-width="1"/>
  <text x="1025" y="322" text-anchor="middle" font-size="12" font-weight="700" fill="#22c55e">기존 면허 보유</text>
  <line x1="830" y1="341" x2="1090" y2="341" stroke="#1e2433" stroke-dasharray="2 4"/>

  <text x="840" y="374" font-size="12" fill="#64748b">가동 원자로</text>
  <text x="1080" y="374" text-anchor="end" font-size="18" font-weight="800" fill="#22c55e">21기</text>
  <line x1="830" y1="394" x2="1090" y2="394" stroke="#1e2433" stroke-dasharray="2 4"/>

  <text x="840" y="427" font-size="12" fill="#64748b">기술</text>
  <text x="1080" y="427" text-anchor="end" font-size="13" font-weight="600" fill="#f1f5f9">기존 대형 원전</text>
  <line x1="830" y1="447" x2="1090" y2="447" stroke="#1e2433" stroke-dasharray="2 4"/>

  <text x="840" y="480" font-size="12" fill="#64748b">순이익</text>
  <text x="1080" y="480" text-anchor="end" font-size="16" font-weight="700" fill="#22c55e">+$3.3B</text>
  <line x1="830" y1="500" x2="1090" y2="500" stroke="#1e2433" stroke-dasharray="2 4"/>

  <text x="840" y="533" font-size="12" fill="#64748b">핵심 이벤트</text>
  <text x="1080" y="533" text-anchor="end" font-size="12" font-weight="600" fill="#fbbf24">TMI 재가동 + MS PPA</text>
  <text x="1080" y="553" text-anchor="end" font-size="11" fill="#64748b">Three Mile Island 재가동</text>

  <!-- Status badge -->
  <rect x="880" y="580" width="160" height="30" rx="8" fill="#22c55e" opacity="0.15" stroke="#22c55e" stroke-width="1"/>
  <text x="960" y="600" text-anchor="middle" font-size="12" font-weight="700" fill="#22c55e">가동 중, 흑자, 매출 $25B</text>

  <!-- Bottom insight -->
  <rect x="80" y="660" width="1040" height="40" rx="10" fill="#fbbf24" opacity="0.06" stroke="#fbbf24" stroke-width="1"/>
  <text x="600" y="685" font-size="13" font-weight="700" fill="#fbbf24" text-anchor="middle">Oklo 시총 $13B = Constellation 시총의 16% — 그런데 매출은 0%, 원자로는 0기</text>
</svg>