<svg xmlns="http://www.w3.org/2000/svg" viewBox="0 0 1080 740" font-family="-apple-system, 'Segoe UI', sans-serif">
  <title>KT&G — 2026년에 봐야 할 다섯 가지</title>
  <desc>영업이익률의 바닥, 해외 궐련·글로벌 생산, 자사주 소각·총주주환원율, 영업CF와 영업이익의 갭, 정관장의 향방 — 다음 1년 관전 포인트.</desc>
  <rect width="1080" height="740" fill="#0a0e1a"/>
  <text x="540" y="54" fill="#f1f5f9" font-size="31" font-weight="700" text-anchor="middle">2026년에 봐야 할 다섯 가지</text>
  <text x="540" y="86" fill="#64748b" font-size="16" text-anchor="middle">성장이 아니라 분배와 보존으로 읽어야 하는 회사</text>

  <g>
    <rect x="90" y="115" width="900" height="92" rx="10" fill="#11161f" stroke="#334155" stroke-width="1.5"/>
    <circle cx="135" cy="161" r="20" fill="#fbbf24"/><text x="135" y="168" fill="#0a0e1a" font-size="22" font-weight="700" text-anchor="middle">1</text>
    <text x="180" y="152" fill="#f1f5f9" font-size="21" font-weight="700">영업이익률의 바닥</text>
    <text x="180" y="184" fill="#94a3b8" font-size="16">32.9%→20.4%로 빠진 마진이 어디서 멈추나 — 해외·비담배 믹스가 클수록 희석 압력</text>

    <rect x="90" y="219" width="900" height="92" rx="10" fill="#11161f" stroke="#334155" stroke-width="1.5"/>
    <circle cx="135" cy="265" r="20" fill="#fbbf24"/><text x="135" y="272" fill="#0a0e1a" font-size="22" font-weight="700" text-anchor="middle">2</text>
    <text x="180" y="256" fill="#f1f5f9" font-size="21" font-weight="700">해외 궐련·글로벌 생산</text>
    <text x="180" y="288" fill="#94a3b8" font-size="16">궐련 해외 60%+·글로벌 생산 18%→30%→50% 계획의 진행 — 외형 성장의 진짜 엔진</text>

    <rect x="90" y="323" width="900" height="92" rx="10" fill="#11161f" stroke="#334155" stroke-width="1.5"/>
    <circle cx="135" cy="369" r="20" fill="#fbbf24"/><text x="135" y="376" fill="#0a0e1a" font-size="22" font-weight="700" text-anchor="middle">3</text>
    <text x="180" y="360" fill="#f1f5f9" font-size="21" font-weight="700">자사주 소각·총주주환원율</text>
    <text x="180" y="392" fill="#94a3b8" font-size="16">자본 9.3조 횡보를 만든 환원 정책이 이어지나 — 환원 규모와 소각 비율</text>

    <rect x="90" y="427" width="900" height="92" rx="10" fill="#11161f" stroke="#334155" stroke-width="1.5"/>
    <circle cx="135" cy="473" r="20" fill="#fbbf24"/><text x="135" y="480" fill="#0a0e1a" font-size="22" font-weight="700" text-anchor="middle">4</text>
    <text x="180" y="464" fill="#f1f5f9" font-size="21" font-weight="700">영업CF와 영업이익의 갭</text>
    <text x="180" y="496" fill="#94a3b8" font-size="16">5,829억 vs 13,437억 격차가 좁혀지나 — 환원이 자산 매각에 얼마나 기대는지</text>

    <rect x="90" y="531" width="900" height="92" rx="10" fill="#11161f" stroke="#334155" stroke-width="1.5"/>
    <circle cx="135" cy="577" r="20" fill="#fbbf24"/><text x="135" y="584" fill="#0a0e1a" font-size="22" font-weight="700" text-anchor="middle">5</text>
    <text x="180" y="568" fill="#f1f5f9" font-size="21" font-weight="700">정관장(KGC인삼공사)의 향방</text>
    <text x="180" y="600" fill="#94a3b8" font-size="16">분리상장 압박에 회사가 계속 '안에 둘' 것인지 — 행동주의와의 줄다리기</text>
  </g>
  <text x="540" y="678" fill="#fbbf24" font-size="17" font-weight="700" text-anchor="middle">더 벌어 더 쌓는 회사가 아니라, 두껍게 벌어 그대로 토해내는 회사</text>
  <text x="540" y="710" fill="#64748b" font-size="14" text-anchor="middle">— 단, 가장 값나가는 왕관(정관장)만은 끝까지 금고에 가둔</text>
</svg>
