<svg xmlns="http://www.w3.org/2000/svg" viewBox="0 0 780 450" font-family="Malgun Gothic, 'Apple SD Gothic Neo', sans-serif">
<rect width="780" height="450" fill="#0a0e1a"/>
<text x="70" y="34" fill="#e2e8f0" font-size="20" font-weight="700">순이익 — 사이클 한 번에 적자, 한 번에 사상최대급</text>
<text x="70" y="54" fill="#94a3b8" font-size="12.5">2019~2025 ($B)</text>
<line x1="70" y1="394.0" x2="710" y2="394.0" stroke="#1e293b" stroke-width="1"/>
<text x="62" y="398.0" fill="#94a3b8" font-size="11" text-anchor="end">-7.6</text>
<line x1="70" y1="311.5" x2="710" y2="311.5" stroke="#1e293b" stroke-width="1"/>
<text x="62" y="315.5" fill="#94a3b8" font-size="11" text-anchor="end">-3.1</text>
<line x1="70" y1="229.0" x2="710" y2="229.0" stroke="#1e293b" stroke-width="1"/>
<text x="62" y="233.0" fill="#94a3b8" font-size="11" text-anchor="end">1.4</text>
<line x1="70" y1="146.5" x2="710" y2="146.5" stroke="#1e293b" stroke-width="1"/>
<text x="62" y="150.5" fill="#94a3b8" font-size="11" text-anchor="end">5.9</text>
<line x1="70" y1="64.0" x2="710" y2="64.0" stroke="#1e293b" stroke-width="1"/>
<text x="62" y="68.0" fill="#94a3b8" font-size="11" text-anchor="end">10.4</text>
<text x="115.7" y="414" fill="#94a3b8" font-size="11" text-anchor="middle">2019</text>
<text x="207.1" y="414" fill="#94a3b8" font-size="11" text-anchor="middle">2020</text>
<text x="298.6" y="414" fill="#94a3b8" font-size="11" text-anchor="middle">2021</text>
<text x="390.0" y="414" fill="#94a3b8" font-size="11" text-anchor="middle">2022</text>
<text x="481.4" y="414" fill="#94a3b8" font-size="11" text-anchor="middle">2023</text>
<text x="572.9" y="414" fill="#94a3b8" font-size="11" text-anchor="middle">2024</text>
<text x="664.3" y="414" fill="#94a3b8" font-size="11" text-anchor="middle">2025</text>
<rect x="87.4" y="139.6" width="56.7" height="115.7" rx="2" fill="#fbbf24"/>
<text x="115.7" y="133.6" fill="#e2e8f0" font-size="10.5" text-anchor="middle">6.3</text>
<rect x="178.8" y="205.9" width="56.7" height="49.3" rx="2" fill="#fbbf24"/>
<text x="207.1" y="199.9" fill="#e2e8f0" font-size="10.5" text-anchor="middle">2.7</text>
<rect x="270.2" y="147.8" width="56.7" height="107.4" rx="2" fill="#fbbf24"/>
<text x="298.6" y="141.8" fill="#e2e8f0" font-size="10.5" text-anchor="middle">5.9</text>
<rect x="361.7" y="95.9" width="56.7" height="159.3" rx="2" fill="#fbbf24"/>
<text x="390.0" y="89.9" fill="#e2e8f0" font-size="10.5" text-anchor="middle">8.7</text>
<rect x="453.1" y="255.2" width="56.7" height="106.9" rx="2" fill="#ef4444"/>
<text x="481.4" y="376.1" fill="#e2e8f0" font-size="10.5" text-anchor="middle">-5.8</text>
<rect x="544.5" y="240.9" width="56.7" height="14.3" rx="2" fill="#fbbf24"/>
<text x="572.9" y="234.9" fill="#e2e8f0" font-size="10.5" text-anchor="middle">0.8</text>
<rect x="635.9" y="98.7" width="56.7" height="156.5" rx="2" fill="#fbbf24"/>
<text x="664.3" y="92.7" fill="#e2e8f0" font-size="10.5" text-anchor="middle">8.5</text>
<text x="70" y="436" fill="#94a3b8" font-size="11">단위: $B</text>
</svg>
