<svg xmlns="http://www.w3.org/2000/svg" viewBox="0 0 780 450" font-family="Malgun Gothic, 'Apple SD Gothic Neo', sans-serif">
<rect width="780" height="450" fill="#0a0e1a"/>
<text x="70" y="34" fill="#e2e8f0" font-size="20" font-weight="700">매출과 영업이익 — 2023년 영업적자</text>
<text x="70" y="54" fill="#94a3b8" font-size="12.5">막대=매출($B), 선=영업이익($B), 2019~2025</text>
<line x1="70" y1="394.0" x2="710" y2="394.0" stroke="#1e293b" stroke-width="1"/>
<text x="62" y="398.0" fill="#94a3b8" font-size="10.5" text-anchor="end">0</text>
<line x1="70" y1="311.5" x2="710" y2="311.5" stroke="#1e293b" stroke-width="1"/>
<text x="62" y="315.5" fill="#94a3b8" font-size="10.5" text-anchor="end">10</text>
<line x1="70" y1="229.0" x2="710" y2="229.0" stroke="#1e293b" stroke-width="1"/>
<text x="62" y="233.0" fill="#94a3b8" font-size="10.5" text-anchor="end">21</text>
<line x1="70" y1="146.5" x2="710" y2="146.5" stroke="#1e293b" stroke-width="1"/>
<text x="62" y="150.5" fill="#94a3b8" font-size="10.5" text-anchor="end">31</text>
<line x1="70" y1="64.0" x2="710" y2="64.0" stroke="#1e293b" stroke-width="1"/>
<text x="62" y="68.0" fill="#94a3b8" font-size="10.5" text-anchor="end">42</text>
<text x="718" y="398.0" fill="#22c55e" font-size="10.5" text-anchor="start">-8</text>
<text x="718" y="315.5" fill="#22c55e" font-size="10.5" text-anchor="start">-3</text>
<text x="718" y="233.0" fill="#22c55e" font-size="10.5" text-anchor="start">2</text>
<text x="718" y="150.5" fill="#22c55e" font-size="10.5" text-anchor="start">7</text>
<text x="718" y="68.0" fill="#22c55e" font-size="10.5" text-anchor="start">12</text>
<text x="115.7" y="414" fill="#94a3b8" font-size="11" text-anchor="middle">2019</text>
<text x="207.1" y="414" fill="#94a3b8" font-size="11" text-anchor="middle">2020</text>
<text x="298.6" y="414" fill="#94a3b8" font-size="11" text-anchor="middle">2021</text>
<text x="390.0" y="414" fill="#94a3b8" font-size="11" text-anchor="middle">2022</text>
<text x="481.4" y="414" fill="#94a3b8" font-size="11" text-anchor="middle">2023</text>
<text x="572.9" y="414" fill="#94a3b8" font-size="11" text-anchor="middle">2024</text>
<text x="664.3" y="414" fill="#94a3b8" font-size="11" text-anchor="middle">2025</text>
<rect x="608" y="34" width="12" height="12" rx="2" fill="#3b82f6"/>
<text x="625" y="44" fill="#94a3b8" font-size="11.5">매출</text>
<rect x="652" y="34" width="12" height="12" rx="2" fill="#22c55e"/>
<text x="669" y="44" fill="#94a3b8" font-size="11.5">영업이익</text>
<rect x="92.9" y="209.5" width="45.7" height="184.5" rx="2" fill="#3b82f6" opacity="0.85"/>
<rect x="184.3" y="225.1" width="45.7" height="168.9" rx="2" fill="#3b82f6" opacity="0.85"/>
<rect x="275.7" y="175.7" width="45.7" height="218.3" rx="2" fill="#3b82f6" opacity="0.85"/>
<rect x="367.1" y="151.5" width="45.7" height="242.5" rx="2" fill="#3b82f6" opacity="0.85"/>
<rect x="458.6" y="271.5" width="45.7" height="122.5" rx="2" fill="#3b82f6" opacity="0.85"/>
<rect x="550.0" y="196.1" width="45.7" height="197.9" rx="2" fill="#3b82f6" opacity="0.85"/>
<rect x="641.4" y="99.4" width="45.7" height="294.6" rx="2" fill="#3b82f6" opacity="0.85"/>
<line x1="70" y1="263.5" x2="710" y2="263.5" stroke="#94a3b8" stroke-width="1" stroke-dasharray="4 3"/>
<polyline points="115.7,136.9 207.1,212.0 298.6,155.8 390.0,97.1 481.4,362.1 572.9,241.2 664.3,95.9" fill="none" stroke="#22c55e" stroke-width="3" stroke-linejoin="round"/>
<circle cx="115.7" cy="136.9" r="3.2" fill="#22c55e"/>
<circle cx="207.1" cy="212.0" r="3.2" fill="#22c55e"/>
<circle cx="298.6" cy="155.8" r="3.2" fill="#22c55e"/>
<circle cx="390.0" cy="97.1" r="3.2" fill="#22c55e"/>
<circle cx="481.4" cy="362.1" r="3.2" fill="#22c55e"/>
<circle cx="572.9" cy="241.2" r="3.2" fill="#22c55e"/>
<circle cx="664.3" cy="95.9" r="3.2" fill="#22c55e"/>
<text x="70" y="436" fill="#3b82f6" font-size="11">매출 (좌, $B)</text>
<text x="710" y="436" fill="#22c55e" font-size="11" text-anchor="end">영업이익 (우)</text>
</svg>
