<svg xmlns="http://www.w3.org/2000/svg" viewBox="0 0 780 450" font-family="Malgun Gothic, 'Apple SD Gothic Neo', sans-serif">
<rect width="780" height="450" fill="#0a0e1a"/>
<text x="70" y="34" fill="#e2e8f0" font-size="20" font-weight="700">마이크론 영업이익률 — 2023년의 분화구</text>
<text x="70" y="54" fill="#94a3b8" font-size="12.5">2019~2025, commodity 메모리 사이클(dartlab 실측)</text>
<line x1="70" y1="394.0" x2="710" y2="394.0" stroke="#1e293b" stroke-width="1"/>
<text x="62" y="398.0" fill="#94a3b8" font-size="11" text-anchor="end">-45.2</text>
<line x1="70" y1="311.5" x2="710" y2="311.5" stroke="#1e293b" stroke-width="1"/>
<text x="62" y="315.5" fill="#94a3b8" font-size="11" text-anchor="end">-24.0</text>
<line x1="70" y1="229.0" x2="710" y2="229.0" stroke="#1e293b" stroke-width="1"/>
<text x="62" y="233.0" fill="#94a3b8" font-size="11" text-anchor="end">-2.8</text>
<line x1="70" y1="146.5" x2="710" y2="146.5" stroke="#1e293b" stroke-width="1"/>
<text x="62" y="150.5" fill="#94a3b8" font-size="11" text-anchor="end">18.5</text>
<line x1="70" y1="64.0" x2="710" y2="64.0" stroke="#1e293b" stroke-width="1"/>
<text x="62" y="68.0" fill="#94a3b8" font-size="11" text-anchor="end">39.7</text>
<line x1="70" y1="218.3" x2="710" y2="218.3" stroke="#94a3b8" stroke-width="1.2" stroke-dasharray="4 3"/>
<text x="115.7" y="414" fill="#94a3b8" font-size="11" text-anchor="middle">2019</text>
<text x="207.1" y="414" fill="#94a3b8" font-size="11" text-anchor="middle">2020</text>
<text x="298.6" y="414" fill="#94a3b8" font-size="11" text-anchor="middle">2021</text>
<text x="390.0" y="414" fill="#94a3b8" font-size="11" text-anchor="middle">2022</text>
<text x="481.4" y="414" fill="#94a3b8" font-size="11" text-anchor="middle">2023</text>
<text x="572.9" y="414" fill="#94a3b8" font-size="11" text-anchor="middle">2024</text>
<text x="664.3" y="414" fill="#94a3b8" font-size="11" text-anchor="middle">2025</text>
<polyline points="115.7,95.9 207.1,163.9 298.6,130.1 390.0,95.9 481.4,362.1 572.9,198.1 664.3,116.9" fill="none" stroke="#fbbf24" stroke-width="3" stroke-linejoin="round"/>
<circle cx="115.7" cy="95.9" r="3.5" fill="#fbbf24"/>
<circle cx="207.1" cy="163.9" r="3.5" fill="#fbbf24"/>
<circle cx="298.6" cy="130.1" r="3.5" fill="#fbbf24"/>
<circle cx="390.0" cy="95.9" r="3.5" fill="#fbbf24"/>
<circle cx="481.4" cy="362.1" r="3.5" fill="#fbbf24"/>
<circle cx="572.9" cy="198.1" r="3.5" fill="#fbbf24"/>
<circle cx="664.3" cy="116.9" r="3.5" fill="#fbbf24"/>
<text x="664.3" y="106.9" fill="#fbbf24" font-size="11" font-weight="700" text-anchor="end">26.1</text>
<text x="70" y="436" fill="#94a3b8" font-size="11">단위: %</text>
</svg>
