<svg xmlns="http://www.w3.org/2000/svg" viewBox="0 0 780 450" font-family="Malgun Gothic, 'Apple SD Gothic Neo', sans-serif">
<rect width="780" height="450" fill="#0a0e1a"/>
<text x="70" y="34" fill="#e2e8f0" font-size="20" font-weight="700">시스코 영업이익률 — 무너지지 않는 완만한 침식</text>
<text x="70" y="54" fill="#94a3b8" font-size="12.5">2019~2025 (%)</text>
<line x1="70" y1="394.0" x2="710" y2="394.0" stroke="#1e293b" stroke-width="1"/>
<text x="62" y="398.0" fill="#94a3b8" font-size="11" text-anchor="end">0.0</text>
<line x1="70" y1="311.5" x2="710" y2="311.5" stroke="#1e293b" stroke-width="1"/>
<text x="62" y="315.5" fill="#94a3b8" font-size="11" text-anchor="end">7.1</text>
<line x1="70" y1="229.0" x2="710" y2="229.0" stroke="#1e293b" stroke-width="1"/>
<text x="62" y="233.0" fill="#94a3b8" font-size="11" text-anchor="end">14.2</text>
<line x1="70" y1="146.5" x2="710" y2="146.5" stroke="#1e293b" stroke-width="1"/>
<text x="62" y="150.5" fill="#94a3b8" font-size="11" text-anchor="end">21.3</text>
<line x1="70" y1="64.0" x2="710" y2="64.0" stroke="#1e293b" stroke-width="1"/>
<text x="62" y="68.0" fill="#94a3b8" font-size="11" text-anchor="end">28.4</text>
<text x="115.7" y="414" fill="#94a3b8" font-size="11" text-anchor="middle">2019</text>
<text x="207.1" y="414" fill="#94a3b8" font-size="11" text-anchor="middle">2020</text>
<text x="298.6" y="414" fill="#94a3b8" font-size="11" text-anchor="middle">2021</text>
<text x="390.0" y="414" fill="#94a3b8" font-size="11" text-anchor="middle">2022</text>
<text x="481.4" y="414" fill="#94a3b8" font-size="11" text-anchor="middle">2023</text>
<text x="572.9" y="414" fill="#94a3b8" font-size="11" text-anchor="middle">2024</text>
<text x="664.3" y="414" fill="#94a3b8" font-size="11" text-anchor="middle">2025</text>
<polyline points="115.7,75.8 207.1,73.5 298.6,94.4 390.0,79.3 481.4,87.4 572.9,131.5 664.3,152.4" fill="none" stroke="#fbbf24" stroke-width="3" stroke-linejoin="round"/>
<circle cx="115.7" cy="75.8" r="3.5" fill="#fbbf24"/>
<circle cx="207.1" cy="73.5" r="3.5" fill="#fbbf24"/>
<circle cx="298.6" cy="94.4" r="3.5" fill="#fbbf24"/>
<circle cx="390.0" cy="79.3" r="3.5" fill="#fbbf24"/>
<circle cx="481.4" cy="87.4" r="3.5" fill="#fbbf24"/>
<circle cx="572.9" cy="131.5" r="3.5" fill="#fbbf24"/>
<circle cx="664.3" cy="152.4" r="3.5" fill="#fbbf24"/>
<text x="664.3" y="142.4" fill="#fbbf24" font-size="11" font-weight="700" text-anchor="end">20.8</text>
<text x="70" y="436" fill="#94a3b8" font-size="11">단위: %</text>
</svg>
