<svg xmlns="http://www.w3.org/2000/svg" viewBox="0 0 780 450" font-family="Malgun Gothic, 'Apple SD Gothic Neo', sans-serif">
<rect width="780" height="450" fill="#0a0e1a"/>
<text x="70" y="34" fill="#e2e8f0" font-size="20" font-weight="700">매출과 영업이익률 — 정체된 외형, 침식되는 마진</text>
<text x="70" y="54" fill="#94a3b8" font-size="12.5">막대=매출($B), 선=OPM(%), 2019~2025</text>
<line x1="70" y1="394.0" x2="710" y2="394.0" stroke="#1e293b" stroke-width="1"/>
<text x="62" y="398.0" fill="#94a3b8" font-size="10.5" text-anchor="end">0</text>
<line x1="70" y1="311.5" x2="710" y2="311.5" stroke="#1e293b" stroke-width="1"/>
<text x="62" y="315.5" fill="#94a3b8" font-size="10.5" text-anchor="end">16</text>
<line x1="70" y1="229.0" x2="710" y2="229.0" stroke="#1e293b" stroke-width="1"/>
<text x="62" y="233.0" fill="#94a3b8" font-size="10.5" text-anchor="end">32</text>
<line x1="70" y1="146.5" x2="710" y2="146.5" stroke="#1e293b" stroke-width="1"/>
<text x="62" y="150.5" fill="#94a3b8" font-size="10.5" text-anchor="end">48</text>
<line x1="70" y1="64.0" x2="710" y2="64.0" stroke="#1e293b" stroke-width="1"/>
<text x="62" y="68.0" fill="#94a3b8" font-size="10.5" text-anchor="end">64</text>
<text x="718" y="398.0" fill="#fbbf24" font-size="10.5" text-anchor="start">0</text>
<text x="718" y="315.5" fill="#fbbf24" font-size="10.5" text-anchor="start">7</text>
<text x="718" y="233.0" fill="#fbbf24" font-size="10.5" text-anchor="start">14</text>
<text x="718" y="150.5" fill="#fbbf24" font-size="10.5" text-anchor="start">21</text>
<text x="718" y="68.0" fill="#fbbf24" font-size="10.5" text-anchor="start">28</text>
<text x="115.7" y="414" fill="#94a3b8" font-size="11" text-anchor="middle">2019</text>
<text x="207.1" y="414" fill="#94a3b8" font-size="11" text-anchor="middle">2020</text>
<text x="298.6" y="414" fill="#94a3b8" font-size="11" text-anchor="middle">2021</text>
<text x="390.0" y="414" fill="#94a3b8" font-size="11" text-anchor="middle">2022</text>
<text x="481.4" y="414" fill="#94a3b8" font-size="11" text-anchor="middle">2023</text>
<text x="572.9" y="414" fill="#94a3b8" font-size="11" text-anchor="middle">2024</text>
<text x="664.3" y="414" fill="#94a3b8" font-size="11" text-anchor="middle">2025</text>
<rect x="615" y="34" width="12" height="12" rx="2" fill="#3b82f6"/>
<text x="632" y="44" fill="#94a3b8" font-size="11.5">매출</text>
<rect x="659" y="34" width="12" height="12" rx="2" fill="#fbbf24"/>
<text x="676" y="44" fill="#94a3b8" font-size="11.5">OPM</text>
<rect x="92.9" y="125.7" width="45.7" height="268.3" rx="2" fill="#3b82f6" opacity="0.85"/>
<rect x="184.3" y="139.2" width="45.7" height="254.8" rx="2" fill="#3b82f6" opacity="0.85"/>
<rect x="275.7" y="136.5" width="45.7" height="257.5" rx="2" fill="#3b82f6" opacity="0.85"/>
<rect x="367.1" y="127.5" width="45.7" height="266.5" rx="2" fill="#3b82f6" opacity="0.85"/>
<rect x="458.6" y="99.4" width="45.7" height="294.6" rx="2" fill="#3b82f6" opacity="0.85"/>
<rect x="550.0" y="115.9" width="45.7" height="278.1" rx="2" fill="#3b82f6" opacity="0.85"/>
<rect x="641.4" y="101.2" width="45.7" height="292.8" rx="2" fill="#3b82f6" opacity="0.85"/>
<polyline points="115.7,75.8 207.1,73.5 298.6,94.4 390.0,79.3 481.4,87.4 572.9,131.5 664.3,152.4" fill="none" stroke="#fbbf24" stroke-width="3" stroke-linejoin="round"/>
<circle cx="115.7" cy="75.8" r="3.2" fill="#fbbf24"/>
<circle cx="207.1" cy="73.5" r="3.2" fill="#fbbf24"/>
<circle cx="298.6" cy="94.4" r="3.2" fill="#fbbf24"/>
<circle cx="390.0" cy="79.3" r="3.2" fill="#fbbf24"/>
<circle cx="481.4" cy="87.4" r="3.2" fill="#fbbf24"/>
<circle cx="572.9" cy="131.5" r="3.2" fill="#fbbf24"/>
<circle cx="664.3" cy="152.4" r="3.2" fill="#fbbf24"/>
<text x="70" y="436" fill="#3b82f6" font-size="11">매출 (좌, $B)</text>
<text x="710" y="436" fill="#fbbf24" font-size="11" text-anchor="end">OPM (우)</text>
</svg>
