<svg xmlns="http://www.w3.org/2000/svg" viewBox="0 0 1080 620" font-family="-apple-system, 'Segoe UI', sans-serif">
  <title>같은 통행료망, 다른 색채 — 비자는 내려오고 MA는 올라왔다</title>
  <desc>2024 → 2025 영업이익률(%) — 비자가 한 칸 위(비자=직전 글 실측)</desc>
  <rect width="1080" height="620" fill="#0a0e1a"/>
  <text x="540.0" y="50" fill="#f1f5f9" font-size="30" font-weight="700" text-anchor="middle">같은 통행료망, 다른 색채 — 비자는 내려오고 MA는 올라왔다</text>
  <text x="540.0" y="82" fill="#64748b" font-size="16" text-anchor="middle">2024 → 2025 영업이익률(%) — 비자가 한 칸 위(비자=직전 글 실측)</text>
  <line x1="80" y1="525.0" x2="1030" y2="525.0" stroke="#334155" stroke-width="1" opacity="0.4"/>
  <text x="68" y="530.0" fill="#64748b" font-size="13" text-anchor="end">0</text>
  <line x1="80" y1="444.0" x2="1030" y2="444.0" stroke="#334155" stroke-width="1" opacity="0.4"/>
  <text x="68" y="449.0" fill="#64748b" font-size="13" text-anchor="end">15</text>
  <line x1="80" y1="363.0" x2="1030" y2="363.0" stroke="#334155" stroke-width="1" opacity="0.4"/>
  <text x="68" y="368.0" fill="#64748b" font-size="13" text-anchor="end">30</text>
  <line x1="80" y1="282.0" x2="1030" y2="282.0" stroke="#334155" stroke-width="1" opacity="0.4"/>
  <text x="68" y="287.0" fill="#64748b" font-size="13" text-anchor="end">45</text>
  <line x1="80" y1="201.0" x2="1030" y2="201.0" stroke="#334155" stroke-width="1" opacity="0.4"/>
  <text x="68" y="206.0" fill="#64748b" font-size="13" text-anchor="end">60</text>
  <line x1="80" y1="120.0" x2="1030" y2="120.0" stroke="#334155" stroke-width="1" opacity="0.4"/>
  <text x="68" y="125.0" fill="#64748b" font-size="13" text-anchor="end">75</text>
  <rect x="170.2" y="170.2" width="147.2" height="354.8" rx="3" fill="#22c55e"/>
  <text x="243.9" y="162.2" fill="#94a3b8" font-size="11.5" text-anchor="middle">65.7</text>
  <rect x="317.5" y="226.4" width="147.2" height="298.6" rx="3" fill="#3b82f6"/>
  <text x="391.1" y="218.4" fill="#94a3b8" font-size="11.5" text-anchor="middle">55.3</text>
  <text x="317.5" y="551.0" fill="#94a3b8" font-size="14" text-anchor="middle">2024</text>
  <rect x="645.2" y="201.0" width="147.2" height="324.0" rx="3" fill="#22c55e"/>
  <text x="718.9" y="193.0" fill="#94a3b8" font-size="11.5" text-anchor="middle">60.0</text>
  <rect x="792.5" y="214.0" width="147.2" height="311.0" rx="3" fill="#3b82f6"/>
  <text x="866.1" y="206.0" fill="#94a3b8" font-size="11.5" text-anchor="middle">57.6</text>
  <text x="792.5" y="551.0" fill="#94a3b8" font-size="14" text-anchor="middle">2025</text>
  <rect x="86" y="86" width="16" height="16" rx="3" fill="#22c55e"/>
  <text x="108" y="99" fill="#94a3b8" font-size="14">비자(V)</text>
  <rect x="191" y="86" width="16" height="16" rx="3" fill="#3b82f6"/>
  <text x="213" y="99" fill="#94a3b8" font-size="14">마스터카드(MA)</text>
  <text x="80" y="566" fill="#94a3b8" font-size="14">비자 수치는 직전 비자(V) 글의 연결 실측 · 어느 쪽 해석도 고르지 않음</text>
  <text x="540.0" y="592" fill="#fbbf24" font-size="17" font-weight="700" text-anchor="middle">OPM 밴드가 비자(60~66%)보다 한 칸 낮다 — 왜는 데이터 밖</text>
</svg>
