<svg xmlns="http://www.w3.org/2000/svg" viewBox="0 0 1080 620" font-family="-apple-system, 'Segoe UI', sans-serif">
  <title>2020년 매출·OPM·NPM이 함께 꺾였다 1년 만에 복원</title>
  <desc>영업이익률 vs 순이익률 — 2020 동반 dip·2021 빠른 회복</desc>
  <rect width="1080" height="620" fill="#0a0e1a"/>
  <text x="540.0" y="50" fill="#f1f5f9" font-size="30" font-weight="700" text-anchor="middle">2020년 매출·OPM·NPM이 함께 꺾였다 1년 만에 복원</text>
  <text x="540.0" y="82" fill="#64748b" font-size="16" text-anchor="middle">영업이익률 vs 순이익률 — 2020 동반 dip·2021 빠른 회복</text>
  <line x1="95" y1="530.0" x2="1020" y2="530.0" stroke="#334155" stroke-width="1" opacity="0.4"/>
  <text x="83" y="535.0" fill="#64748b" font-size="14" text-anchor="end">38%</text>
  <line x1="95" y1="448.0" x2="1020" y2="448.0" stroke="#334155" stroke-width="1" opacity="0.4"/>
  <text x="83" y="453.0" fill="#64748b" font-size="14" text-anchor="end">43%</text>
  <line x1="95" y1="366.0" x2="1020" y2="366.0" stroke="#334155" stroke-width="1" opacity="0.4"/>
  <text x="83" y="371.0" fill="#64748b" font-size="14" text-anchor="end">48%</text>
  <line x1="95" y1="284.0" x2="1020" y2="284.0" stroke="#334155" stroke-width="1" opacity="0.4"/>
  <text x="83" y="289.0" fill="#64748b" font-size="14" text-anchor="end">52%</text>
  <line x1="95" y1="202.0" x2="1020" y2="202.0" stroke="#334155" stroke-width="1" opacity="0.4"/>
  <text x="83" y="207.0" fill="#64748b" font-size="14" text-anchor="end">57%</text>
  <line x1="95" y1="120.0" x2="1020" y2="120.0" stroke="#334155" stroke-width="1" opacity="0.4"/>
  <text x="83" y="125.0" fill="#64748b" font-size="14" text-anchor="end">62%</text>
  <text x="95.0" y="558.0" fill="#94a3b8" font-size="14" text-anchor="middle">2019</text>
  <text x="249.2" y="558.0" fill="#94a3b8" font-size="14" text-anchor="middle">2020</text>
  <text x="403.3" y="558.0" fill="#94a3b8" font-size="14" text-anchor="middle">2021</text>
  <text x="557.5" y="558.0" fill="#94a3b8" font-size="14" text-anchor="middle">2022</text>
  <text x="711.7" y="558.0" fill="#94a3b8" font-size="14" text-anchor="middle">2023</text>
  <text x="865.8" y="558.0" fill="#94a3b8" font-size="14" text-anchor="middle">2024</text>
  <text x="1020.0" y="558.0" fill="#94a3b8" font-size="14" text-anchor="middle">2025</text>
  <polyline points="95.0,202.0 249.2,277.2 403.3,266.9 557.5,237.9 711.7,225.9 865.8,234.5 1020.0,195.2" fill="none" stroke="#fbbf24" stroke-width="3.5"/>
  <circle cx="95.0" cy="202.0" r="4.5" fill="#fbbf24"/>
  <circle cx="249.2" cy="277.2" r="4.5" fill="#fbbf24"/>
  <circle cx="403.3" cy="266.9" r="4.5" fill="#fbbf24"/>
  <circle cx="557.5" cy="237.9" r="4.5" fill="#fbbf24"/>
  <circle cx="711.7" cy="225.9" r="4.5" fill="#fbbf24"/>
  <circle cx="865.8" cy="234.5" r="4.5" fill="#fbbf24"/>
  <circle cx="1020.0" cy="195.2" r="4.5" fill="#fbbf24"/>
  <text x="1030.0" y="200.2" fill="#fbbf24" font-size="15" font-weight="700">OPM</text>
  <polyline points="95.0,357.5 249.2,463.4 403.3,393.3 557.5,417.2 711.7,417.2 865.8,398.5 1020.0,398.5" fill="none" stroke="#3b82f6" stroke-width="3.5"/>
  <circle cx="95.0" cy="357.5" r="4.5" fill="#3b82f6"/>
  <circle cx="249.2" cy="463.4" r="4.5" fill="#3b82f6"/>
  <circle cx="403.3" cy="393.3" r="4.5" fill="#3b82f6"/>
  <circle cx="557.5" cy="417.2" r="4.5" fill="#3b82f6"/>
  <circle cx="711.7" cy="417.2" r="4.5" fill="#3b82f6"/>
  <circle cx="865.8" cy="398.5" r="4.5" fill="#3b82f6"/>
  <circle cx="1020.0" cy="398.5" r="4.5" fill="#3b82f6"/>
  <text x="1030.0" y="403.5" fill="#3b82f6" font-size="15" font-weight="700">NPM</text>
  <text x="249.2" y="108.0" fill="#ef4444" font-size="13" font-weight="700" text-anchor="middle">2020 동반 dip</text>
  <text x="95" y="566" fill="#94a3b8" font-size="14">2020 매출 -9.4%·OPM -4.4%p·NPM -6.2%p → 2021 NPM 46.0% 복원 · OPM-NPM 간극 7.4~11.9%p</text>
  <text x="540.0" y="592" fill="#fbbf24" font-size="17" font-weight="700" text-anchor="middle">빠른 복원이 '영구손상(대손)' 가설을 깬다 — 원인(국경간 거래)은 외부</text>
</svg>
