<svg xmlns="http://www.w3.org/2000/svg" viewBox="0 0 1080 715" font-family="-apple-system, 'Segoe UI', sans-serif">
  <title>2026년에 봐야 할 다섯 가지</title>
  <desc>간판(카드)은 은행이, 통행료는 망이</desc>
  <rect width="1080" height="715" fill="#0a0e1a"/>
  <text x="540.0" y="50" fill="#f1f5f9" font-size="31" font-weight="700" text-anchor="middle">2026년에 봐야 할 다섯 가지</text>
  <text x="540.0" y="84" fill="#64748b" font-size="16" text-anchor="middle">간판(카드)은 은행이, 통행료는 망이</text>
  <g>
    <rect x="90" y="115" width="900" height="92" rx="10" fill="#11161f" stroke="#334155" stroke-width="1.5"/>
    <circle cx="135" cy="161.0" r="20" fill="#fbbf24"/><text x="135" y="168.0" fill="#0a0e1a" font-size="22" font-weight="700" text-anchor="middle">1</text>
    <text x="180" y="152" fill="#f1f5f9" font-size="20" font-weight="700">OPM이 밴드 상단(57%대)을 유지/돌파하는가</text>
    <text x="180" y="184" fill="#94a3b8" font-size="15.5">2025 57.6%로 2019 고점 첫 돌파 — 유지면 믹스 효과, 되밀리면 일시 회복</text>
    <rect x="90" y="219" width="900" height="92" rx="10" fill="#11161f" stroke="#334155" stroke-width="1.5"/>
    <circle cx="135" cy="265.0" r="20" fill="#fbbf24"/><text x="135" y="272.0" fill="#0a0e1a" font-size="22" font-weight="700" text-anchor="middle">2</text>
    <text x="180" y="256" fill="#f1f5f9" font-size="20" font-weight="700">OPM–NPM 간극(2025 11.9%p)이 더 벌어지는가</text>
    <text x="180" y="288" fill="#94a3b8" font-size="15.5">영업단 아래(세금·투자손익)에서 새는 부분 — 출처 분해는 데이터 밖</text>
    <rect x="90" y="323" width="900" height="92" rx="10" fill="#11161f" stroke="#334155" stroke-width="1.5"/>
    <circle cx="135" cy="369.0" r="20" fill="#fbbf24"/><text x="135" y="376.0" fill="#0a0e1a" font-size="22" font-weight="700" text-anchor="middle">3</text>
    <text x="180" y="360" fill="#f1f5f9" font-size="20" font-weight="700">interchange 약 380억$ 수정합의의 최종 승인 여부</text>
    <text x="180" y="392" fill="#94a3b8" font-size="15.5">가맹점 반대·항소의 향방 — 발급은행 수취분임을 계속 분리(외부)</text>
    <rect x="90" y="427" width="900" height="92" rx="10" fill="#11161f" stroke="#334155" stroke-width="1.5"/>
    <circle cx="135" cy="473.0" r="20" fill="#fbbf24"/><text x="135" y="480.0" fill="#0a0e1a" font-size="22" font-weight="700" text-anchor="middle">4</text>
    <text x="180" y="464" fill="#f1f5f9" font-size="20" font-weight="700">국경간 볼륨 회복 지속 여부</text>
    <text x="180" y="496" fill="#94a3b8" font-size="15.5">2020 dip을 만든 통행량이 두 자릿수 성장을 잇는가(외부)</text>
    <rect x="90" y="531" width="900" height="92" rx="10" fill="#11161f" stroke="#334155" stroke-width="1.5"/>
    <circle cx="135" cy="577.0" r="20" fill="#fbbf24"/><text x="135" y="584.0" fill="#0a0e1a" font-size="22" font-weight="700" text-anchor="middle">5</text>
    <text x="180" y="568" fill="#f1f5f9" font-size="20" font-weight="700">부가서비스 비중 추이</text>
    <text x="180" y="600" fill="#94a3b8" font-size="15.5">결제망 vs 부가서비스 구성 — 비자 대비 색채 차이의 1차 지표(외부)</text>
  </g>
  <text x="540.0" y="687" fill="#fbbf24" font-size="17" font-weight="700" text-anchor="middle">연결이 증명한 건 '안 깎인 마진·동반 dip·1년 복원'까지 — 이유는 외부</text>
  <text x="540.0" y="661" fill="#64748b" font-size="14" text-anchor="middle">'리스크를 안 져서 마진이 높다'는 정합이지 인과 아님 — 10-K 자기기술</text>
</svg>
