<svg xmlns="http://www.w3.org/2000/svg" viewBox="0 0 1080 620" font-family="-apple-system, 'Segoe UI', sans-serif">
  <title>매출 +94% 동안 OPM은 52.8~57.6% 밴드를 안 벗어났다</title>
  <desc>영업이익률 7년 — 외형 1.9배에도 안 깎인 마진</desc>
  <rect width="1080" height="620" fill="#0a0e1a"/>
  <text x="540.0" y="50" fill="#f1f5f9" font-size="30" font-weight="700" text-anchor="middle">매출 +94% 동안 OPM은 52.8~57.6% 밴드를 안 벗어났다</text>
  <text x="540.0" y="82" fill="#64748b" font-size="16" text-anchor="middle">영업이익률 7년 — 외형 1.9배에도 안 깎인 마진</text>
  <line x1="95" y1="530.0" x2="1020" y2="530.0" stroke="#334155" stroke-width="1" opacity="0.4"/>
  <text x="83" y="535.0" fill="#64748b" font-size="14" text-anchor="end">48%</text>
  <line x1="95" y1="448.0" x2="1020" y2="448.0" stroke="#334155" stroke-width="1" opacity="0.4"/>
  <text x="83" y="453.0" fill="#64748b" font-size="14" text-anchor="end">51%</text>
  <line x1="95" y1="366.0" x2="1020" y2="366.0" stroke="#334155" stroke-width="1" opacity="0.4"/>
  <text x="83" y="371.0" fill="#64748b" font-size="14" text-anchor="end">54%</text>
  <line x1="95" y1="284.0" x2="1020" y2="284.0" stroke="#334155" stroke-width="1" opacity="0.4"/>
  <text x="83" y="289.0" fill="#64748b" font-size="14" text-anchor="end">56%</text>
  <line x1="95" y1="202.0" x2="1020" y2="202.0" stroke="#334155" stroke-width="1" opacity="0.4"/>
  <text x="83" y="207.0" fill="#64748b" font-size="14" text-anchor="end">59%</text>
  <line x1="95" y1="120.0" x2="1020" y2="120.0" stroke="#334155" stroke-width="1" opacity="0.4"/>
  <text x="83" y="125.0" fill="#64748b" font-size="14" text-anchor="end">62%</text>
  <text x="95.0" y="558.0" fill="#94a3b8" font-size="14" text-anchor="middle">2019</text>
  <text x="249.2" y="558.0" fill="#94a3b8" font-size="14" text-anchor="middle">2020</text>
  <text x="403.3" y="558.0" fill="#94a3b8" font-size="14" text-anchor="middle">2021</text>
  <text x="557.5" y="558.0" fill="#94a3b8" font-size="14" text-anchor="middle">2022</text>
  <text x="711.7" y="558.0" fill="#94a3b8" font-size="14" text-anchor="middle">2023</text>
  <text x="865.8" y="558.0" fill="#94a3b8" font-size="14" text-anchor="middle">2024</text>
  <text x="1020.0" y="558.0" fill="#94a3b8" font-size="14" text-anchor="middle">2025</text>
  <polyline points="95.0,260.6 249.2,389.4 403.3,371.9 557.5,322.1 711.7,301.6 865.8,316.2 1020.0,248.9" fill="none" stroke="#fbbf24" stroke-width="3.5"/>
  <circle cx="95.0" cy="260.6" r="4.5" fill="#fbbf24"/>
  <circle cx="249.2" cy="389.4" r="4.5" fill="#fbbf24"/>
  <circle cx="403.3" cy="371.9" r="4.5" fill="#fbbf24"/>
  <circle cx="557.5" cy="322.1" r="4.5" fill="#fbbf24"/>
  <circle cx="711.7" cy="301.6" r="4.5" fill="#fbbf24"/>
  <circle cx="865.8" cy="316.2" r="4.5" fill="#fbbf24"/>
  <circle cx="1020.0" cy="248.9" r="4.5" fill="#fbbf24"/>
  <text x="1030.0" y="253.9" fill="#fbbf24" font-size="15" font-weight="700">OPM</text>
  <text x="249.2" y="108.0" fill="#ef4444" font-size="13" font-weight="700" text-anchor="middle">2020 dip</text>
  <text x="95" y="566" fill="#94a3b8" font-size="14">밴드 폭 4.8%p · 2020 COVID로 매출·OPM 동반 dip 후 복원</text>
  <text x="540.0" y="592" fill="#fbbf24" font-size="17" font-weight="700" text-anchor="middle">2025 57.6%로 2019 고점(57.2%)을 처음 넘었다 — 안 깎인 마진</text>
</svg>
