<svg xmlns="http://www.w3.org/2000/svg" viewBox="0 0 1080 420" font-family="-apple-system, 'Segoe UI', sans-serif">
  <rect width="1080" height="420" fill="#0a0e1a"/>
  <text x="540" y="38" font-size="20" font-weight="800" fill="#f1f5f9" text-anchor="middle">무형자산 1년에 +11,480억 — 뭘 산 거지?</text>
  <text x="540" y="60" font-size="12" fill="#64748b" text-anchor="middle">c.select("BS", ["무형자산"], freq="Y") | 단위: 억원</text>

  <!-- Bars: max 18042, scale = 18042/250px -->
  <text x="55" y="130" font-size="11" fill="#64748b" text-anchor="end">18,000</text>
  <line x1="65" y1="127" x2="1020" y2="127" stroke="#1e293b" stroke-width="1"/>
  <text x="55" y="210" font-size="11" fill="#64748b" text-anchor="end">9,000</text>
  <line x1="65" y1="207" x2="1020" y2="207" stroke="#1e293b" stroke-width="1"/>
  <text x="55" y="290" font-size="11" fill="#64748b" text-anchor="end">0</text>
  <line x1="65" y1="287" x2="1020" y2="287" stroke="#334155" stroke-width="2"/>

  <!-- 2021: 8287 → h=115 -->
  <rect x="120" y="172" width="130" height="115" rx="6" fill="#334155"/>
  <text x="185" y="162" font-size="16" font-weight="700" fill="#94a3b8" text-anchor="middle">8,287</text>
  <text x="185" y="310" font-size="13" fill="#94a3b8" text-anchor="middle">2021</text>

  <!-- 2022: 8605 -->
  <rect x="280" y="168" width="130" height="119" rx="6" fill="#334155"/>
  <text x="345" y="158" font-size="16" font-weight="700" fill="#94a3b8" text-anchor="middle">8,605</text>
  <text x="345" y="310" font-size="13" fill="#94a3b8" text-anchor="middle">2022</text>

  <!-- 2023: 6078 -->
  <rect x="440" y="203" width="130" height="84" rx="6" fill="#334155"/>
  <text x="505" y="193" font-size="16" font-weight="700" fill="#94a3b8" text-anchor="middle">6,078</text>
  <text x="505" y="310" font-size="13" fill="#94a3b8" text-anchor="middle">2023</text>
  <text x="505" y="328" font-size="10" fill="#ef4444" text-anchor="middle">손상 반영</text>

  <!-- 2024: 6562 -->
  <rect x="600" y="196" width="130" height="91" rx="6" fill="#334155"/>
  <text x="665" y="186" font-size="16" font-weight="700" fill="#94a3b8" text-anchor="middle">6,562</text>
  <text x="665" y="310" font-size="13" fill="#94a3b8" text-anchor="middle">2024</text>

  <!-- ADK event marker -->
  <line x1="760" y1="90" x2="760" y2="287" stroke="#fbbf24" stroke-width="2" stroke-dasharray="6,4" opacity="0.6"/>
  <text x="765" y="105" font-size="11" fill="#fbbf24" font-weight="600">ADK 인수</text>
  <text x="765" y="120" font-size="11" fill="#fbbf24">7,103억</text>

  <!-- 2025: 18042 → h=250 -->
  <rect x="790" y="37" width="150" height="250" rx="8" fill="#fbbf24" opacity="0.4"/>
  <text x="865" y="30" font-size="22" font-weight="800" fill="#fbbf24" text-anchor="middle">18,042</text>
  <text x="865" y="310" font-size="14" fill="#f1f5f9" text-anchor="middle" font-weight="700">2025</text>
  <text x="865" y="328" font-size="11" fill="#fbbf24" text-anchor="middle">+11,480억 (1년)</text>

  <!-- Bottom annotation -->
  <text x="540" y="380" font-size="13" fill="#94a3b8" text-anchor="middle">ADK 영업권 7,103억 + 기타 인수 + 기존 무형자산 재평가</text>
  <text x="540" y="400" font-size="12" fill="#64748b" text-anchor="middle">dartlab 플래그: "무형자산비율 +11%p 급등 — 대규모 인수 또는 영업권 증가"</text>
</svg>