<svg xmlns="http://www.w3.org/2000/svg" viewBox="0 0 1200 600" font-family="-apple-system, 'Segoe UI', sans-serif">
  <rect width="1200" height="600" fill="#0a0e1a"/>

  <!-- Title -->
  <text x="40" y="46" fill="#f1f5f9" font-size="22" font-weight="700">두 IP 의 운명 — 2018 CCP 인수에서 2026 만남까지</text>
  <text x="40" y="72" fill="#64748b" font-size="13">검은사막 자체 IP (위 / 양호) · CCP·EVE 외부 IP (아래 / 위험) · 한 분기에 만난 두 결정</text>

  <!-- Top axis: black desert / 자체 IP -->
  <text x="40" y="118" fill="#22c55e" font-size="13" font-weight="700">자체 IP — 검은사막 / 붉은사막</text>

  <line x1="60" y1="180" x2="1160" y2="180" stroke="#22c55e" stroke-width="2"/>
  <!-- year ticks on top line -->
  <g font-size="11" fill="#64748b" text-anchor="middle">
    <line x1="60"   y1="176" x2="60"   y2="184" stroke="#22c55e"/>
    <line x1="129"  y1="176" x2="129"  y2="184" stroke="#22c55e"/>
    <line x1="198"  y1="176" x2="198"  y2="184" stroke="#22c55e"/>
    <line x1="267"  y1="176" x2="267"  y2="184" stroke="#22c55e"/>
    <line x1="336"  y1="176" x2="336"  y2="184" stroke="#22c55e"/>
    <line x1="405"  y1="176" x2="405"  y2="184" stroke="#22c55e"/>
    <line x1="474"  y1="176" x2="474"  y2="184" stroke="#22c55e"/>
    <line x1="543"  y1="176" x2="543"  y2="184" stroke="#22c55e"/>
    <line x1="612"  y1="176" x2="612"  y2="184" stroke="#22c55e"/>
    <line x1="681"  y1="176" x2="681"  y2="184" stroke="#22c55e"/>
    <line x1="750"  y1="176" x2="750"  y2="184" stroke="#22c55e"/>
    <line x1="819"  y1="176" x2="819"  y2="184" stroke="#22c55e"/>
    <line x1="888"  y1="176" x2="888"  y2="184" stroke="#22c55e"/>
    <line x1="957"  y1="176" x2="957"  y2="184" stroke="#22c55e"/>
    <line x1="1026" y1="176" x2="1026" y2="184" stroke="#22c55e"/>
    <line x1="1095" y1="176" x2="1095" y2="184" stroke="#22c55e"/>
    <line x1="1160" y1="176" x2="1160" y2="184" stroke="#22c55e"/>
  </g>

  <!-- Top events (자체 IP) -->
  <!-- 2010-09 창업 -->
  <g>
    <circle cx="60" cy="180" r="5" fill="#22c55e"/>
    <line x1="60" y1="175" x2="60" y2="148" stroke="#475569" stroke-width="1"/>
    <text x="60" y="142" fill="#94a3b8" font-size="10" text-anchor="middle">2010-09</text>
    <text x="60" y="130" fill="#f1f5f9" font-size="11" text-anchor="middle" font-weight="600">창업 (김대일)</text>
  </g>
  <!-- 2014-12 OBT -->
  <g>
    <circle cx="349" cy="180" r="5" fill="#22c55e"/>
    <line x1="349" y1="175" x2="349" y2="148" stroke="#475569" stroke-width="1"/>
    <text x="349" y="142" fill="#94a3b8" font-size="10" text-anchor="middle">2014-12</text>
    <text x="349" y="130" fill="#f1f5f9" font-size="11" text-anchor="middle" font-weight="600">검은사막 OBT</text>
  </g>
  <!-- 2017-09 IPO -->
  <g>
    <circle cx="535" cy="180" r="5" fill="#22c55e"/>
    <line x1="535" y1="175" x2="535" y2="148" stroke="#475569" stroke-width="1"/>
    <text x="535" y="142" fill="#94a3b8" font-size="10" text-anchor="middle">2017-09</text>
    <text x="535" y="130" fill="#f1f5f9" font-size="11" text-anchor="middle" font-weight="600">IPO</text>
  </g>
  <!-- 2018-02 모바일 한일대만 -->
  <g>
    <circle cx="582" cy="180" r="5" fill="#22c55e"/>
    <line x1="582" y1="185" x2="582" y2="208" stroke="#475569" stroke-width="1"/>
    <text x="582" y="222" fill="#94a3b8" font-size="10" text-anchor="middle">2018-02</text>
    <text x="582" y="234" fill="#f1f5f9" font-size="11" text-anchor="middle" font-weight="600">모바일 한·일·대만</text>
  </g>
  <!-- 2019Q4 PEAK -->
  <g>
    <circle cx="708" cy="180" r="6" fill="#22c55e" stroke="#0a0e1a" stroke-width="2"/>
    <line x1="708" y1="175" x2="708" y2="148" stroke="#22c55e" stroke-width="1"/>
    <text x="708" y="142" fill="#22c55e" font-size="10" text-anchor="middle" font-weight="700">2019Q4</text>
    <text x="708" y="130" fill="#f1f5f9" font-size="11" text-anchor="middle" font-weight="600">분기 PEAK 5,359 억</text>
  </g>
  <!-- 2019 G-STAR 붉은사막 첫 공개 -->
  <g>
    <circle cx="708" cy="180" r="3" fill="#fbbf24"/>
    <line x1="708" y1="185" x2="708" y2="208" stroke="#fbbf24" stroke-width="1"/>
    <text x="708" y="222" fill="#fbbf24" font-size="10" text-anchor="middle">2019 G-STAR</text>
    <text x="708" y="234" fill="#f1f5f9" font-size="11" text-anchor="middle">붉은사막 첫 공개</text>
  </g>
  <!-- 2020-12 TGA 트레일러 -->
  <g>
    <circle cx="787" cy="180" r="4" fill="#fbbf24"/>
    <line x1="787" y1="185" x2="787" y2="262" stroke="#475569" stroke-width="1"/>
    <text x="787" y="276" fill="#94a3b8" font-size="10" text-anchor="middle">2020-12</text>
    <text x="787" y="288" fill="#f1f5f9" font-size="11" text-anchor="middle">TGA 트레일러</text>
  </g>
  <!-- 2022 CAPEX PEAK -->
  <g>
    <circle cx="888" cy="180" r="5" fill="#fbbf24"/>
    <line x1="888" y1="175" x2="888" y2="148" stroke="#fbbf24" stroke-width="1"/>
    <text x="888" y="142" fill="#fbbf24" font-size="10" text-anchor="middle" font-weight="700">2022</text>
    <text x="888" y="130" fill="#f1f5f9" font-size="11" text-anchor="middle">CAPEX 16.91% PEAK</text>
  </g>
  <!-- 2023-06 LOTML -->
  <g>
    <circle cx="966" cy="180" r="4" fill="#22c55e"/>
    <line x1="966" y1="185" x2="966" y2="208" stroke="#475569" stroke-width="1"/>
    <text x="966" y="222" fill="#94a3b8" font-size="10" text-anchor="middle">2023-06</text>
    <text x="966" y="234" fill="#f1f5f9" font-size="11" text-anchor="middle">아침의 나라</text>
  </g>
  <!-- 2024 spike 소실 -->
  <g>
    <circle cx="1026" cy="180" r="5" fill="#ef4444"/>
    <line x1="1026" y1="175" x2="1026" y2="148" stroke="#ef4444" stroke-width="1"/>
    <text x="1026" y="142" fill="#ef4444" font-size="10" text-anchor="middle" font-weight="700">2024</text>
    <text x="1026" y="130" fill="#f1f5f9" font-size="11" text-anchor="middle">spike 소실</text>
  </g>
  <!-- 2025-09-24 PS 발표 -->
  <g>
    <circle cx="1083" cy="180" r="4" fill="#fbbf24"/>
    <line x1="1083" y1="185" x2="1083" y2="262" stroke="#475569" stroke-width="1"/>
    <text x="1083" y="276" fill="#94a3b8" font-size="10" text-anchor="middle">2025-09</text>
    <text x="1083" y="288" fill="#f1f5f9" font-size="11" text-anchor="middle">PS 출시일 발표</text>
  </g>
  <!-- 2026-03-19 붉은사막 출시 -->
  <g>
    <circle cx="1131" cy="180" r="8" fill="#22c55e" stroke="#0a0e1a" stroke-width="2"/>
    <line x1="1131" y1="172" x2="1131" y2="120" stroke="#22c55e" stroke-width="1.5"/>
    <rect x="1010" y="92" width="160" height="30" rx="4" fill="#0a0e1a" stroke="#22c55e" stroke-width="1.5"/>
    <text x="1090" y="106" fill="#22c55e" font-size="11" font-weight="700" text-anchor="middle">2026-03-19</text>
    <text x="1090" y="118" fill="#f1f5f9" font-size="11" text-anchor="middle">붉은사막 출시</text>
  </g>

  <!-- Bottom axis: CCP / 외부 IP -->
  <text x="40" y="478" fill="#ef4444" font-size="13" font-weight="700">외부 IP — CCP / EVE Online</text>

  <line x1="60" y1="420" x2="1160" y2="420" stroke="#ef4444" stroke-width="2"/>

  <!-- Bottom events -->
  <!-- 2018-09 CCP 인수 -->
  <g>
    <circle cx="601" cy="420" r="6" fill="#ef4444" stroke="#0a0e1a" stroke-width="2"/>
    <line x1="601" y1="426" x2="601" y2="448" stroke="#ef4444" stroke-width="1.5"/>
    <rect x="510" y="450" width="180" height="30" rx="4" fill="#0a0e1a" stroke="#ef4444" stroke-width="1"/>
    <text x="600" y="464" fill="#ef4444" font-size="11" font-weight="700" text-anchor="middle">2018-09 CCP 인수</text>
    <text x="600" y="476" fill="#f1f5f9" font-size="11" text-anchor="middle">선급 $225M (+어언아웃)</text>
  </g>

  <!-- 8년 보유 bracket -->
  <line x1="601" y1="420" x2="1138" y2="420" stroke="#ef4444" stroke-width="6" opacity="0.25"/>
  <text x="869" y="411" fill="#94a3b8" font-size="11" text-anchor="middle">8 년 보유</text>

  <!-- 2026-04 CCP 매각 -->
  <g>
    <circle cx="1138" cy="420" r="8" fill="#ef4444" stroke="#0a0e1a" stroke-width="2"/>
    <line x1="1138" y1="426" x2="1138" y2="500" stroke="#ef4444" stroke-width="1.5"/>
    <rect x="1010" y="500" width="160" height="44" rx="4" fill="#0a0e1a" stroke="#ef4444" stroke-width="1.5"/>
    <text x="1090" y="516" fill="#ef4444" font-size="11" font-weight="700" text-anchor="middle">2026-04 CCP 매각</text>
    <text x="1090" y="529" fill="#f1f5f9" font-size="11" text-anchor="middle">$120M</text>
    <text x="1090" y="541" fill="#ef4444" font-size="11" text-anchor="middle">-$105M (-46%)</text>
  </g>

  <!-- year labels -->
  <g font-size="11" fill="#64748b" text-anchor="middle">
    <text x="60"   y="585">2010</text>
    <text x="129"  y="585">2011</text>
    <text x="198"  y="585">2012</text>
    <text x="267"  y="585">2013</text>
    <text x="336"  y="585">2014</text>
    <text x="405"  y="585">2015</text>
    <text x="474"  y="585">2016</text>
    <text x="543"  y="585">2017</text>
    <text x="612"  y="585">2018</text>
    <text x="681"  y="585">2019</text>
    <text x="750"  y="585">2020</text>
    <text x="819"  y="585">2021</text>
    <text x="888"  y="585">2022</text>
    <text x="957"  y="585">2023</text>
    <text x="1026" y="585">2024</text>
    <text x="1095" y="585">2025</text>
    <text x="1155" y="585">2026</text>
  </g>

  <!-- Connector arrow: 2026 한 분기 만남 -->
  <line x1="1131" y1="200" x2="1138" y2="400" stroke="#fbbf24" stroke-width="1" stroke-dasharray="3,3"/>
</svg>
