<svg xmlns="http://www.w3.org/2000/svg" viewBox="0 0 800 1340" font-family="-apple-system,'Apple SD Gothic Neo',Pretendard,'Noto Sans KR',sans-serif" font-size="12">
  <defs>
    <marker id="arr" viewBox="0 0 10 10" refX="9" refY="5" markerWidth="7" markerHeight="7" orient="auto-start-reverse">
      <path d="M 0 0 L 10 5 L 0 10 z" fill="#94a3b8"/>
    </marker>
    <marker id="arrCall" viewBox="0 0 10 10" refX="9" refY="5" markerWidth="7" markerHeight="7" orient="auto-start-reverse">
      <path d="M 0 0 L 10 5 L 0 10 z" fill="#ea4647"/>
    </marker>
    <marker id="arrLoop" viewBox="0 0 10 10" refX="9" refY="5" markerWidth="7" markerHeight="7" orient="auto-start-reverse">
      <path d="M 0 0 L 10 5 L 0 10 z" fill="#fbbf24"/>
    </marker>
    <linearGradient id="workbenchGrad" x1="0" y1="0" x2="0" y2="1">
      <stop offset="0%" stop-color="#1a0d11"/>
      <stop offset="100%" stop-color="#0f1219"/>
    </linearGradient>
  </defs>

  <rect width="800" height="1340" fill="#050811"/>

  <!-- 표제 -->
  <text x="40" y="32" fill="#f1f5f9" font-size="18" font-weight="800">DartLab — 전문 금융 AI 플랫폼</text>
  <text x="40" y="52" fill="#94a3b8" font-size="11">1 차 데이터 (DART · SEC · 향후 EDINET) + 분석 엔진 + AI 자율 작업대 + Skill OS 환류</text>

  <!-- ① 사용자 -->
  <rect x="260" y="76" width="280" height="42" rx="21" fill="#0f1219" stroke="#3b82f6" stroke-width="1.5"/>
  <text x="400" y="103" text-anchor="middle" fill="#dbeafe" font-weight="700" font-size="13">① 사람 · 외부 LLM (MCP)</text>

  <!-- ② 입구 두 갈래 -->
  <rect x="30" y="148" width="350" height="64" rx="6" fill="#0f1219" stroke="#3b82f6"/>
  <text x="205" y="174" text-anchor="middle" fill="#dbeafe" font-weight="700" font-size="15">dartlab.ask("…")</text>
  <text x="205" y="195" text-anchor="middle" fill="#93c5fd" font-size="11">— AI · 외부 LLM 입구</text>

  <rect x="420" y="148" width="350" height="64" rx="6" fill="#0f1219" stroke="#3b82f6"/>
  <text x="595" y="174" text-anchor="middle" fill="#dbeafe" font-weight="700" font-size="15">dartlab.Company(code)</text>
  <text x="595" y="195" text-anchor="middle" fill="#93c5fd" font-size="11">— 사람 파사드</text>

  <line x1="350" y1="118" x2="210" y2="148" stroke="#94a3b8" stroke-width="1.3" marker-end="url(#arr)"/>
  <line x1="450" y1="118" x2="590" y2="148" stroke="#94a3b8" stroke-width="1.3" marker-end="url(#arr)"/>

  <!-- ③ AI 자율 작업대 (가로 3 칼럼) -->
  <rect x="20" y="240" width="760" height="350" rx="14" fill="url(#workbenchGrad)" stroke="#ea4647" stroke-width="2.5"/>
  <text x="40" y="270" fill="#fca5a5" font-weight="800" font-size="16">③ AI 자율 작업대 — chat-native 루프</text>
  <text x="40" y="291" fill="#cbd5e1" font-size="11">LLM 이 매 iteration 도구 자율 호출 · Ref 검산 강제 · 외부 본문 untrusted · graph 강제 X</text>

  <text x="40" y="320" fill="#fb923c" font-weight="700" font-size="11">운용 자원 3 종 — 사람 자산이 자동으로 AI 의 도구가 된다</text>

  <!-- Skill OS (좌) -->
  <rect x="40" y="335" width="232" height="240" rx="6" fill="#0f1219" stroke="#fb923c" stroke-width="1.3"/>
  <text x="156" y="360" text-anchor="middle" fill="#fed7aa" font-weight="800" font-size="14">Skill OS</text>
  <text x="156" y="378" text-anchor="middle" fill="#94a3b8" font-size="10">skills/specs/</text>
  <line x1="56" y1="390" x2="256" y2="390" stroke="#1f2937"/>
  <text x="156" y="408" text-anchor="middle" fill="#cbd5e1" font-size="10">engines · operation</text>
  <text x="156" y="423" text-anchor="middle" fill="#cbd5e1" font-size="10">runtime · start · recipe</text>
  <line x1="56" y1="435" x2="256" y2="435" stroke="#1f2937"/>
  <text x="156" y="455" text-anchor="middle" fill="#fed7aa" font-size="11" font-weight="700">↑ 사람 문서</text>
  <text x="156" y="471" text-anchor="middle" fill="#fed7aa" font-size="11" font-weight="700">= AI 의 스킬</text>
  <text x="156" y="497" text-anchor="middle" fill="#94a3b8" font-size="9" font-style="italic">"엔진이 다리 —</text>
  <text x="156" y="510" text-anchor="middle" fill="#94a3b8" font-size="9" font-style="italic">한 파일이 사람 분석엔진</text>
  <text x="156" y="523" text-anchor="middle" fill="#94a3b8" font-size="9" font-style="italic">이자 AI skill 본문"</text>
  <text x="156" y="552" text-anchor="middle" fill="#94a3b8" font-size="9">사람 작성 → AI 호출</text>
  <text x="156" y="565" text-anchor="middle" fill="#94a3b8" font-size="9">→ 시장 검증 → 사람 갱신</text>

  <!-- Capability (중) -->
  <rect x="284" y="335" width="232" height="240" rx="6" fill="#0f1219" stroke="#c084fc" stroke-width="1.3"/>
  <text x="400" y="360" text-anchor="middle" fill="#e9d5ff" font-weight="800" font-size="14">Capability</text>
  <text x="400" y="378" text-anchor="middle" fill="#94a3b8" font-size="10">core/capability/</text>
  <line x1="300" y1="390" x2="500" y2="390" stroke="#1f2937"/>
  <text x="400" y="408" text-anchor="middle" fill="#cbd5e1" font-size="10">공개 API +</text>
  <text x="400" y="423" text-anchor="middle" fill="#cbd5e1" font-size="10">docstring 인덱스</text>
  <line x1="300" y1="435" x2="500" y2="435" stroke="#1f2937"/>
  <text x="400" y="455" text-anchor="middle" fill="#e9d5ff" font-size="11" font-weight="700">함수 docstring</text>
  <text x="400" y="471" text-anchor="middle" fill="#e9d5ff" font-size="11" font-weight="700">= tool schema</text>
  <text x="400" y="497" text-anchor="middle" fill="#94a3b8" font-size="9" font-style="italic">자동 생성:</text>
  <text x="400" y="512" text-anchor="middle" fill="#94a3b8" font-size="9">_generated.py</text>
  <text x="400" y="527" text-anchor="middle" fill="#94a3b8" font-size="9">_generated_analysis_graph.py</text>
  <text x="400" y="552" text-anchor="middle" fill="#94a3b8" font-size="9">RunPython 안에서 모든</text>
  <text x="400" y="565" text-anchor="middle" fill="#94a3b8" font-size="9">capability 직접 호출</text>

  <!-- Tools (우) -->
  <rect x="528" y="335" width="232" height="240" rx="6" fill="#0f1219" stroke="#38bdf8" stroke-width="1.3"/>
  <text x="644" y="360" text-anchor="middle" fill="#bae6fd" font-weight="800" font-size="14">Tools — canonical 11</text>
  <text x="644" y="378" text-anchor="middle" fill="#94a3b8" font-size="10">화이트리스트 강제</text>
  <line x1="544" y1="390" x2="744" y2="390" stroke="#1f2937"/>
  <text x="544" y="409" fill="#bae6fd" font-size="10" font-weight="700">메타 (3)</text>
  <text x="544" y="424" fill="#cbd5e1" font-size="9">ReadSkill · GetSkillBody</text>
  <text x="544" y="438" fill="#cbd5e1" font-size="9">ReadCapability</text>
  <text x="544" y="458" fill="#bae6fd" font-size="10" font-weight="700">실행 (3)</text>
  <text x="544" y="473" fill="#cbd5e1" font-size="9">RunPython · EngineCall</text>
  <text x="544" y="487" fill="#cbd5e1" font-size="9">InspectDataset</text>
  <text x="544" y="507" fill="#bae6fd" font-size="10" font-weight="700">외부 (2)</text>
  <text x="544" y="522" fill="#cbd5e1" font-size="9">WebSearch · Read</text>
  <text x="544" y="542" fill="#bae6fd" font-size="10" font-weight="700">출력 · 작업대 (3)</text>
  <text x="544" y="557" fill="#cbd5e1" font-size="9">SaveArtifact · CompileVisual</text>
  <text x="544" y="570" fill="#cbd5e1" font-size="9">RunWorkbench</text>

  <!-- entry → workbench arrows -->
  <line x1="205" y1="212" x2="205" y2="240" stroke="#94a3b8" stroke-width="1.3" marker-end="url(#arr)"/>
  <line x1="595" y1="212" x2="595" y2="240" stroke="#94a3b8" stroke-width="1.3" marker-end="url(#arr)"/>

  <!-- ④ Story -->
  <rect x="160" y="620" width="480" height="60" rx="8" fill="#1a0b2e" stroke="#c084fc" stroke-width="1.5"/>
  <text x="400" y="644" text-anchor="middle" fill="#e9d5ff" font-weight="800" font-size="14">④ L3 종합 — story</text>
  <text x="400" y="664" text-anchor="middle" fill="#c084fc" font-size="11">6 막 인과 보고서 조립 (경제→섹터→기업→재무→가치→가격)</text>

  <line x1="400" y1="590" x2="400" y2="620" stroke="#ea4647" stroke-width="1.5" marker-end="url(#arrCall)"/>
  <text x="412" y="610" fill="#ea4647" font-size="11" font-weight="700">호출</text>

  <!-- ⑤ L2 분석 5 (3+2 grid) -->
  <text x="20" y="716" fill="#34d399" font-weight="700" font-size="13">⑤ L2 — 공식 분석 엔진 (1 차 데이터 → 신호 · 등급 · 팩터)</text>

  <g>
    <rect x="20" y="728" width="245" height="78" rx="6" fill="#0a1f17" stroke="#34d399" stroke-width="1.3"/>
    <text x="142" y="752" text-anchor="middle" fill="#a7f3d0" font-weight="800" font-size="14">analysis</text>
    <text x="142" y="771" text-anchor="middle" fill="#6ee7b7" font-size="11">22 축 재무·정성</text>
    <text x="142" y="790" text-anchor="middle" fill="#94a3b8" font-size="10">수익성·성장·현금흐름·세그먼트</text>

    <rect x="277" y="728" width="245" height="78" rx="6" fill="#0a1f17" stroke="#34d399" stroke-width="1.3"/>
    <text x="400" y="752" text-anchor="middle" fill="#a7f3d0" font-weight="800" font-size="14">credit</text>
    <text x="400" y="771" text-anchor="middle" fill="#6ee7b7" font-size="11">7 축 dCR 신용 등급</text>
    <text x="400" y="790" text-anchor="middle" fill="#94a3b8" font-size="10">독립 등급 · 부도 거리</text>

    <rect x="534" y="728" width="245" height="78" rx="6" fill="#0a1f17" stroke="#34d399" stroke-width="1.3"/>
    <text x="657" y="752" text-anchor="middle" fill="#a7f3d0" font-weight="800" font-size="14">macro</text>
    <text x="657" y="771" text-anchor="middle" fill="#6ee7b7" font-size="11">6 막 거시</text>
    <text x="657" y="790" text-anchor="middle" fill="#94a3b8" font-size="10">cycle · rates · crisis 국면</text>
  </g>

  <g>
    <rect x="148" y="818" width="245" height="78" rx="6" fill="#0a1f17" stroke="#34d399" stroke-width="1.3"/>
    <text x="270" y="842" text-anchor="middle" fill="#a7f3d0" font-weight="800" font-size="14">quant</text>
    <text x="270" y="861" text-anchor="middle" fill="#6ee7b7" font-size="11">31 축 정량</text>
    <text x="270" y="880" text-anchor="middle" fill="#94a3b8" font-size="10">모멘텀 · 변동성 · 팩터</text>

    <rect x="406" y="818" width="245" height="78" rx="6" fill="#0a1f17" stroke="#34d399" stroke-width="1.3"/>
    <text x="528" y="842" text-anchor="middle" fill="#a7f3d0" font-weight="800" font-size="14">industry</text>
    <text x="528" y="861" text-anchor="middle" fill="#6ee7b7" font-size="11">산업 + 피어 비교</text>
    <text x="528" y="880" text-anchor="middle" fill="#94a3b8" font-size="10">taxonomy · 동종사 분포</text>
  </g>

  <line x1="400" y1="680" x2="400" y2="728" stroke="#c084fc" stroke-width="1.5" marker-end="url(#arrCall)"/>

  <!-- ⑥ L1.5 횡단 처리 3 -->
  <text x="20" y="940" fill="#22d3ee" font-weight="700" font-size="13">⑥ L1.5 — 횡단 처리 엔진 (전 종목·전 시장 axis)</text>

  <g>
    <rect x="20" y="952" width="245" height="100" rx="6" fill="#062028" stroke="#22d3ee" stroke-width="1.3"/>
    <text x="142" y="976" text-anchor="middle" fill="#a5f3fc" font-weight="800" font-size="14">gather</text>
    <text x="142" y="996" text-anchor="middle" fill="#67e8f9" font-size="10">11 축 멀티소스 외부 1 차 조달</text>
    <text x="142" y="1014" text-anchor="middle" fill="#94a3b8" font-size="9">가격 · 뉴스 · 거시 · 수급 · 배당 · 소유</text>
    <text x="142" y="1030" text-anchor="middle" fill="#94a3b8" font-size="9">FRED · ECOS · Naver · Google News</text>

    <rect x="277" y="952" width="245" height="100" rx="6" fill="#062028" stroke="#22d3ee" stroke-width="1.3"/>
    <text x="400" y="976" text-anchor="middle" fill="#a5f3fc" font-weight="800" font-size="14">company — 종목 파사드</text>
    <text x="400" y="996" text-anchor="middle" fill="#67e8f9" font-size="10">provider 라우팅</text>
    <text x="400" y="1014" text-anchor="middle" fill="#94a3b8" font-size="9">DartCompany (DART) · EdgarCompany (SEC)</text>
    <text x="400" y="1030" text-anchor="middle" fill="#94a3b8" font-size="9">+ EdinetCompany (일본 · 확장 예정)</text>

    <rect x="534" y="952" width="245" height="100" rx="6" fill="#062028" stroke="#22d3ee" stroke-width="1.3"/>
    <text x="657" y="976" text-anchor="middle" fill="#a5f3fc" font-weight="800" font-size="14">scan + search (BETA)</text>
    <text x="657" y="996" text-anchor="middle" fill="#67e8f9" font-size="10">전 시장 횡단 ranking · 공시 검색</text>
    <text x="657" y="1014" text-anchor="middle" fill="#94a3b8" font-size="9">prebuilt parquet · BM25 인덱스</text>
    <text x="657" y="1030" text-anchor="middle" fill="#94a3b8" font-size="9">screen · governance · moat 등</text>
  </g>

  <line x1="142" y1="896" x2="142" y2="952" stroke="#34d399" stroke-width="1.3" marker-end="url(#arr)"/>
  <line x1="400" y1="896" x2="400" y2="952" stroke="#34d399" stroke-width="1.3" marker-end="url(#arr)"/>
  <line x1="528" y1="896" x2="657" y2="952" stroke="#34d399" stroke-width="1.3" marker-end="url(#arr)"/>

  <!-- ⑦ core -->
  <rect x="20" y="1084" width="760" height="62" rx="8" fill="#1a0e07" stroke="#fb923c" stroke-width="1.5"/>
  <text x="400" y="1108" text-anchor="middle" fill="#fed7aa" font-weight="800" font-size="14">⑦ L0 core/ — 공통 인프라</text>
  <text x="400" y="1130" text-anchor="middle" fill="#fdba74" font-size="11">mappers (95 / 97 % 매핑) · data · cache (polars · BoundedCache) · providers · viz · dashboard</text>

  <line x1="142" y1="1052" x2="200" y2="1084" stroke="#22d3ee" stroke-width="1.3" marker-end="url(#arr)"/>
  <line x1="400" y1="1052" x2="400" y2="1084" stroke="#22d3ee" stroke-width="1.3" marker-end="url(#arr)"/>
  <line x1="657" y1="1052" x2="600" y2="1084" stroke="#22d3ee" stroke-width="1.3" marker-end="url(#arr)"/>

  <!-- ⑧ 외부 1 차 소스 -->
  <ellipse cx="400" cy="1186" rx="320" ry="28" fill="#1f2937" stroke="#64748b" stroke-width="1.5"/>
  <text x="400" y="1182" text-anchor="middle" fill="#cbd5e1" font-weight="800" font-size="14">⑧ 외부 1 차 소스 — untrusted</text>
  <text x="400" y="1202" text-anchor="middle" fill="#94a3b8" font-size="11">DART · SEC EDGAR · 가격 · 뉴스 · (향후 EDINET)</text>
  <line x1="400" y1="1146" x2="400" y2="1158" stroke="#fb923c" stroke-width="1.3" marker-end="url(#arr)"/>

  <!-- ⑨ 진화 루프 — 하단 가로 배너 -->
  <rect x="20" y="1236" width="760" height="62" rx="8" fill="#1a1407" stroke="#fbbf24" stroke-width="1.5" stroke-dasharray="6 4"/>
  <text x="40" y="1260" fill="#fde68a" font-weight="800" font-size="13">⑨ 3 자 진화 루프 — AI 자율 진화 아님 (사람 + 시장 + AI)</text>
  <text x="40" y="1282" fill="#fcd34d" font-size="11">답변 + Ref ──outcome_log──▶ 시장 N 일 후 reflection ──사람 검토──▶ Skill OS · 엔진 docstring 갱신 ──↻ 다음 호출 강화──▶ 작업대로 환류</text>

  <!-- 진화 루프 화살표 — 작업대 우측 출구 → 배너 → 작업대 좌측 입구 환류 -->
  <path d="M 780 410 Q 798 410, 798 1236" fill="none" stroke="#fbbf24" stroke-width="1.3" stroke-dasharray="5 4" marker-end="url(#arrLoop)"/>
  <text x="788" y="820" fill="#fcd34d" font-size="10" font-weight="700" transform="rotate(90 788 820)">답변 → 시장 → 사람 검토</text>

  <path d="M 20 1266 Q 4 1266, 4 240 L 40 240" fill="none" stroke="#fbbf24" stroke-width="1.3" stroke-dasharray="5 4" marker-end="url(#arrLoop)"/>
  <text x="14" y="750" fill="#fcd34d" font-size="10" font-weight="700" transform="rotate(-90 14 750)">갱신 → 다음 호출 강화</text>

  <!-- 범례 + 푸터 -->
  <g transform="translate(40, 1326)">
    <text x="0" y="0" fill="#94a3b8" font-size="10">실선 ▶ 데이터·제어 흐름</text>
    <text x="160" y="0" fill="#94a3b8" font-size="10">빨강 ▶ 호출 (use)</text>
    <text x="280" y="0" fill="#94a3b8" font-size="10">청록 ▶ 데이터 의존</text>
    <text x="400" y="0" fill="#94a3b8" font-size="10">노랑 점선 ▶ 진화 루프</text>
    <text x="720" y="0" fill="#475569" font-size="10" text-anchor="end">github.com/eddmpython/dartlab</text>
  </g>
</svg>
