<svg xmlns="http://www.w3.org/2000/svg" viewBox="0 0 900 506" font-family="Pretendard, -apple-system, Segoe UI, sans-serif">
<rect width="900" height="506" fill="#0a0e1a"/>
<text x="40" y="46" fill="#e2e8f0" font-size="25" font-weight="700">매출은 2022년 정점 후 횡보, 영업이익은 성장 (마진 개선)</text>
<text x="40" y="74" fill="#64748b" font-size="15">삼성물산 연결 (분기 합산)</text>
<line x1="70" y1="410.0" x2="830" y2="410.0" stroke="#1e293b" stroke-width="1"/>
<text x="60" y="414.0" fill="#94a3b8" font-size="12" text-anchor="end">0.00</text>
<line x1="70" y1="350.0" x2="830" y2="350.0" stroke="#1e293b" stroke-width="1"/>
<text x="60" y="354.0" fill="#94a3b8" font-size="12" text-anchor="end">9.68</text>
<line x1="70" y1="290.0" x2="830" y2="290.0" stroke="#1e293b" stroke-width="1"/>
<text x="60" y="294.0" fill="#94a3b8" font-size="12" text-anchor="end">19.4</text>
<line x1="70" y1="230.0" x2="830" y2="230.0" stroke="#1e293b" stroke-width="1"/>
<text x="60" y="234.0" fill="#94a3b8" font-size="12" text-anchor="end">29.0</text>
<line x1="70" y1="170.0" x2="830" y2="170.0" stroke="#1e293b" stroke-width="1"/>
<text x="60" y="174.0" fill="#94a3b8" font-size="12" text-anchor="end">38.7</text>
<line x1="70" y1="110.0" x2="830" y2="110.0" stroke="#1e293b" stroke-width="1"/>
<text x="60" y="114.0" fill="#94a3b8" font-size="12" text-anchor="end">48.4</text>
<line x1="70" y1="410.0" x2="830" y2="410.0" stroke="#334155" stroke-width="1.5"/>
<rect x="94.5" y="403.2" width="42.0" height="6.8" rx="2" fill="#3b82f6" opacity="0.92"/>
<text x="115.5" y="397.2" fill="#94a3b8" font-size="11" text-anchor="middle">1.10</text>
<text x="117.5" y="432" fill="#94a3b8" font-size="13" text-anchor="middle">2018</text>
<rect x="189.5" y="404.6" width="42.0" height="5.4" rx="2" fill="#3b82f6" opacity="0.92"/>
<text x="210.5" y="398.6" fill="#94a3b8" font-size="11" text-anchor="middle">0.87</text>
<text x="212.5" y="432" fill="#94a3b8" font-size="13" text-anchor="middle">2019</text>
<rect x="284.5" y="404.7" width="42.0" height="5.3" rx="2" fill="#3b82f6" opacity="0.92"/>
<text x="305.5" y="398.7" fill="#94a3b8" font-size="11" text-anchor="middle">0.86</text>
<text x="307.5" y="432" fill="#94a3b8" font-size="13" text-anchor="middle">2020</text>
<rect x="379.5" y="402.6" width="42.0" height="7.4" rx="2" fill="#3b82f6" opacity="0.92"/>
<text x="400.5" y="396.6" fill="#94a3b8" font-size="11" text-anchor="middle">1.20</text>
<text x="402.5" y="432" fill="#94a3b8" font-size="13" text-anchor="middle">2021</text>
<rect x="474.5" y="394.3" width="42.0" height="15.7" rx="2" fill="#3b82f6" opacity="0.92"/>
<text x="495.5" y="388.3" fill="#94a3b8" font-size="11" text-anchor="middle">2.53</text>
<text x="497.5" y="432" fill="#94a3b8" font-size="13" text-anchor="middle">2022</text>
<rect x="569.5" y="392.2" width="42.0" height="17.8" rx="2" fill="#3b82f6" opacity="0.92"/>
<text x="590.5" y="386.2" fill="#94a3b8" font-size="11" text-anchor="middle">2.87</text>
<text x="592.5" y="432" fill="#94a3b8" font-size="13" text-anchor="middle">2023</text>
<rect x="664.5" y="391.5" width="42.0" height="18.5" rx="2" fill="#3b82f6" opacity="0.92"/>
<text x="685.5" y="385.5" fill="#94a3b8" font-size="11" text-anchor="middle">2.98</text>
<text x="687.5" y="432" fill="#94a3b8" font-size="13" text-anchor="middle">2024</text>
<rect x="759.5" y="389.6" width="42.0" height="20.4" rx="2" fill="#3b82f6" opacity="0.92"/>
<text x="780.5" y="383.6" fill="#94a3b8" font-size="11" text-anchor="middle">3.29</text>
<text x="782.5" y="432" fill="#94a3b8" font-size="13" text-anchor="middle">2025</text>
<path d="M117.5,216.5 L212.5,219.0 L307.5,222.7 L402.5,196.1 L497.5,142.1 L592.5,150.2 L687.5,149.0 L782.5,157.6" fill="none" stroke="#22c55e" stroke-width="3"/>
<circle cx="117.5" cy="216.5" r="4.5" fill="#22c55e"/>
<text x="117.5" y="205.5" fill="#22c55e" font-size="12" font-weight="700" text-anchor="middle">31.2</text>
<circle cx="212.5" cy="219.0" r="4.5" fill="#22c55e"/>
<text x="212.5" y="208.0" fill="#22c55e" font-size="12" font-weight="700" text-anchor="middle">30.8</text>
<circle cx="307.5" cy="222.7" r="4.5" fill="#22c55e"/>
<text x="307.5" y="211.7" fill="#22c55e" font-size="12" font-weight="700" text-anchor="middle">30.2</text>
<circle cx="402.5" cy="196.1" r="4.5" fill="#22c55e"/>
<text x="402.5" y="185.1" fill="#22c55e" font-size="12" font-weight="700" text-anchor="middle">34.5</text>
<circle cx="497.5" cy="142.1" r="4.5" fill="#22c55e"/>
<text x="497.5" y="131.1" fill="#22c55e" font-size="12" font-weight="700" text-anchor="middle">43.2</text>
<circle cx="592.5" cy="150.2" r="4.5" fill="#22c55e"/>
<text x="592.5" y="139.2" fill="#22c55e" font-size="12" font-weight="700" text-anchor="middle">41.9</text>
<circle cx="687.5" cy="149.0" r="4.5" fill="#22c55e"/>
<text x="687.5" y="138.0" fill="#22c55e" font-size="12" font-weight="700" text-anchor="middle">42.1</text>
<circle cx="782.5" cy="157.6" r="4.5" fill="#22c55e"/>
<text x="782.5" y="146.6" fill="#22c55e" font-size="12" font-weight="700" text-anchor="middle">40.7</text>
<rect x="70" y="473" width="13" height="13" rx="2" fill="#3b82f6"/>
<text x="89" y="484" fill="#94a3b8" font-size="13">영업이익</text>
<line x1="150" y1="479" x2="166" y2="479" stroke="#22c55e" stroke-width="3"/>
<text x="172" y="484" fill="#94a3b8" font-size="13">매출</text>
<text x="860" y="100" fill="#64748b" font-size="13" text-anchor="end">단위: 조원</text>
</svg>