<svg xmlns="http://www.w3.org/2000/svg" viewBox="0 0 900 506" font-family="Pretendard, -apple-system, Segoe UI, sans-serif">
<rect width="900" height="506" fill="#0a0e1a"/>
<text x="40" y="46" fill="#e2e8f0" font-size="25" font-weight="700">순이익이 영업이익을 웃돈다 — 단 그 폭은 해마다 다르다</text>
<text x="40" y="74" fill="#64748b" font-size="15">2018 차 +0.64조·2025 +0.61조·2022 ≈0 (영업 밖 순효과 변동)</text>
<line x1="70" y1="410.0" x2="830" y2="410.0" stroke="#1e293b" stroke-width="1"/>
<text x="60" y="414.0" fill="#94a3b8" font-size="12" text-anchor="end">0.00</text>
<line x1="70" y1="350.0" x2="830" y2="350.0" stroke="#1e293b" stroke-width="1"/>
<text x="60" y="354.0" fill="#94a3b8" font-size="12" text-anchor="end">0.89</text>
<line x1="70" y1="290.0" x2="830" y2="290.0" stroke="#1e293b" stroke-width="1"/>
<text x="60" y="294.0" fill="#94a3b8" font-size="12" text-anchor="end">1.78</text>
<line x1="70" y1="230.0" x2="830" y2="230.0" stroke="#1e293b" stroke-width="1"/>
<text x="60" y="234.0" fill="#94a3b8" font-size="12" text-anchor="end">2.67</text>
<line x1="70" y1="170.0" x2="830" y2="170.0" stroke="#1e293b" stroke-width="1"/>
<text x="60" y="174.0" fill="#94a3b8" font-size="12" text-anchor="end">3.57</text>
<line x1="70" y1="110.0" x2="830" y2="110.0" stroke="#1e293b" stroke-width="1"/>
<text x="60" y="114.0" fill="#94a3b8" font-size="12" text-anchor="end">4.46</text>
<line x1="70" y1="410.0" x2="830" y2="410.0" stroke="#334155" stroke-width="1.5"/>
<rect x="86.2" y="336.0" width="27.4" height="74.0" rx="2" fill="#3b82f6" opacity="0.92"/>
<text x="99.8" y="330.0" fill="#94a3b8" font-size="10.5" text-anchor="middle">1.10</text>
<rect x="117.5" y="292.2" width="27.4" height="117.8" rx="2" fill="#f59e0b" opacity="0.92"/>
<text x="131.2" y="286.2" fill="#94a3b8" font-size="10.5" text-anchor="middle">1.75</text>
<text x="117.5" y="432" fill="#94a3b8" font-size="13" text-anchor="middle">2018</text>
<rect x="181.2" y="351.4" width="27.4" height="58.6" rx="2" fill="#3b82f6" opacity="0.92"/>
<text x="194.8" y="345.4" fill="#94a3b8" font-size="10.5" text-anchor="middle">0.87</text>
<rect x="212.5" y="339.3" width="27.4" height="70.7" rx="2" fill="#f59e0b" opacity="0.92"/>
<text x="226.2" y="333.3" fill="#94a3b8" font-size="10.5" text-anchor="middle">1.05</text>
<text x="212.5" y="432" fill="#94a3b8" font-size="13" text-anchor="middle">2019</text>
<rect x="276.1" y="352.1" width="27.4" height="57.9" rx="2" fill="#3b82f6" opacity="0.92"/>
<text x="289.8" y="346.1" fill="#94a3b8" font-size="10.5" text-anchor="middle">0.86</text>
<rect x="307.5" y="331.9" width="27.4" height="78.1" rx="2" fill="#f59e0b" opacity="0.92"/>
<text x="321.2" y="325.9" fill="#94a3b8" font-size="10.5" text-anchor="middle">1.16</text>
<text x="307.5" y="432" fill="#94a3b8" font-size="13" text-anchor="middle">2020</text>
<rect x="371.1" y="329.2" width="27.4" height="80.8" rx="2" fill="#3b82f6" opacity="0.92"/>
<text x="384.8" y="323.2" fill="#94a3b8" font-size="10.5" text-anchor="middle">1.20</text>
<rect x="402.5" y="286.8" width="27.4" height="123.2" rx="2" fill="#f59e0b" opacity="0.92"/>
<text x="416.2" y="280.8" fill="#94a3b8" font-size="10.5" text-anchor="middle">1.83</text>
<text x="402.5" y="432" fill="#94a3b8" font-size="13" text-anchor="middle">2021</text>
<rect x="466.1" y="239.7" width="27.4" height="170.3" rx="2" fill="#3b82f6" opacity="0.92"/>
<text x="479.8" y="233.7" fill="#94a3b8" font-size="10.5" text-anchor="middle">2.53</text>
<rect x="497.5" y="239.0" width="27.4" height="171.0" rx="2" fill="#f59e0b" opacity="0.92"/>
<text x="511.2" y="233.0" fill="#94a3b8" font-size="10.5" text-anchor="middle">2.54</text>
<text x="497.5" y="432" fill="#94a3b8" font-size="13" text-anchor="middle">2022</text>
<rect x="561.1" y="216.8" width="27.4" height="193.2" rx="2" fill="#3b82f6" opacity="0.92"/>
<text x="574.8" y="210.8" fill="#94a3b8" font-size="10.5" text-anchor="middle">2.87</text>
<rect x="592.5" y="226.9" width="27.4" height="183.1" rx="2" fill="#f59e0b" opacity="0.92"/>
<text x="606.2" y="220.9" fill="#94a3b8" font-size="10.5" text-anchor="middle">2.72</text>
<text x="592.5" y="432" fill="#94a3b8" font-size="13" text-anchor="middle">2023</text>
<rect x="656.1" y="209.4" width="27.4" height="200.6" rx="2" fill="#3b82f6" opacity="0.92"/>
<text x="669.8" y="203.4" fill="#94a3b8" font-size="10.5" text-anchor="middle">2.98</text>
<rect x="687.5" y="223.6" width="27.4" height="186.4" rx="2" fill="#f59e0b" opacity="0.92"/>
<text x="701.2" y="217.6" fill="#94a3b8" font-size="10.5" text-anchor="middle">2.77</text>
<text x="687.5" y="432" fill="#94a3b8" font-size="13" text-anchor="middle">2024</text>
<rect x="751.1" y="188.6" width="27.4" height="221.4" rx="2" fill="#3b82f6" opacity="0.92"/>
<text x="764.8" y="182.6" fill="#94a3b8" font-size="10.5" text-anchor="middle">3.29</text>
<rect x="782.5" y="146.8" width="27.4" height="263.2" rx="2" fill="#f59e0b" opacity="0.92"/>
<text x="796.2" y="140.8" fill="#94a3b8" font-size="10.5" text-anchor="middle">3.91</text>
<text x="782.5" y="432" fill="#94a3b8" font-size="13" text-anchor="middle">2025</text>
<rect x="70" y="473" width="13" height="13" rx="2" fill="#3b82f6"/>
<text x="89" y="484" fill="#94a3b8" font-size="13">영업이익</text>
<rect x="150" y="473" width="13" height="13" rx="2" fill="#f59e0b"/>
<text x="169" y="484" fill="#94a3b8" font-size="13">순이익</text>
<text x="860" y="100" fill="#64748b" font-size="13" text-anchor="end">단위: 조원</text>
</svg>