<svg xmlns="http://www.w3.org/2000/svg" viewBox="0 0 1080 540" font-family="-apple-system, 'Segoe UI', sans-serif">
  <title>두 궤도, 다른 기울기</title>
  <desc>영업현금흐름은 1.24에서 5.44로 매끄럽게 올랐고, GAAP 영업이익은 0.04에서 1.82로 뒤늦게 따라왔다.</desc>
  <rect width="1080" height="540" fill="#0a0e1a"/>
  <text x="540.0" y="50" fill="#f1f5f9" font-size="25" font-weight="700" text-anchor="middle">두 궤도, 다른 기울기</text>
  <text x="540.0" y="82" fill="#64748b" font-size="15" text-anchor="middle">영업현금흐름($B)은 매끄럽게 올랐고 GAAP 영업이익($B)은 뒤늦게 따라왔다</text>
  <polyline points="150.0,386.7 293.3,353.1 436.7,328.6 580.0,296.2 723.3,254.7 866.7,201.5 1010.0,130.0" fill="none" stroke="#22c55e" stroke-width="3" stroke-linejoin="round"/>
  <circle cx="150.0" cy="386.7" r="4" fill="#22c55e"/>
  <circle cx="293.3" cy="353.1" r="4" fill="#22c55e"/>
  <circle cx="436.7" cy="328.6" r="4" fill="#22c55e"/>
  <circle cx="580.0" cy="296.2" r="4" fill="#22c55e"/>
  <circle cx="723.3" cy="254.7" r="4" fill="#22c55e"/>
  <circle cx="866.7" cy="201.5" r="4" fill="#22c55e"/>
  <circle cx="1010.0" cy="130.0" r="4" fill="#22c55e"/>
  <text x="1020.0" y="135.0" fill="#22c55e" font-size="14" font-weight="700">5.44</text>
  <text x="140.0" y="391.7" fill="#22c55e" font-size="13" text-anchor="end">1.24</text>
  <polyline points="150.0,460.0 293.3,450.2 436.7,446.6 580.0,441.1 723.3,416.0 866.7,379.3 1010.0,351.2" fill="none" stroke="#3b82f6" stroke-width="3" stroke-linejoin="round"/>
  <circle cx="150.0" cy="460.0" r="4" fill="#3b82f6"/>
  <circle cx="293.3" cy="450.2" r="4" fill="#3b82f6"/>
  <circle cx="436.7" cy="446.6" r="4" fill="#3b82f6"/>
  <circle cx="580.0" cy="441.1" r="4" fill="#3b82f6"/>
  <circle cx="723.3" cy="416.0" r="4" fill="#3b82f6"/>
  <circle cx="866.7" cy="379.3" r="4" fill="#3b82f6"/>
  <circle cx="1010.0" cy="351.2" r="4" fill="#3b82f6"/>
  <text x="1020.0" y="356.2" fill="#3b82f6" font-size="14" font-weight="700">1.82</text>
  <text x="140.0" y="465.0" fill="#3b82f6" font-size="13" text-anchor="end">0.04</text>
  <text x="150.0" y="500" fill="#64748b" font-size="12" text-anchor="middle">2019</text>
  <text x="293.3" y="500" fill="#64748b" font-size="12" text-anchor="middle">2020</text>
  <text x="436.7" y="500" fill="#64748b" font-size="12" text-anchor="middle">2021</text>
  <text x="580.0" y="500" fill="#64748b" font-size="12" text-anchor="middle">2022</text>
  <text x="723.3" y="500" fill="#64748b" font-size="12" text-anchor="middle">2023</text>
  <text x="866.7" y="500" fill="#64748b" font-size="12" text-anchor="middle">2024</text>
  <text x="1010.0" y="500" fill="#64748b" font-size="12" text-anchor="middle">2025</text>
  <rect x="150" y="100" width="14" height="11" rx="2" fill="#22c55e"/><text x="170" y="110" fill="#94a3b8" font-size="13">영업CF</text>
  <rect x="360" y="100" width="14" height="11" rx="2" fill="#3b82f6"/><text x="380" y="110" fill="#94a3b8" font-size="13">영업이익</text>
</svg>
