<svg xmlns="http://www.w3.org/2000/svg" viewBox="0 0 1080 540" font-family="-apple-system, 'Segoe UI', sans-serif">
  <title>2026년에 봐야 할 다섯 가지</title>
  <desc>2026 추적점: 배수 수렴·OPM 확장·레버리지 지속은 내부, SBC·RPO·AI는 외부.</desc>
  <rect width="1080" height="540" fill="#0a0e1a"/>
  <text x="540.0" y="50" fill="#f1f5f9" font-size="25" font-weight="700" text-anchor="middle">2026년에 봐야 할 다섯 가지</text>
  <text x="540.0" y="82" fill="#64748b" font-size="15" text-anchor="middle">ServiceNow — 현금이 먼저, 이익은 늦게</text>
  <rect x="80" y="118" width="920" height="64" rx="8" fill="#11161f" stroke="#334155" stroke-width="1.2"/>
  <text x="108" y="148" fill="#22c55e" font-size="20" font-weight="700">1</text>
  <text x="144" y="146" fill="#e2e8f0" font-size="16" font-weight="700">OCF/영업이익 배수가 3배 아래로 더 좁혀지는가</text>
  <text x="144" y="168" fill="#94a3b8" font-size="13">9→3으로 수렴한 격차의 다음 방향</text>
  <rect x="80" y="192" width="920" height="64" rx="8" fill="#11161f" stroke="#334155" stroke-width="1.2"/>
  <text x="108" y="222" fill="#22c55e" font-size="20" font-weight="700">2</text>
  <text x="144" y="220" fill="#e2e8f0" font-size="16" font-weight="700">OPM이 13.7%에서 더 확장하는가</text>
  <text x="144" y="242" fill="#94a3b8" font-size="13">4년 늦게 켜진 운영 레버리지의 지속 여부</text>
  <rect x="80" y="266" width="920" height="64" rx="8" fill="#11161f" stroke="#334155" stroke-width="1.2"/>
  <text x="108" y="296" fill="#22c55e" font-size="20" font-weight="700">3</text>
  <text x="144" y="294" fill="#e2e8f0" font-size="16" font-weight="700">영업이익 증가율이 매출 증가율을 계속 앞서는가</text>
  <text x="144" y="316" fill="#94a3b8" font-size="13">레버리지 점화가 일회성인지 추세인지</text>
  <rect x="80" y="340" width="920" height="64" rx="8" fill="#11161f" stroke="#475569" stroke-width="1.2"/>
  <text x="108" y="370" fill="#fbbf24" font-size="20" font-weight="700">4</text>
  <text x="144" y="368" fill="#e2e8f0" font-size="16" font-weight="700">주식보상비(SBC)·이연수익·RPO (외부)</text>
  <text x="144" y="390" fill="#94a3b8" font-size="13">GAAP 이익을 누르는 비현금·선납 구조</text>
  <rect x="80" y="414" width="920" height="64" rx="8" fill="#11161f" stroke="#475569" stroke-width="1.2"/>
  <text x="108" y="444" fill="#fbbf24" font-size="20" font-weight="700">5</text>
  <text x="144" y="442" fill="#e2e8f0" font-size="16" font-weight="700">AI(Now Assist) ACV·자사주·액면분할 (외부)</text>
  <text x="144" y="464" fill="#94a3b8" font-size="13">성장 동인과 희석 관리의 정산</text>
  <text x="540" y="512" fill="#64748b" font-size="13" text-anchor="middle">[내부] = dartlab 연결로 검증 가능 · (외부) = IR·공시·시장지표 인용</text>
</svg>
