<svg xmlns="http://www.w3.org/2000/svg" viewBox="0 0 1080 540" font-family="-apple-system, 'Segoe UI', sans-serif">
  <title>영업이익 vs 순이익 — 순이익은 따로 튄다</title>
  <desc>순이익이 영업이익과 독립적으로 움직인다. 2019년 순이익은 영업이익의 약 16배, 2023년에도 따로 튄다.</desc>
  <rect width="1080" height="540" fill="#0a0e1a"/>
  <text x="540.0" y="50" fill="#f1f5f9" font-size="25" font-weight="700" text-anchor="middle">영업이익 vs 순이익 — 순이익은 따로 튄다</text>
  <text x="540.0" y="82" fill="#64748b" font-size="15" text-anchor="middle">순이익은 영업 외 항목으로 2019년(영업이익의 16배)·2023년 따로 출렁인다 ($B)</text>
  <line x1="110" y1="300" x2="1010" y2="300" stroke="#64748b" stroke-width="1.5"/>
  <text x="1018" y="305" fill="#64748b" font-size="12">0</text>
  <rect x="120.0" y="295.4" width="28" height="4.6" rx="2.5" fill="#3b82f6" opacity="0.9"/>
  <text x="134.0" y="287.4" fill="#3b82f6" font-size="11" font-weight="700" text-anchor="middle">0.04</text>
  <rect x="152.0" y="227.3" width="28" height="72.7" rx="2.5" fill="#f59e0b" opacity="0.9"/>
  <text x="166.0" y="219.3" fill="#f59e0b" font-size="11" font-weight="700" text-anchor="middle">0.63</text>
  <text x="150.0" y="525" fill="#64748b" font-size="13" text-anchor="middle">2019</text>
  <rect x="263.3" y="276.9" width="28" height="23.1" rx="2.5" fill="#3b82f6" opacity="0.9"/>
  <text x="277.3" y="268.9" fill="#3b82f6" font-size="11" font-weight="700" text-anchor="middle">0.20</text>
  <rect x="295.3" y="286.2" width="28" height="13.8" rx="2.5" fill="#f59e0b" opacity="0.9"/>
  <text x="309.3" y="278.2" fill="#f59e0b" font-size="11" font-weight="700" text-anchor="middle">0.12</text>
  <text x="293.3" y="525" fill="#64748b" font-size="13" text-anchor="middle">2020</text>
  <rect x="406.7" y="270.0" width="28" height="30.0" rx="2.5" fill="#3b82f6" opacity="0.9"/>
  <text x="420.7" y="262.0" fill="#3b82f6" font-size="11" font-weight="700" text-anchor="middle">0.26</text>
  <rect x="438.7" y="273.5" width="28" height="26.5" rx="2.5" fill="#f59e0b" opacity="0.9"/>
  <text x="452.7" y="265.5" fill="#f59e0b" font-size="11" font-weight="700" text-anchor="middle">0.23</text>
  <text x="436.7" y="525" fill="#64748b" font-size="13" text-anchor="middle">2021</text>
  <rect x="550.0" y="259.6" width="28" height="40.4" rx="2.5" fill="#3b82f6" opacity="0.9"/>
  <text x="564.0" y="251.6" fill="#3b82f6" font-size="11" font-weight="700" text-anchor="middle">0.35</text>
  <rect x="582.0" y="261.9" width="28" height="38.1" rx="2.5" fill="#f59e0b" opacity="0.9"/>
  <text x="596.0" y="253.9" fill="#f59e0b" font-size="11" font-weight="700" text-anchor="middle">0.33</text>
  <text x="580.0" y="525" fill="#64748b" font-size="13" text-anchor="middle">2022</text>
  <rect x="693.3" y="212.3" width="28" height="87.7" rx="2.5" fill="#3b82f6" opacity="0.9"/>
  <text x="707.3" y="204.3" fill="#3b82f6" font-size="11" font-weight="700" text-anchor="middle">0.76</text>
  <rect x="725.3" y="100.4" width="28" height="199.6" rx="2.5" fill="#f59e0b" opacity="0.9"/>
  <text x="739.3" y="92.4" fill="#f59e0b" font-size="11" font-weight="700" text-anchor="middle">1.73</text>
  <text x="723.3" y="525" fill="#64748b" font-size="13" text-anchor="middle">2023</text>
  <rect x="836.7" y="143.1" width="28" height="156.9" rx="2.5" fill="#3b82f6" opacity="0.9"/>
  <text x="850.7" y="135.1" fill="#3b82f6" font-size="11" font-weight="700" text-anchor="middle">1.36</text>
  <rect x="868.7" y="135.0" width="28" height="165.0" rx="2.5" fill="#f59e0b" opacity="0.9"/>
  <text x="882.7" y="127.0" fill="#f59e0b" font-size="11" font-weight="700" text-anchor="middle">1.43</text>
  <text x="866.7" y="525" fill="#64748b" font-size="13" text-anchor="middle">2024</text>
  <rect x="980.0" y="90.0" width="28" height="210.0" rx="2.5" fill="#3b82f6" opacity="0.9"/>
  <text x="994.0" y="82.0" fill="#3b82f6" font-size="11" font-weight="700" text-anchor="middle">1.82</text>
  <rect x="1012.0" y="98.1" width="28" height="201.9" rx="2.5" fill="#f59e0b" opacity="0.9"/>
  <text x="1026.0" y="90.1" fill="#f59e0b" font-size="11" font-weight="700" text-anchor="middle">1.75</text>
  <text x="1010.0" y="525" fill="#64748b" font-size="13" text-anchor="middle">2025</text>
  <rect x="150" y="100" width="14" height="11" rx="2" fill="#3b82f6"/><text x="170" y="110" fill="#94a3b8" font-size="13">영업이익</text>
  <rect x="320" y="100" width="14" height="11" rx="2" fill="#f59e0b"/><text x="340" y="110" fill="#94a3b8" font-size="13">순이익</text>
</svg>
