<svg xmlns="http://www.w3.org/2000/svg" viewBox="0 0 900 506" font-family="Pretendard, -apple-system, Segoe UI, sans-serif">
<rect width="900" height="506" fill="#0a0e1a"/>
<text x="40" y="46" fill="#e2e8f0" font-size="25" font-weight="700">영업이익률: +39%에서 -85%로 부호가 뒤집힌다</text>
<text x="40" y="74" fill="#64748b" font-size="15">OPM = 영업이익 ÷ 매출</text>
<line x1="70" y1="410.0" x2="830" y2="410.0" stroke="#1e293b" stroke-width="1"/>
<text x="60" y="414.0" fill="#94a3b8" font-size="12" text-anchor="end">-104%</text>
<line x1="70" y1="350.0" x2="830" y2="350.0" stroke="#1e293b" stroke-width="1"/>
<text x="60" y="354.0" fill="#94a3b8" font-size="12" text-anchor="end">-71.3%</text>
<line x1="70" y1="290.0" x2="830" y2="290.0" stroke="#1e293b" stroke-width="1"/>
<text x="60" y="294.0" fill="#94a3b8" font-size="12" text-anchor="end">-39.0%</text>
<line x1="70" y1="230.0" x2="830" y2="230.0" stroke="#1e293b" stroke-width="1"/>
<text x="60" y="234.0" fill="#94a3b8" font-size="12" text-anchor="end">-6.69%</text>
<line x1="70" y1="170.0" x2="830" y2="170.0" stroke="#1e293b" stroke-width="1"/>
<text x="60" y="174.0" fill="#94a3b8" font-size="12" text-anchor="end">25.6%</text>
<line x1="70" y1="110.0" x2="830" y2="110.0" stroke="#1e293b" stroke-width="1"/>
<text x="60" y="114.0" fill="#94a3b8" font-size="12" text-anchor="end">57.9%</text>
<line x1="70" y1="217.6" x2="830" y2="217.6" stroke="#334155" stroke-width="1.5"/>
<path d="M70.0,144.6 L260.0,375.4 L450.0,227.0 L640.0,152.2 L830.0,180.3" fill="none" stroke="#f59e0b" stroke-width="3"/>
<circle cx="70.0" cy="144.6" r="5" fill="#f59e0b"/>
<text x="70.0" y="132.6" fill="#f59e0b" font-size="13" font-weight="700" text-anchor="middle">39.3%</text>
<text x="70.0" y="432" fill="#94a3b8" font-size="13" text-anchor="middle">2021</text>
<circle cx="260.0" cy="375.4" r="5" fill="#f59e0b"/>
<text x="260.0" y="363.4" fill="#f59e0b" font-size="13" font-weight="700" text-anchor="middle">-85.0%</text>
<text x="260.0" y="432" fill="#94a3b8" font-size="13" text-anchor="middle">2022</text>
<circle cx="450.0" cy="227.0" r="5" fill="#f59e0b"/>
<text x="450.0" y="215.0" fill="#f59e0b" font-size="13" font-weight="700" text-anchor="middle">-5.10%</text>
<text x="450.0" y="432" fill="#94a3b8" font-size="13" text-anchor="middle">2023</text>
<circle cx="640.0" cy="152.2" r="5" fill="#f59e0b"/>
<text x="640.0" y="140.2" fill="#f59e0b" font-size="13" font-weight="700" text-anchor="middle">35.2%</text>
<text x="640.0" y="432" fill="#94a3b8" font-size="13" text-anchor="middle">2024</text>
<circle cx="830.0" cy="180.3" r="5" fill="#f59e0b"/>
<text x="830.0" y="168.3" fill="#f59e0b" font-size="13" font-weight="700" text-anchor="middle">20.1%</text>
<text x="830.0" y="432" fill="#94a3b8" font-size="13" text-anchor="middle">2025</text>
<text x="860" y="100" fill="#64748b" font-size="13" text-anchor="end">단위: %</text>
</svg>