<svg xmlns="http://www.w3.org/2000/svg" viewBox="0 0 900 506" font-family="Pretendard, -apple-system, Segoe UI, sans-serif">
<rect width="900" height="506" fill="#0a0e1a"/>
<text x="40" y="46" fill="#e2e8f0" font-size="25" font-weight="700">영업현금흐름이 매출보다 클 때의 함정</text>
<text x="40" y="74" fill="#64748b" font-size="15">2021 영업CF 10.73 &gt; 매출 7.84 = 고객 수탁자금 섞임(자기 현금 아님)</text>
<line x1="70" y1="410.0" x2="830" y2="410.0" stroke="#1e293b" stroke-width="1"/>
<text x="60" y="414.0" fill="#94a3b8" font-size="12" text-anchor="end">-3.31</text>
<line x1="70" y1="350.0" x2="830" y2="350.0" stroke="#1e293b" stroke-width="1"/>
<text x="60" y="354.0" fill="#94a3b8" font-size="12" text-anchor="end">-0.16</text>
<line x1="70" y1="290.0" x2="830" y2="290.0" stroke="#1e293b" stroke-width="1"/>
<text x="60" y="294.0" fill="#94a3b8" font-size="12" text-anchor="end">2.99</text>
<line x1="70" y1="230.0" x2="830" y2="230.0" stroke="#1e293b" stroke-width="1"/>
<text x="60" y="234.0" fill="#94a3b8" font-size="12" text-anchor="end">6.15</text>
<line x1="70" y1="170.0" x2="830" y2="170.0" stroke="#1e293b" stroke-width="1"/>
<text x="60" y="174.0" fill="#94a3b8" font-size="12" text-anchor="end">9.30</text>
<line x1="70" y1="110.0" x2="830" y2="110.0" stroke="#1e293b" stroke-width="1"/>
<text x="60" y="114.0" fill="#94a3b8" font-size="12" text-anchor="end">12.5</text>
<line x1="70" y1="346.9" x2="830" y2="346.9" stroke="#334155" stroke-width="1.5"/>
<rect x="106.0" y="197.8" width="36.0" height="149.1" rx="2" fill="#22c55e" opacity="0.92"/>
<text x="124.0" y="191.8" fill="#94a3b8" font-size="10.5" text-anchor="middle">7.84</text>
<rect x="146.0" y="142.8" width="36.0" height="204.1" rx="2" fill="#a855f7" opacity="0.92"/>
<text x="164.0" y="136.8" fill="#94a3b8" font-size="10.5" text-anchor="middle">10.7</text>
<text x="146.0" y="432" fill="#94a3b8" font-size="13" text-anchor="middle">2021</text>
<rect x="258.0" y="286.3" width="36.0" height="60.7" rx="2" fill="#22c55e" opacity="0.92"/>
<text x="276.0" y="280.3" fill="#94a3b8" font-size="10.5" text-anchor="middle">3.19</text>
<rect x="298.0" y="346.9" width="36.0" height="30.2" rx="2" fill="#a855f7" opacity="0.92"/>
<text x="316.0" y="391.2" fill="#94a3b8" font-size="10.5" text-anchor="middle">-1.59</text>
<text x="298.0" y="432" fill="#94a3b8" font-size="13" text-anchor="middle">2022</text>
<rect x="410.0" y="287.8" width="36.0" height="59.2" rx="2" fill="#22c55e" opacity="0.92"/>
<text x="428.0" y="281.8" fill="#94a3b8" font-size="10.5" text-anchor="middle">3.11</text>
<rect x="450.0" y="329.4" width="36.0" height="17.5" rx="2" fill="#a855f7" opacity="0.92"/>
<text x="468.0" y="323.4" fill="#94a3b8" font-size="10.5" text-anchor="middle">0.92</text>
<text x="450.0" y="432" fill="#94a3b8" font-size="13" text-anchor="middle">2023</text>
<rect x="562.0" y="222.1" width="36.0" height="124.8" rx="2" fill="#22c55e" opacity="0.92"/>
<text x="580.0" y="216.1" fill="#94a3b8" font-size="10.5" text-anchor="middle">6.56</text>
<rect x="602.0" y="298.2" width="36.0" height="48.7" rx="2" fill="#a855f7" opacity="0.92"/>
<text x="620.0" y="292.2" fill="#94a3b8" font-size="10.5" text-anchor="middle">2.56</text>
<text x="602.0" y="432" fill="#94a3b8" font-size="13" text-anchor="middle">2024</text>
<rect x="714.0" y="210.3" width="36.0" height="136.6" rx="2" fill="#22c55e" opacity="0.92"/>
<text x="732.0" y="204.3" fill="#94a3b8" font-size="10.5" text-anchor="middle">7.18</text>
<rect x="754.0" y="300.7" width="36.0" height="46.2" rx="2" fill="#a855f7" opacity="0.92"/>
<text x="772.0" y="294.7" fill="#94a3b8" font-size="10.5" text-anchor="middle">2.43</text>
<text x="754.0" y="432" fill="#94a3b8" font-size="13" text-anchor="middle">2025</text>
<rect x="70" y="473" width="13" height="13" rx="2" fill="#22c55e"/>
<text x="89" y="484" fill="#94a3b8" font-size="13">매출</text>
<rect x="124" y="473" width="13" height="13" rx="2" fill="#a855f7"/>
<text x="143" y="484" fill="#94a3b8" font-size="13">영업현금흐름</text>
<text x="860" y="100" fill="#64748b" font-size="13" text-anchor="end">단위: $B</text>
</svg>