<svg xmlns="http://www.w3.org/2000/svg" viewBox="0 0 900 506" font-family="Pretendard, -apple-system, Segoe UI, sans-serif">
<rect width="900" height="506" fill="#0a0e1a"/>
<text x="40" y="46" fill="#e2e8f0" font-size="25" font-weight="700">회복도 코인값 따라 — 2025는 매출 +9%인데 영업이익 감소</text>
<text x="40" y="74" fill="#64748b" font-size="15">2023→2025 회복 국면</text>
<line x1="70" y1="410.0" x2="830" y2="410.0" stroke="#1e293b" stroke-width="1"/>
<text x="60" y="414.0" fill="#94a3b8" font-size="12" text-anchor="end">-1.19</text>
<line x1="70" y1="350.0" x2="830" y2="350.0" stroke="#1e293b" stroke-width="1"/>
<text x="60" y="354.0" fill="#94a3b8" font-size="12" text-anchor="end">0.69</text>
<line x1="70" y1="290.0" x2="830" y2="290.0" stroke="#1e293b" stroke-width="1"/>
<text x="60" y="294.0" fill="#94a3b8" font-size="12" text-anchor="end">2.57</text>
<line x1="70" y1="230.0" x2="830" y2="230.0" stroke="#1e293b" stroke-width="1"/>
<text x="60" y="234.0" fill="#94a3b8" font-size="12" text-anchor="end">4.45</text>
<line x1="70" y1="170.0" x2="830" y2="170.0" stroke="#1e293b" stroke-width="1"/>
<text x="60" y="174.0" fill="#94a3b8" font-size="12" text-anchor="end">6.33</text>
<line x1="70" y1="110.0" x2="830" y2="110.0" stroke="#1e293b" stroke-width="1"/>
<text x="60" y="114.0" fill="#94a3b8" font-size="12" text-anchor="end">8.21</text>
<line x1="70" y1="372.1" x2="830" y2="372.1" stroke="#334155" stroke-width="1.5"/>
<rect x="136.7" y="272.8" width="36.0" height="99.3" rx="2" fill="#22c55e" opacity="0.92"/>
<text x="154.7" y="266.8" fill="#94a3b8" font-size="10.5" text-anchor="middle">3.11</text>
<rect x="176.7" y="372.1" width="36.0" height="5.1" rx="2" fill="#3b82f6" opacity="0.92"/>
<text x="194.7" y="391.2" fill="#94a3b8" font-size="10.5" text-anchor="middle">-0.16</text>
<rect x="216.7" y="369.2" width="36.0" height="2.9" rx="2" fill="#f59e0b" opacity="0.92"/>
<text x="234.7" y="363.2" fill="#94a3b8" font-size="10.5" text-anchor="middle">0.09</text>
<text x="196.7" y="432" fill="#94a3b8" font-size="13" text-anchor="middle">2023</text>
<rect x="390.0" y="162.6" width="36.0" height="209.5" rx="2" fill="#22c55e" opacity="0.92"/>
<text x="408.0" y="156.6" fill="#94a3b8" font-size="10.5" text-anchor="middle">6.56</text>
<rect x="430.0" y="298.3" width="36.0" height="73.8" rx="2" fill="#3b82f6" opacity="0.92"/>
<text x="448.0" y="292.3" fill="#94a3b8" font-size="10.5" text-anchor="middle">2.31</text>
<rect x="470.0" y="289.7" width="36.0" height="82.4" rx="2" fill="#f59e0b" opacity="0.92"/>
<text x="488.0" y="283.7" fill="#94a3b8" font-size="10.5" text-anchor="middle">2.58</text>
<text x="450.0" y="432" fill="#94a3b8" font-size="13" text-anchor="middle">2024</text>
<rect x="643.3" y="142.8" width="36.0" height="229.3" rx="2" fill="#22c55e" opacity="0.92"/>
<text x="661.3" y="136.8" fill="#94a3b8" font-size="10.5" text-anchor="middle">7.18</text>
<rect x="683.3" y="326.1" width="36.0" height="46.0" rx="2" fill="#3b82f6" opacity="0.92"/>
<text x="701.3" y="320.1" fill="#94a3b8" font-size="10.5" text-anchor="middle">1.44</text>
<rect x="723.3" y="331.8" width="36.0" height="40.2" rx="2" fill="#f59e0b" opacity="0.92"/>
<text x="741.3" y="325.8" fill="#94a3b8" font-size="10.5" text-anchor="middle">1.26</text>
<text x="703.3" y="432" fill="#94a3b8" font-size="13" text-anchor="middle">2025</text>
<rect x="70" y="473" width="13" height="13" rx="2" fill="#22c55e"/>
<text x="89" y="484" fill="#94a3b8" font-size="13">매출</text>
<rect x="124" y="473" width="13" height="13" rx="2" fill="#3b82f6"/>
<text x="143" y="484" fill="#94a3b8" font-size="13">영업이익</text>
<rect x="204" y="473" width="13" height="13" rx="2" fill="#f59e0b"/>
<text x="223" y="484" fill="#94a3b8" font-size="13">당기순이익</text>
<text x="860" y="100" fill="#64748b" font-size="13" text-anchor="end">단위: $B</text>
</svg>