<svg xmlns="http://www.w3.org/2000/svg" viewBox="0 0 900 506" font-family="Pretendard, -apple-system, Segoe UI, sans-serif">
<rect width="900" height="506" fill="#0a0e1a"/>
<text x="40" y="46" fill="#e2e8f0" font-size="25" font-weight="700">매출은 출렁이고, 영업이익은 부호가 바뀐다</text>
<text x="40" y="74" fill="#64748b" font-size="15">코인베이스 매출·영업이익 (연결, 달력연도 합산)</text>
<line x1="70" y1="410.0" x2="830" y2="410.0" stroke="#1e293b" stroke-width="1"/>
<text x="60" y="414.0" fill="#94a3b8" font-size="12" text-anchor="end">-3.98</text>
<line x1="70" y1="350.0" x2="830" y2="350.0" stroke="#1e293b" stroke-width="1"/>
<text x="60" y="354.0" fill="#94a3b8" font-size="12" text-anchor="end">-1.36</text>
<line x1="70" y1="290.0" x2="830" y2="290.0" stroke="#1e293b" stroke-width="1"/>
<text x="60" y="294.0" fill="#94a3b8" font-size="12" text-anchor="end">1.26</text>
<line x1="70" y1="230.0" x2="830" y2="230.0" stroke="#1e293b" stroke-width="1"/>
<text x="60" y="234.0" fill="#94a3b8" font-size="12" text-anchor="end">3.87</text>
<line x1="70" y1="170.0" x2="830" y2="170.0" stroke="#1e293b" stroke-width="1"/>
<text x="60" y="174.0" fill="#94a3b8" font-size="12" text-anchor="end">6.49</text>
<line x1="70" y1="110.0" x2="830" y2="110.0" stroke="#1e293b" stroke-width="1"/>
<text x="60" y="114.0" fill="#94a3b8" font-size="12" text-anchor="end">9.11</text>
<line x1="70" y1="318.8" x2="830" y2="318.8" stroke="#334155" stroke-width="1.5"/>
<rect x="123.0" y="248.2" width="42.0" height="70.6" rx="2" fill="#3b82f6" opacity="0.92"/>
<text x="144.0" y="242.2" fill="#94a3b8" font-size="11" text-anchor="middle">3.08</text>
<text x="146.0" y="432" fill="#94a3b8" font-size="13" text-anchor="middle">2021</text>
<rect x="275.0" y="318.8" width="42.0" height="62.1" rx="2" fill="#3b82f6" opacity="0.92"/>
<text x="296.0" y="396.0" fill="#94a3b8" font-size="11" text-anchor="middle">-2.71</text>
<text x="298.0" y="432" fill="#94a3b8" font-size="13" text-anchor="middle">2022</text>
<rect x="427.0" y="318.8" width="42.0" height="3.7" rx="2" fill="#3b82f6" opacity="0.92"/>
<text x="448.0" y="337.5" fill="#94a3b8" font-size="11" text-anchor="middle">-0.16</text>
<text x="450.0" y="432" fill="#94a3b8" font-size="13" text-anchor="middle">2023</text>
<rect x="579.0" y="265.8" width="42.0" height="53.0" rx="2" fill="#3b82f6" opacity="0.92"/>
<text x="600.0" y="259.8" fill="#94a3b8" font-size="11" text-anchor="middle">2.31</text>
<text x="602.0" y="432" fill="#94a3b8" font-size="13" text-anchor="middle">2024</text>
<rect x="731.0" y="285.8" width="42.0" height="33.0" rx="2" fill="#3b82f6" opacity="0.92"/>
<text x="752.0" y="279.8" fill="#94a3b8" font-size="11" text-anchor="middle">1.44</text>
<text x="754.0" y="432" fill="#94a3b8" font-size="13" text-anchor="middle">2025</text>
<path d="M146.0,139.0 L298.0,245.7 L450.0,247.5 L602.0,168.4 L754.0,154.2" fill="none" stroke="#22c55e" stroke-width="3"/>
<circle cx="146.0" cy="139.0" r="4.5" fill="#22c55e"/>
<text x="146.0" y="128.0" fill="#22c55e" font-size="12" font-weight="700" text-anchor="middle">7.84</text>
<circle cx="298.0" cy="245.7" r="4.5" fill="#22c55e"/>
<text x="298.0" y="234.7" fill="#22c55e" font-size="12" font-weight="700" text-anchor="middle">3.19</text>
<circle cx="450.0" cy="247.5" r="4.5" fill="#22c55e"/>
<text x="450.0" y="236.5" fill="#22c55e" font-size="12" font-weight="700" text-anchor="middle">3.11</text>
<circle cx="602.0" cy="168.4" r="4.5" fill="#22c55e"/>
<text x="602.0" y="157.4" fill="#22c55e" font-size="12" font-weight="700" text-anchor="middle">6.56</text>
<circle cx="754.0" cy="154.2" r="4.5" fill="#22c55e"/>
<text x="754.0" y="143.2" fill="#22c55e" font-size="12" font-weight="700" text-anchor="middle">7.18</text>
<rect x="70" y="473" width="13" height="13" rx="2" fill="#3b82f6"/>
<text x="89" y="484" fill="#94a3b8" font-size="13">영업이익</text>
<line x1="150" y1="479" x2="166" y2="479" stroke="#22c55e" stroke-width="3"/>
<text x="172" y="484" fill="#94a3b8" font-size="13">매출</text>
<text x="860" y="100" fill="#64748b" font-size="13" text-anchor="end">단위: $B</text>
</svg>