<svg xmlns="http://www.w3.org/2000/svg" width="1200" height="760" viewBox="0 0 1200 760" role="img" aria-labelledby="title desc">
  <title id="title">오리온 현금흐름과 투자</title>
  <desc id="desc">오리온의 영업현금흐름과 투자활동현금흐름, 단순 OCF+ICF 비교</desc>
  <rect width="1200" height="760" fill="#0a0e1a"/>
  <text x="72" y="70" fill="#f1f5f9" font-family="-apple-system, Segoe UI, sans-serif" font-size="34" font-weight="800">돈은 벌지만 공장에 다시 넣는다</text>
  <text x="72" y="108" fill="#94a3b8" font-family="-apple-system, Segoe UI, sans-serif" font-size="18">2025 영업현금흐름 5,373억, 투자활동현금흐름 -5,642억</text>
  <g font-family="-apple-system, Segoe UI, sans-serif" transform="translate(120 155)">
    <line x1="0" y1="270" x2="960" y2="270" stroke="#475569"/>
    <g font-size="15" fill="#94a3b8" text-anchor="middle">
      <text x="80" y="520">2020</text><text x="240" y="520">2021</text><text x="400" y="520">2022</text><text x="560" y="520">2023</text><text x="720" y="520">2024</text><text x="880" y="520">2025</text>
    </g>
    <g>
      <rect x="45" y="86" width="42" height="184" fill="#22c55e"/><rect x="93" y="270" width="42" height="65" fill="#ef4444"/>
      <rect x="205" y="108" width="42" height="162" fill="#22c55e"/><rect x="253" y="270" width="42" height="91" fill="#ef4444"/>
      <rect x="365" y="52" width="42" height="218" fill="#22c55e"/><rect x="413" y="270" width="42" height="117" fill="#ef4444"/>
      <rect x="525" y="95" width="42" height="175" fill="#22c55e"/><rect x="573" y="270" width="42" height="216" fill="#ef4444"/>
      <rect x="685" y="9" width="42" height="261" fill="#22c55e"/><rect x="733" y="270" width="42" height="202" fill="#ef4444"/>
      <rect x="845" y="55" width="42" height="215" fill="#22c55e"/><rect x="893" y="270" width="42" height="226" fill="#ef4444"/>
    </g>
    <g font-size="14" text-anchor="middle" font-weight="700">
      <text x="80" y="72" fill="#22c55e">4,610</text><text x="114" y="355" fill="#ef4444">-1,632</text>
      <text x="240" y="94" fill="#22c55e">4,047</text><text x="274" y="381" fill="#ef4444">-2,267</text>
      <text x="400" y="38" fill="#22c55e">5,462</text><text x="434" y="407" fill="#ef4444">-2,921</text>
      <text x="560" y="81" fill="#22c55e">4,370</text><text x="594" y="506" fill="#ef4444">-5,405</text>
      <text x="720" y="-5" fill="#22c55e">6,516</text><text x="754" y="492" fill="#ef4444">-5,049</text>
      <text x="880" y="41" fill="#22c55e">5,373</text><text x="914" y="516" fill="#ef4444">-5,642</text>
    </g>
    <rect x="300" y="575" width="360" height="42" rx="21" fill="#1e293b"/>
    <rect x="330" y="587" width="18" height="18" fill="#22c55e"/><text x="358" y="602" fill="#cbd5e1" font-size="15">영업현금흐름</text>
    <rect x="500" y="587" width="18" height="18" fill="#ef4444"/><text x="528" y="602" fill="#cbd5e1" font-size="15">투자활동현금흐름</text>
  </g>
</svg>
