<svg xmlns="http://www.w3.org/2000/svg" width="1200" height="675" viewBox="0 0 1200 675">
  <rect width="1200" height="675" fill="#0a0e1a"/>
  <text x="64" y="76" fill="#f1f5f9" font-family="-apple-system, Segoe UI, sans-serif" font-size="34" font-weight="800">매출보다 영업이익이 더 빨리 움직였다</text>
  <text x="64" y="114" fill="#64748b" font-family="-apple-system, Segoe UI, sans-serif" font-size="18">2023년 이후 플랫폼 레버리지가 장부에 찍힌 구간</text>
  <g font-family="-apple-system, Segoe UI, sans-serif">
    <text x="164" y="590" fill="#94a3b8" font-size="15">2023</text>
    <text x="514" y="590" fill="#94a3b8" font-size="15">2024</text>
    <text x="864" y="590" fill="#94a3b8" font-size="15">2025</text>
  </g>
  <line x1="120" y1="535" x2="1080" y2="535" stroke="#334155" stroke-width="2"/>
  <g>
    <rect x="145" y="325" width="70" height="210" fill="#38bdf8"/>
    <rect x="235" y="490" width="70" height="45" fill="#22c55e"/>
    <rect x="495" y="270" width="70" height="265" fill="#38bdf8"/>
    <rect x="585" y="420" width="70" height="115" fill="#22c55e"/>
    <rect x="845" y="185" width="70" height="350" fill="#38bdf8"/>
    <rect x="935" y="305" width="70" height="230" fill="#22c55e"/>
  </g>
  <text x="136" y="305" fill="#7dd3fc" font-size="17" font-weight="700" font-family="-apple-system, Segoe UI, sans-serif">매출 37.3B</text>
  <text x="214" y="470" fill="#86efac" font-size="17" font-weight="700" font-family="-apple-system, Segoe UI, sans-serif">영업이익 1.1B</text>
  <text x="486" y="250" fill="#7dd3fc" font-size="17" font-weight="700" font-family="-apple-system, Segoe UI, sans-serif">매출 44.0B</text>
  <text x="564" y="400" fill="#86efac" font-size="17" font-weight="700" font-family="-apple-system, Segoe UI, sans-serif">영업이익 2.8B</text>
  <text x="836" y="165" fill="#7dd3fc" font-size="17" font-weight="700" font-family="-apple-system, Segoe UI, sans-serif">매출 52.0B</text>
  <text x="914" y="285" fill="#86efac" font-size="17" font-weight="700" font-family="-apple-system, Segoe UI, sans-serif">영업이익 5.6B</text>
  <rect x="78" y="138" width="430" height="92" rx="8" fill="#111827" stroke="#334155"/>
  <text x="102" y="174" fill="#fbbf24" font-size="19" font-weight="800" font-family="-apple-system, Segoe UI, sans-serif">2023 → 2025</text>
  <text x="102" y="204" fill="#e2e8f0" font-size="17" font-family="-apple-system, Segoe UI, sans-serif">매출 +39.5%, 영업이익 +401%</text>
  <rect x="64" y="612" width="18" height="18" fill="#38bdf8"/><text x="92" y="627" fill="#cbd5e1" font-size="15" font-family="-apple-system, Segoe UI, sans-serif">매출</text>
  <rect x="164" y="612" width="18" height="18" fill="#22c55e"/><text x="192" y="627" fill="#cbd5e1" font-size="15" font-family="-apple-system, Segoe UI, sans-serif">영업이익</text>
</svg>
