<svg xmlns="http://www.w3.org/2000/svg" viewBox="0 0 1200 600" font-family="-apple-system,BlinkMacSystemFont,'Segoe UI','Noto Sans KR',sans-serif">
  <rect width="1200" height="600" fill="#0a0e1a"/>

  <!-- Title -->
  <text x="60" y="58" fill="#f1f5f9" font-size="26" font-weight="700">분기 매출 36 분기 — 2023Q1 PEAK 2.01 조 → 2024Q4 4,649 억 (-77%)</text>
  <text x="60" y="88" fill="#64748b" font-size="14">2017Q1~2025Q4 분기 매출 (억원) · PEAK 2023Q1 → -77% 단일 회사 단일 분기 사상 최대</text>

  <!-- Frame -->
  <line x1="80" y1="500" x2="1160" y2="500" stroke="#334155" stroke-width="1"/>
  <line x1="80" y1="140" x2="80" y2="500" stroke="#334155" stroke-width="1"/>

  <!-- Y ticks (max 22000) -->
  <g fill="#64748b" font-size="11" text-anchor="end">
    <text x="72" y="504">0</text>
    <text x="72" y="414">5,500</text>
    <text x="72" y="324">11,000</text>
    <text x="72" y="234">16,500</text>
    <text x="72" y="144">22,000</text>
  </g>
  <g stroke="#1e293b" stroke-width="1">
    <line x1="80" y1="410" x2="1160" y2="410"/>
    <line x1="80" y1="320" x2="1160" y2="320"/>
    <line x1="80" y1="230" x2="1160" y2="230"/>
  </g>

  <!-- 36 quarter bars from x=90 to x=1150, width 30 + gap. Width 1060/36 ≈ 29.4. bar w 22, step 29.4 -->
  <!-- y = 500 - val/22000 * 360 -->
  <!-- Approximate quarterly values (억) — climb 2017~2020, ramp 2021, spike 2022~2023Q1, collapse to 2024Q4, slight rebound 2025 -->
  <!-- 17Q1 1500, 17Q2 1700, 17Q3 1850, 17Q4 1750 -->
  <!-- 18Q1 1450, 18Q2 1450, 18Q3 1450, 18Q4 1450 -->
  <!-- 19Q1 1500, 19Q2 1550, 19Q3 1600, 19Q4 1700 -->
  <!-- 20Q1 1900, 20Q2 1950, 20Q3 2200, 20Q4 2500 -->
  <!-- 21Q1 2900, 21Q2 3300, 21Q3 4000, 21Q4 4700 -->
  <!-- 22Q1 6500, 22Q2 11000, 22Q3 15600, 22Q4 20500 -->
  <!-- 23Q1 20100 PEAK, 23Q2 19100, 23Q3 18000, 23Q4 11800 -->
  <!-- 24Q1 9705, 24Q2 8400, 24Q3 5219, 24Q4 4649 -->
  <!-- 25Q1 4500, 25Q2 5100, 25Q3 5800, 25Q4 4970 -->

  <g>
    <!-- 2017 (4 bars) -->
    <rect x="92" y="475.45" width="22" height="24.55" fill="#475569"/>
    <rect x="121.4" y="472.18" width="22" height="27.82" fill="#475569"/>
    <rect x="150.8" y="469.73" width="22" height="30.27" fill="#475569"/>
    <rect x="180.2" y="471.36" width="22" height="28.64" fill="#475569"/>
    <!-- 2018 -->
    <rect x="209.6" y="476.27" width="22" height="23.73" fill="#475569"/>
    <rect x="239.0" y="476.27" width="22" height="23.73" fill="#475569"/>
    <rect x="268.4" y="476.27" width="22" height="23.73" fill="#475569"/>
    <rect x="297.8" y="476.27" width="22" height="23.73" fill="#475569"/>
    <!-- 2019 -->
    <rect x="327.2" y="475.45" width="22" height="24.55" fill="#475569"/>
    <rect x="356.6" y="474.64" width="22" height="25.36" fill="#475569"/>
    <rect x="386.0" y="473.82" width="22" height="26.18" fill="#475569"/>
    <rect x="415.4" y="472.18" width="22" height="27.82" fill="#475569"/>
    <!-- 2020 -->
    <rect x="444.8" y="468.91" width="22" height="31.09" fill="#475569"/>
    <rect x="474.2" y="468.09" width="22" height="31.91" fill="#475569"/>
    <rect x="503.6" y="464.0" width="22" height="36.0" fill="#475569"/>
    <rect x="533.0" y="459.09" width="22" height="40.91" fill="#475569"/>
    <!-- 2021 -->
    <rect x="562.4" y="452.55" width="22" height="47.45" fill="#475569"/>
    <rect x="591.8" y="446.0" width="22" height="54.0" fill="#475569"/>
    <rect x="621.2" y="434.55" width="22" height="65.45" fill="#475569"/>
    <rect x="650.6" y="423.09" width="22" height="76.91" fill="#475569"/>
    <!-- 2022 ramp -->
    <rect x="680.0" y="393.64" width="22" height="106.36" fill="#64748b"/>
    <rect x="709.4" y="320.0" width="22" height="180.0" fill="#64748b"/>
    <rect x="738.8" y="244.73" width="22" height="255.27" fill="#64748b"/>
    <rect x="768.2" y="164.55" width="22" height="335.45" fill="#64748b"/>
    <!-- 2023 PEAK Q1 -->
    <rect x="797.6" y="171.09" width="22" height="328.91" fill="#22c55e"/>
    <rect x="827.0" y="187.45" width="22" height="312.55" fill="#64748b"/>
    <rect x="856.4" y="205.45" width="22" height="294.55" fill="#64748b"/>
    <rect x="885.8" y="306.91" width="22" height="193.09" fill="#f59e0b"/>
    <!-- 2024 collapse -->
    <rect x="915.2" y="341.0" width="22" height="159.0" fill="#f59e0b"/>
    <rect x="944.6" y="362.55" width="22" height="137.45" fill="#f59e0b"/>
    <rect x="974.0" y="414.58" width="22" height="85.42" fill="#ef4444"/>
    <rect x="1003.4" y="423.92" width="22" height="76.08" fill="#ef4444"/>
    <!-- 2025 rebound -->
    <rect x="1032.8" y="426.36" width="22" height="73.64" fill="#475569"/>
    <rect x="1062.2" y="416.55" width="22" height="83.45" fill="#475569"/>
    <rect x="1091.6" y="405.09" width="22" height="94.91" fill="#475569"/>
    <rect x="1121.0" y="418.67" width="22" height="81.33" fill="#475569"/>
  </g>

  <!-- Year x-axis labels -->
  <g fill="#94a3b8" font-size="12" text-anchor="middle">
    <text x="161" y="520">2017</text>
    <text x="278" y="520">2018</text>
    <text x="396" y="520">2019</text>
    <text x="514" y="520">2020</text>
    <text x="631" y="520">2021</text>
    <text x="749" y="520">2022</text>
    <text x="867" y="520">2023</text>
    <text x="985" y="520">2024</text>
    <text x="1102" y="520">2025</text>
  </g>

  <!-- PEAK callout (2023Q1) -->
  <line x1="808" y1="171" x2="650" y2="125" stroke="#22c55e" stroke-width="1.5"/>
  <rect x="430" y="100" width="220" height="40" fill="#0a0e1a" stroke="#22c55e" stroke-width="1.5" rx="4"/>
  <text x="540" y="118" fill="#22c55e" font-size="13" font-weight="700" text-anchor="middle">2023Q1 PEAK</text>
  <text x="540" y="134" fill="#f1f5f9" font-size="12" text-anchor="middle">2.01 조 (양극재 단일 분기 사상 최대)</text>

  <!-- 2024Q4 callout -->
  <line x1="1014" y1="425" x2="1050" y2="470" stroke="#ef4444" stroke-width="1.5"/>
  <rect x="940" y="455" width="210" height="40" fill="#0a0e1a" stroke="#ef4444" stroke-width="1.5" rx="4"/>
  <text x="1045" y="473" fill="#ef4444" font-size="13" font-weight="700" text-anchor="middle">2024Q4 4,649 억 (-77%)</text>
  <text x="1045" y="489" fill="#f1f5f9" font-size="12" text-anchor="middle">PEAK 대비 1/4 수준</text>

  <!-- Legend -->
  <rect x="60" y="558" width="14" height="14" fill="#22c55e"/>
  <text x="80" y="570" fill="#94a3b8" font-size="12">PEAK 분기</text>
  <rect x="170" y="558" width="14" height="14" fill="#f59e0b"/>
  <text x="190" y="570" fill="#94a3b8" font-size="12">하락 진행</text>
  <rect x="280" y="558" width="14" height="14" fill="#ef4444"/>
  <text x="300" y="570" fill="#94a3b8" font-size="12">저점</text>
  <rect x="360" y="558" width="14" height="14" fill="#475569"/>
  <text x="380" y="570" fill="#94a3b8" font-size="12">기타 분기</text>
</svg>
