<svg xmlns="http://www.w3.org/2000/svg" viewBox="0 0 900 506" font-family="Pretendard, -apple-system, Segoe UI, sans-serif">
<rect width="900" height="506" fill="#0a0e1a"/>
<text x="40" y="46" fill="#e2e8f0" font-size="25" font-weight="700">영업이익률: 최근 10년 3.0~5.6% 대역을 벗어나지 않았다</text>
<text x="40" y="74" fill="#64748b" font-size="15">매출 규모와 무관하게 3~5%대에 갇힘</text>
<line x1="70" y1="410.0" x2="830" y2="410.0" stroke="#1e293b" stroke-width="1"/>
<text x="60" y="414.0" fill="#94a3b8" font-size="12" text-anchor="end">-0.28%</text>
<line x1="70" y1="350.0" x2="830" y2="350.0" stroke="#1e293b" stroke-width="1"/>
<text x="60" y="354.0" fill="#94a3b8" font-size="12" text-anchor="end">1.06%</text>
<line x1="70" y1="290.0" x2="830" y2="290.0" stroke="#1e293b" stroke-width="1"/>
<text x="60" y="294.0" fill="#94a3b8" font-size="12" text-anchor="end">2.41%</text>
<line x1="70" y1="230.0" x2="830" y2="230.0" stroke="#1e293b" stroke-width="1"/>
<text x="60" y="234.0" fill="#94a3b8" font-size="12" text-anchor="end">3.75%</text>
<line x1="70" y1="170.0" x2="830" y2="170.0" stroke="#1e293b" stroke-width="1"/>
<text x="60" y="174.0" fill="#94a3b8" font-size="12" text-anchor="end">5.10%</text>
<line x1="70" y1="110.0" x2="830" y2="110.0" stroke="#1e293b" stroke-width="1"/>
<text x="60" y="114.0" fill="#94a3b8" font-size="12" text-anchor="end">6.44%</text>
<line x1="70" y1="397.5" x2="830" y2="397.5" stroke="#334155" stroke-width="1.5"/>
<rect x="70" y="147.5" width="760" height="116.1" fill="#f59e0b" opacity="0.10"/>
<path d="M70.0,223.4 L154.4,250.2 L238.9,214.5 L323.3,201.1 L407.8,147.5 L492.2,201.1 L576.7,245.7 L661.1,263.6 L745.6,210.0 L830.0,227.9" fill="none" stroke="#f59e0b" stroke-width="3"/>
<circle cx="70.0" cy="223.4" r="5" fill="#f59e0b"/>
<text x="70.0" y="211.4" fill="#f59e0b" font-size="13" font-weight="700" text-anchor="middle">3.90%</text>
<text x="70.0" y="432" fill="#94a3b8" font-size="13" text-anchor="middle">2016</text>
<circle cx="154.4" cy="250.2" r="5" fill="#f59e0b"/>
<text x="154.4" y="238.2" fill="#f59e0b" font-size="13" font-weight="700" text-anchor="middle">3.30%</text>
<text x="154.4" y="432" fill="#94a3b8" font-size="13" text-anchor="middle">2017</text>
<circle cx="238.9" cy="214.5" r="5" fill="#f59e0b"/>
<text x="238.9" y="202.5" fill="#f59e0b" font-size="13" font-weight="700" text-anchor="middle">4.10%</text>
<text x="238.9" y="432" fill="#94a3b8" font-size="13" text-anchor="middle">2018</text>
<circle cx="323.3" cy="201.1" r="5" fill="#f59e0b"/>
<text x="323.3" y="189.1" fill="#f59e0b" font-size="13" font-weight="700" text-anchor="middle">4.40%</text>
<text x="323.3" y="432" fill="#94a3b8" font-size="13" text-anchor="middle">2019</text>
<circle cx="407.8" cy="147.5" r="5" fill="#f59e0b"/>
<text x="407.8" y="135.5" fill="#f59e0b" font-size="13" font-weight="700" text-anchor="middle">5.60%</text>
<text x="407.8" y="432" fill="#94a3b8" font-size="13" text-anchor="middle">2020</text>
<circle cx="492.2" cy="201.1" r="5" fill="#f59e0b"/>
<text x="492.2" y="189.1" fill="#f59e0b" font-size="13" font-weight="700" text-anchor="middle">4.40%</text>
<text x="492.2" y="432" fill="#94a3b8" font-size="13" text-anchor="middle">2021</text>
<circle cx="576.7" cy="245.7" r="5" fill="#f59e0b"/>
<text x="576.7" y="233.7" fill="#f59e0b" font-size="13" font-weight="700" text-anchor="middle">3.40%</text>
<text x="576.7" y="432" fill="#94a3b8" font-size="13" text-anchor="middle">2022</text>
<circle cx="661.1" cy="263.6" r="5" fill="#f59e0b"/>
<text x="661.1" y="251.6" fill="#f59e0b" font-size="13" font-weight="700" text-anchor="middle">3.00%</text>
<text x="661.1" y="432" fill="#94a3b8" font-size="13" text-anchor="middle">2023</text>
<circle cx="745.6" cy="210.0" r="5" fill="#f59e0b"/>
<text x="745.6" y="198.0" fill="#f59e0b" font-size="13" font-weight="700" text-anchor="middle">4.20%</text>
<text x="745.6" y="432" fill="#94a3b8" font-size="13" text-anchor="middle">2024</text>
<circle cx="830.0" cy="227.9" r="5" fill="#f59e0b"/>
<text x="830.0" y="215.9" fill="#f59e0b" font-size="13" font-weight="700" text-anchor="middle">3.80%</text>
<text x="830.0" y="432" fill="#94a3b8" font-size="13" text-anchor="middle">2025</text>
<text x="860" y="100" fill="#64748b" font-size="13" text-anchor="end">단위: %</text>
</svg>