<svg xmlns="http://www.w3.org/2000/svg" viewBox="0 0 900 506" font-family="Pretendard, -apple-system, Segoe UI, sans-serif">
<rect width="900" height="506" fill="#0a0e1a"/>
<text x="40" y="46" fill="#e2e8f0" font-size="25" font-weight="700">종가 김치 수출액: 8년 3배 (외부 인용)</text>
<text x="40" y="74" fill="#64748b" font-size="15">국내 김치 수출 57.9% 점유·미국 최대 수출국 — 브랜드 가격결정력 단서</text>
<line x1="70" y1="410.0" x2="830" y2="410.0" stroke="#1e293b" stroke-width="1"/>
<text x="60" y="414.0" fill="#94a3b8" font-size="12" text-anchor="end">-4.70</text>
<line x1="70" y1="350.0" x2="830" y2="350.0" stroke="#1e293b" stroke-width="1"/>
<text x="60" y="354.0" fill="#94a3b8" font-size="12" text-anchor="end">17.9</text>
<line x1="70" y1="290.0" x2="830" y2="290.0" stroke="#1e293b" stroke-width="1"/>
<text x="60" y="294.0" fill="#94a3b8" font-size="12" text-anchor="end">40.4</text>
<line x1="70" y1="230.0" x2="830" y2="230.0" stroke="#1e293b" stroke-width="1"/>
<text x="60" y="234.0" fill="#94a3b8" font-size="12" text-anchor="end">63.0</text>
<line x1="70" y1="170.0" x2="830" y2="170.0" stroke="#1e293b" stroke-width="1"/>
<text x="60" y="174.0" fill="#94a3b8" font-size="12" text-anchor="end">85.5</text>
<line x1="70" y1="110.0" x2="830" y2="110.0" stroke="#1e293b" stroke-width="1"/>
<text x="60" y="114.0" fill="#94a3b8" font-size="12" text-anchor="end">108</text>
<line x1="70" y1="397.5" x2="830" y2="397.5" stroke="#334155" stroke-width="1.5"/>
<path d="M70.0,320.4 L830.0,147.5" fill="none" stroke="#22c55e" stroke-width="3"/>
<circle cx="70.0" cy="320.4" r="5" fill="#22c55e"/>
<text x="70.0" y="308.4" fill="#22c55e" font-size="13" font-weight="700" text-anchor="middle">29.0</text>
<text x="70.0" y="432" fill="#94a3b8" font-size="13" text-anchor="middle">2016</text>
<circle cx="830.0" cy="147.5" r="5" fill="#22c55e"/>
<text x="830.0" y="135.5" fill="#22c55e" font-size="13" font-weight="700" text-anchor="middle">94.0</text>
<text x="830.0" y="432" fill="#94a3b8" font-size="13" text-anchor="middle">2024</text>
<text x="860" y="100" fill="#64748b" font-size="13" text-anchor="end">단위: 백만$</text>
</svg>