<svg xmlns="http://www.w3.org/2000/svg" viewBox="0 0 900 506" font-family="Pretendard, -apple-system, Segoe UI, sans-serif">
<rect width="900" height="506" fill="#0a0e1a"/>
<text x="40" y="46" fill="#e2e8f0" font-size="25" font-weight="700">매출 +54%인데 영업이익은 같은 속도로만 (2016~2025)</text>
<text x="40" y="74" fill="#64748b" font-size="15">대상 연결 (분기 합산)</text>
<line x1="70" y1="410.0" x2="830" y2="410.0" stroke="#1e293b" stroke-width="1"/>
<text x="60" y="414.0" fill="#94a3b8" font-size="12" text-anchor="end">0.00</text>
<line x1="70" y1="350.0" x2="830" y2="350.0" stroke="#1e293b" stroke-width="1"/>
<text x="60" y="354.0" fill="#94a3b8" font-size="12" text-anchor="end">9,859</text>
<line x1="70" y1="290.0" x2="830" y2="290.0" stroke="#1e293b" stroke-width="1"/>
<text x="60" y="294.0" fill="#94a3b8" font-size="12" text-anchor="end">19,718</text>
<line x1="70" y1="230.0" x2="830" y2="230.0" stroke="#1e293b" stroke-width="1"/>
<text x="60" y="234.0" fill="#94a3b8" font-size="12" text-anchor="end">29,577</text>
<line x1="70" y1="170.0" x2="830" y2="170.0" stroke="#1e293b" stroke-width="1"/>
<text x="60" y="174.0" fill="#94a3b8" font-size="12" text-anchor="end">39,436</text>
<line x1="70" y1="110.0" x2="830" y2="110.0" stroke="#1e293b" stroke-width="1"/>
<text x="60" y="114.0" fill="#94a3b8" font-size="12" text-anchor="end">49,295</text>
<line x1="70" y1="410.0" x2="830" y2="410.0" stroke="#334155" stroke-width="1.5"/>
<rect x="85.0" y="403.2" width="42.0" height="6.8" rx="2" fill="#3b82f6" opacity="0.92"/>
<text x="106.0" y="397.2" fill="#94a3b8" font-size="11" text-anchor="middle">1,111</text>
<text x="108.0" y="432" fill="#94a3b8" font-size="13" text-anchor="middle">2016</text>
<rect x="161.0" y="404.1" width="42.0" height="5.9" rx="2" fill="#3b82f6" opacity="0.92"/>
<text x="182.0" y="398.1" fill="#94a3b8" font-size="11" text-anchor="middle">967</text>
<text x="184.0" y="432" fill="#94a3b8" font-size="13" text-anchor="middle">2017</text>
<rect x="237.0" y="402.7" width="42.0" height="7.3" rx="2" fill="#3b82f6" opacity="0.92"/>
<text x="258.0" y="396.7" fill="#94a3b8" font-size="11" text-anchor="middle">1,202</text>
<text x="260.0" y="432" fill="#94a3b8" font-size="13" text-anchor="middle">2018</text>
<rect x="313.0" y="402.1" width="42.0" height="7.9" rx="2" fill="#3b82f6" opacity="0.92"/>
<text x="334.0" y="396.1" fill="#94a3b8" font-size="11" text-anchor="middle">1,298</text>
<text x="336.0" y="432" fill="#94a3b8" font-size="13" text-anchor="middle">2019</text>
<rect x="389.0" y="399.4" width="42.0" height="10.6" rx="2" fill="#3b82f6" opacity="0.92"/>
<text x="410.0" y="393.4" fill="#94a3b8" font-size="11" text-anchor="middle">1,744</text>
<text x="412.0" y="432" fill="#94a3b8" font-size="13" text-anchor="middle">2020</text>
<rect x="465.0" y="400.7" width="42.0" height="9.3" rx="2" fill="#3b82f6" opacity="0.92"/>
<text x="486.0" y="394.7" fill="#94a3b8" font-size="11" text-anchor="middle">1,533</text>
<text x="488.0" y="432" fill="#94a3b8" font-size="13" text-anchor="middle">2021</text>
<rect x="541.0" y="401.5" width="42.0" height="8.5" rx="2" fill="#3b82f6" opacity="0.92"/>
<text x="562.0" y="395.5" fill="#94a3b8" font-size="11" text-anchor="middle">1,400</text>
<text x="564.0" y="432" fill="#94a3b8" font-size="13" text-anchor="middle">2022</text>
<rect x="617.0" y="402.5" width="42.0" height="7.5" rx="2" fill="#3b82f6" opacity="0.92"/>
<text x="638.0" y="396.5" fill="#94a3b8" font-size="11" text-anchor="middle">1,237</text>
<text x="640.0" y="432" fill="#94a3b8" font-size="13" text-anchor="middle">2023</text>
<rect x="693.0" y="399.2" width="42.0" height="10.8" rx="2" fill="#3b82f6" opacity="0.92"/>
<text x="714.0" y="393.2" fill="#94a3b8" font-size="11" text-anchor="middle">1,769</text>
<text x="716.0" y="432" fill="#94a3b8" font-size="13" text-anchor="middle">2024</text>
<rect x="769.0" y="399.7" width="42.0" height="10.3" rx="2" fill="#3b82f6" opacity="0.92"/>
<text x="790.0" y="393.7" fill="#94a3b8" font-size="11" text-anchor="middle">1,693</text>
<text x="792.0" y="432" fill="#94a3b8" font-size="13" text-anchor="middle">2025</text>
<path d="M108.0,236.2 L184.0,229.3 L260.0,230.1 L336.0,229.6 L412.0,220.5 L488.0,198.8 L564.0,161.4 L640.0,160.0 L716.0,151.0 L792.0,142.1" fill="none" stroke="#22c55e" stroke-width="3"/>
<circle cx="108.0" cy="236.2" r="4.5" fill="#22c55e"/>
<text x="108.0" y="225.2" fill="#22c55e" font-size="12" font-weight="700" text-anchor="middle">28,550</text>
<circle cx="184.0" cy="229.3" r="4.5" fill="#22c55e"/>
<text x="184.0" y="218.3" fill="#22c55e" font-size="12" font-weight="700" text-anchor="middle">29,688</text>
<circle cx="260.0" cy="230.1" r="4.5" fill="#22c55e"/>
<text x="260.0" y="219.1" fill="#22c55e" font-size="12" font-weight="700" text-anchor="middle">29,568</text>
<circle cx="336.0" cy="229.6" r="4.5" fill="#22c55e"/>
<text x="336.0" y="218.6" fill="#22c55e" font-size="12" font-weight="700" text-anchor="middle">29,640</text>
<circle cx="412.0" cy="220.5" r="4.5" fill="#22c55e"/>
<text x="412.0" y="209.5" fill="#22c55e" font-size="12" font-weight="700" text-anchor="middle">31,132</text>
<circle cx="488.0" cy="198.8" r="4.5" fill="#22c55e"/>
<text x="488.0" y="187.8" fill="#22c55e" font-size="12" font-weight="700" text-anchor="middle">34,700</text>
<circle cx="564.0" cy="161.4" r="4.5" fill="#22c55e"/>
<text x="564.0" y="150.4" fill="#22c55e" font-size="12" font-weight="700" text-anchor="middle">40,841</text>
<circle cx="640.0" cy="160.0" r="4.5" fill="#22c55e"/>
<text x="640.0" y="149.0" fill="#22c55e" font-size="12" font-weight="700" text-anchor="middle">41,075</text>
<circle cx="716.0" cy="151.0" r="4.5" fill="#22c55e"/>
<text x="716.0" y="140.0" fill="#22c55e" font-size="12" font-weight="700" text-anchor="middle">42,551</text>
<circle cx="792.0" cy="142.1" r="4.5" fill="#22c55e"/>
<text x="792.0" y="131.1" fill="#22c55e" font-size="12" font-weight="700" text-anchor="middle">44,013</text>
<rect x="70" y="473" width="13" height="13" rx="2" fill="#3b82f6"/>
<text x="89" y="484" fill="#94a3b8" font-size="13">영업이익</text>
<line x1="150" y1="479" x2="166" y2="479" stroke="#22c55e" stroke-width="3"/>
<text x="172" y="484" fill="#94a3b8" font-size="13">매출</text>
<text x="860" y="100" fill="#64748b" font-size="13" text-anchor="end">단위: 억원</text>
</svg>