<svg xmlns="http://www.w3.org/2000/svg" viewBox="0 0 900 506" font-family="Pretendard, -apple-system, Segoe UI, sans-serif">
<rect width="900" height="506" fill="#0a0e1a"/>
<text x="40" y="46" fill="#e2e8f0" font-size="25" font-weight="700">2025년 순손실은 전액 4분기 — 영업은 흑자였다</text>
<text x="40" y="74" fill="#64748b" font-size="15">4Q 영업이익 +203억 흑자 vs 순이익 -3,721억 (손실은 영업 밖)</text>
<line x1="70" y1="410.0" x2="830" y2="410.0" stroke="#1e293b" stroke-width="1"/>
<text x="60" y="414.0" fill="#94a3b8" font-size="12" text-anchor="end">-4,322</text>
<line x1="70" y1="350.0" x2="830" y2="350.0" stroke="#1e293b" stroke-width="1"/>
<text x="60" y="354.0" fill="#94a3b8" font-size="12" text-anchor="end">-3,223</text>
<line x1="70" y1="290.0" x2="830" y2="290.0" stroke="#1e293b" stroke-width="1"/>
<text x="60" y="294.0" fill="#94a3b8" font-size="12" text-anchor="end">-2,124</text>
<line x1="70" y1="230.0" x2="830" y2="230.0" stroke="#1e293b" stroke-width="1"/>
<text x="60" y="234.0" fill="#94a3b8" font-size="12" text-anchor="end">-1,024</text>
<line x1="70" y1="170.0" x2="830" y2="170.0" stroke="#1e293b" stroke-width="1"/>
<text x="60" y="174.0" fill="#94a3b8" font-size="12" text-anchor="end">74.9</text>
<line x1="70" y1="110.0" x2="830" y2="110.0" stroke="#1e293b" stroke-width="1"/>
<text x="60" y="114.0" fill="#94a3b8" font-size="12" text-anchor="end">1,174</text>
<line x1="70" y1="174.1" x2="830" y2="174.1" stroke="#334155" stroke-width="1.5"/>
<rect x="125.0" y="142.8" width="36.0" height="31.3" rx="2" fill="#3b82f6" opacity="0.92"/>
<text x="143.0" y="136.8" fill="#94a3b8" font-size="10.5" text-anchor="middle">573</text>
<rect x="165.0" y="158.6" width="36.0" height="15.5" rx="2" fill="#f59e0b" opacity="0.92"/>
<text x="183.0" y="152.6" fill="#94a3b8" font-size="10.5" text-anchor="middle">284</text>
<text x="165.0" y="432" fill="#94a3b8" font-size="13" text-anchor="middle">Q1</text>
<rect x="315.0" y="151.8" width="36.0" height="22.3" rx="2" fill="#3b82f6" opacity="0.92"/>
<text x="333.0" y="145.8" fill="#94a3b8" font-size="10.5" text-anchor="middle">408</text>
<rect x="355.0" y="164.2" width="36.0" height="9.9" rx="2" fill="#f59e0b" opacity="0.92"/>
<text x="373.0" y="158.2" fill="#94a3b8" font-size="10.5" text-anchor="middle">182</text>
<text x="355.0" y="432" fill="#94a3b8" font-size="13" text-anchor="middle">Q2</text>
<rect x="505.0" y="146.3" width="36.0" height="27.8" rx="2" fill="#3b82f6" opacity="0.92"/>
<text x="523.0" y="140.3" fill="#94a3b8" font-size="10.5" text-anchor="middle">509</text>
<rect x="545.0" y="161.9" width="36.0" height="12.2" rx="2" fill="#f59e0b" opacity="0.92"/>
<text x="563.0" y="155.9" fill="#94a3b8" font-size="10.5" text-anchor="middle">224</text>
<text x="545.0" y="432" fill="#94a3b8" font-size="13" text-anchor="middle">Q3</text>
<rect x="695.0" y="163.0" width="36.0" height="11.1" rx="2" fill="#3b82f6" opacity="0.92"/>
<text x="713.0" y="157.0" fill="#94a3b8" font-size="10.5" text-anchor="middle">203</text>
<rect x="735.0" y="174.1" width="36.0" height="203.1" rx="2" fill="#f59e0b" opacity="0.92"/>
<text x="753.0" y="391.2" fill="#94a3b8" font-size="10.5" text-anchor="middle">-3,721</text>
<text x="735.0" y="432" fill="#94a3b8" font-size="13" text-anchor="middle">Q4</text>
<rect x="70" y="473" width="13" height="13" rx="2" fill="#3b82f6"/>
<text x="89" y="484" fill="#94a3b8" font-size="13">영업이익</text>
<rect x="150" y="473" width="13" height="13" rx="2" fill="#f59e0b"/>
<text x="169" y="484" fill="#94a3b8" font-size="13">순이익</text>
<text x="860" y="100" fill="#64748b" font-size="13" text-anchor="end">단위: 억원</text>
</svg>