<svg xmlns="http://www.w3.org/2000/svg" viewBox="0 0 1200 720" font-family="-apple-system, 'Segoe UI', sans-serif">
  <defs>
    <linearGradient id="bg9t" x1="0%" y1="0%" x2="100%" y2="100%">
      <stop offset="0%" style="stop-color:#0a0e1a"/><stop offset="100%" style="stop-color:#111827"/>
    </linearGradient>
    <filter id="gl9t"><feGaussianBlur stdDeviation="2.5" result="b"/><feMerge><feMergeNode in="b"/><feMergeNode in="SourceGraphic"/></feMerge></filter>
  </defs>
  <rect width="1200" height="720" fill="url(#bg9t)"/>

  <text x="600" y="42" font-size="22" font-weight="800" fill="#f1f5f9" text-anchor="middle">공개매수 32일 — 66만원에서 89만원까지</text>
  <text x="600" y="67" font-size="13" fill="#64748b" text-anchor="middle">2024.09.12 ~ 10.23 | MBK-영풍 vs 최윤범-베인캐피탈</text>

  <!-- Timeline line -->
  <line x1="100" y1="160" x2="1100" y2="160" stroke="#334155" stroke-width="3"/>

  <!-- Node 1: 09.12 -->
  <circle cx="140" cy="160" r="10" fill="#ef4444" filter="url(#gl9t)"/>
  <text x="140" y="145" font-size="12" font-weight="700" fill="#ef4444" text-anchor="middle">09.12</text>
  <rect x="80" y="180" width="120" height="65" rx="8" fill="#1e293b" stroke="#ef4444" stroke-width="1"/>
  <text x="140" y="200" font-size="13" font-weight="700" fill="#ef4444" text-anchor="middle">66만원</text>
  <text x="140" y="218" font-size="10" fill="#94a3b8" text-anchor="middle">MBK+영풍</text>
  <text x="140" y="234" font-size="10" fill="#64748b" text-anchor="middle">기습 공시</text>

  <!-- Node 2: 09.26 -->
  <circle cx="320" cy="160" r="10" fill="#fbbf24"/>
  <text x="320" y="145" font-size="12" font-weight="700" fill="#fbbf24" text-anchor="middle">09.26</text>
  <rect x="260" y="180" width="120" height="65" rx="8" fill="#1e293b" stroke="#fbbf24" stroke-width="1"/>
  <text x="320" y="200" font-size="13" font-weight="700" fill="#fbbf24" text-anchor="middle">75만원</text>
  <text x="320" y="218" font-size="10" fill="#94a3b8" text-anchor="middle">MBK 인상</text>
  <text x="320" y="234" font-size="10" fill="#64748b" text-anchor="middle">응모 부진</text>

  <!-- Node 3: 10.02 -->
  <circle cx="500" cy="160" r="12" fill="#22c55e" filter="url(#gl9t)"/>
  <text x="500" y="143" font-size="12" font-weight="700" fill="#22c55e" text-anchor="middle">10.02</text>
  <rect x="430" y="180" width="140" height="80" rx="8" fill="#1e293b" stroke="#22c55e" stroke-width="1.5"/>
  <text x="500" y="200" font-size="14" font-weight="800" fill="#22c55e" text-anchor="middle">83만원</text>
  <text x="500" y="220" font-size="11" fill="#f1f5f9" text-anchor="middle">최윤범 반격</text>
  <text x="500" y="238" font-size="10" fill="#94a3b8" text-anchor="middle">자사주 공개매수</text>
  <text x="500" y="252" font-size="10" fill="#94a3b8" text-anchor="middle">2.7조 + 베인캐피탈</text>

  <!-- Node 4: 10.04 -->
  <circle cx="680" cy="160" r="10" fill="#ef4444"/>
  <text x="680" y="145" font-size="12" font-weight="700" fill="#ef4444" text-anchor="middle">10.04</text>
  <rect x="620" y="180" width="120" height="65" rx="8" fill="#1e293b" stroke="#ef4444" stroke-width="1"/>
  <text x="680" y="200" font-size="13" font-weight="700" fill="#ef4444" text-anchor="middle">83만원</text>
  <text x="680" y="218" font-size="10" fill="#94a3b8" text-anchor="middle">MBK 맞불</text>
  <text x="680" y="234" font-size="10" fill="#64748b" text-anchor="middle">양측 동률</text>

  <!-- Node 5: 10.11 -->
  <circle cx="860" cy="160" r="14" fill="#22c55e" filter="url(#gl9t)"/>
  <text x="860" y="141" font-size="13" font-weight="800" fill="#22c55e" text-anchor="middle">10.11</text>
  <rect x="790" y="180" width="140" height="65" rx="8" fill="#0f2e1a" stroke="#22c55e" stroke-width="1.5"/>
  <text x="860" y="200" font-size="16" font-weight="800" fill="#22c55e" text-anchor="middle">89만원</text>
  <text x="860" y="220" font-size="11" fill="#f1f5f9" text-anchor="middle">최윤범 승부수</text>
  <text x="860" y="236" font-size="10" fill="#94a3b8" text-anchor="middle">총 3.2조</text>

  <!-- Node 6: 10.14~23 -->
  <circle cx="1040" cy="160" r="10" fill="#3b82f6"/>
  <text x="1040" y="145" font-size="12" font-weight="700" fill="#3b82f6" text-anchor="middle">10.14~23</text>
  <rect x="970" y="180" width="140" height="65" rx="8" fill="#1e293b" stroke="#3b82f6" stroke-width="1"/>
  <text x="1040" y="200" font-size="12" font-weight="700" fill="#3b82f6" text-anchor="middle">결과</text>
  <text x="1040" y="218" font-size="10" fill="#ef4444" text-anchor="middle">MBK: 5.34% (실패)</text>
  <text x="1040" y="234" font-size="10" fill="#22c55e" text-anchor="middle">최윤범: 11.26%</text>

  <!-- Bottom: 재무 충격 -->
  <rect x="60" y="300" width="1080" height="180" rx="14" fill="#1e293b" stroke="#334155" stroke-width="1"/>
  <text x="600" y="335" font-size="16" font-weight="700" fill="#fbbf24" text-anchor="middle">32일이 재무제표에 남긴 흔적</text>

  <rect x="100" y="360" width="220" height="95" rx="10" fill="#0f172a" stroke="#ef4444" stroke-width="1"/>
  <text x="210" y="385" font-size="12" fill="#94a3b8" text-anchor="middle">부채비율</text>
  <text x="210" y="415" font-size="24" font-weight="800" fill="#ef4444" text-anchor="middle">25% → 95%</text>
  <text x="210" y="440" font-size="11" fill="#64748b" text-anchor="middle">1년 만에 3.8배</text>

  <rect x="360" y="360" width="220" height="95" rx="10" fill="#0f172a" stroke="#fbbf24" stroke-width="1"/>
  <text x="470" y="385" font-size="12" fill="#94a3b8" text-anchor="middle">단기차입금</text>
  <text x="470" y="415" font-size="22" font-weight="800" fill="#fbbf24" text-anchor="middle">6,192 → 33,199억</text>
  <text x="470" y="440" font-size="11" fill="#64748b" text-anchor="middle">5.4배</text>

  <rect x="620" y="360" width="220" height="95" rx="10" fill="#0f172a" stroke="#ef4444" stroke-width="1"/>
  <text x="730" y="385" font-size="12" fill="#94a3b8" text-anchor="middle">2024 4Q 순손실</text>
  <text x="730" y="415" font-size="24" font-weight="800" fill="#ef4444" text-anchor="middle">-2,457억</text>
  <text x="730" y="440" font-size="11" fill="#64748b" text-anchor="middle">50년 만에 첫 적자</text>

  <rect x="880" y="360" width="220" height="95" rx="10" fill="#0f172a" stroke="#22c55e" stroke-width="1"/>
  <text x="990" y="385" font-size="12" fill="#94a3b8" text-anchor="middle">2025 영업이익</text>
  <text x="990" y="415" font-size="24" font-weight="800" fill="#22c55e" text-anchor="middle">1.2조 (최대)</text>
  <text x="990" y="440" font-size="11" fill="#64748b" text-anchor="middle">사업은 멀쩡하다</text>

  <!-- Bottom label -->
  <text x="600" y="520" font-size="14" font-weight="600" fill="#94a3b8" text-anchor="middle">경영권은 지켰다. 재무제표는 깨졌다. 사업은 사상 최대다.</text>

  <!-- Score badges -->
  <text x="100" y="575" font-size="12" font-weight="700" fill="#94a3b8">dartlab 스코어카드</text>
  <rect x="100" y="590" width="65" height="28" rx="6" fill="#22c55e" opacity="0.15"/><text x="132" y="609" font-size="11" font-weight="700" fill="#22c55e" text-anchor="middle">성장 A</text>
  <rect x="175" y="590" width="65" height="28" rx="6" fill="#3b82f6" opacity="0.15"/><text x="207" y="609" font-size="11" font-weight="700" fill="#3b82f6" text-anchor="middle">수익 B</text>
  <rect x="250" y="590" width="65" height="28" rx="6" fill="#3b82f6" opacity="0.15"/><text x="282" y="609" font-size="11" font-weight="700" fill="#3b82f6" text-anchor="middle">안정 B</text>
  <rect x="325" y="590" width="65" height="28" rx="6" fill="#fbbf24" opacity="0.15"/><text x="357" y="609" font-size="11" font-weight="700" fill="#fbbf24" text-anchor="middle">CF C</text>
  <rect x="400" y="590" width="65" height="28" rx="6" fill="#ef4444" opacity="0.15"/><text x="432" y="609" font-size="11" font-weight="700" fill="#ef4444" text-anchor="middle">효율 D</text>
  <rect x="475" y="590" width="65" height="28" rx="6" fill="#fbbf24" opacity="0.15"/><text x="507" y="609" font-size="11" font-weight="700" fill="#fbbf24" text-anchor="middle">품질 C</text>
  <rect x="550" y="590" width="65" height="28" rx="6" fill="#ef4444" opacity="0.15"/><text x="582" y="609" font-size="11" font-weight="700" fill="#ef4444" text-anchor="middle">정합 D</text>

  <text x="750" y="605" font-size="12" fill="#64748b">Piotroski F-Score: 4/9 | 이자보상: 2.0배 | IS-CF 괴리: 182%</text>

  <text x="600" y="690" font-size="11" fill="#475569" text-anchor="middle">관통선: "경영권을 지키는 데 2조3천억이 들었다. 재무제표에 그 흔적이 어떻게 남았는가?"</text>
</svg>