<svg xmlns="http://www.w3.org/2000/svg" viewBox="0 0 1080 740" font-family="-apple-system, 'Segoe UI', sans-serif">
  <title>더존비즈온 — 2026년에 봐야 할 다섯 가지</title>
  <desc>EQT 체제 과금 전략, 클라우드 구독 전환율, 핀테크 실체, 영업외 누수, 상장폐지 조건 — 다음 1년 관전 포인트.</desc>
  <rect width="1080" height="740" fill="#0a0e1a"/>
  <text x="540" y="54" fill="#f1f5f9" font-size="31" font-weight="700" text-anchor="middle">2026년에 봐야 할 다섯 가지</text>
  <text x="540" y="86" fill="#64748b" font-size="16" text-anchor="middle">자진 상장폐지 후엔 주식으로 접근 불가 — 사업 이해용 관전 포인트</text>

  <g>
    <rect x="90" y="115" width="900" height="92" rx="10" fill="#11161f" stroke="#334155" stroke-width="1.5"/>
    <circle cx="135" cy="161" r="20" fill="#fbbf24"/><text x="135" y="168" fill="#0a0e1a" font-size="22" font-weight="700" text-anchor="middle">1</text>
    <text x="180" y="152" fill="#f1f5f9" font-size="21" font-weight="700">EQT 체제의 과금 전략</text>
    <text x="180" y="184" fill="#94a3b8" font-size="16">사모펀드는 보통 현금흐름을 더 짜낸다 — 의무 단말 위 구독 단가·갱신율을 어떻게 끌어올리나</text>

    <rect x="90" y="219" width="900" height="92" rx="10" fill="#11161f" stroke="#334155" stroke-width="1.5"/>
    <circle cx="135" cy="265" r="20" fill="#fbbf24"/><text x="135" y="272" fill="#0a0e1a" font-size="22" font-weight="700" text-anchor="middle">2</text>
    <text x="180" y="256" fill="#f1f5f9" font-size="21" font-weight="700">클라우드 구독 전환율</text>
    <text x="180" y="288" fill="#94a3b8" font-size="16">설치형을 단종한 만큼 위하고 구독 매출 비중이 오르는지 — 정체되면 현금화 속도 둔화</text>

    <rect x="90" y="323" width="900" height="92" rx="10" fill="#11161f" stroke="#334155" stroke-width="1.5"/>
    <circle cx="135" cy="369" r="20" fill="#fbbf24"/><text x="135" y="376" fill="#0a0e1a" font-size="22" font-weight="700" text-anchor="middle">3</text>
    <text x="180" y="360" fill="#f1f5f9" font-size="21" font-weight="700">핀테크·매출채권 사업의 실체</text>
    <text x="180" y="392" fill="#94a3b8" font-size="16">의무 데이터가 연 금융 사업이 매출에서 얼마나 자라나 — 꼬리인지 새 몸통인지</text>

    <rect x="90" y="427" width="900" height="92" rx="10" fill="#11161f" stroke="#334155" stroke-width="1.5"/>
    <circle cx="135" cy="473" r="20" fill="#fbbf24"/><text x="135" y="480" fill="#0a0e1a" font-size="22" font-weight="700" text-anchor="middle">4</text>
    <text x="180" y="464" fill="#f1f5f9" font-size="21" font-weight="700">영업외 누수 (영업이익 vs 순이익)</text>
    <text x="180" y="496" fill="#94a3b8" font-size="16">2025년 354억 갭이 좁혀지는지 — 본업의 두께가 최종 이익까지 내려오는가</text>

    <rect x="90" y="531" width="900" height="92" rx="10" fill="#11161f" stroke="#334155" stroke-width="1.5"/>
    <circle cx="135" cy="577" r="20" fill="#fbbf24"/><text x="135" y="584" fill="#0a0e1a" font-size="22" font-weight="700" text-anchor="middle">5</text>
    <text x="180" y="568" fill="#f1f5f9" font-size="21" font-weight="700">상장폐지의 조건</text>
    <text x="180" y="600" fill="#94a3b8" font-size="16">공개매수가(주당 12만원)와 잔여 주주 보호 — 비상장 전환 후 배당·재상장 가능성</text>
  </g>
  <text x="540" y="678" fill="#fbbf24" font-size="17" font-weight="700" text-anchor="middle">길목을 쥔 자에게는 시장의 박수보다 안정된 현금이 더 값지다</text>
  <text x="540" y="710" fill="#64748b" font-size="14" text-anchor="middle">— 정점에서 회사를 판 사모펀드의 셈법</text>
</svg>
