<svg xmlns="http://www.w3.org/2000/svg" viewBox="0 0 1080 620" font-family="-apple-system, 'Segoe UI', sans-serif">
  <title>영업현금흐름은 2023년 +7.27B로 자리 잡았다</title>
  <desc>영업현금흐름 ($B) — 2021 거의 0 → 2023 점프 → 2025 +10.15</desc>
  <rect width="1080" height="620" fill="#0a0e1a"/>
  <text x="540.0" y="50" fill="#f1f5f9" font-size="30" font-weight="700" text-anchor="middle">영업현금흐름은 2023년 +7.27B로 자리 잡았다</text>
  <text x="540.0" y="82" fill="#64748b" font-size="16" text-anchor="middle">영업현금흐름 ($B) — 2021 거의 0 → 2023 점프 → 2025 +10.15</text>
  <line x1="95" y1="530.0" x2="1020" y2="530.0" stroke="#334155" stroke-width="1" opacity="0.4"/>
  <text x="83" y="535.0" fill="#64748b" font-size="14" text-anchor="end">0</text>
  <line x1="95" y1="448.0" x2="1020" y2="448.0" stroke="#334155" stroke-width="1" opacity="0.4"/>
  <text x="83" y="453.0" fill="#64748b" font-size="14" text-anchor="end">2</text>
  <line x1="95" y1="366.0" x2="1020" y2="366.0" stroke="#334155" stroke-width="1" opacity="0.4"/>
  <text x="83" y="371.0" fill="#64748b" font-size="14" text-anchor="end">5</text>
  <line x1="95" y1="284.0" x2="1020" y2="284.0" stroke="#334155" stroke-width="1" opacity="0.4"/>
  <text x="83" y="289.0" fill="#64748b" font-size="14" text-anchor="end">7</text>
  <line x1="95" y1="202.0" x2="1020" y2="202.0" stroke="#334155" stroke-width="1" opacity="0.4"/>
  <text x="83" y="207.0" fill="#64748b" font-size="14" text-anchor="end">10</text>
  <line x1="95" y1="120.0" x2="1020" y2="120.0" stroke="#334155" stroke-width="1" opacity="0.4"/>
  <text x="83" y="125.0" fill="#64748b" font-size="14" text-anchor="end">12</text>
  <text x="95.0" y="558.0" fill="#94a3b8" font-size="14" text-anchor="middle">2020</text>
  <text x="280.0" y="558.0" fill="#94a3b8" font-size="14" text-anchor="middle">2021</text>
  <text x="465.0" y="558.0" fill="#94a3b8" font-size="14" text-anchor="middle">2022</text>
  <text x="650.0" y="558.0" fill="#94a3b8" font-size="14" text-anchor="middle">2023</text>
  <text x="835.0" y="558.0" fill="#94a3b8" font-size="14" text-anchor="middle">2024</text>
  <text x="1020.0" y="558.0" fill="#94a3b8" font-size="14" text-anchor="middle">2025</text>
  <polyline points="95.0,447.0 280.0,516.7 465.0,460.6 650.0,281.6 835.0,278.5 1020.0,183.2" fill="none" stroke="#22c55e" stroke-width="3.5"/>
  <circle cx="95.0" cy="447.0" r="4.5" fill="#22c55e"/>
  <circle cx="280.0" cy="516.7" r="4.5" fill="#22c55e"/>
  <circle cx="465.0" cy="460.6" r="4.5" fill="#22c55e"/>
  <circle cx="650.0" cy="281.6" r="4.5" fill="#22c55e"/>
  <circle cx="835.0" cy="278.5" r="4.5" fill="#22c55e"/>
  <circle cx="1020.0" cy="183.2" r="4.5" fill="#22c55e"/>
  <text x="1030.0" y="188.2" fill="#22c55e" font-size="15" font-weight="700">영업현금흐름</text>
  <text x="280.0" y="108.0" fill="#ef4444" font-size="13" font-weight="700" text-anchor="middle">2021 +0.39</text>
  <text x="650.0" y="108.0" fill="#22c55e" font-size="13" font-weight="700" text-anchor="middle">2023 +7.27</text>
  <text x="95" y="566" fill="#94a3b8" font-size="14">마진(OPM)이 본격 확대된 2024~2025와 현금이 자리 잡은 2023 사이 시점 격차</text>
  <text x="540.0" y="592" fill="#fbbf24" font-size="17" font-weight="700" text-anchor="middle">현금이 자리 잡은 2023은 마진 본격 확대(2024~25)보다 앞선 해다</text>
</svg>
