<svg xmlns="http://www.w3.org/2000/svg" viewBox="0 0 1080 620" font-family="-apple-system, 'Segoe UI', sans-serif">
  <title>2021년 — 마진은 올랐는데 현금은 주저앉았다</title>
  <desc>영업이익률(좌축) vs 영업현금흐름(우축) — 다른 표의 다른 사건</desc>
  <rect width="1080" height="620" fill="#0a0e1a"/>
  <text x="540.0" y="50" fill="#f1f5f9" font-size="30" font-weight="700" text-anchor="middle">2021년 — 마진은 올랐는데 현금은 주저앉았다</text>
  <text x="540.0" y="82" fill="#64748b" font-size="16" text-anchor="middle">영업이익률(좌축) vs 영업현금흐름(우축) — 다른 표의 다른 사건</text>
  <line x1="95" y1="530.0" x2="985" y2="530.0" stroke="#334155" stroke-width="1" opacity="0.35"/>
  <text x="83" y="535.0" fill="#fbbf24" font-size="13" text-anchor="end">10%</text>
  <text x="997" y="535.0" fill="#22c55e" font-size="13" text-anchor="start">0$B</text>
  <line x1="95" y1="448.0" x2="985" y2="448.0" stroke="#334155" stroke-width="1" opacity="0.35"/>
  <text x="83" y="453.0" fill="#fbbf24" font-size="13" text-anchor="end">14%</text>
  <text x="997" y="453.0" fill="#22c55e" font-size="13" text-anchor="start">2$B</text>
  <line x1="95" y1="366.0" x2="985" y2="366.0" stroke="#334155" stroke-width="1" opacity="0.35"/>
  <text x="83" y="371.0" fill="#fbbf24" font-size="13" text-anchor="end">19%</text>
  <text x="997" y="371.0" fill="#22c55e" font-size="13" text-anchor="start">5$B</text>
  <line x1="95" y1="284.0" x2="985" y2="284.0" stroke="#334155" stroke-width="1" opacity="0.35"/>
  <text x="83" y="289.0" fill="#fbbf24" font-size="13" text-anchor="end">23%</text>
  <text x="997" y="289.0" fill="#22c55e" font-size="13" text-anchor="start">7$B</text>
  <line x1="95" y1="202.0" x2="985" y2="202.0" stroke="#334155" stroke-width="1" opacity="0.35"/>
  <text x="83" y="207.0" fill="#fbbf24" font-size="13" text-anchor="end">28%</text>
  <text x="997" y="207.0" fill="#22c55e" font-size="13" text-anchor="start">10$B</text>
  <line x1="95" y1="120.0" x2="985" y2="120.0" stroke="#334155" stroke-width="1" opacity="0.35"/>
  <text x="83" y="125.0" fill="#fbbf24" font-size="13" text-anchor="end">32%</text>
  <text x="997" y="125.0" fill="#22c55e" font-size="13" text-anchor="start">12$B</text>
  <text x="95.0" y="558.0" fill="#94a3b8" font-size="14" text-anchor="middle">2020</text>
  <text x="273.0" y="558.0" fill="#94a3b8" font-size="14" text-anchor="middle">2021</text>
  <text x="451.0" y="558.0" fill="#94a3b8" font-size="14" text-anchor="middle">2022</text>
  <text x="629.0" y="558.0" fill="#94a3b8" font-size="14" text-anchor="middle">2023</text>
  <text x="807.0" y="558.0" fill="#94a3b8" font-size="14" text-anchor="middle">2024</text>
  <text x="985.0" y="558.0" fill="#94a3b8" font-size="14" text-anchor="middle">2025</text>
  <polyline points="95.0,373.5 273.0,328.7 451.0,384.6 629.0,332.5 807.0,218.8 985.0,166.6" fill="none" stroke="#fbbf24" stroke-width="3.5"/>
  <circle cx="95.0" cy="373.5" r="4.5" fill="#fbbf24"/>
  <circle cx="273.0" cy="328.7" r="4.5" fill="#fbbf24"/>
  <circle cx="451.0" cy="384.6" r="4.5" fill="#fbbf24"/>
  <circle cx="629.0" cy="332.5" r="4.5" fill="#fbbf24"/>
  <circle cx="807.0" cy="218.8" r="4.5" fill="#fbbf24"/>
  <circle cx="985.0" cy="166.6" r="4.5" fill="#fbbf24"/>
  <text x="95.0" y="361.5" fill="#fbbf24" font-size="15" font-weight="700">영업이익률(좌, %)</text>
  <polyline points="95.0,447.0 273.0,516.7 451.0,460.6 629.0,281.6 807.0,278.5 985.0,183.2" fill="none" stroke="#22c55e" stroke-width="3.5"/>
  <circle cx="95.0" cy="447.0" r="4.5" fill="#22c55e"/>
  <circle cx="273.0" cy="516.7" r="4.5" fill="#22c55e"/>
  <circle cx="451.0" cy="460.6" r="4.5" fill="#22c55e"/>
  <circle cx="629.0" cy="281.6" r="4.5" fill="#22c55e"/>
  <circle cx="807.0" cy="278.5" r="4.5" fill="#22c55e"/>
  <circle cx="985.0" cy="183.2" r="4.5" fill="#22c55e"/>
  <text x="95.0" y="435.0" fill="#22c55e" font-size="15" font-weight="700">영업현금흐름(우, $B)</text>
  <text x="273.0" y="108.0" fill="#ef4444" font-size="13" font-weight="700" text-anchor="middle">2021 어긋남</text>
  <text x="629.0" y="108.0" fill="#22c55e" font-size="13" font-weight="700" text-anchor="middle">2023 현금 자리잡음</text>
  <text x="95" y="566" fill="#94a3b8" font-size="14">마진은 손익 비율, OCF는 그해 실제 현금 — 콘텐츠 자본화로 다른 박자(2019는 부분치라 제외)</text>
  <text x="540.0" y="592" fill="#fbbf24" font-size="17" font-weight="700" text-anchor="middle">2021 OPM↑·OCF↓ 어긋남 → 2023 두 곡선 같은 방향 · 시점 격차가 핵심</text>
</svg>
