<svg xmlns="http://www.w3.org/2000/svg" viewBox="0 0 780 450" font-family="Malgun Gothic, 'Apple SD Gothic Neo', sans-serif">
<rect width="780" height="450" fill="#0a0e1a"/>
<text x="70" y="34" fill="#e2e8f0" font-size="20" font-weight="700">매출 — M&amp;A로 계단처럼 점프</text>
<text x="70" y="54" fill="#94a3b8" font-size="12.5">2019~2025 ($B), 2024 VMware·2025 AI</text>
<line x1="70" y1="394.0" x2="710" y2="394.0" stroke="#1e293b" stroke-width="1"/>
<text x="62" y="398.0" fill="#94a3b8" font-size="11" text-anchor="end">0.0</text>
<line x1="70" y1="311.5" x2="710" y2="311.5" stroke="#1e293b" stroke-width="1"/>
<text x="62" y="315.5" fill="#94a3b8" font-size="11" text-anchor="end">17.9</text>
<line x1="70" y1="229.0" x2="710" y2="229.0" stroke="#1e293b" stroke-width="1"/>
<text x="62" y="233.0" fill="#94a3b8" font-size="11" text-anchor="end">35.8</text>
<line x1="70" y1="146.5" x2="710" y2="146.5" stroke="#1e293b" stroke-width="1"/>
<text x="62" y="150.5" fill="#94a3b8" font-size="11" text-anchor="end">53.7</text>
<line x1="70" y1="64.0" x2="710" y2="64.0" stroke="#1e293b" stroke-width="1"/>
<text x="62" y="68.0" fill="#94a3b8" font-size="11" text-anchor="end">71.6</text>
<text x="115.7" y="414" fill="#94a3b8" font-size="11" text-anchor="middle">2019</text>
<text x="207.1" y="414" fill="#94a3b8" font-size="11" text-anchor="middle">2020</text>
<text x="298.6" y="414" fill="#94a3b8" font-size="11" text-anchor="middle">2021</text>
<text x="390.0" y="414" fill="#94a3b8" font-size="11" text-anchor="middle">2022</text>
<text x="481.4" y="414" fill="#94a3b8" font-size="11" text-anchor="middle">2023</text>
<text x="572.9" y="414" fill="#94a3b8" font-size="11" text-anchor="middle">2024</text>
<text x="664.3" y="414" fill="#94a3b8" font-size="11" text-anchor="middle">2025</text>
<rect x="87.4" y="289.8" width="56.7" height="104.2" rx="2" fill="#3b82f6"/>
<text x="115.7" y="283.8" fill="#e2e8f0" font-size="10.5" text-anchor="middle">22.6</text>
<rect x="178.8" y="283.8" width="56.7" height="110.2" rx="2" fill="#3b82f6"/>
<text x="207.1" y="277.8" fill="#e2e8f0" font-size="10.5" text-anchor="middle">23.9</text>
<rect x="270.2" y="267.4" width="56.7" height="126.6" rx="2" fill="#3b82f6"/>
<text x="298.6" y="261.4" fill="#e2e8f0" font-size="10.5" text-anchor="middle">27.4</text>
<rect x="361.7" y="240.9" width="56.7" height="153.1" rx="2" fill="#3b82f6"/>
<text x="390.0" y="234.9" fill="#e2e8f0" font-size="10.5" text-anchor="middle">33.2</text>
<rect x="453.1" y="228.8" width="56.7" height="165.2" rx="2" fill="#3b82f6"/>
<text x="481.4" y="222.8" fill="#e2e8f0" font-size="10.5" text-anchor="middle">35.8</text>
<rect x="544.5" y="156.2" width="56.7" height="237.8" rx="2" fill="#fbbf24"/>
<text x="572.9" y="150.2" fill="#e2e8f0" font-size="10.5" text-anchor="middle">51.6</text>
<rect x="635.9" y="99.4" width="56.7" height="294.6" rx="2" fill="#fbbf24"/>
<text x="664.3" y="93.4" fill="#e2e8f0" font-size="10.5" text-anchor="middle">63.9</text>
<text x="70" y="436" fill="#94a3b8" font-size="11">단위: $B</text>
</svg>
