<svg xmlns="http://www.w3.org/2000/svg" viewBox="0 0 780 450" font-family="Malgun Gothic, 'Apple SD Gothic Neo', sans-serif">
<rect width="780" height="450" fill="#0a0e1a"/>
<text x="70" y="34" fill="#e2e8f0" font-size="20" font-weight="700">영업이익률 vs 순이익률 — 2024년의 격차</text>
<text x="70" y="54" fill="#94a3b8" font-size="12.5">2019~2025 (%), 인수 상각이 순익만 짓누름</text>
<line x1="70" y1="394.0" x2="710" y2="394.0" stroke="#1e293b" stroke-width="1"/>
<text x="62" y="398.0" fill="#94a3b8" font-size="11" text-anchor="end">0.0</text>
<line x1="70" y1="311.5" x2="710" y2="311.5" stroke="#1e293b" stroke-width="1"/>
<text x="62" y="315.5" fill="#94a3b8" font-size="11" text-anchor="end">12.3</text>
<line x1="70" y1="229.0" x2="710" y2="229.0" stroke="#1e293b" stroke-width="1"/>
<text x="62" y="233.0" fill="#94a3b8" font-size="11" text-anchor="end">24.7</text>
<line x1="70" y1="146.5" x2="710" y2="146.5" stroke="#1e293b" stroke-width="1"/>
<text x="62" y="150.5" fill="#94a3b8" font-size="11" text-anchor="end">37.0</text>
<line x1="70" y1="64.0" x2="710" y2="64.0" stroke="#1e293b" stroke-width="1"/>
<text x="62" y="68.0" fill="#94a3b8" font-size="11" text-anchor="end">49.4</text>
<text x="115.7" y="414" fill="#94a3b8" font-size="11" text-anchor="middle">2019</text>
<text x="207.1" y="414" fill="#94a3b8" font-size="11" text-anchor="middle">2020</text>
<text x="298.6" y="414" fill="#94a3b8" font-size="11" text-anchor="middle">2021</text>
<text x="390.0" y="414" fill="#94a3b8" font-size="11" text-anchor="middle">2022</text>
<text x="481.4" y="414" fill="#94a3b8" font-size="11" text-anchor="middle">2023</text>
<text x="572.9" y="414" fill="#94a3b8" font-size="11" text-anchor="middle">2024</text>
<text x="664.3" y="414" fill="#94a3b8" font-size="11" text-anchor="middle">2025</text>
<rect x="608" y="34" width="12" height="12" rx="2" fill="#fbbf24"/>
<text x="625" y="44" fill="#94a3b8" font-size="11.5">OPM</text>
<rect x="659" y="34" width="12" height="12" rx="2" fill="#3b82f6"/>
<text x="676" y="44" fill="#94a3b8" font-size="11.5">NPM</text>
<polyline points="115.7,292.4 207.1,281.7 298.6,186.8 390.0,107.9 481.4,91.2 572.9,219.5 664.3,127.3" fill="none" stroke="#fbbf24" stroke-width="3" stroke-linejoin="round"/>
<circle cx="115.7" cy="292.4" r="3.5" fill="#fbbf24"/>
<circle cx="207.1" cy="281.7" r="3.5" fill="#fbbf24"/>
<circle cx="298.6" cy="186.8" r="3.5" fill="#fbbf24"/>
<circle cx="390.0" cy="107.9" r="3.5" fill="#fbbf24"/>
<circle cx="481.4" cy="91.2" r="3.5" fill="#fbbf24"/>
<circle cx="572.9" cy="219.5" r="3.5" fill="#fbbf24"/>
<circle cx="664.3" cy="127.3" r="3.5" fill="#fbbf24"/>
<text x="664.3" y="117.3" fill="#fbbf24" font-size="11" font-weight="700" text-anchor="end">39.9</text>
<polyline points="115.7,313.8 207.1,311.1 298.6,229.6 390.0,162.7 481.4,131.3 572.9,317.8 664.3,152.0" fill="none" stroke="#3b82f6" stroke-width="3" stroke-linejoin="round"/>
<circle cx="115.7" cy="313.8" r="3.5" fill="#3b82f6"/>
<circle cx="207.1" cy="311.1" r="3.5" fill="#3b82f6"/>
<circle cx="298.6" cy="229.6" r="3.5" fill="#3b82f6"/>
<circle cx="390.0" cy="162.7" r="3.5" fill="#3b82f6"/>
<circle cx="481.4" cy="131.3" r="3.5" fill="#3b82f6"/>
<circle cx="572.9" cy="317.8" r="3.5" fill="#3b82f6"/>
<circle cx="664.3" cy="152.0" r="3.5" fill="#3b82f6"/>
<text x="664.3" y="142.0" fill="#3b82f6" font-size="11" font-weight="700" text-anchor="end">36.2</text>
<text x="70" y="436" fill="#94a3b8" font-size="11">단위: %</text>
</svg>
