<svg xmlns="http://www.w3.org/2000/svg" viewBox="0 0 780 450" font-family="Malgun Gothic, 'Apple SD Gothic Neo', sans-serif">
<rect width="780" height="450" fill="#0a0e1a"/>
<text x="70" y="34" fill="#e2e8f0" font-size="20" font-weight="700">영업이익과 순이익 — 2024년 순익만 급락</text>
<text x="70" y="54" fill="#94a3b8" font-size="12.5">막대=영업이익($B), 선=순이익($B), 2021~2025</text>
<line x1="70" y1="394.0" x2="710" y2="394.0" stroke="#1e293b" stroke-width="1"/>
<text x="62" y="398.0" fill="#94a3b8" font-size="10.5" text-anchor="end">0</text>
<line x1="70" y1="311.5" x2="710" y2="311.5" stroke="#1e293b" stroke-width="1"/>
<text x="62" y="315.5" fill="#94a3b8" font-size="10.5" text-anchor="end">7</text>
<line x1="70" y1="229.0" x2="710" y2="229.0" stroke="#1e293b" stroke-width="1"/>
<text x="62" y="233.0" fill="#94a3b8" font-size="10.5" text-anchor="end">14</text>
<line x1="70" y1="146.5" x2="710" y2="146.5" stroke="#1e293b" stroke-width="1"/>
<text x="62" y="150.5" fill="#94a3b8" font-size="10.5" text-anchor="end">21</text>
<line x1="70" y1="64.0" x2="710" y2="64.0" stroke="#1e293b" stroke-width="1"/>
<text x="62" y="68.0" fill="#94a3b8" font-size="10.5" text-anchor="end">29</text>
<text x="718" y="398.0" fill="#fbbf24" font-size="10.5" text-anchor="start">0</text>
<text x="718" y="315.5" fill="#fbbf24" font-size="10.5" text-anchor="start">6</text>
<text x="718" y="233.0" fill="#fbbf24" font-size="10.5" text-anchor="start">13</text>
<text x="718" y="150.5" fill="#fbbf24" font-size="10.5" text-anchor="start">19</text>
<text x="718" y="68.0" fill="#fbbf24" font-size="10.5" text-anchor="start">25</text>
<text x="134.0" y="414" fill="#94a3b8" font-size="11" text-anchor="middle">2021</text>
<text x="262.0" y="414" fill="#94a3b8" font-size="11" text-anchor="middle">2022</text>
<text x="390.0" y="414" fill="#94a3b8" font-size="11" text-anchor="middle">2023</text>
<text x="518.0" y="414" fill="#94a3b8" font-size="11" text-anchor="middle">2024</text>
<text x="646.0" y="414" fill="#94a3b8" font-size="11" text-anchor="middle">2025</text>
<rect x="601" y="34" width="12" height="12" rx="2" fill="#94a3b8"/>
<text x="618" y="44" fill="#94a3b8" font-size="11.5">영업이익</text>
<rect x="659" y="34" width="12" height="12" rx="2" fill="#fbbf24"/>
<text x="676" y="44" fill="#94a3b8" font-size="11.5">순이익</text>
<rect x="102.0" y="295.5" width="64.0" height="98.5" rx="2" fill="#94a3b8" opacity="0.85"/>
<rect x="230.0" y="229.6" width="64.0" height="164.4" rx="2" fill="#94a3b8" opacity="0.85"/>
<rect x="358.0" y="206.6" width="64.0" height="187.4" rx="2" fill="#94a3b8" opacity="0.85"/>
<rect x="486.0" y="238.4" width="64.0" height="155.6" rx="2" fill="#94a3b8" opacity="0.85"/>
<rect x="614.0" y="99.4" width="64.0" height="294.6" rx="2" fill="#94a3b8" opacity="0.85"/>
<polyline points="134.0,305.7 262.0,243.5 390.0,209.6 518.0,316.9 646.0,91.1" fill="none" stroke="#fbbf24" stroke-width="3" stroke-linejoin="round"/>
<circle cx="134.0" cy="305.7" r="3.2" fill="#fbbf24"/>
<circle cx="262.0" cy="243.5" r="3.2" fill="#fbbf24"/>
<circle cx="390.0" cy="209.6" r="3.2" fill="#fbbf24"/>
<circle cx="518.0" cy="316.9" r="3.2" fill="#fbbf24"/>
<circle cx="646.0" cy="91.1" r="3.2" fill="#fbbf24"/>
<text x="70" y="436" fill="#94a3b8" font-size="11">영업이익 (좌, $B)</text>
<text x="710" y="436" fill="#fbbf24" font-size="11" text-anchor="end">순이익 (우)</text>
</svg>
