<svg xmlns="http://www.w3.org/2000/svg" viewBox="0 0 1080 350" font-family="-apple-system, 'Segoe UI', sans-serif">
  <rect width="1080" height="350" fill="#0a0e1a"/>
  <text x="540" y="36" font-size="18" font-weight="700" fill="#f1f5f9" text-anchor="middle">OPM 5년 — 붕괴에서 반등까지</text>
  <line x1="120" y1="290" x2="960" y2="290" stroke="#334155" stroke-width="1"/>
  <line x1="120" y1="80" x2="120" y2="290" stroke="#1e293b" stroke-width="1"/>
  <!-- Scale: 0%=290, 5%=80. range 5% over 210px. 1%=42px -->
  <!-- 4.6: y=290-4.6*42=97 -->
  <polyline points="200,97 340,105 480,164 620,168 760,252 900,185" fill="none" stroke="#3b82f6" stroke-width="3" stroke-linejoin="round"/>
  <circle cx="200" cy="97" r="6" fill="#22c55e"/>
  <text x="200" y="85" font-size="12" font-weight="700" fill="#22c55e" text-anchor="middle">4.6%</text>
  <text x="200" y="310" font-size="11" fill="#94a3b8" text-anchor="middle">2020</text>
  <circle cx="340" cy="105" r="6" fill="#22c55e"/>
  <text x="340" y="93" font-size="12" font-weight="700" fill="#94a3b8" text-anchor="middle">4.4%</text>
  <text x="340" y="310" font-size="11" fill="#94a3b8" text-anchor="middle">2021</text>
  <circle cx="480" cy="164" r="6" fill="#f59e0b"/>
  <text x="480" y="152" font-size="12" font-weight="700" fill="#f59e0b" text-anchor="middle">3.0%</text>
  <text x="480" y="310" font-size="11" fill="#94a3b8" text-anchor="middle">2022</text>
  <circle cx="620" cy="168" r="6" fill="#f59e0b"/>
  <text x="620" y="156" font-size="12" font-weight="700" fill="#f59e0b" text-anchor="middle">2.9%</text>
  <text x="620" y="310" font-size="11" fill="#94a3b8" text-anchor="middle">2023</text>
  <circle cx="760" cy="252" r="12" fill="#ef4444" opacity="0.3" stroke="#ef4444" stroke-width="2"/>
  <circle cx="760" cy="252" r="6" fill="#ef4444"/>
  <text x="760" y="240" font-size="13" font-weight="800" fill="#ef4444" text-anchor="middle">0.9%</text>
  <text x="760" y="270" font-size="10" fill="#ef4444" text-anchor="middle">빅배스</text>
  <text x="760" y="310" font-size="11" fill="#94a3b8" text-anchor="middle">2024</text>
  <circle cx="900" cy="185" r="6" fill="#fbbf24"/>
  <text x="900" y="173" font-size="13" font-weight="800" fill="#fbbf24" text-anchor="middle">2.5%</text>
  <text x="900" y="310" font-size="11" fill="#fbbf24" text-anchor="middle">2025</text>
</svg>
