<svg xmlns="http://www.w3.org/2000/svg" viewBox="0 0 1200 820" font-family="-apple-system, 'Segoe UI', sans-serif">
  <defs>
    <linearGradient id="bgM" x1="0%" y1="0%" x2="100%" y2="100%">
      <stop offset="0%" style="stop-color:#0a0e1a"/>
      <stop offset="100%" style="stop-color:#111827"/>
    </linearGradient>
    <filter id="glowM">
      <feGaussianBlur stdDeviation="3" result="blur"/>
      <feMerge><feMergeNode in="blur"/><feMergeNode in="SourceGraphic"/></feMerge>
    </filter>
  </defs>
  <rect width="1200" height="820" fill="url(#bgM)"/>

  <text x="600" y="45" font-size="22" font-weight="800" fill="#f1f5f9" text-anchor="middle">K9 자주포 — 세계 155mm 시장 점유율 52%</text>
  <text x="600" y="70" font-size="13" fill="#64748b" text-anchor="middle">10개국+ 수출, 600문+ 납품·계약 | SIPRI 2023</text>

  <!-- Market share donut (simplified) -->
  <circle cx="200" cy="200" r="90" fill="none" stroke="#22c55e" stroke-width="25" stroke-dasharray="283 261" transform="rotate(-90 200 200)"/>
  <circle cx="200" cy="200" r="90" fill="none" stroke="#334155" stroke-width="25" stroke-dasharray="261 283" stroke-dashoffset="-283" transform="rotate(-90 200 200)"/>
  <text x="200" y="192" font-size="36" font-weight="800" fill="#22c55e" text-anchor="middle">52%</text>
  <text x="200" y="218" font-size="13" fill="#94a3b8" text-anchor="middle">세계 시장 점유율</text>

  <!-- Competitors -->
  <text x="340" y="145" font-size="12" fill="#94a3b8">비교 (수출량 기준)</text>
  <rect x="340" y="155" width="200" height="28" rx="4" fill="#22c55e" opacity="0.15"/>
  <text x="350" y="174" font-size="12" fill="#22c55e" font-weight="600">K9 (한국): 600문+</text>
  <rect x="340" y="190" width="100" height="28" rx="4" fill="#334155"/>
  <text x="350" y="209" font-size="12" fill="#94a3b8">CAESAR (프랑스): ~300문</text>
  <rect x="340" y="225" width="40" height="28" rx="4" fill="#334155"/>
  <text x="350" y="244" font-size="12" fill="#94a3b8">PzH 2000 (독일): ~120문</text>

  <!-- Export country cards -->
  <text x="80" y="320" font-size="16" font-weight="700" fill="#f1f5f9">수출국별 현황</text>

  <!-- Row 1 -->
  <rect x="60" y="340" width="210" height="120" rx="10" fill="#1e293b" stroke="#22c55e" stroke-width="1.5"/>
  <text x="80" y="368" font-size="14" font-weight="700" fill="#22c55e">폴란드</text>
  <text x="250" y="368" font-size="14" font-weight="800" fill="#f1f5f9" text-anchor="end">672문</text>
  <text x="80" y="390" font-size="11" fill="#94a3b8">K9A1PL + 현지생산 예정</text>
  <text x="80" y="408" font-size="11" fill="#94a3b8">2022 기본계약</text>
  <rect x="80" y="425" width="170" height="18" rx="4" fill="#22c55e" opacity="0.1"/>
  <text x="165" y="438" font-size="10" fill="#22c55e" text-anchor="middle" font-weight="600">최대 수출 계약</text>

  <rect x="290" y="340" width="210" height="120" rx="10" fill="#1e293b" stroke="#fbbf24" stroke-width="1"/>
  <text x="310" y="368" font-size="14" font-weight="700" fill="#fbbf24">터키</text>
  <text x="480" y="368" font-size="14" font-weight="800" fill="#f1f5f9" text-anchor="end">350문</text>
  <text x="310" y="390" font-size="11" fill="#94a3b8">T-155 Firtina (면허생산)</text>
  <text x="310" y="408" font-size="11" fill="#94a3b8">2001 최초 수출</text>
  <rect x="310" y="425" width="170" height="18" rx="4" fill="#fbbf24" opacity="0.1"/>
  <text x="395" y="438" font-size="10" fill="#fbbf24" text-anchor="middle" font-weight="600">첫 해외 고객</text>

  <rect x="520" y="340" width="210" height="120" rx="10" fill="#1e293b" stroke="#334155" stroke-width="1"/>
  <text x="540" y="368" font-size="14" font-weight="700" fill="#cbd5e1">인도</text>
  <text x="710" y="368" font-size="14" font-weight="800" fill="#f1f5f9" text-anchor="end">100문</text>
  <text x="540" y="390" font-size="11" fill="#94a3b8">K9 Vajra (L&T 현지생산)</text>
  <text x="540" y="408" font-size="11" fill="#94a3b8">2017 계약</text>

  <rect x="750" y="340" width="210" height="120" rx="10" fill="#1e293b" stroke="#334155" stroke-width="1"/>
  <text x="770" y="368" font-size="14" font-weight="700" fill="#cbd5e1">핀란드</text>
  <text x="940" y="368" font-size="14" font-weight="800" fill="#f1f5f9" text-anchor="end">48문</text>
  <text x="770" y="390" font-size="11" fill="#94a3b8">중고 도입</text>
  <text x="770" y="408" font-size="11" fill="#94a3b8">2017 계약</text>

  <rect x="980" y="340" width="170" height="120" rx="10" fill="#1e293b" stroke="#334155" stroke-width="1"/>
  <text x="1000" y="368" font-size="14" font-weight="700" fill="#cbd5e1">호주</text>
  <text x="1130" y="368" font-size="14" font-weight="800" fill="#f1f5f9" text-anchor="end">30문+</text>
  <text x="1000" y="390" font-size="11" fill="#94a3b8">AS9 Huntsman</text>
  <text x="1000" y="408" font-size="11" fill="#94a3b8">현지생산 계획</text>

  <!-- Row 2 -->
  <rect x="60" y="480" width="180" height="100" rx="10" fill="#1e293b" stroke="#334155" stroke-width="1"/>
  <text x="80" y="508" font-size="14" font-weight="700" fill="#cbd5e1">노르웨이</text>
  <text x="220" y="508" font-size="14" font-weight="800" fill="#f1f5f9" text-anchor="end">28문</text>
  <text x="80" y="530" font-size="11" fill="#94a3b8">K9 + K10 탄약차 14대</text>
  <text x="80" y="548" font-size="11" fill="#94a3b8">운용 중</text>

  <rect x="260" y="480" width="180" height="100" rx="10" fill="#1e293b" stroke="#334155" stroke-width="1"/>
  <text x="280" y="508" font-size="14" font-weight="700" fill="#cbd5e1">에스토니아</text>
  <text x="420" y="508" font-size="14" font-weight="800" fill="#f1f5f9" text-anchor="end">18문+</text>
  <text x="280" y="530" font-size="11" fill="#94a3b8">발트3국 대러 억제</text>
  <text x="280" y="548" font-size="11" fill="#94a3b8">2018 계약</text>

  <rect x="460" y="480" width="180" height="100" rx="10" fill="#1e293b" stroke="#22d3ee" stroke-width="1"/>
  <text x="480" y="508" font-size="14" font-weight="700" fill="#22d3ee">베트남</text>
  <text x="620" y="508" font-size="14" font-weight="800" fill="#f1f5f9" text-anchor="end">도입 확정</text>
  <text x="480" y="530" font-size="11" fill="#94a3b8">공산권 국가 첫 수출</text>
  <text x="480" y="548" font-size="11" fill="#22d3ee">2025 확정</text>

  <rect x="660" y="480" width="180" height="100" rx="10" fill="#1e293b" stroke="#fbbf24" stroke-width="1" stroke-dasharray="4,3"/>
  <text x="680" y="508" font-size="14" font-weight="700" fill="#fbbf24">이집트</text>
  <text x="820" y="508" font-size="13" fill="#fbbf24" text-anchor="end">200문+ 협상</text>
  <text x="680" y="530" font-size="11" fill="#94a3b8">세계 무기수입 3위</text>
  <text x="680" y="548" font-size="11" fill="#94a3b8">협상 진행 중</text>

  <rect x="860" y="480" width="180" height="100" rx="10" fill="#1e293b" stroke="#fbbf24" stroke-width="1" stroke-dasharray="4,3"/>
  <text x="880" y="508" font-size="14" font-weight="700" fill="#fbbf24">루마니아</text>
  <text x="1020" y="508" font-size="13" fill="#fbbf24" text-anchor="end">협상 중</text>
  <text x="880" y="530" font-size="11" fill="#94a3b8">NATO 동유럽 확대</text>
  <text x="880" y="548" font-size="11" fill="#94a3b8">계약 진행 중</text>

  <!-- Bottom: SIPRI ranking -->
  <rect x="60" y="620" width="1080" height="170" rx="12" fill="#1e293b" stroke="#334155" stroke-width="1"/>
  <text x="600" y="655" font-size="16" font-weight="700" fill="#f1f5f9" text-anchor="middle">SIPRI 세계 방산 수출 TOP 5 + 한국 (2020~2024)</text>

  <rect x="100" y="675" width="430" height="35" rx="6" fill="#3b82f6" opacity="0.3"/>
  <text x="115" y="698" font-size="13" fill="#f1f5f9" font-weight="700">1. 미국 43.0%</text>

  <rect x="100" y="715" width="96" height="30" rx="6" fill="#334155"/>
  <text x="115" y="735" font-size="12" fill="#94a3b8">2. 프랑스 9.6%</text>

  <rect x="210" y="715" width="78" height="30" rx="6" fill="#334155"/>
  <text x="225" y="735" font-size="12" fill="#94a3b8">3. 러시아 7.8%</text>

  <rect x="302" y="715" width="59" height="30" rx="6" fill="#334155"/>
  <text x="317" y="735" font-size="12" fill="#94a3b8">4. 중국 5.9%</text>

  <rect x="375" y="715" width="56" height="30" rx="6" fill="#334155"/>
  <text x="390" y="735" font-size="12" fill="#94a3b8">5. 독일 5.6%</text>

  <text x="600" y="698" font-size="13" fill="#64748b" text-anchor="middle">...</text>

  <rect x="680" y="675" width="110" height="35" rx="6" fill="#22c55e" opacity="0.15" stroke="#22c55e" stroke-width="1"/>
  <text x="735" y="698" font-size="13" fill="#22c55e" font-weight="700" text-anchor="middle">10. 한국 2.2%</text>

  <text x="830" y="698" font-size="12" fill="#94a3b8">→ 목표: 2030년 4위 (6%)</text>

  <text x="735" y="735" font-size="11" fill="#64748b" text-anchor="middle">K방산 빅4 매출 전년대비 31% 급증</text>
</svg>