<svg xmlns="http://www.w3.org/2000/svg" viewBox="0 0 780 450" font-family="Malgun Gothic, 'Apple SD Gothic Neo', sans-serif">
<rect width="780" height="450" fill="#0a0e1a"/>
<text x="70" y="34" fill="#e2e8f0" font-size="20" font-weight="700">매출(상승)과 영업이익률(출렁)</text>
<text x="70" y="54" fill="#94a3b8" font-size="12.5">막대=매출($B), 선=OPM(%), 2016~2025</text>
<line x1="70" y1="394.0" x2="710" y2="394.0" stroke="#1e293b" stroke-width="1"/>
<text x="62" y="398.0" fill="#94a3b8" font-size="10.5" text-anchor="end">0</text>
<line x1="70" y1="311.5" x2="710" y2="311.5" stroke="#1e293b" stroke-width="1"/>
<text x="62" y="315.5" fill="#94a3b8" font-size="10.5" text-anchor="end">6</text>
<line x1="70" y1="229.0" x2="710" y2="229.0" stroke="#1e293b" stroke-width="1"/>
<text x="62" y="233.0" fill="#94a3b8" font-size="10.5" text-anchor="end">11</text>
<line x1="70" y1="146.5" x2="710" y2="146.5" stroke="#1e293b" stroke-width="1"/>
<text x="62" y="150.5" fill="#94a3b8" font-size="10.5" text-anchor="end">17</text>
<line x1="70" y1="64.0" x2="710" y2="64.0" stroke="#1e293b" stroke-width="1"/>
<text x="62" y="68.0" fill="#94a3b8" font-size="10.5" text-anchor="end">23</text>
<text x="718" y="398.0" fill="#fbbf24" font-size="10.5" text-anchor="start">0</text>
<text x="718" y="315.5" fill="#fbbf24" font-size="10.5" text-anchor="start">7</text>
<text x="718" y="233.0" fill="#fbbf24" font-size="10.5" text-anchor="start">13</text>
<text x="718" y="150.5" fill="#fbbf24" font-size="10.5" text-anchor="start">20</text>
<text x="718" y="68.0" fill="#fbbf24" font-size="10.5" text-anchor="start">26</text>
<text x="102.0" y="414" fill="#94a3b8" font-size="11" text-anchor="middle">2016</text>
<text x="166.0" y="414" fill="#94a3b8" font-size="11" text-anchor="middle">2017</text>
<text x="230.0" y="414" fill="#94a3b8" font-size="11" text-anchor="middle">2018</text>
<text x="294.0" y="414" fill="#94a3b8" font-size="11" text-anchor="middle">2019</text>
<text x="358.0" y="414" fill="#94a3b8" font-size="11" text-anchor="middle">2020</text>
<text x="422.0" y="414" fill="#94a3b8" font-size="11" text-anchor="middle">2021</text>
<text x="486.0" y="414" fill="#94a3b8" font-size="11" text-anchor="middle">2022</text>
<text x="550.0" y="414" fill="#94a3b8" font-size="11" text-anchor="middle">2023</text>
<text x="614.0" y="414" fill="#94a3b8" font-size="11" text-anchor="middle">2024</text>
<text x="678.0" y="414" fill="#94a3b8" font-size="11" text-anchor="middle">2025</text>
<rect x="615" y="34" width="12" height="12" rx="2" fill="#3b82f6"/>
<text x="632" y="44" fill="#94a3b8" font-size="11.5">매출</text>
<rect x="659" y="34" width="12" height="12" rx="2" fill="#fbbf24"/>
<text x="676" y="44" fill="#94a3b8" font-size="11.5">OPM</text>
<rect x="86.0" y="174.2" width="32.0" height="219.8" rx="2" fill="#3b82f6" opacity="0.85"/>
<rect x="150.0" y="170.6" width="32.0" height="223.4" rx="2" fill="#3b82f6" opacity="0.85"/>
<rect x="214.0" y="169.3" width="32.0" height="224.7" rx="2" fill="#3b82f6" opacity="0.85"/>
<rect x="278.0" y="167.2" width="32.0" height="226.8" rx="2" fill="#3b82f6" opacity="0.85"/>
<rect x="342.0" y="155.9" width="32.0" height="238.1" rx="2" fill="#3b82f6" opacity="0.85"/>
<rect x="406.0" y="142.2" width="32.0" height="251.8" rx="2" fill="#3b82f6" opacity="0.85"/>
<rect x="470.0" y="134.2" width="32.0" height="259.8" rx="2" fill="#3b82f6" opacity="0.85"/>
<rect x="534.0" y="112.7" width="32.0" height="281.3" rx="2" fill="#3b82f6" opacity="0.85"/>
<rect x="598.0" y="103.4" width="32.0" height="290.6" rx="2" fill="#3b82f6" opacity="0.85"/>
<rect x="662.0" y="99.4" width="32.0" height="294.6" rx="2" fill="#3b82f6" opacity="0.85"/>
<polyline points="102.0,77.8 166.0,104.0 230.0,97.8 294.0,111.5 358.0,99.0 422.0,155.3 486.0,192.8 550.0,137.8 614.0,129.0 678.0,191.5" fill="none" stroke="#fbbf24" stroke-width="3" stroke-linejoin="round"/>
<circle cx="102.0" cy="77.8" r="3.2" fill="#fbbf24"/>
<circle cx="166.0" cy="104.0" r="3.2" fill="#fbbf24"/>
<circle cx="230.0" cy="97.8" r="3.2" fill="#fbbf24"/>
<circle cx="294.0" cy="111.5" r="3.2" fill="#fbbf24"/>
<circle cx="358.0" cy="99.0" r="3.2" fill="#fbbf24"/>
<circle cx="422.0" cy="155.3" r="3.2" fill="#fbbf24"/>
<circle cx="486.0" cy="192.8" r="3.2" fill="#fbbf24"/>
<circle cx="550.0" cy="137.8" r="3.2" fill="#fbbf24"/>
<circle cx="614.0" cy="129.0" r="3.2" fill="#fbbf24"/>
<circle cx="678.0" cy="191.5" r="3.2" fill="#fbbf24"/>
<text x="70" y="436" fill="#3b82f6" font-size="11">매출 (좌, $B)</text>
<text x="710" y="436" fill="#fbbf24" font-size="11" text-anchor="end">OPM (우, %)</text>
</svg>
