<svg xmlns="http://www.w3.org/2000/svg" viewBox="0 0 780 450" font-family="Malgun Gothic, 'Apple SD Gothic Neo', sans-serif">
<rect width="780" height="450" fill="#0a0e1a"/>
<text x="70" y="34" fill="#e2e8f0" font-size="20" font-weight="700">순이익 — 마진 압박이 그대로 전달</text>
<text x="70" y="54" fill="#94a3b8" font-size="12.5">2016~2025 ($B)</text>
<line x1="70" y1="394.0" x2="710" y2="394.0" stroke="#1e293b" stroke-width="1"/>
<text x="62" y="398.0" fill="#94a3b8" font-size="11" text-anchor="end">0.00</text>
<line x1="70" y1="311.5" x2="710" y2="311.5" stroke="#1e293b" stroke-width="1"/>
<text x="62" y="315.5" fill="#94a3b8" font-size="11" text-anchor="end">0.76</text>
<line x1="70" y1="229.0" x2="710" y2="229.0" stroke="#1e293b" stroke-width="1"/>
<text x="62" y="233.0" fill="#94a3b8" font-size="11" text-anchor="end">1.51</text>
<line x1="70" y1="146.5" x2="710" y2="146.5" stroke="#1e293b" stroke-width="1"/>
<text x="62" y="150.5" fill="#94a3b8" font-size="11" text-anchor="end">2.27</text>
<line x1="70" y1="64.0" x2="710" y2="64.0" stroke="#1e293b" stroke-width="1"/>
<text x="62" y="68.0" fill="#94a3b8" font-size="11" text-anchor="end">3.02</text>
<text x="102.0" y="414" fill="#94a3b8" font-size="11" text-anchor="middle">2016</text>
<text x="166.0" y="414" fill="#94a3b8" font-size="11" text-anchor="middle">2017</text>
<text x="230.0" y="414" fill="#94a3b8" font-size="11" text-anchor="middle">2018</text>
<text x="294.0" y="414" fill="#94a3b8" font-size="11" text-anchor="middle">2019</text>
<text x="358.0" y="414" fill="#94a3b8" font-size="11" text-anchor="middle">2020</text>
<text x="422.0" y="414" fill="#94a3b8" font-size="11" text-anchor="middle">2021</text>
<text x="486.0" y="414" fill="#94a3b8" font-size="11" text-anchor="middle">2022</text>
<text x="550.0" y="414" fill="#94a3b8" font-size="11" text-anchor="middle">2023</text>
<text x="614.0" y="414" fill="#94a3b8" font-size="11" text-anchor="middle">2024</text>
<text x="678.0" y="414" fill="#94a3b8" font-size="11" text-anchor="middle">2025</text>
<polyline points="102.0,120.0 166.0,157.1 230.0,132.0 294.0,135.3 358.0,100.4 422.0,157.1 486.0,199.7 550.0,142.9 614.0,78.5 678.0,161.5" fill="none" stroke="#22c55e" stroke-width="3" stroke-linejoin="round"/>
<circle cx="102.0" cy="120.0" r="3.5" fill="#22c55e"/>
<circle cx="166.0" cy="157.1" r="3.5" fill="#22c55e"/>
<circle cx="230.0" cy="132.0" r="3.5" fill="#22c55e"/>
<circle cx="294.0" cy="135.3" r="3.5" fill="#22c55e"/>
<circle cx="358.0" cy="100.4" r="3.5" fill="#22c55e"/>
<circle cx="422.0" cy="157.1" r="3.5" fill="#22c55e"/>
<circle cx="486.0" cy="199.7" r="3.5" fill="#22c55e"/>
<circle cx="550.0" cy="142.9" r="3.5" fill="#22c55e"/>
<circle cx="614.0" cy="78.5" r="3.5" fill="#22c55e"/>
<circle cx="678.0" cy="161.5" r="3.5" fill="#22c55e"/>
<text x="678.0" y="151.5" fill="#22c55e" font-size="11" font-weight="700" text-anchor="end">2.13</text>
<text x="70" y="436" fill="#94a3b8" font-size="11">단위: $B</text>
</svg>
