<svg xmlns="http://www.w3.org/2000/svg" viewBox="0 0 780 450" font-family="Malgun Gothic, 'Apple SD Gothic Neo', sans-serif">
<rect width="780" height="450" fill="#0a0e1a"/>
<text x="70" y="34" fill="#e2e8f0" font-size="20" font-weight="700">영업이익률 — 두 번의 압박(2022·2025)</text>
<text x="70" y="54" fill="#94a3b8" font-size="12.5">2019~2025 (%)</text>
<line x1="70" y1="394.0" x2="710" y2="394.0" stroke="#1e293b" stroke-width="1"/>
<text x="62" y="398.0" fill="#94a3b8" font-size="11" text-anchor="end">0.0</text>
<line x1="70" y1="311.5" x2="710" y2="311.5" stroke="#1e293b" stroke-width="1"/>
<text x="62" y="315.5" fill="#94a3b8" font-size="11" text-anchor="end">4.9</text>
<line x1="70" y1="229.0" x2="710" y2="229.0" stroke="#1e293b" stroke-width="1"/>
<text x="62" y="233.0" fill="#94a3b8" font-size="11" text-anchor="end">9.7</text>
<line x1="70" y1="146.5" x2="710" y2="146.5" stroke="#1e293b" stroke-width="1"/>
<text x="62" y="150.5" fill="#94a3b8" font-size="11" text-anchor="end">14.6</text>
<line x1="70" y1="64.0" x2="710" y2="64.0" stroke="#1e293b" stroke-width="1"/>
<text x="62" y="68.0" fill="#94a3b8" font-size="11" text-anchor="end">19.5</text>
<text x="115.7" y="414" fill="#94a3b8" font-size="11" text-anchor="middle">2019</text>
<text x="207.1" y="414" fill="#94a3b8" font-size="11" text-anchor="middle">2020</text>
<text x="298.6" y="414" fill="#94a3b8" font-size="11" text-anchor="middle">2021</text>
<text x="390.0" y="414" fill="#94a3b8" font-size="11" text-anchor="middle">2022</text>
<text x="481.4" y="414" fill="#94a3b8" font-size="11" text-anchor="middle">2023</text>
<text x="572.9" y="414" fill="#94a3b8" font-size="11" text-anchor="middle">2024</text>
<text x="664.3" y="414" fill="#94a3b8" font-size="11" text-anchor="middle">2025</text>
<rect x="87.4" y="143.4" width="56.7" height="250.6" rx="2" fill="#22c55e"/>
<text x="115.7" y="137.4" fill="#e2e8f0" font-size="10.5" text-anchor="middle">14.8</text>
<rect x="178.8" y="148.5" width="56.7" height="245.5" rx="2" fill="#22c55e"/>
<text x="207.1" y="142.5" fill="#e2e8f0" font-size="10.5" text-anchor="middle">14.5</text>
<rect x="270.2" y="119.7" width="56.7" height="274.3" rx="2" fill="#22c55e"/>
<text x="298.6" y="113.7" fill="#e2e8f0" font-size="10.5" text-anchor="middle">16.2</text>
<rect x="361.7" y="204.3" width="56.7" height="189.7" rx="2" fill="#ef4444"/>
<text x="390.0" y="198.3" fill="#e2e8f0" font-size="10.5" text-anchor="middle">11.2</text>
<rect x="453.1" y="134.9" width="56.7" height="259.1" rx="2" fill="#22c55e"/>
<text x="481.4" y="128.9" fill="#e2e8f0" font-size="10.5" text-anchor="middle">15.3</text>
<rect x="544.5" y="99.4" width="56.7" height="294.6" rx="2" fill="#22c55e"/>
<text x="572.9" y="93.4" fill="#e2e8f0" font-size="10.5" text-anchor="middle">17.4</text>
<rect x="635.9" y="238.2" width="56.7" height="155.8" rx="2" fill="#ef4444"/>
<text x="664.3" y="232.2" fill="#e2e8f0" font-size="10.5" text-anchor="middle">9.2</text>
<text x="70" y="436" fill="#94a3b8" font-size="11">단위: %</text>
</svg>
