<svg xmlns="http://www.w3.org/2000/svg" viewBox="0 0 780 450" font-family="Malgun Gothic, 'Apple SD Gothic Neo', sans-serif">
<rect width="780" height="450" fill="#0a0e1a"/>
<text x="70" y="34" fill="#e2e8f0" font-size="20" font-weight="700">매출(상승)과 영업이익률(2025 붕괴)</text>
<text x="70" y="54" fill="#94a3b8" font-size="12.5">막대=매출($B), 선=OPM(%), 2019~2025</text>
<line x1="70" y1="394.0" x2="710" y2="394.0" stroke="#1e293b" stroke-width="1"/>
<text x="62" y="398.0" fill="#94a3b8" font-size="10.5" text-anchor="end">0</text>
<line x1="70" y1="311.5" x2="710" y2="311.5" stroke="#1e293b" stroke-width="1"/>
<text x="62" y="315.5" fill="#94a3b8" font-size="10.5" text-anchor="end">11</text>
<line x1="70" y1="229.0" x2="710" y2="229.0" stroke="#1e293b" stroke-width="1"/>
<text x="62" y="233.0" fill="#94a3b8" font-size="10.5" text-anchor="end">22</text>
<line x1="70" y1="146.5" x2="710" y2="146.5" stroke="#1e293b" stroke-width="1"/>
<text x="62" y="150.5" fill="#94a3b8" font-size="10.5" text-anchor="end">32</text>
<line x1="70" y1="64.0" x2="710" y2="64.0" stroke="#1e293b" stroke-width="1"/>
<text x="62" y="68.0" fill="#94a3b8" font-size="10.5" text-anchor="end">43</text>
<text x="718" y="398.0" fill="#fbbf24" font-size="10.5" text-anchor="start">0</text>
<text x="718" y="315.5" fill="#fbbf24" font-size="10.5" text-anchor="start">5</text>
<text x="718" y="233.0" fill="#fbbf24" font-size="10.5" text-anchor="start">9</text>
<text x="718" y="150.5" fill="#fbbf24" font-size="10.5" text-anchor="start">14</text>
<text x="718" y="68.0" fill="#fbbf24" font-size="10.5" text-anchor="start">18</text>
<text x="115.7" y="414" fill="#94a3b8" font-size="11" text-anchor="middle">2019</text>
<text x="207.1" y="414" fill="#94a3b8" font-size="11" text-anchor="middle">2020</text>
<text x="298.6" y="414" fill="#94a3b8" font-size="11" text-anchor="middle">2021</text>
<text x="390.0" y="414" fill="#94a3b8" font-size="11" text-anchor="middle">2022</text>
<text x="481.4" y="414" fill="#94a3b8" font-size="11" text-anchor="middle">2023</text>
<text x="572.9" y="414" fill="#94a3b8" font-size="11" text-anchor="middle">2024</text>
<text x="664.3" y="414" fill="#94a3b8" font-size="11" text-anchor="middle">2025</text>
<rect x="615" y="34" width="12" height="12" rx="2" fill="#3b82f6"/>
<text x="632" y="44" fill="#94a3b8" font-size="11.5">매출</text>
<rect x="659" y="34" width="12" height="12" rx="2" fill="#fbbf24"/>
<text x="676" y="44" fill="#94a3b8" font-size="11.5">OPM</text>
<rect x="92.9" y="196.2" width="45.7" height="197.8" rx="2" fill="#3b82f6" opacity="0.85"/>
<rect x="184.3" y="190.8" width="45.7" height="203.2" rx="2" fill="#3b82f6" opacity="0.85"/>
<rect x="275.7" y="174.4" width="45.7" height="219.6" rx="2" fill="#3b82f6" opacity="0.85"/>
<rect x="367.1" y="153.2" width="45.7" height="240.8" rx="2" fill="#3b82f6" opacity="0.85"/>
<rect x="458.6" y="118.6" width="45.7" height="275.4" rx="2" fill="#3b82f6" opacity="0.85"/>
<rect x="550.0" y="115.4" width="45.7" height="278.6" rx="2" fill="#3b82f6" opacity="0.85"/>
<rect x="641.4" y="99.4" width="45.7" height="294.6" rx="2" fill="#3b82f6" opacity="0.85"/>
<polyline points="115.7,128.3 207.1,133.7 298.6,103.2 390.0,193.0 481.4,119.4 572.9,81.7 664.3,228.9" fill="none" stroke="#fbbf24" stroke-width="3" stroke-linejoin="round"/>
<circle cx="115.7" cy="128.3" r="3.2" fill="#fbbf24"/>
<circle cx="207.1" cy="133.7" r="3.2" fill="#fbbf24"/>
<circle cx="298.6" cy="103.2" r="3.2" fill="#fbbf24"/>
<circle cx="390.0" cy="193.0" r="3.2" fill="#fbbf24"/>
<circle cx="481.4" cy="119.4" r="3.2" fill="#fbbf24"/>
<circle cx="572.9" cy="81.7" r="3.2" fill="#fbbf24"/>
<circle cx="664.3" cy="228.9" r="3.2" fill="#fbbf24"/>
<text x="70" y="436" fill="#3b82f6" font-size="11">매출 (좌, $B)</text>
<text x="710" y="436" fill="#fbbf24" font-size="11" text-anchor="end">OPM (우, %)</text>
</svg>
