<svg xmlns="http://www.w3.org/2000/svg" viewBox="0 0 780 450" font-family="Malgun Gothic, 'Apple SD Gothic Neo', sans-serif">
<rect width="780" height="450" fill="#0a0e1a"/>
<text x="70" y="34" fill="#e2e8f0" font-size="20" font-weight="700">치폴레 영업이익률(OPM) — 2016년의 분화구</text>
<text x="70" y="54" fill="#94a3b8" font-size="12.5">2014~2025 (2018 제외, dartlab 실측)</text>
<line x1="70" y1="394.0" x2="710" y2="394.0" stroke="#1e293b" stroke-width="1"/>
<text x="62" y="398.0" fill="#94a3b8" font-size="11" text-anchor="end">0.0</text>
<line x1="70" y1="311.5" x2="710" y2="311.5" stroke="#1e293b" stroke-width="1"/>
<text x="62" y="315.5" fill="#94a3b8" font-size="11" text-anchor="end">4.8</text>
<line x1="70" y1="229.0" x2="710" y2="229.0" stroke="#1e293b" stroke-width="1"/>
<text x="62" y="233.0" fill="#94a3b8" font-size="11" text-anchor="end">9.6</text>
<line x1="70" y1="146.5" x2="710" y2="146.5" stroke="#1e293b" stroke-width="1"/>
<text x="62" y="150.5" fill="#94a3b8" font-size="11" text-anchor="end">14.5</text>
<line x1="70" y1="64.0" x2="710" y2="64.0" stroke="#1e293b" stroke-width="1"/>
<text x="62" y="68.0" fill="#94a3b8" font-size="11" text-anchor="end">19.3</text>
<text x="99.1" y="414" fill="#94a3b8" font-size="11" text-anchor="middle">2014</text>
<text x="157.3" y="414" fill="#94a3b8" font-size="11" text-anchor="middle">2015</text>
<text x="215.5" y="414" fill="#94a3b8" font-size="11" text-anchor="middle">2016</text>
<text x="273.6" y="414" fill="#94a3b8" font-size="11" text-anchor="middle">2017</text>
<text x="331.8" y="414" fill="#94a3b8" font-size="11" text-anchor="middle">2019</text>
<text x="390.0" y="414" fill="#94a3b8" font-size="11" text-anchor="middle">2020</text>
<text x="448.2" y="414" fill="#94a3b8" font-size="11" text-anchor="middle">2021</text>
<text x="506.4" y="414" fill="#94a3b8" font-size="11" text-anchor="middle">2022</text>
<text x="564.5" y="414" fill="#94a3b8" font-size="11" text-anchor="middle">2023</text>
<text x="622.7" y="414" fill="#94a3b8" font-size="11" text-anchor="middle">2024</text>
<text x="680.9" y="414" fill="#94a3b8" font-size="11" text-anchor="middle">2025</text>
<polyline points="99.1,97.9 157.3,104.7 215.5,380.3 273.6,291.3 331.8,258.8 390.0,311.8 448.2,212.6 506.4,164.6 564.5,123.6 622.7,103.0 680.9,115.0" fill="none" stroke="#fbbf24" stroke-width="3" stroke-linejoin="round"/>
<circle cx="99.1" cy="97.9" r="3.5" fill="#fbbf24"/>
<circle cx="157.3" cy="104.7" r="3.5" fill="#fbbf24"/>
<circle cx="215.5" cy="380.3" r="3.5" fill="#fbbf24"/>
<circle cx="273.6" cy="291.3" r="3.5" fill="#fbbf24"/>
<circle cx="331.8" cy="258.8" r="3.5" fill="#fbbf24"/>
<circle cx="390.0" cy="311.8" r="3.5" fill="#fbbf24"/>
<circle cx="448.2" cy="212.6" r="3.5" fill="#fbbf24"/>
<circle cx="506.4" cy="164.6" r="3.5" fill="#fbbf24"/>
<circle cx="564.5" cy="123.6" r="3.5" fill="#fbbf24"/>
<circle cx="622.7" cy="103.0" r="3.5" fill="#fbbf24"/>
<circle cx="680.9" cy="115.0" r="3.5" fill="#fbbf24"/>
<text x="680.9" y="105.0" fill="#fbbf24" font-size="11" font-weight="700" text-anchor="end">16.3</text>
<text x="70" y="436" fill="#94a3b8" font-size="11">단위: % (영업이익/매출)</text>
</svg>
