<svg xmlns="http://www.w3.org/2000/svg" viewBox="0 0 780 450" font-family="Malgun Gothic, 'Apple SD Gothic Neo', sans-serif">
<rect width="780" height="450" fill="#0a0e1a"/>
<text x="70" y="34" fill="#e2e8f0" font-size="20" font-weight="700">영업현금흐름 vs 순이익 — 동반 성장</text>
<text x="70" y="54" fill="#94a3b8" font-size="12.5">2019~2025 ($B)</text>
<line x1="70" y1="394.0" x2="710" y2="394.0" stroke="#1e293b" stroke-width="1"/>
<text x="62" y="398.0" fill="#94a3b8" font-size="11" text-anchor="end">0.00</text>
<line x1="70" y1="311.5" x2="710" y2="311.5" stroke="#1e293b" stroke-width="1"/>
<text x="62" y="315.5" fill="#94a3b8" font-size="11" text-anchor="end">0.58</text>
<line x1="70" y1="229.0" x2="710" y2="229.0" stroke="#1e293b" stroke-width="1"/>
<text x="62" y="233.0" fill="#94a3b8" font-size="11" text-anchor="end">1.16</text>
<line x1="70" y1="146.5" x2="710" y2="146.5" stroke="#1e293b" stroke-width="1"/>
<text x="62" y="150.5" fill="#94a3b8" font-size="11" text-anchor="end">1.74</text>
<line x1="70" y1="64.0" x2="710" y2="64.0" stroke="#1e293b" stroke-width="1"/>
<text x="62" y="68.0" fill="#94a3b8" font-size="11" text-anchor="end">2.32</text>
<text x="115.7" y="414" fill="#94a3b8" font-size="11" text-anchor="middle">2019</text>
<text x="207.1" y="414" fill="#94a3b8" font-size="11" text-anchor="middle">2020</text>
<text x="298.6" y="414" fill="#94a3b8" font-size="11" text-anchor="middle">2021</text>
<text x="390.0" y="414" fill="#94a3b8" font-size="11" text-anchor="middle">2022</text>
<text x="481.4" y="414" fill="#94a3b8" font-size="11" text-anchor="middle">2023</text>
<text x="572.9" y="414" fill="#94a3b8" font-size="11" text-anchor="middle">2024</text>
<text x="664.3" y="414" fill="#94a3b8" font-size="11" text-anchor="middle">2025</text>
<rect x="587" y="34" width="12" height="12" rx="2" fill="#3b82f6"/>
<text x="604" y="44" fill="#94a3b8" font-size="11.5">영업현금흐름</text>
<rect x="659" y="34" width="12" height="12" rx="2" fill="#fbbf24"/>
<text x="676" y="44" fill="#94a3b8" font-size="11.5">순이익</text>
<polyline points="115.7,291.6 207.1,300.2 298.6,212.0 390.0,206.3 481.4,140.9 572.9,94.0 664.3,94.0" fill="none" stroke="#3b82f6" stroke-width="3" stroke-linejoin="round"/>
<circle cx="115.7" cy="291.6" r="3.5" fill="#3b82f6"/>
<circle cx="207.1" cy="300.2" r="3.5" fill="#3b82f6"/>
<circle cx="298.6" cy="212.0" r="3.5" fill="#3b82f6"/>
<circle cx="390.0" cy="206.3" r="3.5" fill="#3b82f6"/>
<circle cx="481.4" cy="140.9" r="3.5" fill="#3b82f6"/>
<circle cx="572.9" cy="94.0" r="3.5" fill="#3b82f6"/>
<circle cx="664.3" cy="94.0" r="3.5" fill="#3b82f6"/>
<text x="664.3" y="84.0" fill="#3b82f6" font-size="11" font-weight="700" text-anchor="end">2.11</text>
<polyline points="115.7,344.2 207.1,342.8 298.6,301.6 390.0,266.0 481.4,219.1 572.9,176.5 664.3,175.1" fill="none" stroke="#fbbf24" stroke-width="3" stroke-linejoin="round"/>
<circle cx="115.7" cy="344.2" r="3.5" fill="#fbbf24"/>
<circle cx="207.1" cy="342.8" r="3.5" fill="#fbbf24"/>
<circle cx="298.6" cy="301.6" r="3.5" fill="#fbbf24"/>
<circle cx="390.0" cy="266.0" r="3.5" fill="#fbbf24"/>
<circle cx="481.4" cy="219.1" r="3.5" fill="#fbbf24"/>
<circle cx="572.9" cy="176.5" r="3.5" fill="#fbbf24"/>
<circle cx="664.3" cy="175.1" r="3.5" fill="#fbbf24"/>
<text x="664.3" y="165.1" fill="#fbbf24" font-size="11" font-weight="700" text-anchor="end">1.54</text>
<text x="70" y="436" fill="#94a3b8" font-size="11">단위: $B</text>
</svg>
