<svg xmlns="http://www.w3.org/2000/svg" viewBox="0 0 780 450" font-family="Malgun Gothic, 'Apple SD Gothic Neo', sans-serif">
<rect width="780" height="450" fill="#0a0e1a"/>
<text x="70" y="34" fill="#e2e8f0" font-size="20" font-weight="700">매출과 영업이익 — 2016년 영업이익 붕괴</text>
<text x="70" y="54" fill="#94a3b8" font-size="12.5">막대=매출, 선=영업이익 ($B, 2015~2025)</text>
<line x1="70" y1="394.0" x2="710" y2="394.0" stroke="#1e293b" stroke-width="1"/>
<text x="62" y="398.0" fill="#94a3b8" font-size="10.5" text-anchor="end">0</text>
<line x1="70" y1="311.5" x2="710" y2="311.5" stroke="#1e293b" stroke-width="1"/>
<text x="62" y="315.5" fill="#94a3b8" font-size="10.5" text-anchor="end">3</text>
<line x1="70" y1="229.0" x2="710" y2="229.0" stroke="#1e293b" stroke-width="1"/>
<text x="62" y="233.0" fill="#94a3b8" font-size="10.5" text-anchor="end">7</text>
<line x1="70" y1="146.5" x2="710" y2="146.5" stroke="#1e293b" stroke-width="1"/>
<text x="62" y="150.5" fill="#94a3b8" font-size="10.5" text-anchor="end">10</text>
<line x1="70" y1="64.0" x2="710" y2="64.0" stroke="#1e293b" stroke-width="1"/>
<text x="62" y="68.0" fill="#94a3b8" font-size="10.5" text-anchor="end">13</text>
<text x="718" y="398.0" fill="#22c55e" font-size="10.5" text-anchor="start">0</text>
<text x="718" y="315.5" fill="#22c55e" font-size="10.5" text-anchor="start">1</text>
<text x="718" y="233.0" fill="#22c55e" font-size="10.5" text-anchor="start">1</text>
<text x="718" y="150.5" fill="#22c55e" font-size="10.5" text-anchor="start">2</text>
<text x="718" y="68.0" fill="#22c55e" font-size="10.5" text-anchor="start">2</text>
<text x="102.0" y="414" fill="#94a3b8" font-size="11" text-anchor="middle">2015</text>
<text x="166.0" y="414" fill="#94a3b8" font-size="11" text-anchor="middle">2016</text>
<text x="230.0" y="414" fill="#94a3b8" font-size="11" text-anchor="middle">2017</text>
<text x="294.0" y="414" fill="#94a3b8" font-size="11" text-anchor="middle">2019</text>
<text x="358.0" y="414" fill="#94a3b8" font-size="11" text-anchor="middle">2020</text>
<text x="422.0" y="414" fill="#94a3b8" font-size="11" text-anchor="middle">2021</text>
<text x="486.0" y="414" fill="#94a3b8" font-size="11" text-anchor="middle">2022</text>
<text x="550.0" y="414" fill="#94a3b8" font-size="11" text-anchor="middle">2023</text>
<text x="614.0" y="414" fill="#94a3b8" font-size="11" text-anchor="middle">2024</text>
<text x="678.0" y="414" fill="#94a3b8" font-size="11" text-anchor="middle">2025</text>
<rect x="608" y="34" width="12" height="12" rx="2" fill="#3b82f6"/>
<text x="625" y="44" fill="#94a3b8" font-size="11.5">매출</text>
<rect x="652" y="34" width="12" height="12" rx="2" fill="#22c55e"/>
<text x="669" y="44" fill="#94a3b8" font-size="11.5">영업이익</text>
<rect x="86.0" y="282.9" width="32.0" height="111.1" rx="2" fill="#3b82f6" opacity="0.85"/>
<rect x="150.0" y="297.7" width="32.0" height="96.3" rx="2" fill="#3b82f6" opacity="0.85"/>
<rect x="214.0" y="283.4" width="32.0" height="110.6" rx="2" fill="#3b82f6" opacity="0.85"/>
<rect x="278.0" y="255.9" width="32.0" height="138.1" rx="2" fill="#3b82f6" opacity="0.85"/>
<rect x="342.0" y="246.3" width="32.0" height="147.7" rx="2" fill="#3b82f6" opacity="0.85"/>
<rect x="406.0" y="207.5" width="32.0" height="186.5" rx="2" fill="#3b82f6" opacity="0.85"/>
<rect x="470.0" y="180.9" width="32.0" height="213.1" rx="2" fill="#3b82f6" opacity="0.85"/>
<rect x="534.0" y="150.2" width="32.0" height="243.8" rx="2" fill="#3b82f6" opacity="0.85"/>
<rect x="598.0" y="114.7" width="32.0" height="279.3" rx="2" fill="#3b82f6" opacity="0.85"/>
<rect x="662.0" y="99.4" width="32.0" height="294.6" rx="2" fill="#3b82f6" opacity="0.85"/>
<polyline points="102.0,278.4 166.0,389.4 230.0,352.9 294.0,327.1 358.0,349.9 422.0,272.3 486.0,217.5 550.0,156.7 614.0,101.9 678.0,98.9" fill="none" stroke="#22c55e" stroke-width="3" stroke-linejoin="round"/>
<circle cx="102.0" cy="278.4" r="3.2" fill="#22c55e"/>
<circle cx="166.0" cy="389.4" r="3.2" fill="#22c55e"/>
<circle cx="230.0" cy="352.9" r="3.2" fill="#22c55e"/>
<circle cx="294.0" cy="327.1" r="3.2" fill="#22c55e"/>
<circle cx="358.0" cy="349.9" r="3.2" fill="#22c55e"/>
<circle cx="422.0" cy="272.3" r="3.2" fill="#22c55e"/>
<circle cx="486.0" cy="217.5" r="3.2" fill="#22c55e"/>
<circle cx="550.0" cy="156.7" r="3.2" fill="#22c55e"/>
<circle cx="614.0" cy="101.9" r="3.2" fill="#22c55e"/>
<circle cx="678.0" cy="98.9" r="3.2" fill="#22c55e"/>
<text x="70" y="436" fill="#3b82f6" font-size="11">매출 (좌, $B)</text>
<text x="710" y="436" fill="#22c55e" font-size="11" text-anchor="end">영업이익 (우, %)</text>
</svg>
