<svg xmlns="http://www.w3.org/2000/svg" viewBox="0 0 900 506" font-family="Pretendard, -apple-system, Segoe UI, sans-serif">
<rect width="900" height="506" fill="#0a0e1a"/>
<text x="40" y="46" fill="#e2e8f0" font-size="25" font-weight="700">영업이익은 천장인데 영업현금흐름은 그 3배 (IFRS16)</text>
<text x="40" y="74" fill="#64748b" font-size="15">OCF/OI 2018 약 1.8배 → 2024·25 약 3배 (리스 현금유출이 재무활동으로)</text>
<line x1="70" y1="410.0" x2="830" y2="410.0" stroke="#1e293b" stroke-width="1"/>
<text x="60" y="414.0" fill="#94a3b8" font-size="12" text-anchor="end">0.00</text>
<line x1="70" y1="350.0" x2="830" y2="350.0" stroke="#1e293b" stroke-width="1"/>
<text x="60" y="354.0" fill="#94a3b8" font-size="12" text-anchor="end">1,757</text>
<line x1="70" y1="290.0" x2="830" y2="290.0" stroke="#1e293b" stroke-width="1"/>
<text x="60" y="294.0" fill="#94a3b8" font-size="12" text-anchor="end">3,515</text>
<line x1="70" y1="230.0" x2="830" y2="230.0" stroke="#1e293b" stroke-width="1"/>
<text x="60" y="234.0" fill="#94a3b8" font-size="12" text-anchor="end">5,272</text>
<line x1="70" y1="170.0" x2="830" y2="170.0" stroke="#1e293b" stroke-width="1"/>
<text x="60" y="174.0" fill="#94a3b8" font-size="12" text-anchor="end">7,030</text>
<line x1="70" y1="110.0" x2="830" y2="110.0" stroke="#1e293b" stroke-width="1"/>
<text x="60" y="114.0" fill="#94a3b8" font-size="12" text-anchor="end">8,787</text>
<line x1="70" y1="410.0" x2="830" y2="410.0" stroke="#334155" stroke-width="1.5"/>
<rect x="88.5" y="345.3" width="31.8" height="64.7" rx="2" fill="#3b82f6" opacity="0.92"/>
<text x="104.4" y="339.3" fill="#94a3b8" font-size="10.5" text-anchor="middle">1,895</text>
<rect x="124.3" y="291.9" width="31.8" height="118.1" rx="2" fill="#a855f7" opacity="0.92"/>
<text x="140.2" y="285.9" fill="#94a3b8" font-size="10.5" text-anchor="middle">3,458</text>
<text x="124.3" y="432" fill="#94a3b8" font-size="13" text-anchor="middle">2018</text>
<rect x="197.0" y="354.6" width="31.8" height="55.4" rx="2" fill="#3b82f6" opacity="0.92"/>
<text x="212.9" y="348.6" fill="#94a3b8" font-size="10.5" text-anchor="middle">1,622</text>
<rect x="232.9" y="236.8" width="31.8" height="173.2" rx="2" fill="#a855f7" opacity="0.92"/>
<text x="248.8" y="230.8" fill="#94a3b8" font-size="10.5" text-anchor="middle">5,073</text>
<text x="232.9" y="432" fill="#94a3b8" font-size="13" text-anchor="middle">2020</text>
<rect x="305.6" y="341.9" width="31.8" height="68.1" rx="2" fill="#3b82f6" opacity="0.92"/>
<text x="321.5" y="335.9" fill="#94a3b8" font-size="10.5" text-anchor="middle">1,994</text>
<rect x="341.4" y="226.3" width="31.8" height="183.7" rx="2" fill="#a855f7" opacity="0.92"/>
<text x="357.3" y="220.3" fill="#94a3b8" font-size="10.5" text-anchor="middle">5,382</text>
<text x="341.4" y="432" fill="#94a3b8" font-size="13" text-anchor="middle">2021</text>
<rect x="414.2" y="323.8" width="31.8" height="86.2" rx="2" fill="#3b82f6" opacity="0.92"/>
<text x="430.1" y="317.8" fill="#94a3b8" font-size="10.5" text-anchor="middle">2,524</text>
<rect x="450.0" y="194.8" width="31.8" height="215.2" rx="2" fill="#a855f7" opacity="0.92"/>
<text x="465.9" y="188.8" fill="#94a3b8" font-size="10.5" text-anchor="middle">6,304</text>
<text x="450.0" y="432" fill="#94a3b8" font-size="13" text-anchor="middle">2022</text>
<rect x="522.7" y="323.6" width="31.8" height="86.4" rx="2" fill="#3b82f6" opacity="0.92"/>
<text x="538.7" y="317.6" fill="#94a3b8" font-size="10.5" text-anchor="middle">2,532</text>
<rect x="558.6" y="189.1" width="31.8" height="220.9" rx="2" fill="#a855f7" opacity="0.92"/>
<text x="574.5" y="183.1" fill="#94a3b8" font-size="10.5" text-anchor="middle">6,471</text>
<text x="558.6" y="432" fill="#94a3b8" font-size="13" text-anchor="middle">2023</text>
<rect x="631.3" y="324.1" width="31.8" height="85.9" rx="2" fill="#3b82f6" opacity="0.92"/>
<text x="647.2" y="318.1" fill="#94a3b8" font-size="10.5" text-anchor="middle">2,516</text>
<rect x="667.1" y="147.5" width="31.8" height="262.5" rx="2" fill="#a855f7" opacity="0.92"/>
<text x="683.1" y="141.5" fill="#94a3b8" font-size="10.5" text-anchor="middle">7,688</text>
<text x="667.1" y="432" fill="#94a3b8" font-size="13" text-anchor="middle">2024</text>
<rect x="739.9" y="323.3" width="31.8" height="86.7" rx="2" fill="#3b82f6" opacity="0.92"/>
<text x="755.8" y="317.3" fill="#94a3b8" font-size="10.5" text-anchor="middle">2,540</text>
<rect x="775.7" y="146.8" width="31.8" height="263.2" rx="2" fill="#a855f7" opacity="0.92"/>
<text x="791.6" y="140.8" fill="#94a3b8" font-size="10.5" text-anchor="middle">7,708</text>
<text x="775.7" y="432" fill="#94a3b8" font-size="13" text-anchor="middle">2025</text>
<rect x="70" y="473" width="13" height="13" rx="2" fill="#3b82f6"/>
<text x="89" y="484" fill="#94a3b8" font-size="13">영업이익</text>
<rect x="150" y="473" width="13" height="13" rx="2" fill="#a855f7"/>
<text x="169" y="484" fill="#94a3b8" font-size="13">영업현금흐름</text>
<text x="860" y="100" fill="#64748b" font-size="13" text-anchor="end">단위: 억원</text>
</svg>