<svg xmlns="http://www.w3.org/2000/svg" viewBox="0 0 900 506" font-family="Pretendard, -apple-system, Segoe UI, sans-serif">
<rect width="900" height="506" fill="#0a0e1a"/>
<text x="40" y="46" fill="#e2e8f0" font-size="25" font-weight="700">CU 순증 점포수: 출점 동력 둔화 (외부 인용)</text>
<text x="40" y="74" fill="#64748b" font-size="15">36년만 첫 점포 감소·점당 매출 -0.1% (외부)</text>
<line x1="70" y1="410.0" x2="830" y2="410.0" stroke="#1e293b" stroke-width="1"/>
<text x="60" y="414.0" fill="#94a3b8" font-size="12" text-anchor="end">-48.8</text>
<line x1="70" y1="350.0" x2="830" y2="350.0" stroke="#1e293b" stroke-width="1"/>
<text x="60" y="354.0" fill="#94a3b8" font-size="12" text-anchor="end">185</text>
<line x1="70" y1="290.0" x2="830" y2="290.0" stroke="#1e293b" stroke-width="1"/>
<text x="60" y="294.0" fill="#94a3b8" font-size="12" text-anchor="end">419</text>
<line x1="70" y1="230.0" x2="830" y2="230.0" stroke="#1e293b" stroke-width="1"/>
<text x="60" y="234.0" fill="#94a3b8" font-size="12" text-anchor="end">653</text>
<line x1="70" y1="170.0" x2="830" y2="170.0" stroke="#1e293b" stroke-width="1"/>
<text x="60" y="174.0" fill="#94a3b8" font-size="12" text-anchor="end">887</text>
<line x1="70" y1="110.0" x2="830" y2="110.0" stroke="#1e293b" stroke-width="1"/>
<text x="60" y="114.0" fill="#94a3b8" font-size="12" text-anchor="end">1,121</text>
<line x1="70" y1="397.5" x2="830" y2="397.5" stroke="#334155" stroke-width="1.5"/>
<path d="M70.0,147.5 L450.0,219.0 L830.0,332.6" fill="none" stroke="#ef4444" stroke-width="3"/>
<circle cx="70.0" cy="147.5" r="5" fill="#ef4444"/>
<text x="70.0" y="135.5" fill="#ef4444" font-size="13" font-weight="700" text-anchor="middle">975</text>
<text x="70.0" y="432" fill="#94a3b8" font-size="13" text-anchor="middle">2023</text>
<circle cx="450.0" cy="219.0" r="5" fill="#ef4444"/>
<text x="450.0" y="207.0" fill="#ef4444" font-size="13" font-weight="700" text-anchor="middle">696</text>
<text x="450.0" y="432" fill="#94a3b8" font-size="13" text-anchor="middle">2024</text>
<circle cx="830.0" cy="332.6" r="5" fill="#ef4444"/>
<text x="830.0" y="320.6" fill="#ef4444" font-size="13" font-weight="700" text-anchor="middle">253</text>
<text x="830.0" y="432" fill="#94a3b8" font-size="13" text-anchor="middle">2025</text>
<text x="860" y="100" fill="#64748b" font-size="13" text-anchor="end">단위: 개</text>
</svg>