<svg xmlns="http://www.w3.org/2000/svg" viewBox="0 0 900 506" font-family="Pretendard, -apple-system, Segoe UI, sans-serif">
<rect width="900" height="506" fill="#0a0e1a"/>
<text x="40" y="46" fill="#e2e8f0" font-size="25" font-weight="700">영업이익률(OPM): 2022년 이후 4년 연속 완만 하락</text>
<text x="40" y="74" fill="#64748b" font-size="15">2022 3.31% → 2025 2.80% (분모가 분자보다 빨리 큼)</text>
<line x1="70" y1="410.0" x2="830" y2="410.0" stroke="#1e293b" stroke-width="1"/>
<text x="60" y="414.0" fill="#94a3b8" font-size="12" text-anchor="end">-0.17%</text>
<line x1="70" y1="350.0" x2="830" y2="350.0" stroke="#1e293b" stroke-width="1"/>
<text x="60" y="354.0" fill="#94a3b8" font-size="12" text-anchor="end">0.63%</text>
<line x1="70" y1="290.0" x2="830" y2="290.0" stroke="#1e293b" stroke-width="1"/>
<text x="60" y="294.0" fill="#94a3b8" font-size="12" text-anchor="end">1.42%</text>
<line x1="70" y1="230.0" x2="830" y2="230.0" stroke="#1e293b" stroke-width="1"/>
<text x="60" y="234.0" fill="#94a3b8" font-size="12" text-anchor="end">2.22%</text>
<line x1="70" y1="170.0" x2="830" y2="170.0" stroke="#1e293b" stroke-width="1"/>
<text x="60" y="174.0" fill="#94a3b8" font-size="12" text-anchor="end">3.01%</text>
<line x1="70" y1="110.0" x2="830" y2="110.0" stroke="#1e293b" stroke-width="1"/>
<text x="60" y="114.0" fill="#94a3b8" font-size="12" text-anchor="end">3.81%</text>
<line x1="70" y1="397.5" x2="830" y2="397.5" stroke="#334155" stroke-width="1.5"/>
<path d="M70.0,149.8 L178.6,147.5 L287.1,199.6 L395.7,175.4 L504.3,147.5 L612.9,164.1 L721.4,179.2 L830.0,186.0" fill="none" stroke="#f59e0b" stroke-width="3"/>
<circle cx="70.0" cy="149.8" r="5" fill="#f59e0b"/>
<text x="70.0" y="137.8" fill="#f59e0b" font-size="13" font-weight="700" text-anchor="middle">3.28%</text>
<text x="70.0" y="432" fill="#94a3b8" font-size="13" text-anchor="middle">2018</text>
<circle cx="178.6" cy="147.5" r="5" fill="#f59e0b"/>
<text x="178.6" y="135.5" fill="#f59e0b" font-size="13" font-weight="700" text-anchor="middle">3.31%</text>
<text x="178.6" y="432" fill="#94a3b8" font-size="13" text-anchor="middle">2019</text>
<circle cx="287.1" cy="199.6" r="5" fill="#f59e0b"/>
<text x="287.1" y="187.6" fill="#f59e0b" font-size="13" font-weight="700" text-anchor="middle">2.62%</text>
<text x="287.1" y="432" fill="#94a3b8" font-size="13" text-anchor="middle">2020</text>
<circle cx="395.7" cy="175.4" r="5" fill="#f59e0b"/>
<text x="395.7" y="163.4" fill="#f59e0b" font-size="13" font-weight="700" text-anchor="middle">2.94%</text>
<text x="395.7" y="432" fill="#94a3b8" font-size="13" text-anchor="middle">2021</text>
<circle cx="504.3" cy="147.5" r="5" fill="#f59e0b"/>
<text x="504.3" y="135.5" fill="#f59e0b" font-size="13" font-weight="700" text-anchor="middle">3.31%</text>
<text x="504.3" y="432" fill="#94a3b8" font-size="13" text-anchor="middle">2022</text>
<circle cx="612.9" cy="164.1" r="5" fill="#f59e0b"/>
<text x="612.9" y="152.1" fill="#f59e0b" font-size="13" font-weight="700" text-anchor="middle">3.09%</text>
<text x="612.9" y="432" fill="#94a3b8" font-size="13" text-anchor="middle">2023</text>
<circle cx="721.4" cy="179.2" r="5" fill="#f59e0b"/>
<text x="721.4" y="167.2" fill="#f59e0b" font-size="13" font-weight="700" text-anchor="middle">2.89%</text>
<text x="721.4" y="432" fill="#94a3b8" font-size="13" text-anchor="middle">2024</text>
<circle cx="830.0" cy="186.0" r="5" fill="#f59e0b"/>
<text x="830.0" y="174.0" fill="#f59e0b" font-size="13" font-weight="700" text-anchor="middle">2.80%</text>
<text x="830.0" y="432" fill="#94a3b8" font-size="13" text-anchor="middle">2025</text>
<text x="860" y="100" fill="#64748b" font-size="13" text-anchor="end">단위: %</text>
</svg>