<svg xmlns="http://www.w3.org/2000/svg" viewBox="0 0 900 506" font-family="Pretendard, -apple-system, Segoe UI, sans-serif">
<rect width="900" height="506" fill="#0a0e1a"/>
<text x="40" y="46" fill="#e2e8f0" font-size="25" font-weight="700">매출은 +57%, 영업이익은 2,500억 천장</text>
<text x="40" y="74" fill="#64748b" font-size="15">BGF리테일 연결 (분기 합산)</text>
<line x1="70" y1="410.0" x2="830" y2="410.0" stroke="#1e293b" stroke-width="1"/>
<text x="60" y="414.0" fill="#94a3b8" font-size="12" text-anchor="end">0.00</text>
<line x1="70" y1="350.0" x2="830" y2="350.0" stroke="#1e293b" stroke-width="1"/>
<text x="60" y="354.0" fill="#94a3b8" font-size="12" text-anchor="end">20,297</text>
<line x1="70" y1="290.0" x2="830" y2="290.0" stroke="#1e293b" stroke-width="1"/>
<text x="60" y="294.0" fill="#94a3b8" font-size="12" text-anchor="end">40,594</text>
<line x1="70" y1="230.0" x2="830" y2="230.0" stroke="#1e293b" stroke-width="1"/>
<text x="60" y="234.0" fill="#94a3b8" font-size="12" text-anchor="end">60,891</text>
<line x1="70" y1="170.0" x2="830" y2="170.0" stroke="#1e293b" stroke-width="1"/>
<text x="60" y="174.0" fill="#94a3b8" font-size="12" text-anchor="end">81,188</text>
<line x1="70" y1="110.0" x2="830" y2="110.0" stroke="#1e293b" stroke-width="1"/>
<text x="60" y="114.0" fill="#94a3b8" font-size="12" text-anchor="end">101,485</text>
<line x1="70" y1="410.0" x2="830" y2="410.0" stroke="#334155" stroke-width="1.5"/>
<rect x="94.5" y="404.4" width="42.0" height="5.6" rx="2" fill="#3b82f6" opacity="0.92"/>
<text x="115.5" y="398.4" fill="#94a3b8" font-size="11" text-anchor="middle">1,895</text>
<text x="117.5" y="432" fill="#94a3b8" font-size="13" text-anchor="middle">2018</text>
<rect x="189.5" y="404.2" width="42.0" height="5.8" rx="2" fill="#3b82f6" opacity="0.92"/>
<text x="210.5" y="398.2" fill="#94a3b8" font-size="11" text-anchor="middle">1,966</text>
<text x="212.5" y="432" fill="#94a3b8" font-size="13" text-anchor="middle">2019</text>
<rect x="284.5" y="405.2" width="42.0" height="4.8" rx="2" fill="#3b82f6" opacity="0.92"/>
<text x="305.5" y="399.2" fill="#94a3b8" font-size="11" text-anchor="middle">1,622</text>
<text x="307.5" y="432" fill="#94a3b8" font-size="13" text-anchor="middle">2020</text>
<rect x="379.5" y="404.1" width="42.0" height="5.9" rx="2" fill="#3b82f6" opacity="0.92"/>
<text x="400.5" y="398.1" fill="#94a3b8" font-size="11" text-anchor="middle">1,994</text>
<text x="402.5" y="432" fill="#94a3b8" font-size="13" text-anchor="middle">2021</text>
<rect x="474.5" y="402.5" width="42.0" height="7.5" rx="2" fill="#3b82f6" opacity="0.92"/>
<text x="495.5" y="396.5" fill="#94a3b8" font-size="11" text-anchor="middle">2,524</text>
<text x="497.5" y="432" fill="#94a3b8" font-size="13" text-anchor="middle">2022</text>
<rect x="569.5" y="402.5" width="42.0" height="7.5" rx="2" fill="#3b82f6" opacity="0.92"/>
<text x="590.5" y="396.5" fill="#94a3b8" font-size="11" text-anchor="middle">2,532</text>
<text x="592.5" y="432" fill="#94a3b8" font-size="13" text-anchor="middle">2023</text>
<rect x="664.5" y="402.6" width="42.0" height="7.4" rx="2" fill="#3b82f6" opacity="0.92"/>
<text x="685.5" y="396.6" fill="#94a3b8" font-size="11" text-anchor="middle">2,516</text>
<text x="687.5" y="432" fill="#94a3b8" font-size="13" text-anchor="middle">2024</text>
<rect x="759.5" y="402.5" width="42.0" height="7.5" rx="2" fill="#3b82f6" opacity="0.92"/>
<text x="780.5" y="396.5" fill="#94a3b8" font-size="11" text-anchor="middle">2,540</text>
<text x="782.5" y="432" fill="#94a3b8" font-size="13" text-anchor="middle">2025</text>
<path d="M117.5,239.3 L212.5,234.2 L307.5,227.3 L402.5,209.5 L497.5,184.9 L592.5,167.8 L687.5,152.9 L782.5,142.1" fill="none" stroke="#22c55e" stroke-width="3"/>
<circle cx="117.5" cy="239.3" r="4.5" fill="#22c55e"/>
<text x="117.5" y="228.3" fill="#22c55e" font-size="12" font-weight="700" text-anchor="middle">57,759</text>
<circle cx="212.5" cy="234.2" r="4.5" fill="#22c55e"/>
<text x="212.5" y="223.2" fill="#22c55e" font-size="12" font-weight="700" text-anchor="middle">59,461</text>
<circle cx="307.5" cy="227.3" r="4.5" fill="#22c55e"/>
<text x="307.5" y="216.3" fill="#22c55e" font-size="12" font-weight="700" text-anchor="middle">61,813</text>
<circle cx="402.5" cy="209.5" r="4.5" fill="#22c55e"/>
<text x="402.5" y="198.5" fill="#22c55e" font-size="12" font-weight="700" text-anchor="middle">67,812</text>
<circle cx="497.5" cy="184.9" r="4.5" fill="#22c55e"/>
<text x="497.5" y="173.9" fill="#22c55e" font-size="12" font-weight="700" text-anchor="middle">76,158</text>
<circle cx="592.5" cy="167.8" r="4.5" fill="#22c55e"/>
<text x="592.5" y="156.8" fill="#22c55e" font-size="12" font-weight="700" text-anchor="middle">81,948</text>
<circle cx="687.5" cy="152.9" r="4.5" fill="#22c55e"/>
<text x="687.5" y="141.9" fill="#22c55e" font-size="12" font-weight="700" text-anchor="middle">86,988</text>
<circle cx="782.5" cy="142.1" r="4.5" fill="#22c55e"/>
<text x="782.5" y="131.1" fill="#22c55e" font-size="12" font-weight="700" text-anchor="middle">90,612</text>
<rect x="70" y="473" width="13" height="13" rx="2" fill="#3b82f6"/>
<text x="89" y="484" fill="#94a3b8" font-size="13">영업이익</text>
<line x1="150" y1="479" x2="166" y2="479" stroke="#22c55e" stroke-width="3"/>
<text x="172" y="484" fill="#94a3b8" font-size="13">매출</text>
<text x="860" y="100" fill="#64748b" font-size="13" text-anchor="end">단위: 억원</text>
</svg>