<svg xmlns="http://www.w3.org/2000/svg" viewBox="0 0 780 450" font-family="Malgun Gothic, 'Apple SD Gothic Neo', sans-serif">
<rect width="780" height="450" fill="#0a0e1a"/>
<text x="70" y="34" fill="#e2e8f0" font-size="20" font-weight="700">영업현금흐름 — 배당의 재원으로 꾸준</text>
<text x="70" y="54" fill="#94a3b8" font-size="12.5">2016~2025 ($B)</text>
<line x1="70" y1="394.0" x2="710" y2="394.0" stroke="#1e293b" stroke-width="1"/>
<text x="62" y="398.0" fill="#94a3b8" font-size="11" text-anchor="end">0.0</text>
<line x1="70" y1="311.5" x2="710" y2="311.5" stroke="#1e293b" stroke-width="1"/>
<text x="62" y="315.5" fill="#94a3b8" font-size="11" text-anchor="end">2.6</text>
<line x1="70" y1="229.0" x2="710" y2="229.0" stroke="#1e293b" stroke-width="1"/>
<text x="62" y="233.0" fill="#94a3b8" font-size="11" text-anchor="end">5.2</text>
<line x1="70" y1="146.5" x2="710" y2="146.5" stroke="#1e293b" stroke-width="1"/>
<text x="62" y="150.5" fill="#94a3b8" font-size="11" text-anchor="end">7.8</text>
<line x1="70" y1="64.0" x2="710" y2="64.0" stroke="#1e293b" stroke-width="1"/>
<text x="62" y="68.0" fill="#94a3b8" font-size="11" text-anchor="end">10.4</text>
<text x="102.0" y="414" fill="#94a3b8" font-size="11" text-anchor="middle">2016</text>
<text x="166.0" y="414" fill="#94a3b8" font-size="11" text-anchor="middle">2017</text>
<text x="230.0" y="414" fill="#94a3b8" font-size="11" text-anchor="middle">2018</text>
<text x="294.0" y="414" fill="#94a3b8" font-size="11" text-anchor="middle">2019</text>
<text x="358.0" y="414" fill="#94a3b8" font-size="11" text-anchor="middle">2020</text>
<text x="422.0" y="414" fill="#94a3b8" font-size="11" text-anchor="middle">2021</text>
<text x="486.0" y="414" fill="#94a3b8" font-size="11" text-anchor="middle">2022</text>
<text x="550.0" y="414" fill="#94a3b8" font-size="11" text-anchor="middle">2023</text>
<text x="614.0" y="414" fill="#94a3b8" font-size="11" text-anchor="middle">2024</text>
<text x="678.0" y="414" fill="#94a3b8" font-size="11" text-anchor="middle">2025</text>
<rect x="82.2" y="273.8" width="39.7" height="120.2" rx="2" fill="#3b82f6"/>
<text x="102.0" y="267.8" fill="#e2e8f0" font-size="10.5" text-anchor="middle">3.8</text>
<rect x="146.2" y="238.0" width="39.7" height="156.0" rx="2" fill="#3b82f6"/>
<text x="166.0" y="232.0" fill="#e2e8f0" font-size="10.5" text-anchor="middle">4.9</text>
<rect x="210.2" y="127.9" width="39.7" height="266.1" rx="2" fill="#3b82f6"/>
<text x="230.0" y="121.9" fill="#e2e8f0" font-size="10.5" text-anchor="middle">8.4</text>
<rect x="274.2" y="145.3" width="39.7" height="248.7" rx="2" fill="#3b82f6"/>
<text x="294.0" y="139.3" fill="#e2e8f0" font-size="10.5" text-anchor="middle">7.8</text>
<rect x="338.2" y="128.2" width="39.7" height="265.8" rx="2" fill="#3b82f6"/>
<text x="358.0" y="122.2" fill="#e2e8f0" font-size="10.5" text-anchor="middle">8.4</text>
<rect x="402.2" y="127.6" width="39.7" height="266.4" rx="2" fill="#3b82f6"/>
<text x="422.0" y="121.6" fill="#e2e8f0" font-size="10.5" text-anchor="middle">8.4</text>
<rect x="466.2" y="132.0" width="39.7" height="262.0" rx="2" fill="#3b82f6"/>
<text x="486.0" y="126.0" fill="#e2e8f0" font-size="10.5" text-anchor="middle">8.3</text>
<rect x="530.2" y="99.4" width="39.7" height="294.6" rx="2" fill="#3b82f6"/>
<text x="550.0" y="93.4" fill="#e2e8f0" font-size="10.5" text-anchor="middle">9.3</text>
<rect x="594.2" y="116.5" width="39.7" height="277.5" rx="2" fill="#3b82f6"/>
<text x="614.0" y="110.5" fill="#e2e8f0" font-size="10.5" text-anchor="middle">8.8</text>
<rect x="658.2" y="99.4" width="39.7" height="294.6" rx="2" fill="#3b82f6"/>
<text x="678.0" y="93.4" fill="#e2e8f0" font-size="10.5" text-anchor="middle">9.3</text>
<text x="70" y="436" fill="#94a3b8" font-size="11">단위: $B</text>
</svg>
