<svg xmlns="http://www.w3.org/2000/svg" viewBox="0 0 780 450" font-family="Malgun Gothic, 'Apple SD Gothic Neo', sans-serif">
<rect width="780" height="450" fill="#0a0e1a"/>
<text x="70" y="34" fill="#e2e8f0" font-size="20" font-weight="700">매출(하락)과 영업이익률(상승) — 벌어지는 가위</text>
<text x="70" y="54" fill="#94a3b8" font-size="12.5">막대=매출($B), 선=OPM(%), 2016~2025</text>
<line x1="70" y1="394.0" x2="710" y2="394.0" stroke="#1e293b" stroke-width="1"/>
<text x="62" y="398.0" fill="#94a3b8" font-size="10.5" text-anchor="end">0</text>
<line x1="70" y1="311.5" x2="710" y2="311.5" stroke="#1e293b" stroke-width="1"/>
<text x="62" y="315.5" fill="#94a3b8" font-size="10.5" text-anchor="end">7</text>
<line x1="70" y1="229.0" x2="710" y2="229.0" stroke="#1e293b" stroke-width="1"/>
<text x="62" y="233.0" fill="#94a3b8" font-size="10.5" text-anchor="end">15</text>
<line x1="70" y1="146.5" x2="710" y2="146.5" stroke="#1e293b" stroke-width="1"/>
<text x="62" y="150.5" fill="#94a3b8" font-size="10.5" text-anchor="end">22</text>
<line x1="70" y1="64.0" x2="710" y2="64.0" stroke="#1e293b" stroke-width="1"/>
<text x="62" y="68.0" fill="#94a3b8" font-size="10.5" text-anchor="end">29</text>
<text x="718" y="398.0" fill="#fbbf24" font-size="10.5" text-anchor="start">0</text>
<text x="718" y="315.5" fill="#fbbf24" font-size="10.5" text-anchor="start">12</text>
<text x="718" y="233.0" fill="#fbbf24" font-size="10.5" text-anchor="start">25</text>
<text x="718" y="150.5" fill="#fbbf24" font-size="10.5" text-anchor="start">37</text>
<text x="718" y="68.0" fill="#fbbf24" font-size="10.5" text-anchor="start">49</text>
<text x="102.0" y="414" fill="#94a3b8" font-size="11" text-anchor="middle">2016</text>
<text x="166.0" y="414" fill="#94a3b8" font-size="11" text-anchor="middle">2017</text>
<text x="230.0" y="414" fill="#94a3b8" font-size="11" text-anchor="middle">2018</text>
<text x="294.0" y="414" fill="#94a3b8" font-size="11" text-anchor="middle">2019</text>
<text x="358.0" y="414" fill="#94a3b8" font-size="11" text-anchor="middle">2020</text>
<text x="422.0" y="414" fill="#94a3b8" font-size="11" text-anchor="middle">2021</text>
<text x="486.0" y="414" fill="#94a3b8" font-size="11" text-anchor="middle">2022</text>
<text x="550.0" y="414" fill="#94a3b8" font-size="11" text-anchor="middle">2023</text>
<text x="614.0" y="414" fill="#94a3b8" font-size="11" text-anchor="middle">2024</text>
<text x="678.0" y="414" fill="#94a3b8" font-size="11" text-anchor="middle">2025</text>
<rect x="615" y="34" width="12" height="12" rx="2" fill="#94a3b8"/>
<text x="632" y="44" fill="#94a3b8" font-size="11.5">매출</text>
<rect x="659" y="34" width="12" height="12" rx="2" fill="#fbbf24"/>
<text x="676" y="44" fill="#94a3b8" font-size="11.5">OPM</text>
<rect x="86.0" y="104.0" width="32.0" height="290.0" rx="2" fill="#94a3b8" opacity="0.85"/>
<rect x="150.0" y="105.8" width="32.0" height="288.2" rx="2" fill="#94a3b8" opacity="0.85"/>
<rect x="214.0" y="108.3" width="32.0" height="285.7" rx="2" fill="#94a3b8" opacity="0.85"/>
<rect x="278.0" y="111.1" width="32.0" height="282.9" rx="2" fill="#94a3b8" opacity="0.85"/>
<rect x="342.0" y="99.4" width="32.0" height="294.6" rx="2" fill="#94a3b8" opacity="0.85"/>
<rect x="406.0" y="100.9" width="32.0" height="293.1" rx="2" fill="#94a3b8" opacity="0.85"/>
<rect x="470.0" y="111.2" width="32.0" height="282.8" rx="2" fill="#94a3b8" opacity="0.85"/>
<rect x="534.0" y="118.2" width="32.0" height="275.8" rx="2" fill="#94a3b8" opacity="0.85"/>
<rect x="598.0" y="123.4" width="32.0" height="270.6" rx="2" fill="#94a3b8" opacity="0.85"/>
<rect x="662.0" y="131.7" width="32.0" height="262.3" rx="2" fill="#94a3b8" opacity="0.85"/>
<polyline points="102.0,165.6 166.0,142.7 230.0,152.1 294.0,117.9 358.0,114.5 422.0,95.7 486.0,74.9 550.0,76.9 614.0,79.6 678.0,108.5" fill="none" stroke="#fbbf24" stroke-width="3" stroke-linejoin="round"/>
<circle cx="102.0" cy="165.6" r="3.2" fill="#fbbf24"/>
<circle cx="166.0" cy="142.7" r="3.2" fill="#fbbf24"/>
<circle cx="230.0" cy="152.1" r="3.2" fill="#fbbf24"/>
<circle cx="294.0" cy="117.9" r="3.2" fill="#fbbf24"/>
<circle cx="358.0" cy="114.5" r="3.2" fill="#fbbf24"/>
<circle cx="422.0" cy="95.7" r="3.2" fill="#fbbf24"/>
<circle cx="486.0" cy="74.9" r="3.2" fill="#fbbf24"/>
<circle cx="550.0" cy="76.9" r="3.2" fill="#fbbf24"/>
<circle cx="614.0" cy="79.6" r="3.2" fill="#fbbf24"/>
<circle cx="678.0" cy="108.5" r="3.2" fill="#fbbf24"/>
<text x="70" y="436" fill="#94a3b8" font-size="11">매출 (좌, $B)</text>
<text x="710" y="436" fill="#fbbf24" font-size="11" text-anchor="end">OPM (우, %)</text>
</svg>
