<svg xmlns="http://www.w3.org/2000/svg" viewBox="0 0 780 450" font-family="Malgun Gothic, 'Apple SD Gothic Neo', sans-serif">
<rect width="780" height="450" fill="#0a0e1a"/>
<text x="70" y="34" fill="#e2e8f0" font-size="20" font-weight="700">순이익 — 일회성에 출렁(2019 JUUL 평가손)</text>
<text x="70" y="54" fill="#94a3b8" font-size="12.5">2016~2025 ($B)</text>
<line x1="70" y1="394.0" x2="710" y2="394.0" stroke="#1e293b" stroke-width="1"/>
<text x="62" y="398.0" fill="#94a3b8" font-size="11" text-anchor="end">-3.2</text>
<line x1="70" y1="311.5" x2="710" y2="311.5" stroke="#1e293b" stroke-width="1"/>
<text x="62" y="315.5" fill="#94a3b8" font-size="11" text-anchor="end">1.7</text>
<line x1="70" y1="229.0" x2="710" y2="229.0" stroke="#1e293b" stroke-width="1"/>
<text x="62" y="233.0" fill="#94a3b8" font-size="11" text-anchor="end">6.5</text>
<line x1="70" y1="146.5" x2="710" y2="146.5" stroke="#1e293b" stroke-width="1"/>
<text x="62" y="150.5" fill="#94a3b8" font-size="11" text-anchor="end">11.3</text>
<line x1="70" y1="64.0" x2="710" y2="64.0" stroke="#1e293b" stroke-width="1"/>
<text x="62" y="68.0" fill="#94a3b8" font-size="11" text-anchor="end">16.1</text>
<text x="102.0" y="414" fill="#94a3b8" font-size="11" text-anchor="middle">2016</text>
<text x="166.0" y="414" fill="#94a3b8" font-size="11" text-anchor="middle">2017</text>
<text x="230.0" y="414" fill="#94a3b8" font-size="11" text-anchor="middle">2018</text>
<text x="294.0" y="414" fill="#94a3b8" font-size="11" text-anchor="middle">2019</text>
<text x="358.0" y="414" fill="#94a3b8" font-size="11" text-anchor="middle">2020</text>
<text x="422.0" y="414" fill="#94a3b8" font-size="11" text-anchor="middle">2021</text>
<text x="486.0" y="414" fill="#94a3b8" font-size="11" text-anchor="middle">2022</text>
<text x="550.0" y="414" fill="#94a3b8" font-size="11" text-anchor="middle">2023</text>
<text x="614.0" y="414" fill="#94a3b8" font-size="11" text-anchor="middle">2024</text>
<text x="678.0" y="414" fill="#94a3b8" font-size="11" text-anchor="middle">2025</text>
<rect x="82.2" y="95.9" width="39.7" height="244.0" rx="2" fill="#22c55e"/>
<text x="102.0" y="89.9" fill="#e2e8f0" font-size="10.5" text-anchor="middle">14.2</text>
<rect x="146.2" y="164.8" width="39.7" height="175.1" rx="2" fill="#22c55e"/>
<text x="166.0" y="158.8" fill="#e2e8f0" font-size="10.5" text-anchor="middle">10.2</text>
<rect x="210.2" y="220.7" width="39.7" height="119.3" rx="2" fill="#22c55e"/>
<text x="230.0" y="214.7" fill="#e2e8f0" font-size="10.5" text-anchor="middle">7.0</text>
<rect x="274.2" y="340.0" width="39.7" height="22.1" rx="2" fill="#ef4444"/>
<text x="294.0" y="376.1" fill="#e2e8f0" font-size="10.5" text-anchor="middle">-1.3</text>
<rect x="338.2" y="263.4" width="39.7" height="76.6" rx="2" fill="#22c55e"/>
<text x="358.0" y="257.4" fill="#e2e8f0" font-size="10.5" text-anchor="middle">4.5</text>
<rect x="402.2" y="297.8" width="39.7" height="42.2" rx="2" fill="#22c55e"/>
<text x="422.0" y="291.8" fill="#e2e8f0" font-size="10.5" text-anchor="middle">2.5</text>
<rect x="466.2" y="241.4" width="39.7" height="98.5" rx="2" fill="#22c55e"/>
<text x="486.0" y="235.4" fill="#e2e8f0" font-size="10.5" text-anchor="middle">5.8</text>
<rect x="530.2" y="201.0" width="39.7" height="139.0" rx="2" fill="#22c55e"/>
<text x="550.0" y="195.0" fill="#e2e8f0" font-size="10.5" text-anchor="middle">8.1</text>
<rect x="594.2" y="147.3" width="39.7" height="192.6" rx="2" fill="#22c55e"/>
<text x="614.0" y="141.3" fill="#e2e8f0" font-size="10.5" text-anchor="middle">11.2</text>
<rect x="658.2" y="221.2" width="39.7" height="118.8" rx="2" fill="#22c55e"/>
<text x="678.0" y="215.2" fill="#e2e8f0" font-size="10.5" text-anchor="middle">6.9</text>
<text x="70" y="436" fill="#94a3b8" font-size="11">단위: $B</text>
</svg>
