<svg xmlns="http://www.w3.org/2000/svg" viewBox="0 0 1080 540" font-family="-apple-system, 'Segoe UI', sans-serif">
  <title>이익은 +177%, 현금은 +17% — 갈라진 두 선</title>
  <desc>2018을 100으로 지수화하면 영업이익은 277까지 오르는데 영업현금흐름은 117 부근에서 거의 수평이다.</desc>
  <rect width="1080" height="540" fill="#0a0e1a"/>
  <text x="540.0" y="50" fill="#f1f5f9" font-size="25" font-weight="700" text-anchor="middle">이익은 +177%, 현금은 +17% — 갈라진 두 선</text>
  <text x="540.0" y="82" fill="#64748b" font-size="15" text-anchor="middle">2018=100 지수. 영업이익은 가파르게 오르고 영업현금흐름은 거의 수평 (dartlab 연결)</text>
  <polyline points="150.0,431.4 272.9,390.3 395.7,346.0 518.6,270.7 641.4,303.3 764.3,210.8 887.1,187.5 1010.0,130.0" fill="none" stroke="#3b82f6" stroke-width="3" stroke-linejoin="round"/>
  <circle cx="150.0" cy="431.4" r="4" fill="#3b82f6"/>
  <circle cx="272.9" cy="390.3" r="4" fill="#3b82f6"/>
  <circle cx="395.7" cy="346.0" r="4" fill="#3b82f6"/>
  <circle cx="518.6" cy="270.7" r="4" fill="#3b82f6"/>
  <circle cx="641.4" cy="303.3" r="4" fill="#3b82f6"/>
  <circle cx="764.3" cy="210.8" r="4" fill="#3b82f6"/>
  <circle cx="887.1" cy="187.5" r="4" fill="#3b82f6"/>
  <circle cx="1010.0" cy="130.0" r="4" fill="#3b82f6"/>
  <text x="1020.0" y="135.0" fill="#3b82f6" font-size="14" font-weight="700">277</text>
  <text x="140.0" y="436.4" fill="#3b82f6" font-size="13" text-anchor="end">100</text>
  <polyline points="150.0,431.4 272.9,460.0 395.7,419.9 518.6,404.7 641.4,421.2 764.3,451.3 887.1,370.4 1010.0,402.2" fill="none" stroke="#f59e0b" stroke-width="3" stroke-linejoin="round"/>
  <circle cx="150.0" cy="431.4" r="4" fill="#f59e0b"/>
  <circle cx="272.9" cy="460.0" r="4" fill="#f59e0b"/>
  <circle cx="395.7" cy="419.9" r="4" fill="#f59e0b"/>
  <circle cx="518.6" cy="404.7" r="4" fill="#f59e0b"/>
  <circle cx="641.4" cy="421.2" r="4" fill="#f59e0b"/>
  <circle cx="764.3" cy="451.3" r="4" fill="#f59e0b"/>
  <circle cx="887.1" cy="370.4" r="4" fill="#f59e0b"/>
  <circle cx="1010.0" cy="402.2" r="4" fill="#f59e0b"/>
  <text x="1020.0" y="407.2" fill="#f59e0b" font-size="14" font-weight="700">117</text>
  <text x="140.0" y="436.4" fill="#f59e0b" font-size="13" text-anchor="end">100</text>
  <text x="150.0" y="500" fill="#64748b" font-size="12" text-anchor="middle">2018</text>
  <text x="272.9" y="500" fill="#64748b" font-size="12" text-anchor="middle">2019</text>
  <text x="395.7" y="500" fill="#64748b" font-size="12" text-anchor="middle">2020</text>
  <text x="518.6" y="500" fill="#64748b" font-size="12" text-anchor="middle">2021</text>
  <text x="641.4" y="500" fill="#64748b" font-size="12" text-anchor="middle">2022</text>
  <text x="764.3" y="500" fill="#64748b" font-size="12" text-anchor="middle">2023</text>
  <text x="887.1" y="500" fill="#64748b" font-size="12" text-anchor="middle">2024</text>
  <text x="1010.0" y="500" fill="#64748b" font-size="12" text-anchor="middle">2025</text>
  <rect x="150" y="100" width="14" height="11" rx="2" fill="#3b82f6"/><text x="170" y="110" fill="#94a3b8" font-size="13">영업이익(지수)</text>
  <rect x="360" y="100" width="14" height="11" rx="2" fill="#f59e0b"/><text x="380" y="110" fill="#94a3b8" font-size="13">영업CF(지수)</text>
</svg>
