<svg xmlns="http://www.w3.org/2000/svg" viewBox="0 0 1080 540" font-family="-apple-system, 'Segoe UI', sans-serif">
  <title>영업이익 1달러가 데려오는 현금 — 2.50→1.06</title>
  <desc>영업이익 1달러당 따라오는 영업현금이 2018년 2.50달러에서 2025년 1.06달러로 줄었다. 2023년만 1 미만(0.96).</desc>
  <rect width="1080" height="540" fill="#0a0e1a"/>
  <text x="540.0" y="50" fill="#f1f5f9" font-size="25" font-weight="700" text-anchor="middle">영업이익 1달러가 데려오는 현금 — 2.50→1.06</text>
  <text x="540.0" y="82" fill="#64748b" font-size="15" text-anchor="middle">OCF ÷ 영업이익. 2023년 딱 한 번 1 미만(0.96), 전 구간 추세는 우하향</text>
  <polyline points="150.0,170.0 272.9,329.7 395.7,310.3 518.6,366.8 641.4,362.9 764.3,470.0 887.1,384.3 1010.0,450.5" fill="none" stroke="#f59e0b" stroke-width="3" stroke-linejoin="round"/>
  <circle cx="150.0" cy="170.0" r="5" fill="#f59e0b"/>
  <text x="150.0" y="155.0" fill="#e2e8f0" font-size="13" font-weight="700" text-anchor="middle">2.50</text>
  <text x="150.0" y="510" fill="#64748b" font-size="13" text-anchor="middle">2018</text>
  <circle cx="272.9" cy="329.7" r="5" fill="#f59e0b"/>
  <text x="272.9" y="314.7" fill="#e2e8f0" font-size="13" font-weight="700" text-anchor="middle">1.68</text>
  <text x="272.9" y="510" fill="#64748b" font-size="13" text-anchor="middle">2019</text>
  <circle cx="395.7" cy="310.3" r="5" fill="#f59e0b"/>
  <text x="395.7" y="295.3" fill="#e2e8f0" font-size="13" font-weight="700" text-anchor="middle">1.78</text>
  <text x="395.7" y="510" fill="#64748b" font-size="13" text-anchor="middle">2020</text>
  <circle cx="518.6" cy="366.8" r="5" fill="#f59e0b"/>
  <text x="518.6" y="351.8" fill="#e2e8f0" font-size="13" font-weight="700" text-anchor="middle">1.49</text>
  <text x="518.6" y="510" fill="#64748b" font-size="13" text-anchor="middle">2021</text>
  <circle cx="641.4" cy="362.9" r="5" fill="#f59e0b"/>
  <text x="641.4" y="347.9" fill="#e2e8f0" font-size="13" font-weight="700" text-anchor="middle">1.51</text>
  <text x="641.4" y="510" fill="#64748b" font-size="13" text-anchor="middle">2022</text>
  <circle cx="764.3" cy="470.0" r="9" fill="#fbbf24"/>
  <text x="764.3" y="455.0" fill="#e2e8f0" font-size="13" font-weight="700" text-anchor="middle">0.96</text>
  <text x="764.3" y="510" fill="#64748b" font-size="13" text-anchor="middle">2023</text>
  <circle cx="887.1" cy="384.3" r="5" fill="#f59e0b"/>
  <text x="887.1" y="369.3" fill="#e2e8f0" font-size="13" font-weight="700" text-anchor="middle">1.40</text>
  <text x="887.1" y="510" fill="#64748b" font-size="13" text-anchor="middle">2024</text>
  <circle cx="1010.0" cy="450.5" r="5" fill="#f59e0b"/>
  <text x="1010.0" y="435.5" fill="#e2e8f0" font-size="13" font-weight="700" text-anchor="middle">1.06</text>
  <text x="1010.0" y="510" fill="#64748b" font-size="13" text-anchor="middle">2025</text>
</svg>
