<svg xmlns="http://www.w3.org/2000/svg" viewBox="0 0 1080 540" font-family="-apple-system, 'Segoe UI', sans-serif">
  <title>영업이익 vs 순이익 — 밑단의 출렁임</title>
  <desc>영업이익은 2022년만 후퇴하는 거의 단조 우상향인데 순이익은 2020 점프, 2023 반토막으로 더 크게 출렁인다.</desc>
  <rect width="1080" height="540" fill="#0a0e1a"/>
  <text x="540.0" y="50" fill="#f1f5f9" font-size="25" font-weight="700" text-anchor="middle">영업이익 vs 순이익 — 밑단의 출렁임</text>
  <text x="540.0" y="82" fill="#64748b" font-size="15" text-anchor="middle">영업이익은 2022년 한 해만 후퇴(거의 단조)인데 순이익은 2020 점프·2023 반토막으로 출렁인다 ($B)</text>
  <line x1="110" y1="300" x2="1010" y2="300" stroke="#64748b" stroke-width="1.5"/>
  <text x="1018" y="305" fill="#64748b" font-size="12">0</text>
  <rect x="120.0" y="224.2" width="28" height="75.8" rx="2.5" fill="#3b82f6" opacity="0.9"/>
  <text x="134.0" y="216.2" fill="#3b82f6" font-size="11" font-weight="700" text-anchor="middle">2.19</text>
  <rect x="152.0" y="228.7" width="28" height="71.3" rx="2.5" fill="#f59e0b" opacity="0.9"/>
  <text x="166.0" y="220.7" fill="#f59e0b" font-size="11" font-weight="700" text-anchor="middle">2.06</text>
  <text x="150.0" y="525" fill="#64748b" font-size="13" text-anchor="middle">2018</text>
  <rect x="242.9" y="205.9" width="28" height="94.1" rx="2.5" fill="#3b82f6" opacity="0.9"/>
  <text x="256.9" y="197.9" fill="#3b82f6" font-size="11" font-weight="700" text-anchor="middle">2.72</text>
  <rect x="274.9" y="214.9" width="28" height="85.1" rx="2.5" fill="#f59e0b" opacity="0.9"/>
  <text x="288.9" y="206.9" fill="#f59e0b" font-size="11" font-weight="700" text-anchor="middle">2.46</text>
  <text x="272.9" y="525" fill="#64748b" font-size="13" text-anchor="middle">2019</text>
  <rect x="365.7" y="186.2" width="28" height="113.8" rx="2.5" fill="#3b82f6" opacity="0.9"/>
  <text x="379.7" y="178.2" fill="#3b82f6" font-size="11" font-weight="700" text-anchor="middle">3.29</text>
  <rect x="397.7" y="154.7" width="28" height="145.3" rx="2.5" fill="#f59e0b" opacity="0.9"/>
  <text x="411.7" y="146.7" fill="#f59e0b" font-size="11" font-weight="700" text-anchor="middle">4.20</text>
  <text x="395.7" y="525" fill="#64748b" font-size="13" text-anchor="middle">2020</text>
  <rect x="488.6" y="152.6" width="28" height="147.4" rx="2.5" fill="#3b82f6" opacity="0.9"/>
  <text x="502.6" y="144.6" fill="#3b82f6" font-size="11" font-weight="700" text-anchor="middle">4.26</text>
  <rect x="520.6" y="155.7" width="28" height="144.3" rx="2.5" fill="#f59e0b" opacity="0.9"/>
  <text x="534.6" y="147.7" fill="#f59e0b" font-size="11" font-weight="700" text-anchor="middle">4.17</text>
  <text x="518.6" y="525" fill="#64748b" font-size="13" text-anchor="middle">2021</text>
  <rect x="611.4" y="167.1" width="28" height="132.9" rx="2.5" fill="#3b82f6" opacity="0.9"/>
  <text x="625.4" y="159.1" fill="#3b82f6" font-size="11" font-weight="700" text-anchor="middle">3.84</text>
  <rect x="643.4" y="216.3" width="28" height="83.7" rx="2.5" fill="#f59e0b" opacity="0.9"/>
  <text x="657.4" y="208.3" fill="#f59e0b" font-size="11" font-weight="700" text-anchor="middle">2.42</text>
  <text x="641.4" y="525" fill="#64748b" font-size="13" text-anchor="middle">2022</text>
  <rect x="734.3" y="126.0" width="28" height="174.0" rx="2.5" fill="#3b82f6" opacity="0.9"/>
  <text x="748.3" y="118.0" fill="#3b82f6" font-size="11" font-weight="700" text-anchor="middle">5.03</text>
  <rect x="766.3" y="153.0" width="28" height="147.0" rx="2.5" fill="#f59e0b" opacity="0.9"/>
  <text x="780.3" y="145.0" fill="#f59e0b" font-size="11" font-weight="700" text-anchor="middle">4.25</text>
  <text x="764.3" y="525" fill="#64748b" font-size="13" text-anchor="middle">2023</text>
  <rect x="857.1" y="115.6" width="28" height="184.4" rx="2.5" fill="#3b82f6" opacity="0.9"/>
  <text x="871.1" y="107.6" fill="#3b82f6" font-size="11" font-weight="700" text-anchor="middle">5.33</text>
  <rect x="889.1" y="156.4" width="28" height="143.6" rx="2.5" fill="#f59e0b" opacity="0.9"/>
  <text x="903.1" y="148.4" fill="#f59e0b" font-size="11" font-weight="700" text-anchor="middle">4.15</text>
  <text x="887.1" y="525" fill="#64748b" font-size="13" text-anchor="middle">2024</text>
  <rect x="980.0" y="90.0" width="28" height="210.0" rx="2.5" fill="#3b82f6" opacity="0.9"/>
  <text x="994.0" y="82.0" fill="#3b82f6" font-size="11" font-weight="700" text-anchor="middle">6.07</text>
  <rect x="1012.0" y="119.1" width="28" height="180.9" rx="2.5" fill="#f59e0b" opacity="0.9"/>
  <text x="1026.0" y="111.1" fill="#f59e0b" font-size="11" font-weight="700" text-anchor="middle">5.23</text>
  <text x="1010.0" y="525" fill="#64748b" font-size="13" text-anchor="middle">2025</text>
  <text x="641.4" y="118" fill="#fbbf24" font-size="14" font-weight="700" text-anchor="middle">2023 순이익 저점 2.42</text>
  <rect x="150" y="100" width="14" height="11" rx="2" fill="#3b82f6"/><text x="170" y="110" fill="#94a3b8" font-size="13">영업이익</text>
  <rect x="320" y="100" width="14" height="11" rx="2" fill="#f59e0b"/><text x="340" y="110" fill="#94a3b8" font-size="13">순이익</text>
</svg>
