<svg xmlns="http://www.w3.org/2000/svg" viewBox="0 0 1080 540" font-family="-apple-system, 'Segoe UI', sans-serif">
  <title>순이익 vs 영업현금흐름 — 서로 다른 박자</title>
  <desc>순이익과 영업현금흐름이 같은 박자로 안 움직인다. 순익 최소 2025년에 현금 최대, 이익 최대 2022년에 현금은 더 적다.</desc>
  <rect width="1080" height="540" fill="#0a0e1a"/>
  <text x="540.0" y="50" fill="#f1f5f9" font-size="25" font-weight="700" text-anchor="middle">순이익 vs 영업현금흐름 — 서로 다른 박자</text>
  <text x="540.0" y="82" fill="#64748b" font-size="15" text-anchor="middle">순익이 가장 적은 2025년(0.177조)에 현금은 가장 많고(3.942조), 이익 최대 2022년엔 현금이 더 적다 (조원)</text>
  <line x1="110" y1="300" x2="1010" y2="300" stroke="#64748b" stroke-width="1.5"/>
  <text x="1018" y="305" fill="#64748b" font-size="12">0</text>
  <rect x="120.0" y="290.2" width="28" height="9.8" rx="2.5" fill="#f59e0b" opacity="0.9"/>
  <text x="134.0" y="282.2" fill="#f59e0b" font-size="11" font-weight="700" text-anchor="middle">0.258</text>
  <rect x="152.0" y="300.0" width="28" height="39.8" rx="2.5" fill="#22c55e" opacity="0.9"/>
  <text x="166.0" y="356.8" fill="#22c55e" font-size="11" font-weight="700" text-anchor="middle">-0.288</text>
  <text x="150.0" y="525" fill="#64748b" font-size="13" text-anchor="middle">2018</text>
  <rect x="242.9" y="297.5" width="28" height="2.5" rx="2.5" fill="#f59e0b" opacity="0.9"/>
  <text x="256.9" y="289.5" fill="#f59e0b" font-size="11" font-weight="700" text-anchor="middle">0.065</text>
  <rect x="274.9" y="281.1" width="28" height="18.9" rx="2.5" fill="#22c55e" opacity="0.9"/>
  <text x="288.9" y="273.1" fill="#22c55e" font-size="11" font-weight="700" text-anchor="middle">0.497</text>
  <text x="272.9" y="525" fill="#64748b" font-size="13" text-anchor="middle">2019</text>
  <rect x="365.7" y="300.0" width="28" height="110.0" rx="2.5" fill="#f59e0b" opacity="0.9"/>
  <text x="379.7" y="427.0" fill="#f59e0b" font-size="11" font-weight="700" text-anchor="middle">-0.796</text>
  <rect x="397.7" y="237.9" width="28" height="62.1" rx="2.5" fill="#22c55e" opacity="0.9"/>
  <text x="411.7" y="229.9" fill="#22c55e" font-size="11" font-weight="700" text-anchor="middle">1.631</text>
  <text x="395.7" y="525" fill="#64748b" font-size="13" text-anchor="middle">2020</text>
  <rect x="488.6" y="247.5" width="28" height="52.5" rx="2.5" fill="#f59e0b" opacity="0.9"/>
  <text x="502.6" y="239.5" fill="#f59e0b" font-size="11" font-weight="700" text-anchor="middle">1.379</text>
  <rect x="520.6" y="243.8" width="28" height="56.2" rx="2.5" fill="#22c55e" opacity="0.9"/>
  <text x="534.6" y="235.8" fill="#22c55e" font-size="11" font-weight="700" text-anchor="middle">1.477</text>
  <text x="518.6" y="525" fill="#64748b" font-size="13" text-anchor="middle">2021</text>
  <rect x="611.4" y="219.9" width="28" height="80.1" rx="2.5" fill="#f59e0b" opacity="0.9"/>
  <text x="625.4" y="211.9" fill="#f59e0b" font-size="11" font-weight="700" text-anchor="middle">2.104</text>
  <rect x="643.4" y="251.3" width="28" height="48.7" rx="2.5" fill="#22c55e" opacity="0.9"/>
  <text x="657.4" y="243.3" fill="#22c55e" font-size="11" font-weight="700" text-anchor="middle">1.279</text>
  <text x="641.4" y="525" fill="#64748b" font-size="13" text-anchor="middle">2022</text>
  <rect x="734.3" y="263.9" width="28" height="36.1" rx="2.5" fill="#f59e0b" opacity="0.9"/>
  <text x="748.3" y="255.9" fill="#f59e0b" font-size="11" font-weight="700" text-anchor="middle">0.949</text>
  <rect x="766.3" y="203.9" width="28" height="96.1" rx="2.5" fill="#22c55e" opacity="0.9"/>
  <text x="780.3" y="195.9" fill="#22c55e" font-size="11" font-weight="700" text-anchor="middle">2.526</text>
  <text x="764.3" y="525" fill="#64748b" font-size="13" text-anchor="middle">2023</text>
  <rect x="857.1" y="300.0" width="28" height="26.7" rx="2.5" fill="#f59e0b" opacity="0.9"/>
  <text x="871.1" y="343.7" fill="#f59e0b" font-size="11" font-weight="700" text-anchor="middle">-0.193</text>
  <rect x="889.1" y="244.1" width="28" height="55.9" rx="2.5" fill="#22c55e" opacity="0.9"/>
  <text x="903.1" y="236.1" fill="#22c55e" font-size="11" font-weight="700" text-anchor="middle">1.468</text>
  <text x="887.1" y="525" fill="#64748b" font-size="13" text-anchor="middle">2024</text>
  <rect x="980.0" y="293.3" width="28" height="6.7" rx="2.5" fill="#f59e0b" opacity="0.9"/>
  <text x="994.0" y="285.3" fill="#f59e0b" font-size="11" font-weight="700" text-anchor="middle">0.177</text>
  <rect x="1012.0" y="150.0" width="28" height="150.0" rx="2.5" fill="#22c55e" opacity="0.9"/>
  <text x="1026.0" y="142.0" fill="#22c55e" font-size="11" font-weight="700" text-anchor="middle">3.942</text>
  <text x="1010.0" y="525" fill="#64748b" font-size="13" text-anchor="middle">2025</text>
  <text x="1010.0" y="118" fill="#fbbf24" font-size="14" font-weight="700" text-anchor="middle">2025: 순익 0.18조 vs 현금 3.94조</text>
  <rect x="150" y="100" width="14" height="11" rx="2" fill="#f59e0b"/><text x="170" y="110" fill="#94a3b8" font-size="13">순이익</text>
  <rect x="320" y="100" width="14" height="11" rx="2" fill="#22c55e"/><text x="340" y="110" fill="#94a3b8" font-size="13">영업CF</text>
</svg>
