<svg xmlns="http://www.w3.org/2000/svg" viewBox="0 0 1080 540" font-family="-apple-system, 'Segoe UI', sans-serif">
  <title>영업이익 8개년 — 흑자와 적자를 오가는 롤러코스터</title>
  <desc>영업이익이 2020년 −1.099조에서 2022년 +3.405조까지 부호까지 바꾸며 출렁인다.</desc>
  <rect width="1080" height="540" fill="#0a0e1a"/>
  <text x="540.0" y="50" fill="#f1f5f9" font-size="25" font-weight="700" text-anchor="middle">영업이익 8개년 — 흑자와 적자를 오가는 롤러코스터</text>
  <text x="540.0" y="82" fill="#64748b" font-size="15" text-anchor="middle">−1.099조(2020)에서 +3.405조(2022)까지 부호까지 출렁인다 (조원, dartlab 연결)</text>
  <line x1="110" y1="300" x2="1010" y2="300" stroke="#64748b" stroke-width="1.5"/>
  <text x="1018" y="305" fill="#64748b" font-size="12">0</text>
  <rect x="119.0" y="268.1" width="62" height="31.9" rx="3" fill="#3b82f6" opacity="0.85"/>
  <text x="150.0" y="258.1" fill="#e2e8f0" font-size="13" font-weight="700" text-anchor="middle">0.639</text>
  <text x="150.0" y="525" fill="#64748b" font-size="13" text-anchor="middle">2018</text>
  <rect x="241.9" y="279.0" width="62" height="21.0" rx="3" fill="#3b82f6" opacity="0.85"/>
  <text x="272.9" y="269.0" fill="#e2e8f0" font-size="13" font-weight="700" text-anchor="middle">0.420</text>
  <text x="272.9" y="525" fill="#64748b" font-size="13" text-anchor="middle">2019</text>
  <rect x="364.7" y="300.0" width="62" height="130.0" rx="3" fill="#ef4444" opacity="0.85"/>
  <text x="395.7" y="450.0" fill="#ef4444" font-size="13" font-weight="700" text-anchor="middle">-1.099</text>
  <text x="395.7" y="525" fill="#64748b" font-size="13" text-anchor="middle">2020</text>
  <rect x="487.6" y="193.1" width="62" height="106.9" rx="3" fill="#3b82f6" opacity="0.85"/>
  <text x="518.6" y="183.1" fill="#e2e8f0" font-size="13" font-weight="700" text-anchor="middle">2.141</text>
  <text x="518.6" y="525" fill="#64748b" font-size="13" text-anchor="middle">2021</text>
  <rect x="610.4" y="130.0" width="62" height="170.0" rx="3" fill="#3b82f6" opacity="0.85"/>
  <text x="641.4" y="120.0" fill="#e2e8f0" font-size="13" font-weight="700" text-anchor="middle">3.405</text>
  <text x="641.4" y="525" fill="#64748b" font-size="13" text-anchor="middle">2022</text>
  <rect x="733.3" y="232.3" width="62" height="67.7" rx="3" fill="#3b82f6" opacity="0.85"/>
  <text x="764.3" y="222.3" fill="#e2e8f0" font-size="13" font-weight="700" text-anchor="middle">1.355</text>
  <text x="764.3" y="525" fill="#64748b" font-size="13" text-anchor="middle">2023</text>
  <rect x="856.1" y="278.9" width="62" height="21.1" rx="3" fill="#3b82f6" opacity="0.85"/>
  <text x="887.1" y="268.9" fill="#e2e8f0" font-size="13" font-weight="700" text-anchor="middle">0.422</text>
  <text x="887.1" y="525" fill="#64748b" font-size="13" text-anchor="middle">2024</text>
  <rect x="979.0" y="288.2" width="62" height="11.8" rx="3" fill="#3b82f6" opacity="0.85"/>
  <text x="1010.0" y="278.2" fill="#e2e8f0" font-size="13" font-weight="700" text-anchor="middle">0.236</text>
  <text x="1010.0" y="525" fill="#64748b" font-size="13" text-anchor="middle">2025</text>
</svg>
