<svg xmlns="http://www.w3.org/2000/svg" viewBox="0 0 1080 720" font-family="-apple-system, 'Segoe UI', sans-serif">
  <title>LG디스플레이 — 2026년에 봐야 할 다섯 가지</title>
  <desc>패널 가격 사이클, 중소형 OLED 점유율, 매출 정체 탈출, 부채비율·자본, 8.6세대 IT OLED 투자 — 다음 1년 체크포인트.</desc>
  <rect width="1080" height="720" fill="#0a0e1a"/>
  <text x="540" y="58" fill="#f1f5f9" font-size="32" font-weight="700" text-anchor="middle">2026년에 봐야 할 다섯 가지</text>
  <text x="540" y="92" fill="#64748b" font-size="17" text-anchor="middle">흑자의 절반은 외생 가격 — 무엇이 바뀌면 이 이야기가 뒤집히는가</text>

  <g>
    <rect x="90" y="125" width="900" height="92" rx="10" fill="#11161f" stroke="#334155" stroke-width="1.5"/>
    <circle cx="135" cy="171" r="20" fill="#fbbf24"/><text x="135" y="178" fill="#0a0e1a" font-size="22" font-weight="700" text-anchor="middle">1</text>
    <text x="180" y="162" fill="#f1f5f9" font-size="21" font-weight="700">패널 가격 사이클</text>
    <text x="180" y="194" fill="#94a3b8" font-size="16">흑자의 절반은 외생 가격 — 단가가 꺾이면 흑자도 같이 꺾인다. 손익의 1번 변수</text>

    <rect x="90" y="229" width="900" height="92" rx="10" fill="#11161f" stroke="#334155" stroke-width="1.5"/>
    <circle cx="135" cy="275" r="20" fill="#fbbf24"/><text x="135" y="282" fill="#0a0e1a" font-size="22" font-weight="700" text-anchor="middle">2</text>
    <text x="180" y="266" fill="#f1f5f9" font-size="21" font-weight="700">중소형(스마트폰) OLED 점유율 회복</text>
    <text x="180" y="298" fill="#94a3b8" font-size="16">돈 되는 좌표 — 애플 OLED 물량에서 삼성·BOE 사이 점유율이 오르는지가 '좌표 이동' 신호</text>

    <rect x="90" y="333" width="900" height="92" rx="10" fill="#11161f" stroke="#334155" stroke-width="1.5"/>
    <circle cx="135" cy="379" r="20" fill="#fbbf24"/><text x="135" y="386" fill="#0a0e1a" font-size="22" font-weight="700" text-anchor="middle">3</text>
    <text x="180" y="370" fill="#f1f5f9" font-size="21" font-weight="700">매출의 정체 탈출 여부</text>
    <text x="180" y="402" fill="#94a3b8" font-size="16">25.8조가 정점(29.9조)을 다시 넘는가 — 덜어서 난 흑자가 키워서 나는 이익으로 바뀌는지</text>

    <rect x="90" y="437" width="900" height="92" rx="10" fill="#11161f" stroke="#334155" stroke-width="1.5"/>
    <circle cx="135" cy="483" r="20" fill="#fbbf24"/><text x="135" y="490" fill="#0a0e1a" font-size="22" font-weight="700" text-anchor="middle">4</text>
    <text x="180" y="474" fill="#f1f5f9" font-size="21" font-weight="700">부채비율·자본</text>
    <text x="180" y="506" fill="#94a3b8" font-size="16">부채비율 243%·자본 7.84조 — 추가 적자가 나면 자본이 더 줄어 안전판이 얇아진다</text>

    <rect x="90" y="541" width="900" height="92" rx="10" fill="#11161f" stroke="#334155" stroke-width="1.5"/>
    <circle cx="135" cy="587" r="20" fill="#fbbf24"/><text x="135" y="594" fill="#0a0e1a" font-size="22" font-weight="700" text-anchor="middle">5</text>
    <text x="180" y="578" fill="#f1f5f9" font-size="21" font-weight="700">8.6세대 IT용 OLED 투자</text>
    <text x="180" y="610" fill="#94a3b8" font-size="16">노트북·태블릿용 차세대 라인 — 경쟁사가 먼저 깔면 또 한 번 좌표를 놓친다</text>
  </g>
  <text x="540" y="678" fill="#fbbf24" font-size="17" font-weight="700" text-anchor="middle">다음 페이지를 누가 쓰느냐 — 그것이 이 회사의 진짜 시험이다</text>
</svg>
