<svg xmlns="http://www.w3.org/2000/svg" viewBox="0 0 1080 720" font-family="-apple-system, 'Segoe UI', sans-serif">
  <title>아모레퍼시픽 — 2026년에 봐야 할 다섯 가지</title>
  <desc>북미 매출 비중, 중국 흑자 지속, 영업이익률 두 자릿수 복귀, CAPEX 재개, 코스알엑스 통합 마진 — 다음 1년 체크포인트 5가지.</desc>
  <rect width="1080" height="720" fill="#0a0e1a"/>
  <text x="540" y="58" fill="#f1f5f9" font-size="32" font-weight="700" text-anchor="middle">2026년에 봐야 할 다섯 가지</text>
  <text x="540" y="92" fill="#64748b" font-size="17" text-anchor="middle">무엇이 깨지면(또는 풀리면) 이 이야기가 바뀌는가</text>

  <g>
    <rect x="90" y="125" width="900" height="92" rx="10" fill="#11161f" stroke="#334155" stroke-width="1.5"/>
    <circle cx="135" cy="171" r="20" fill="#fbbf24"/><text x="135" y="178" fill="#0a0e1a" font-size="22" font-weight="700" text-anchor="middle">1</text>
    <text x="180" y="162" fill="#f1f5f9" font-size="21" font-weight="700">북미 매출 비중</text>
    <text x="180" y="194" fill="#94a3b8" font-size="16">라네즈·코스알엑스가 연결 매출에서 커지는가 — 중국 의존을 실제로 대체하는지의 1차 지표</text>

    <rect x="90" y="229" width="900" height="92" rx="10" fill="#11161f" stroke="#334155" stroke-width="1.5"/>
    <circle cx="135" cy="275" r="20" fill="#fbbf24"/><text x="135" y="282" fill="#0a0e1a" font-size="22" font-weight="700" text-anchor="middle">2</text>
    <text x="180" y="266" fill="#f1f5f9" font-size="21" font-weight="700">중국 영업손익의 흑자 지속</text>
    <text x="180" y="298" fill="#94a3b8" font-size="16">8개 분기 만에 돌아온 흑자가 반등인지 반짝인지 · 설화수 중국이 바닥을 다지는지</text>

    <rect x="90" y="333" width="900" height="92" rx="10" fill="#11161f" stroke="#334155" stroke-width="1.5"/>
    <circle cx="135" cy="379" r="20" fill="#fbbf24"/><text x="135" y="386" fill="#0a0e1a" font-size="22" font-weight="700" text-anchor="middle">3</text>
    <text x="180" y="370" fill="#f1f5f9" font-size="21" font-weight="700">영업이익률 두 자릿수 복귀 여부</text>
    <text x="180" y="402" fill="#94a3b8" font-size="16">2025년 7.9%가 10%를 넘어 정점(15%)에 다가가는가 — 매출총이익률(73%)과의 격차 축소가 핵심</text>

    <rect x="90" y="437" width="900" height="92" rx="10" fill="#11161f" stroke="#334155" stroke-width="1.5"/>
    <circle cx="135" cy="483" r="20" fill="#fbbf24"/><text x="135" y="490" fill="#0a0e1a" font-size="22" font-weight="700" text-anchor="middle">4</text>
    <text x="180" y="474" fill="#f1f5f9" font-size="21" font-weight="700">CAPEX 동결 해제</text>
    <text x="180" y="506" fill="#94a3b8" font-size="16">646억까지 줄어든 설비투자가 다시 늘면, 회사가 미래 수요를 다시 확신한다는 신호다</text>

    <rect x="90" y="541" width="900" height="92" rx="10" fill="#11161f" stroke="#334155" stroke-width="1.5"/>
    <circle cx="135" cy="587" r="20" fill="#fbbf24"/><text x="135" y="594" fill="#0a0e1a" font-size="22" font-weight="700" text-anchor="middle">5</text>
    <text x="180" y="578" fill="#f1f5f9" font-size="21" font-weight="700">코스알엑스 통합 마진</text>
    <text x="180" y="610" fill="#94a3b8" font-size="16">인수한 미국 브랜드가 본체 수준(70%대 매출총이익률)을 지키는가, 아니면 마진을 희석하는가</text>
  </g>
  <text x="540" y="678" fill="#fbbf24" font-size="17" font-weight="700" text-anchor="middle">세 번째 발명은 새 제품이 아니라, 파는 길을 스스로 쥐는 법이어야 한다</text>
</svg>
