<svg xmlns="http://www.w3.org/2000/svg" viewBox="0 0 800 400" font-family="-apple-system, 'Segoe UI', sans-serif">
  <rect width="800" height="400" fill="#0a0e1a"/>
  <text x="400" y="40" text-anchor="middle" fill="#f1f5f9" font-size="18" font-weight="bold">쿠팡 현금흐름 패턴 — OCF가 이익의 12배</text>
  <text x="400" y="65" text-anchor="middle" fill="#64748b" font-size="13">2021~2024 | 단위: $M</text>

  <!-- Zero line -->
  <line x1="100" y1="230" x2="720" y2="230" stroke="#475569" stroke-width="1" stroke-dasharray="4,4"/>
  <text x="90" y="234" text-anchor="end" fill="#64748b" font-size="11">$0</text>

  <!-- Y labels -->
  <text x="90" y="130" text-anchor="end" fill="#64748b" font-size="11">$3,000</text>
  <text x="90" y="330" text-anchor="end" fill="#64748b" font-size="11">-$2,000</text>

  <!-- 2021 bars -->
  <rect x="140" y="230" width="30" height="14" fill="#ef4444" rx="2"/>
  <rect x="175" y="230" width="30" height="36" fill="#3b82f6" rx="2"/>
  <rect x="210" y="203" width="30" height="27" fill="#64748b" rx="2"/>
  <text x="190" y="350" text-anchor="middle" fill="#64748b" font-size="12">2021</text>

  <!-- 2022 bars: OCF 565, ICF -1506, FCF 3183 -->
  <rect x="290" y="211" width="30" height="19" fill="#22c55e" rx="2"/>
  <rect x="325" y="230" width="30" height="50" fill="#ef4444" rx="2"/>
  <rect x="360" y="124" width="30" height="106" fill="#3b82f6" rx="2"/>
  <text x="340" y="350" text-anchor="middle" fill="#64748b" font-size="12">2022</text>

  <!-- 2023 bars: OCF 2652, ICF -1016, FCF -1154 -->
  <rect x="440" y="142" width="30" height="88" fill="#22c55e" rx="2"/>
  <rect x="475" y="230" width="30" height="34" fill="#ef4444" rx="2"/>
  <rect x="510" y="230" width="30" height="38" fill="#3b82f6" rx="2"/>
  <text x="490" y="350" text-anchor="middle" fill="#64748b" font-size="12">2023</text>

  <!-- 2024 bars: OCF 1886, ICF -1880, FCF -87 -->
  <rect x="590" y="167" width="30" height="63" fill="#22c55e" rx="2"/>
  <rect x="625" y="230" width="30" height="63" fill="#ef4444" rx="2"/>
  <rect x="660" y="227" width="30" height="3" fill="#3b82f6" rx="2"/>
  <text x="640" y="350" text-anchor="middle" fill="#64748b" font-size="12">2024</text>

  <!-- Legend -->
  <rect x="200" y="375" width="12" height="12" fill="#22c55e"/>
  <text x="218" y="386" fill="#f1f5f9" font-size="11">Operating CF</text>
  <rect x="350" y="375" width="12" height="12" fill="#ef4444"/>
  <text x="368" y="386" fill="#f1f5f9" font-size="11">Investing CF</text>
  <rect x="500" y="375" width="12" height="12" fill="#3b82f6"/>
  <text x="518" y="386" fill="#f1f5f9" font-size="11">Financing CF</text>

  <!-- Annotation -->
  <text x="620" y="155" fill="#fbbf24" font-size="11" font-weight="bold">OCF $1,886M</text>
  <text x="620" y="305" fill="#ef4444" font-size="11">ICF -$1,880M</text>
</svg>
